<?xml version="1.0" encoding="UTF-8"?>
<svg width="18px" height="18px" viewBox="0 0 18 18" version="1.1" xmlns="http://www.w3.org/2000/svg" xmlns:xlink="http://www.w3.org/1999/xlink">
    <title>ic/change@2x</title>
    <g id="成绩" stroke="none" stroke-width="1" fill="none" fill-rule="evenodd">
        <g id="未复核成绩" transform="translate(-309.000000, -92.000000)">
            <g id="学期" transform="translate(0.000000, 88.000000)">
                <g id="btn/课程" transform="translate(305.000000, 0.000000)">
                    <g id="ic/change" transform="translate(4.000000, 4.000000)">
                        <rect id="矩形" x="0" y="0" width="18" height="18"></rect>
                        <path d="M13.5002998,9.74944209 C13.7764422,9.74944209 14.0002998,9.97329972 14.0002998,10.2494421 L14.0002998,10.7494421 C14.0002998,11.0255845 13.7764422,11.2494421 13.5002998,11.2494421 L6.40529981,11.2501466 L8.03511579,12.8800398 C8.23037793,13.0753019 8.23037793,13.3918844 8.03511579,13.5871466 L7.68156239,13.9407 C7.48630025,14.1359621 7.16971776,14.1359621 6.97445561,13.9407 L4.14602849,11.1122728 C4.05117246,11.0174168 4.00239636,10.8939304 3.99970019,10.7696302 L4.00029981,10.2494421 C4.00029981,9.97329972 4.22415743,9.74944209 4.50029981,9.74944209 L13.5002998,9.74944209 Z M11.0255444,4.05930005 L13.8539715,6.88772717 C13.9488275,6.9825832 13.9976036,7.10606963 14.0002998,7.23036984 L13.9997002,7.75055791 C13.9997002,8.02670028 13.7758426,8.25055791 13.4997002,8.25055791 L4.49970019,8.25055791 C4.22355782,8.25055791 3.99970019,8.02670028 3.99970019,7.75055791 L3.99970019,7.25055791 C3.99970019,6.97441553 4.22355782,6.75055791 4.49970019,6.75055791 L11.5947002,6.74985344 L9.96488421,5.11996022 C9.76962207,4.92469807 9.76962207,4.60811558 9.96488421,4.41285344 L10.3184376,4.05930005 C10.5136998,3.8640379 10.8302822,3.8640379 11.0255444,4.05930005 Z" id="形状结合" fill="#FC6C37"></path>
                    </g>
                </g>
            </g>
        </g>
    </g>
</svg>