<?xml version="1.0" encoding="UTF-8"?>
<svg width="16px" height="16px" viewBox="0 0 16 16" version="1.1" xmlns="http://www.w3.org/2000/svg" xmlns:xlink="http://www.w3.org/1999/xlink">
    <title>ICON/16/时间</title>
    <g id="S-跑步申诉" stroke="none" stroke-width="1" fill="none" fill-rule="evenodd">
        <g id="我的申诉-已处理" transform="translate(-24.000000, -302.000000)" fill-rule="nonzero">
            <g id="编组" transform="translate(12.000000, 284.000000)">
                <g id="ICON/16/时间" transform="translate(12.000000, 18.000000)">
                    <rect id="矩形" fill="#000000" opacity="0" x="0" y="0" width="16" height="16"></rect>
                    <path d="M8,15.5 C3.858,15.5 0.5,12.142 0.5,8 C0.5,3.858 3.858,0.5 8,0.5 C12.142,0.5 15.5,3.858 15.5,8 C15.5,12.142 12.142,15.5 8,15.5 Z" id="路径" fill="#999999"></path>
                    <path d="M8,14.25 C4.54833333,14.25 1.75,11.4516667 1.75,8 C1.75,4.54833333 4.54833333,1.75 8,1.75 C11.4516667,1.75 14.25,4.54833333 14.25,8 C14.25,11.4516667 11.4516667,14.25 8,14.25 Z" id="路径" fill="#FFFFFF"></path>
                    <polygon id="路径" fill="#999999" transform="translate(8.226763, 7.759237) rotate(45.000000) translate(-8.226763, -7.759237) " points="9.64366727 9.50814177 8.69816727 10.4531418 7.75316727 9.50814177 4.25535823 6.01083273 5.20085823 5.06533273 8.69816727 8.56264177 11.2526673 6.00814177 12.1981673 6.95364177"></polygon>
                </g>
            </g>
        </g>
    </g>
</svg>