<?xml version="1.0" encoding="UTF-8"?>
<svg width="16px" height="16px" viewBox="0 0 16 16" version="1.1" xmlns="http://www.w3.org/2000/svg" xmlns:xlink="http://www.w3.org/1999/xlink">
    <title>ICON/16/类型</title>
    <g id="S-跑步申诉" stroke="none" stroke-width="1" fill="none" fill-rule="evenodd">
        <g id="我的申诉-已处理" transform="translate(-24.000000, -328.000000)" fill-rule="nonzero">
            <g id="编组" transform="translate(12.000000, 284.000000)">
                <g id="ICON/16/类型" transform="translate(12.000000, 44.000000)">
                    <rect id="矩形" fill="#000000" opacity="0" x="0" y="0" width="16" height="16"></rect>
                    <polygon id="路径-2" fill="#979797" points="14.9202395 7.33086962 15.3699677 8.55060098 7.99639221 11.2693182 0.630032286 8.55052749 1.08015889 7.33094312 7.99564732 9.883"></polygon>
                    <polygon id="路径-2备份" fill="#979797" points="14.9202395 10.9435365 15.3699677 12.1632679 7.99639221 14.881985 0.630032286 12.1631944 1.08015889 10.94361 7.99564732 13.496"></polygon>
                    <path d="M8.11210684,1.49587591 L1.07948307,3.94651601 C0.537905039,4.13523829 0.530933575,4.89865348 1.06897477,5.09723479 L7.78506032,7.5760209 C7.92159837,7.62641464 8.07163666,7.62643915 8.20819117,7.57609002 L14.9310371,5.0973039 C15.4606904,4.90201497 15.4652186,4.154512 14.93797,3.9528207 L8.5316623,1.5021806 C8.39693484,1.45064256 8.24832205,1.44840935 8.11210684,1.49587591 Z M8.30343717,2.72368892 L12.9802579,4.51241062 L7.99497202,6.35097579 L3.08962374,4.53968346 L8.30343717,2.72368892 Z" id="路径-2备份-2" fill="#979797"></path>
                </g>
            </g>
        </g>
    </g>
</svg>