<?xml version="1.0" encoding="UTF-8"?>
<svg width="16px" height="17px" viewBox="0 0 16 17" version="1.1" xmlns="http://www.w3.org/2000/svg" xmlns:xlink="http://www.w3.org/1999/xlink">
    <title>ICON/16/成功</title>
    <g id="S-跑步申诉" stroke="none" stroke-width="1" fill="none" fill-rule="evenodd">
        <g id="申诉成功" transform="translate(-28.000000, -180.000000)" fill-rule="nonzero">
            <g id="ICON/16/成功" transform="translate(28.000000, 180.500000)">
                <rect id="矩形" fill="#000000" opacity="0" x="0" y="0" width="16" height="16"></rect>
                <path d="M8,15.5 C3.858,15.5 0.5,12.142 0.5,8 C0.5,3.858 3.858,0.5 8,0.5 C12.142,0.5 15.5,3.858 15.5,8 C15.5,12.142 12.142,15.5 8,15.5 Z" id="路径" fill="#50D066"></path>
                <path d="M8,14.25 C4.54833333,14.25 1.75,11.4516667 1.75,8 C1.75,4.54833333 4.54833333,1.75 8,1.75 C11.4516667,1.75 14.25,4.54833333 14.25,8 C14.25,11.4516667 11.4516667,14.25 8,14.25 Z" id="路径" fill="#FFFFFF"></path>
                <polygon id="路径" fill="#50D066" points="10.9245 5 12 6.102 6.752 11.225 4 8.5965 5.0635 7.4825 6.7405 9.0835"></polygon>
            </g>
        </g>
    </g>
</svg>