<?xml version="1.0" encoding="UTF-8"?>
<svg width="14px" height="14px" viewBox="0 0 14 14" version="1.1" xmlns="http://www.w3.org/2000/svg" xmlns:xlink="http://www.w3.org/1999/xlink">
    <title>ICON/18/提示</title>
    <g id="S-跑步申诉" stroke="none" stroke-width="1" fill="none" fill-rule="evenodd">
        <g id="申诉详情（有关联跑步数据）/申诉成功（更新数据）" transform="translate(-64.000000, -238.000000)" fill="#FFAB02" fill-rule="nonzero">
            <g id="编组-5备份-7" transform="translate(52.000000, 228.000000)">
                <g id="ICON/18/提示" transform="translate(12.000000, 10.000000)">
                    <path d="M7,0 C10.8659932,0 14,3.13400675 14,7 C14,10.8659932 10.8659932,14 7,14 C3.13400675,14 0,10.8659932 0,7 C0,3.13400675 3.13400675,0 7,0 Z M7,9.33333333 C6.57044519,9.33333333 6.22222222,9.68155631 6.22222222,10.1111111 C6.22222222,10.5406659 6.57044519,10.8888889 7,10.8888889 C7.42955481,10.8888889 7.77777778,10.5406659 7.77777778,10.1111111 C7.77777778,9.68155631 7.42955481,9.33333333 7,9.33333333 Z M7.27777778,3.88888889 L6.72222222,3.88888889 C6.44607985,3.88888889 6.22222222,4.11274651 6.22222222,4.38888889 L6.22222222,4.38888889 L6.22222222,8.05555556 C6.22222222,8.33169793 6.44607985,8.55555556 6.72222222,8.55555556 L6.72222222,8.55555556 L7.27777778,8.55555556 C7.55392015,8.55555556 7.77777778,8.33169793 7.77777778,8.05555556 L7.77777778,8.05555556 L7.77777778,4.38888889 C7.77777778,4.11274651 7.55392015,3.88888889 7.27777778,3.88888889 L7.27777778,3.88888889 Z" id="形状结合"></path>
                </g>
            </g>
        </g>
    </g>
</svg>