<?xml version="1.0" encoding="UTF-8"?>
<svg width="32px" height="32px" viewBox="0 0 32 32" version="1.1" xmlns="http://www.w3.org/2000/svg" xmlns:xlink="http://www.w3.org/1999/xlink">
    <title>设备数量</title>
    <g id="页面-1" stroke="none" stroke-width="1" fill="none" fill-rule="evenodd">
        <g id="首页" transform="translate(-1050.000000, -326.000000)">
            <g id="编组-3备份-2" transform="translate(836.000000, 302.000000)">
                <g id="设备数量" transform="translate(214.000000, 24.000000)">
                    <path d="M2,0 L30,0 C31.1045695,-2.02906125e-16 32,0.8954305 32,2 L32,30 C32,31.1045695 31.1045695,32 30,32 L2,32 C0.8954305,32 9.09629973e-13,31.1045695 9.09494702e-13,30 L9.09494702e-13,2 C9.09359431e-13,0.8954305 0.8954305,2.02906125e-16 2,0 Z" id="Rectangle-5备份-10"></path>
                    <path d="M2,0 L30,0 C31.1045695,-2.02906125e-16 32,0.8954305 32,2 L32,30 C32,31.1045695 31.1045695,32 30,32 L2,32 C0.8954305,32 9.09629973e-13,31.1045695 9.09494702e-13,30 L9.09494702e-13,2 C9.09359431e-13,0.8954305 0.8954305,2.02906125e-16 2,0 Z" id="Rectangle-5备份-5" fill="#FFEEF2"></path>
                    <g id="settings-5" transform="translate(8.000000, 8.000000)" fill="#FE5579" fill-rule="nonzero">
                        <path d="M0.107594408,9.30358496 C-0.0358648027,8.44041203 -0.0358648027,7.55947873 0.107594408,6.6963058 C0.988950736,6.71710005 1.78073183,6.2948168 2.0886467,5.55182222 C2.39656157,4.80802786 2.13503387,3.94906534 1.49681033,3.34203317 C2.00580006,2.62966058 2.62894858,2.00624183 3.34110043,1.49694329 C3.94893238,2.13516684 4.8078949,2.39669453 5.55168926,2.08877966 C6.29548362,1.78086479 6.71696709,0.988283922 6.69537306,0.107727373 C7.55906817,-0.0359091243 8.44055666,-0.0359091243 9.30425177,0.107727373 C9.28265774,0.989083701 9.70414121,1.78086479 10.4479356,2.08877966 C11.1917299,2.39669453 12.0506925,2.13516684 12.6577246,1.49694329 C13.3700972,2.00593302 13.993516,2.62908154 14.5028145,3.34123339 C13.864591,3.94906534 13.6030633,4.80802786 13.9109781,5.55182222 C14.218893,6.29561658 15.0114739,6.71710005 15.8920304,6.69550602 C16.0359899,7.55917444 16.0359899,8.44071632 15.8920304,9.30438474 C15.0106741,9.28279071 14.218893,9.70427418 13.9109781,10.4480685 C13.6030633,11.1918629 13.864591,12.0508254 14.5028145,12.6578576 C13.9938136,13.3702207 13.3706668,13.9936377 12.6585244,14.5029475 C12.0506925,13.8647239 11.1917299,13.6031962 10.4479356,13.9111111 C9.70414121,14.219026 9.28265774,15.0116068 9.30425177,15.8921634 C8.44058336,16.0361228 7.55904147,16.0361228 6.69537306,15.8921634 C6.71696709,15.0108071 6.29468384,14.219026 5.55168926,13.9111111 C4.8078949,13.6031962 3.94893238,13.8647239 3.34190021,14.5029475 C2.62952761,13.9939577 2.00610886,13.3708092 1.49681033,12.6586574 C2.13503387,12.0508254 2.39656157,11.1918629 2.0886467,10.4480685 C1.78073183,9.70427418 0.988150957,9.28279071 0.107594408,9.30438474 L0.107594408,9.30358496 Z M7.99981242,10.399282 C8.85701285,10.399282 9.64909872,9.94197107 10.0776989,9.19961372 C10.5062992,8.45725637 10.5062992,7.54263439 10.0776989,6.80027704 C9.64909872,6.05791969 8.85701285,5.60060873 7.99981242,5.60060873 C6.67469538,5.60060873 5.60047577,6.67482834 5.60047577,7.99994538 C5.60047577,9.32506242 6.67469538,10.399282 7.99981242,10.399282 L7.99981242,10.399282 Z" id="形状"></path>
                    </g>
                </g>
            </g>
        </g>
    </g>
</svg>