<?xml version="1.0" encoding="UTF-8"?>
<svg width="32px" height="32px" viewBox="0 0 32 32" version="1.1" xmlns="http://www.w3.org/2000/svg" xmlns:xlink="http://www.w3.org/1999/xlink">
    <title>作业队伍数量</title>
    <g id="页面-1" stroke="none" stroke-width="1" fill="none" fill-rule="evenodd">
        <g id="首页" transform="translate(-748.000000, -326.000000)">
            <rect fill="#F6F6F6" x="0" y="0" width="1440" height="800"></rect>
            <g id="编组-3备份" transform="translate(534.000000, 302.000000)">
                <path d="M2,0 L276,0 C277.104569,-2.02906125e-16 278,0.8954305 278,2 L278,116 C278,117.104569 277.104569,118 276,118 L2,118 C0.8954305,118 1.3527075e-16,117.104569 0,116 L0,2 C-1.3527075e-16,0.8954305 0.8954305,2.02906125e-16 2,0 Z" id="Rectangle-5备份" fill="#FFFFFF"></path>
                <g id="作业队伍数量" transform="translate(214.000000, 24.000000)">
                    <path d="M2,0 L30,0 C31.1045695,-2.02906125e-16 32,0.8954305 32,2 L32,30 C32,31.1045695 31.1045695,32 30,32 L2,32 C0.8954305,32 9.09629973e-13,31.1045695 9.09494702e-13,30 L9.09494702e-13,2 C9.09359431e-13,0.8954305 0.8954305,2.02906125e-16 2,0 Z" id="Rectangle-5备份-9"></path>
                    <path d="M2,0 L30,0 C31.1045695,-2.02906125e-16 32,0.8954305 32,2 L32,30 C32,31.1045695 31.1045695,32 30,32 L2,32 C0.8954305,32 9.09629973e-13,31.1045695 9.09494702e-13,30 L9.09494702e-13,2 C9.09359431e-13,0.8954305 0.8954305,2.02906125e-16 2,0 Z" id="Rectangle-5备份-5" fill="#E9F9F3"></path>
                    <g id="team" transform="translate(8.000000, 8.000000)" fill="#23C68C" fill-rule="nonzero">
                        <path d="M8.00000011,7.19999993 C10.2091391,7.19999993 12.0000001,8.99086092 12.0000001,11.1999999 L12.0000001,15.9999999 L4.00000011,15.9999999 L4.00000011,11.1999999 C4.00000011,8.99086092 5.7908611,7.19999993 8.00000011,7.19999993 L8.00000011,7.19999993 Z M2.63040012,9.60479991 C2.50309379,10.0342307 2.42788729,10.4774119 2.40640013,10.9247999 L2.40000013,11.1999999 L2.40000013,15.9999999 L7.41496755e-08,15.9999999 L7.41496755e-08,12.3999999 C-0.000326029154,10.9713233 1.07501356,9.77152153 2.49520013,9.61599991 L2.63120012,9.60479991 L2.63040012,9.60479991 L2.63040012,9.60479991 Z M13.3696,9.60479991 C14.8473634,9.69487352 15.9997824,10.919494 16,12.3999999 L16,15.9999999 L13.6,15.9999999 L13.6,11.1999999 C13.6,10.6455999 13.52,10.1103999 13.3696,9.60479991 L13.3696,9.60479991 Z M2.80000014,4.79999996 C3.90456961,4.79999996 4.80000014,5.69543045 4.80000014,6.79999996 C4.80000014,7.90456943 3.90456961,8.79999996 2.80000014,8.79999996 C1.69543063,8.79999996 0.800000141,7.90456943 0.800000141,6.79999996 C0.800000141,5.69543045 1.69543063,4.79999996 2.80000014,4.79999996 Z M13.2,4.79999996 C14.3045695,4.79999996 15.2,5.69543045 15.2,6.79999996 C15.2,7.90456943 14.3045695,8.79999996 13.2,8.79999996 C12.0954305,8.79999996 11.2,7.90456943 11.2,6.79999996 C11.2,5.69543045 12.0954305,4.79999996 13.2,4.79999996 Z M8.00000007,0 C9.76731126,0 11.2,1.43268879 11.2,3.19999997 C11.2,4.96731115 9.76731126,6.39999994 8.00000007,6.39999994 C6.23268889,6.39999994 4.8000001,4.96731115 4.8000001,3.19999997 C4.8000001,1.43268879 6.23268889,0 8.00000007,0 Z" id="形状"></path>
                    </g>
                </g>
            </g>
        </g>
    </g>
</svg>