<?xml version="1.0" encoding="UTF-8"?>
<svg width="32px" height="32px" viewBox="0 0 32 32" version="1.1" xmlns="http://www.w3.org/2000/svg" xmlns:xlink="http://www.w3.org/1999/xlink">
    <title>工具数量</title>
    <g id="页面-1" stroke="none" stroke-width="1" fill="none" fill-rule="evenodd">
        <g id="首页" transform="translate(-1352.000000, -326.000000)">
            <g id="编组-3备份-3" transform="translate(1138.000000, 302.000000)">
                <g id="工具数量" transform="translate(214.000000, 24.000000)">
                    <path d="M2,0 L30,0 C31.1045695,-2.02906125e-16 32,0.8954305 32,2 L32,30 C32,31.1045695 31.1045695,32 30,32 L2,32 C0.8954305,32 9.09629973e-13,31.1045695 9.09494702e-13,30 L9.09494702e-13,2 C9.09359431e-13,0.8954305 0.8954305,2.02906125e-16 2,0 Z" id="Rectangle-5备份-11"></path>
                    <path d="M2,0 L30,0 C31.1045695,-2.02906125e-16 32,0.8954305 32,2 L32,30 C32,31.1045695 31.1045695,32 30,32 L2,32 C0.8954305,32 9.09629973e-13,31.1045695 9.09494702e-13,30 L9.09494702e-13,2 C9.09359431e-13,0.8954305 0.8954305,2.02906125e-16 2,0 Z" id="Rectangle-5备份-5" fill="#E8EFFA"></path>
                    <g id="tools" transform="translate(8.000000, 8.000000)" fill="#296ED4" fill-rule="nonzero">
                        <path d="M2.10948057,0.184626659 C3.26462686,-0.22746607 4.55382284,0.062820929 5.42086113,0.930246982 C6.28789942,1.79767304 6.57760996,3.08699869 6.16500077,4.2419606 L16,14.0769598 L14.075623,15.9995231 L4.24062379,6.16633758 C3.08547751,6.57843031 1.79628152,6.28814331 0.92924323,5.42071726 C0.0622049401,4.5532912 -0.227505596,3.26396555 0.18510359,2.10900364 L2.21286369,4.13767061 C2.55310602,4.49721419 3.06180383,4.64354967 3.5410862,4.51975616 C4.02036858,4.39596264 4.39457133,4.02158338 4.51813881,3.54224267 C4.64170629,3.06290197 4.49513093,2.55427323 4.13542693,2.2142005 L2.10948057,0.182812921 L2.10948057,0.184626659 Z M11.5109962,1.89316871 L14.3966548,0.289823516 L15.6789682,1.57213692 L14.075623,4.45779553 L12.4722778,4.77882731 L10.5497146,6.70139056 L9.2664943,5.41998402 L11.1890575,3.49651391 L11.5109962,1.89316871 L11.5109962,1.89316871 Z M5.09852229,8.94679932 L7.02108554,10.8711763 L2.53208174,15.3601801 C2.01731242,15.8653203 1.19777544,15.8809056 0.664172512,15.3957026 C0.130569581,14.9104996 0.0683934109,14.093176 0.522459027,13.5328382 L0.610425364,13.4358031 L5.09942916,8.94679932 L5.09852229,8.94679932 L5.09852229,8.94679932 Z" id="形状"></path>
                    </g>
                </g>
            </g>
        </g>
    </g>
</svg>