<?xml version="1.0" encoding="UTF-8"?>
<svg width="32px" height="32px" viewBox="0 0 32 32" version="1.1" xmlns="http://www.w3.org/2000/svg" xmlns:xlink="http://www.w3.org/1999/xlink">
    <title>作业井数量</title>
    <g id="页面-1" stroke="none" stroke-width="1" fill="none" fill-rule="evenodd">
        <g id="首页" transform="translate(-446.000000, -326.000000)">
            <g id="编组-3" transform="translate(232.000000, 302.000000)">
                <g id="作业井数量" transform="translate(214.000000, 24.000000)">
                    <polygon id="Rectangle-5备份-8" points="9.09494702e-13 9.24026001e-12 32 9.24026001e-12 32 32 9.09494702e-13 32"></polygon>
                    <path d="M2,0 L30,0 C31.1045695,-2.02906125e-16 32,0.8954305 32,2 L32,30 C32,31.1045695 31.1045695,32 30,32 L2,32 C0.8954305,32 9.09629973e-13,31.1045695 9.09494702e-13,30 L9.09494702e-13,2 C9.09359431e-13,0.8954305 0.8954305,2.02906125e-16 2,0 Z" id="Rectangle-5备份-5" fill="#F0EFFB"></path>
                    <g id="gradienter" transform="translate(8.000000, 8.000000)" fill="#6C5DD3" fill-rule="nonzero">
                        <path d="M8,16 C3.5816,16 0,12.4184 0,8 C0,3.5816 3.5816,0 8,0 C12.4184,0 16,3.5816 16,8 C16,12.4184 12.4184,16 8,16 Z M4.9008,7.2 L1.6496,7.2 C1.58333042,7.73127474 1.58333042,8.26872526 1.6496,8.8 L4.9008,8.8 C4.76555999,8.27524004 4.76555999,7.72475996 4.9008,7.2 L4.9008,7.2 Z M11.0992,7.2 C11.2344052,7.72476438 11.2344052,8.27523562 11.0992,8.8 L14.3504,8.8 C14.4166365,8.2687232 14.4166365,7.7312768 14.3504,7.2 L11.0992,7.2 Z M8,9.6 C8.8836556,9.6 9.6,8.8836556 9.6,8 C9.6,7.1163444 8.8836556,6.4 8,6.4 C7.1163444,6.4 6.4,7.1163444 6.4,8 C6.4,8.8836556 7.1163444,9.6 8,9.6 Z" id="形状"></path>
                    </g>
                </g>
            </g>
        </g>
    </g>
</svg>