<?xml version="1.0" encoding="UTF-8"?>
<svg width="22px" height="22px" viewBox="0 0 22 22" version="1.1" xmlns="http://www.w3.org/2000/svg" xmlns:xlink="http://www.w3.org/1999/xlink">
    <title>ic/22/close@2x</title>
    <g id="页面-1" stroke="none" stroke-width="1" fill="none" fill-rule="evenodd">
        <g id="查看答题卡" transform="translate(-337.000000, -146.000000)">
            <g id="标题" transform="translate(0.000000, 132.000000)">
                <g id="ic/22/close" transform="translate(337.000000, 14.000000)">
                    <rect id="矩形" x="0" y="0" width="22" height="22"></rect>
                    <path d="M6.39106483,4.28128952 L6.40946698,4.29876478 L6.40946698,4.29876478 L11.0888819,8.97447276 L15.6940342,4.36612885 C15.8822395,4.17775451 16.1850578,4.16993121 16.3827388,4.34833617 L17.8636973,5.68488503 C18.0686984,5.86989628 18.0849034,6.18606375 17.8998921,6.39106485 L17.8824169,6.409467 L17.8824169,6.409467 L13.2058819,11.0894728 L17.9056436,15.784625 C18.0940179,15.9728303 18.1018412,16.2756486 17.9234363,16.4733296 L16.5868874,17.9542881 C16.4018761,18.1592892 16.0857087,18.1754942 15.8807076,17.9904829 L15.8623054,17.9730077 L15.8623054,17.9730077 L11.0908819,13.2054728 L6.39655661,17.9056438 C6.20835132,18.0940181 5.90553308,18.1018414 5.70785205,17.9234364 L4.22689353,16.5868876 C4.02189243,16.4018763 4.00568746,16.0857089 4.1906987,15.8807078 C4.19636716,15.8744269 4.20219412,15.8682908 4.20817396,15.8623056 L8.97388194,11.0904728 L4.36612881,6.48714741 C4.17775448,6.29894212 4.16993117,5.99612388 4.34833614,5.79844285 L5.68488501,4.31748434 C5.86989626,4.11248324 6.18606373,4.09627827 6.39106483,4.28128952 Z" id="形状结合" fill="#38364D" fill-rule="nonzero"></path>
                </g>
            </g>
        </g>
    </g>
</svg>