<?xml version="1.0" encoding="UTF-8"?>
<svg width="24px" height="24px" viewBox="0 0 24 24" version="1.1" xmlns="http://www.w3.org/2000/svg" xmlns:xlink="http://www.w3.org/1999/xlink">
    <title>ic/info@2x</title>
    <g id="页面-1" stroke="none" stroke-width="1" fill="none" fill-rule="evenodd">
        <g id="理论考试-默认" transform="translate(-16.000000, -731.000000)">
            <g id="按钮/吸地按钮" transform="translate(0.000000, 708.000000)">
                <g id="ic/info" transform="translate(16.000829, 23.000000)">
                    <rect id="矩形" fill-rule="nonzero" x="0" y="0" width="24" height="24"></rect>
                    <path d="M12,19.5 C14.07105,19.5 15.94605,18.660525 17.3032875,17.3032875 C18.660525,15.94605 19.5,14.07105 19.5,12 C19.5,9.92895 18.660525,8.05395 17.3032875,6.6966975 C15.94605,5.3394675 14.07105,4.5 12,4.5 C9.92895,4.5 8.05395,5.3394675 6.6966975,6.6966975 C5.3394675,8.05395 4.5,9.92895 4.5,12 C4.5,14.07105 5.3394675,15.94605 6.6966975,17.3032875 C8.05395,18.660525 9.92895,19.5 12,19.5 Z" id="路径" fill="#FC6C37" fill-rule="nonzero"></path>
                    <path d="M12.1875,9.75 C12.5721269,9.75 12.8891304,10.0395301 12.9324542,10.4125342 L12.9375,10.5 L12.937,15 L13.5,15 L13.5,16.5 L10.875,16.5 L10.875,15 L11.437,15 L11.4375,9.75 L12.1875,9.75 Z M12,7.125 C12.5177625,7.125 12.9375,7.5447375 12.9375,8.0625 C12.9375,8.5802625 12.5177625,9 12,9 C11.4822375,9 11.0625,8.5802625 11.0625,8.0625 C11.0625,7.5447375 11.4822375,7.125 12,7.125 Z" id="形状结合" fill="#FFFFFF"></path>
                </g>
            </g>
        </g>
    </g>
</svg>