<?xml version="1.0" encoding="UTF-8"?>
<svg width="375px" height="230px" viewBox="0 0 375 230" version="1.1" xmlns="http://www.w3.org/2000/svg" xmlns:xlink="http://www.w3.org/1999/xlink">
    <title>考试结果@2x</title>
    <defs>
        <linearGradient x1="11.5974399%" y1="21.5194726%" x2="94.3635375%" y2="72.9133418%" id="linearGradient-1">
            <stop stop-color="#FFFFFF" stop-opacity="0" offset="0%"></stop>
            <stop stop-color="#FFFFFF" stop-opacity="0.1" offset="100%"></stop>
        </linearGradient>
        <linearGradient x1="22.3261079%" y1="26.2683255%" x2="100%" y2="50%" id="linearGradient-2">
            <stop stop-color="#FFFFFF" stop-opacity="0.111143739" offset="0%"></stop>
            <stop stop-color="#FFFFFF" stop-opacity="0" offset="100%"></stop>
        </linearGradient>
        <linearGradient x1="68.711407%" y1="15.5009074%" x2="56.5811147%" y2="95.5044832%" id="linearGradient-3">
            <stop stop-color="#E34308" offset="0%"></stop>
            <stop stop-color="#F0622E" stop-opacity="0.7167559" offset="63.68261%"></stop>
            <stop stop-color="#E75F2D" stop-opacity="0.227463942" offset="81.4990409%"></stop>
            <stop stop-color="#DF4E19" stop-opacity="0" offset="100%"></stop>
        </linearGradient>
        <path d="M104.226071,5.41377638 C108.267459,8.64027206 110.879034,16.3959822 96.8115676,26.9162012 C82.744101,37.4364201 59.9590949,48.7503321 51.6720562,66.1632056 C43.3850175,83.5760792 41.3304856,109.604697 41.3304856,123.254658 C40.2117885,123.337444 36.28401,123.425005 29.5471502,123.517339 L0,38.3612548 C56.1565722,12.4305634 84.5513134,-0.354036453 85.1842235,0.0074552333 C86.1335886,0.549692763 96.8383751,0.549692763 104.226071,5.41377638 Z" id="path-4"></path>
        <linearGradient x1="86.716876%" y1="18.9881609%" x2="2.21904664%" y2="89.0688561%" id="linearGradient-6">
            <stop stop-color="#D03A02" offset="0%"></stop>
            <stop stop-color="#DB4610" offset="100%"></stop>
        </linearGradient>
        <filter x="-9.4%" y="-10.6%" width="118.8%" height="121.2%" filterUnits="objectBoundingBox" id="filter-7">
            <feGaussianBlur stdDeviation="2.912" in="SourceGraphic"></feGaussianBlur>
        </filter>
        <linearGradient x1="83.4363885%" y1="16.0667741%" x2="12.1470189%" y2="79.6850796%" id="linearGradient-8">
            <stop stop-color="#FF9C77" offset="0%"></stop>
            <stop stop-color="#F88155" offset="100%"></stop>
        </linearGradient>
        <path d="M10.3047514,87.766831 C17.7188419,92.8437081 28.5900528,80.6623695 42.9183843,51.2228151 C64.8817575,13.6503079 89.7296179,9.58373033 99.6716123,16.0590814 C95.3717807,12.4932995 84.3425918,7.14027241 66.5840457,0 C26.504234,29.960343 4.6905696,51.3487408 1.14305231,64.1651934 C-1.90700645,74.8647459 1.14689325,82.7319585 10.3047514,87.766831 Z" id="path-9"></path>
        <linearGradient x1="75.619726%" y1="11.2513459%" x2="33.5029015%" y2="93.9426869%" id="linearGradient-11">
            <stop stop-color="#F88155" offset="0%"></stop>
            <stop stop-color="#E35622" offset="100%"></stop>
        </linearGradient>
        <filter x="-11.2%" y="-8.5%" width="122.4%" height="117.0%" filterUnits="objectBoundingBox" id="filter-12">
            <feGaussianBlur stdDeviation="2.912" in="SourceGraphic"></feGaussianBlur>
        </filter>
        <linearGradient x1="55.2636181%" y1="40.5768361%" x2="29.4206105%" y2="87.7686711%" id="linearGradient-13">
            <stop stop-color="#FFCFBD" offset="0%"></stop>
            <stop stop-color="#FF8F66" offset="100%"></stop>
        </linearGradient>
        <path d="M79.0254141,0 L157.014218,28.6320073 L155.957037,22.0723172 C177.77655,31.992937 162.182888,62.5926974 109.17605,113.871598 C69.0446115,148.83358 66.8709122,168.290954 76.5607341,175.674712 C64.1008123,168.940369 40.9417121,155.254939 7.08343364,134.618423 C-3.31055031,118.279713 -2.26570658,102.686023 10.2179648,87.8373558 C43.1000239,53.0466218 66.0358403,23.7675032 79.0254141,0 Z" id="path-14"></path>
        <filter x="-71.6%" y="-48.9%" width="243.2%" height="197.7%" filterUnits="objectBoundingBox" id="filter-16">
            <feGaussianBlur stdDeviation="9.1" in="SourceGraphic"></feGaussianBlur>
        </filter>
        <linearGradient x1="96.9126369%" y1="46.6753352%" x2="66.8778769%" y2="64.6111289%" id="linearGradient-17">
            <stop stop-color="#FFAA8C" offset="0%"></stop>
            <stop stop-color="#FFC1AB" offset="100%"></stop>
        </linearGradient>
        <linearGradient x1="50.791193%" y1="26.1871102%" x2="58.6953563%" y2="35.9047145%" id="linearGradient-18">
            <stop stop-color="#FFE1D6" offset="0%"></stop>
            <stop stop-color="#FFBFA8" offset="100%"></stop>
        </linearGradient>
    </defs>
    <g id="理论考试" stroke="none" stroke-width="1" fill="none" fill-rule="evenodd">
        <g id="bg" transform="translate(-20.611111, -17.000000)">
            <rect id="矩形" fill="#FC6C37" x="20.6111111" y="17" width="375" height="230"></rect>
            <circle id="椭圆形" fill="url(#linearGradient-1)" cx="172.111111" cy="71.1111111" r="71.1111111"></circle>
            <circle id="椭圆形" fill="url(#linearGradient-2)" cx="71.1111111" cy="131.888889" r="71.1111111"></circle>
            <g id="pic" transform="translate(221.611111, 58.000000)">
                <g id="编组-7">
                    <g id="路径-3" transform="translate(61.566070, 98.482661)">
                        <mask id="mask-5" fill="white">
                            <use xlink:href="#path-4"></use>
                        </mask>
                        <use id="蒙版" fill="url(#linearGradient-3)" xlink:href="#path-4"></use>
                        <path d="M19.5571217,77.1920509 C26.7316027,79.3351098 36.9798859,66.8192299 50.3019711,39.6444113 C53.6253627,30.2726426 87.9658881,-5.23948625 104.226071,9.26997381 C107.404973,12.911754 107.404973,16.9879875 104.226071,21.4986742 C114.162543,13.1590522 115.231829,5.99282744 107.43393,7.54951657e-14 C70.1451893,-16.4223657 40.8529199,9.30831794 19.5571217,77.1920509 Z" fill="url(#linearGradient-6)" filter="url(#filter-7)" mask="url(#mask-5)"></path>
                    </g>
                    <g id="路径-2" transform="translate(66.120529, 87.837356)">
                        <mask id="mask-10" fill="white">
                            <use xlink:href="#path-9"></use>
                        </mask>
                        <use id="蒙版" fill="url(#linearGradient-8)" xlink:href="#path-9"></use>
                        <path d="M27.3675342,80.0497615 C17.8066626,87.2051944 11.9349116,88.9928294 9.75228107,85.4126663 C6.47833531,80.0424218 3.93535601,67.1578449 41.6518481,30.0736844 C61.4594397,12.0523422 72.0494874,2.02778074 73.4219912,3.19744231e-13 L53.3115179,-10.741495 C13.6705172,21.1182581 -5.61814169,47.4433874 -4.55445871,68.233893 C-3.1257381,95.5169359 7.51492619,99.4555588 27.3675342,80.0497615 Z" id="shadow" fill-opacity="0.5" fill="url(#linearGradient-11)" filter="url(#filter-12)" mask="url(#mask-10)"></path>
                    </g>
                    <mask id="mask-15" fill="white">
                        <use xlink:href="#path-14"></use>
                    </mask>
                    <use id="路径-7备份" fill="url(#linearGradient-13)" xlink:href="#path-14"></use>
                    <polygon id="shadow" fill="#FFAA8A" filter="url(#filter-16)" mask="url(#mask-15)" points="138.421706 19.5163566 176.560548 34.3437335 148.460899 75.3846677"></polygon>
                    <path d="M83.2600132,14.9204475 L153.822618,40.8470396 C143.889397,57.8400219 135.043953,69.9229623 127.286285,77.0958609 C122.431069,74.7422057 75.2255454,54.4319318 59.1993721,46.5453118 C69.6817787,36.4182008 77.7019924,25.8765794 83.2600132,14.9204475 Z" id="路径-10" fill="url(#linearGradient-17)" mask="url(#mask-15)"></path>
                    <path d="M155.458624,21.1792465 C156.058917,24.0189655 156.577448,26.5032191 157.014218,28.6320073 C161.056613,48.334389 153.363454,63.563556 141.028493,80.6615487 C156.755755,67.6083846 170.272703,40.577836 169.052918,34.8571514 C167.55858,29.0312513 163.027149,24.4719496 155.458624,21.1792465 Z" id="路径-11" fill="url(#linearGradient-18)" mask="url(#mask-15)"></path>
                </g>
                <path d="M52.9486773,52.5866215 L120.771153,83.6927553 C119.635421,85.1464733 117.902376,87.080028 115.572017,89.4934197 C110.7168,87.1397645 64.6003508,64.9399257 48.5741775,57.0533057 C50.5421033,55.0974326 52.0002699,53.6085379 52.9486773,52.5866215 Z" id="路径-10" fill="#FFC1AB"></path>
                <path d="M44.0455655,62.2081497 L111.868042,93.3142835 C110.73231,94.7680014 108.999264,96.7015562 106.668905,99.1149478 C101.813689,96.7612927 55.697239,74.5614539 39.6710657,66.6748339 C41.6389915,64.7189608 43.0971581,63.230066 44.0455655,62.2081497 Z" id="路径-10备份" fill="#FFBAA1"></path>
                <path d="M35.1432462,71.0400206 L74.7801282,89.4934197 C73.6443963,90.9471376 71.9113508,92.8806924 69.5809915,95.294084 C64.7257753,92.9404288 47.4043146,83.7920383 31.3781413,75.9054183 C32.5165754,73.8380302 33.7716104,72.216231 35.1432462,71.0400206 Z" id="路径-10备份-2" fill="#FFB194"></path>
                <path d="M112.69788,55.9860645 C113.861386,55.9853949 115.027359,56.0116562 116.189925,56.0571911 C117.351356,56.1091506 118.517525,56.1751919 119.678016,56.2733559 C120.254757,56.3218214 120.838507,56.3715198 121.419986,56.4340673 C122.001464,56.4966147 122.575935,56.5579293 123.154007,56.6397503 L123.123155,56.7734324 C122.543007,56.7442404 121.967596,56.7291304 121.385178,56.7127874 C120.809767,56.6976774 120.226213,56.6877589 119.648531,56.6854979 C118.493169,56.6809758 117.33667,56.6828783 116.181503,56.7181362 C115.027471,56.7469696 113.878176,56.789885 112.731348,56.8597312 C112.446676,56.8758949 112.154997,56.8908256 111.86919,56.9134138 L111.012906,56.9747538 C110.441292,57.0199302 109.869679,57.0651065 109.302803,57.1243647 C108.730054,57.1759656 108.167915,57.2493058 107.598768,57.3214131 C107.035494,57.4011777 106.471084,57.4873669 105.912547,57.5812135 L102.563596,58.1314439 C101.446522,58.3191371 100.33532,58.5144876 99.2371948,58.7585084 C98.1320615,59.0012963 97.0352672,59.2786726 95.9257875,59.5869386 L95.8598572,59.4693519 C96.7914347,58.8184489 97.827585,58.3118034 98.9014377,57.8780332 C99.9752904,57.4442629 101.095184,57.1179562 102.234028,56.8479771 C102.519639,56.7856089 102.799377,56.7155834 103.090861,56.6608726 C103.375337,56.604929 103.665685,56.5566427 103.956034,56.5083565 C104.53446,56.424633 105.11175,56.347334 105.699651,56.2917744 C105.992466,56.2704191 106.280543,56.2349818 106.572223,56.2200511 L107.449531,56.1624096 L108.324569,56.1176173 C108.617384,56.096262 108.907928,56.0877557 109.199607,56.0728249 C109.782966,56.0429633 110.364054,56.0259508 110.945142,56.0089383 L111.822646,55.9910768 C112.11319,55.9825706 112.408471,55.9881462 112.69788,55.9860645 Z M114.838419,52.2152868 C116.257624,52.2397266 117.671152,52.296289 119.084875,52.3926315 C120.498599,52.4889739 121.907781,52.6110144 123.318489,52.8061904 L123.290298,53.0065834 C122.592343,52.9897883 121.883973,52.9910338 121.181477,52.9999368 C120.47898,53.0088397 119.776483,53.0177427 119.078724,53.0407275 C117.676196,53.0854643 116.284279,53.1519405 114.885549,53.2569637 C113.496098,53.3503708 112.107978,53.4771333 110.722325,53.6308268 C109.337806,53.7780958 107.963898,53.9471041 106.597193,54.1571252 C105.231624,54.3607218 103.874589,54.6386867 102.536308,54.9331992 C101.198026,55.2277117 99.8502706,55.4940605 98.5059211,55.7411356 C98.1701176,55.8012983 97.8284414,55.8538036 97.4915025,55.9203908 C97.155699,55.9805534 96.81876,56.0471406 96.4759484,56.1060704 C96.1331367,56.1650002 95.8020705,56.2392448 95.4603943,56.29175 C95.1175826,56.3506798 94.7817791,56.4108425 94.437832,56.4761968 C94.2652908,56.5120862 94.0950204,56.5351266 93.9294873,56.5722489 L93.4152698,56.6606436 C93.0713227,56.7259979 92.7343838,56.7925851 92.384564,56.850282 L91.8633385,56.9374439 C91.6919326,56.9669088 91.5193914,57.0027982 91.3409774,57.0310302 C90.9911577,57.0887272 90.6413379,57.1464241 90.2867809,57.1900392 L90.1982999,56.9956184 C90.4914683,56.8087186 90.7846367,56.6218188 91.0895505,56.4502338 C91.2420074,56.3644413 91.3874561,56.2774159 91.539913,56.1916234 L92.0020209,55.9483277 C92.3116719,55.7908246 92.628331,55.6345543 92.9438547,55.4847086 L93.4224452,55.2708096 L93.4224452,55.2708096 L93.6651025,55.1652796 L93.6651025,55.1652796 L93.9069083,55.064568 C94.0699751,55.0005148 94.2271692,54.9288042 94.390236,54.8647509 L94.8853091,54.6802486 C95.2103073,54.5585667 95.5423135,54.4381176 95.8801925,54.3253259 L96.8845503,53.998567 L96.8845503,53.998567 C97.2212938,53.8921998 97.5627745,53.7999146 97.9042553,53.7076293 C98.245736,53.615344 98.5872167,53.5230588 98.9334347,53.4448554 C99.2796527,53.366652 99.6247352,53.2948732 99.9698177,53.2230943 C100.3149,53.1513155 100.670593,53.1012759 101.020412,53.043579 L101.547511,52.9640746 L102.079346,52.898652 L103.140746,52.7806559 L103.140746,52.7806559 L104.205748,52.6831663 C104.55917,52.6459758 104.917328,52.6228672 105.269615,52.5921012 C105.621901,52.5613352 105.975322,52.5241447 106.333481,52.5010361 C107.749633,52.379205 109.164846,52.3035784 110.58366,52.2484582 C112.000204,52.2061871 113.418078,52.1972715 114.838419,52.2152868 Z M109.114094,30.5172807 C109.759402,30.6717388 110.10994,31.0863367 110.181641,31.7610744 C110.643714,31.9724381 110.970352,32.3138716 111.185455,32.7853751 C111.392591,33.2568786 111.496159,33.9560045 111.496159,34.8827527 C111.496159,36.2891338 111.217322,37.8011967 110.667615,39.4189415 C110.117907,41.0448156 109.34513,42.5650079 108.35725,43.9876477 C107.36937,45.4102876 106.230122,46.5890463 104.955438,47.5076651 C103.521419,48.5400952 102.342336,49.0603749 101.426157,49.0603749 C100.717114,49.0603749 100.047905,48.8408819 99.41853,48.4018959 C98.7971217,47.9629099 98.2952149,47.3369484 97.9287433,46.5240113 C97.554305,45.7110743 97.3710692,44.7680673 97.3710692,43.6787316 C97.3710692,42.1666687 97.7773746,40.5733121 98.5899856,38.9067911 C99.4025965,37.2402702 100.438277,35.7363366 101.689061,34.3868611 C102.939844,33.045515 104.246395,32.0049555 105.608713,31.2814416 C106.971032,30.5579276 108.134181,30.2977877 109.114094,30.5172807 Z M123.979917,30.5172807 C124.625226,30.6717388 124.975764,31.0863367 125.047465,31.7610744 C125.509538,31.9724381 125.836176,32.3138716 126.051279,32.7853751 C126.258415,33.2568786 126.361983,33.9560045 126.361983,34.8827527 C126.361983,36.2891338 126.083146,37.8011967 125.533438,39.4189415 C124.983731,41.0448156 124.210954,42.5650079 123.223074,43.9876477 C122.235194,45.4102876 121.095945,46.5890463 119.821261,47.5076651 C118.387242,48.5400952 117.20816,49.0603749 116.291981,49.0603749 C115.582938,49.0603749 114.913729,48.8408819 114.284354,48.4018959 C113.662945,47.9629099 113.161039,47.3369484 112.794567,46.5240113 C112.420129,45.7110743 112.236893,44.7680673 112.236893,43.6787316 C112.236893,42.1666687 112.643198,40.5733121 113.455809,38.9067911 C114.26842,37.2402702 115.304101,35.7363366 116.554884,34.3868611 C117.805668,33.045515 119.112219,32.0049555 120.474537,31.2814416 C121.836855,30.5579276 123.000004,30.2977877 123.979917,30.5172807 Z M96.566425,29.7124731 C97.1001989,30.5091514 97.3710692,31.2733122 97.3710692,31.9968262 C97.3710692,32.3951653 97.2914014,32.8341513 97.1240992,33.3219136 C96.9567969,33.8096758 96.7337273,34.3706024 96.4469234,34.9965639 C96.1601196,35.6225254 95.8016147,36.4110744 95.371409,37.3540814 C94.2162268,39.9554799 93.3558152,42.0935044 92.7901743,43.7844134 C92.2165665,45.4753225 91.9377295,46.6215638 91.9377295,47.2231372 C91.9377295,47.2719134 91.9695966,47.4670183 92.0412975,47.8084519 C92.1129985,48.1498854 92.1448656,48.4018959 92.1448656,48.5726127 C92.1448656,48.86527 92.0651978,49.0197281 91.9058624,49.0359868 C91.7465269,49.0522455 91.5154904,48.99534 91.2286866,48.8571407 C90.4798099,48.4750602 89.9779031,48.1173679 89.7229663,47.7840637 C89.4680296,47.4426302 89.3405612,47.0036442 89.3405612,46.4671057 C89.3405612,45.4997106 89.6831325,44.0039064 90.3762418,41.9715638 C90.7267798,40.9472631 91.1410521,39.9229624 91.603125,38.9067911 C92.0731646,37.8906198 92.5910049,36.8663191 93.1646126,35.8257597 C93.7382203,34.7852003 94.2719942,33.8259345 94.7818677,32.9479625 C93.6585526,33.419466 92.5033704,34.0454276 91.2924208,34.8177178 L91.2924208,33.5901828 C91.6429588,33.2731374 92.0014636,32.9642213 92.3599685,32.6634346 C92.7184733,32.3626479 93.1247788,32.037473 93.5709181,31.6960395 C94.0170574,31.3464765 94.4711635,31.0131723 94.9491699,30.6961269 C95.4192096,30.3790814 95.9609502,30.0457773 96.566425,29.7124731 Z M109.026459,33.2731374 C108.715755,33.2812667 107.719908,33.419466 107.329536,33.5983122 C106.939164,33.769029 106.246055,34.1917562 105.807883,34.4762842 C105.36971,34.7689415 104.867803,35.1754101 104.294196,35.7038191 C103.720588,36.2322282 103.12308,36.8907072 102.501671,37.6873855 C101.489891,39.0124729 100.717114,40.2969135 100.207241,41.5325778 C99.6894003,42.7682421 99.4344636,43.8250603 99.4344636,44.6867736 C99.4344636,45.9305673 99.840769,46.5565288 100.661347,46.5565288 C101.131386,46.5565288 101.800595,46.2963889 102.676941,45.7761092 C103.553286,45.2558295 104.477431,44.5485743 105.449378,43.6380848 C106.389457,42.7601128 107.210035,41.7845883 107.919078,40.6952526 C108.628121,39.6140464 109.169861,38.5409695 109.5443,37.4841513 C109.918738,36.4273331 110.10994,35.524973 110.10994,34.7852003 C110.10994,34.3055674 110.006372,33.9397457 109.799236,33.6714765 C109.5921,33.4113367 109.337163,33.2731374 109.026459,33.2731374 Z M123.884316,33.2731374 C123.581579,33.2812667 122.490131,33.419466 122.187393,33.5983122 C121.892623,33.769029 121.103912,34.1917562 120.665739,34.4762842 C120.227567,34.7689415 119.72566,35.1754101 119.152052,35.7038191 C118.578445,36.2322282 117.980937,36.8907072 117.359528,37.6873855 C116.347748,39.0124729 115.574971,40.2969135 115.065098,41.5325778 C114.547257,42.7682421 114.29232,43.8250603 114.29232,44.6867736 C114.29232,45.9305673 114.698626,46.5565288 115.519204,46.5565288 C115.989243,46.5565288 116.658452,46.2963889 117.534797,45.7761092 C118.411143,45.2558295 119.335288,44.5485743 120.307235,43.6380848 C121.247314,42.7601128 122.067892,41.7845883 122.776935,40.6952526 C123.485977,39.6140464 124.027718,38.5409695 124.402156,37.4841513 C124.776595,36.4273331 124.967797,35.524973 124.967797,34.7852003 C124.967797,34.3055674 124.864229,33.9397457 124.657093,33.6714765 C124.449957,33.4113367 124.19502,33.2731374 123.884316,33.2731374 Z" id="形状结合" fill-opacity="0.15" fill="#F4715A" fill-rule="nonzero" transform="translate(107.851272, 44.649706) rotate(22.000000) translate(-107.851272, -44.649706) "></path>
            </g>
            <path d="M64.8011111,149.66 C65.6611111,149.26 66.3761111,148.87 66.9461111,148.49 C67.5161111,148.11 67.9711111,147.7 68.3111111,147.26 C68.6511111,146.82 68.8911111,146.35 69.0311111,145.85 C69.1711111,145.35 69.2411111,144.78 69.2411111,144.14 L69.2411111,144.14 L69.2411111,142.22 C69.2411111,141.38 69.0311111,140.725 68.6111111,140.255 C68.1911111,139.785 67.6011111,139.53 66.8411111,139.49 L66.8411111,139.49 L56.6111111,139.49 L56.9411111,138.05 L70.8611111,138.05 L70.8611111,134.9 L62.6711111,134.9 C62.9511111,134.68 63.2261111,134.46 63.4961111,134.24 C63.7661111,134.02 64.0411111,133.79 64.3211111,133.55 L64.3211111,133.55 L72.7211111,133.55 L72.7211111,130.25 L67.4111111,130.25 C68.1311111,129.33 68.8011111,128.345 69.4211111,127.295 C70.0411111,126.245 70.6211111,125.12 71.1611111,123.92 L71.1611111,123.92 L67.1411111,123.11 C66.4211111,124.83 65.5611111,126.37 64.5611111,127.73 L64.5611111,127.73 L64.5611111,125 L59.1611111,125 L59.1611111,122.36 L55.1111111,122.36 L55.1111111,125 L49.2611111,125 L49.2611111,128.3 L55.1111111,128.3 L55.1111111,130.25 L46.4111111,130.25 L46.4111111,133.55 L57.8411111,133.55 C54.8411111,135.11 51.3811111,135.89 47.4611111,135.89 L47.4611111,135.89 L46.1711111,135.89 L46.1711111,139.55 L47.7611111,139.55 C48.6011111,139.55 49.4361111,139.515 50.2661111,139.445 C51.0961111,139.375 51.9211111,139.27 52.7411111,139.13 L52.7411111,139.13 L52.5611111,139.79 C52.0411111,141.69 53.0411111,142.64 55.5611111,142.64 L55.5611111,142.64 L65.1911111,142.64 L65.1911111,143.72 C65.1911111,144.36 65.0111111,144.88 64.6511111,145.28 C64.2911111,145.68 63.6611111,146.08 62.7611111,146.48 L62.7611111,146.48 L64.8011111,149.66 Z M62.3711111,130.25 L59.1611111,130.25 L59.1611111,128.3 L64.1111111,128.3 C63.8311111,128.66 63.5461111,129 63.2561111,129.32 C62.9661111,129.64 62.6711111,129.95 62.3711111,130.25 L62.3711111,130.25 Z M103.231111,148.55 L103.231111,144.98 L101.791111,144.98 C101.031111,144.98 100.376111,144.76 99.8261111,144.32 C99.2761111,143.88 98.8111111,143.115 98.4311111,142.025 C98.0511111,140.935 97.7611111,139.48 97.5611111,137.66 C97.3611111,135.84 97.2411111,133.55 97.2011111,130.79 L97.2011111,130.79 L102.601111,130.79 L102.601111,127.19 L100.111111,127.19 L102.271111,125.12 C101.751111,124.56 101.226111,123.995 100.696111,123.425 C100.166111,122.855 99.7111111,122.4 99.3311111,122.06 L99.3311111,122.06 L97.2011111,124.01 L97.2011111,122.27 L93.4811111,122.27 L93.4811111,127.19 L84.0911111,127.19 L84.0911111,130.79 L93.4811111,130.79 C93.5211111,133.91 93.6761111,136.59 93.9461111,138.83 C94.2161111,141.07 94.6661111,142.91 95.2961111,144.35 C95.9261111,145.79 96.7661111,146.85 97.8161111,147.53 C98.8661111,148.21 100.191111,148.55 101.791111,148.55 L101.791111,148.55 L103.231111,148.55 Z M80.8511111,129.77 L83.9411111,127.43 C83.6811111,127.07 83.3761111,126.67 83.0261111,126.23 C82.6761111,125.79 82.3211111,125.34 81.9611111,124.88 C81.6011111,124.42 81.2461111,123.98 80.8961111,123.56 C80.5461111,123.14 80.2511111,122.78 80.0111111,122.48 L80.0111111,122.48 L76.9211111,124.61 C77.1611111,124.93 77.4561111,125.315 77.8061111,125.765 C78.1561111,126.215 78.5161111,126.68 78.8861111,127.16 C79.2561111,127.64 79.6161111,128.115 79.9661111,128.585 C80.3161111,129.055 80.6111111,129.45 80.8511111,129.77 L80.8511111,129.77 Z M99.6611111,127.19 L97.2011111,127.19 L97.2011111,124.43 C97.5411111,124.81 97.9361111,125.255 98.3861111,125.765 C98.8361111,126.275 99.2611111,126.75 99.6611111,127.19 L99.6611111,127.19 Z M84.1211111,147.14 C84.3611111,147.1 84.7511111,147.03 85.2911111,146.93 C85.8311111,146.83 86.4511111,146.73 87.1511111,146.63 C87.8511111,146.53 88.5861111,146.42 89.3561111,146.3 C90.1261111,146.18 90.8511111,146.07 91.5311111,145.97 C92.2111111,145.87 92.8111111,145.785 93.3311111,145.715 C93.8511111,145.645 94.2211111,145.6 94.4411111,145.58 L94.4411111,145.58 L94.0511111,141.86 C93.8111111,141.92 93.3861111,142 92.7761111,142.1 C92.1661111,142.2 91.4811111,142.31 90.7211111,142.43 L90.7211111,142.43 L90.7211111,137.18 L93.3311111,137.18 L93.3311111,133.58 L84.2711111,133.58 L84.2711111,137.18 L87.0911111,137.18 L87.0911111,142.97 L84.9611111,143.27 L85.8311111,142.37 L84.0011111,139.46 L82.2011111,141.17 L82.2011111,134.03 C82.2011111,132.81 81.9611111,131.98 81.4811111,131.54 C81.0011111,131.1 80.1711111,130.88 78.9911111,130.88 L78.9911111,130.88 L75.9311111,130.88 L75.9311111,134.6 L78.6311111,134.6 L78.6311111,144.98 C78.6311111,145.4 78.7311111,145.755 78.9311111,146.045 C79.1311111,146.335 79.3911111,146.545 79.7111111,146.675 C80.0311111,146.805 80.3711111,146.84 80.7311111,146.78 C81.0911111,146.72 81.4411111,146.54 81.7811111,146.24 C82.1211111,145.92 82.4661111,145.605 82.8161111,145.295 C83.1661111,144.985 83.5011111,144.67 83.8211111,144.35 L83.8211111,144.35 L84.1211111,147.14 Z M107.986111,141.605 C108.456111,141.795 109.101111,141.79 109.921111,141.59 C110.861111,141.35 111.826111,141.13 112.816111,140.93 C113.806111,140.73 114.961111,140.52 116.281111,140.3 L116.281111,140.3 L116.221111,136.7 L111.751111,137.78 C111.991111,137.52 112.321111,137.095 112.741111,136.505 C113.161111,135.915 113.621111,135.235 114.121111,134.465 C114.621111,133.695 115.121111,132.875 115.621111,132.005 C116.121111,131.135 116.571111,130.31 116.971111,129.53 L116.971111,129.53 L113.911111,128.06 C113.751111,128.4 113.581111,128.74 113.401111,129.08 C113.221111,129.42 113.031111,129.76 112.831111,130.1 L112.831111,130.1 L110.581111,130.22 C110.801111,130.04 111.076111,129.7 111.406111,129.2 C111.736111,128.7 112.086111,128.13 112.456111,127.49 C112.826111,126.85 113.191111,126.175 113.551111,125.465 C113.911111,124.755 114.231111,124.1 114.511111,123.5 L114.511111,123.5 L111.151111,122.06 C110.851111,122.82 110.511111,123.61 110.131111,124.43 C109.751111,125.25 109.371111,126.02 108.991111,126.74 C108.611111,127.46 108.261111,128.09 107.941111,128.63 C107.621111,129.17 107.391111,129.54 107.251111,129.74 C106.911111,130.18 106.686111,130.65 106.576111,131.15 C106.466111,131.65 106.471111,132.1 106.591111,132.5 C106.711111,132.9 106.951111,133.225 107.311111,133.475 C107.671111,133.725 108.141111,133.82 108.721111,133.76 L108.721111,133.76 L110.701111,133.58 C110.141111,134.42 109.626111,135.18 109.156111,135.86 C108.686111,136.54 108.311111,137.05 108.031111,137.39 C107.551111,137.97 107.226111,138.555 107.056111,139.145 C106.886111,139.735 106.881111,140.245 107.041111,140.675 C107.201111,141.105 107.516111,141.415 107.986111,141.605 Z M132.181111,135.5 L132.181111,131.9 L126.541111,131.9 L126.541111,129.26 L132.721111,129.26 L132.721111,125.66 L126.541111,125.66 L126.541111,122.45 L122.731111,122.45 L122.731111,125.66 L116.551111,125.66 L116.551111,129.26 L122.731111,129.26 L122.731111,131.9 L117.091111,131.9 L117.091111,135.5 L132.181111,135.5 Z M121.111111,148.91 L121.111111,147.68 L128.281111,147.68 L128.281111,148.91 L132.061111,148.91 L132.061111,140.45 C132.061111,138.25 130.931111,137.15 128.671111,137.15 L128.671111,137.15 L121.111111,137.15 L121.111111,136.37 L117.361111,136.37 L117.361111,148.91 L121.111111,148.91 Z M128.281111,144.26 L121.111111,144.26 L121.111111,140.6 L128.281111,140.6 L128.281111,144.26 Z M106.441111,147.95 C106.661111,147.91 107.031111,147.84 107.551111,147.74 C108.071111,147.64 108.671111,147.535 109.351111,147.425 C110.031111,147.315 110.751111,147.195 111.511111,147.065 C112.271111,146.935 112.991111,146.815 113.671111,146.705 C114.351111,146.595 114.951111,146.495 115.471111,146.405 C115.991111,146.315 116.361111,146.26 116.581111,146.24 L116.581111,146.24 L116.491111,142.52 C116.231111,142.58 115.826111,142.66 115.276111,142.76 C114.726111,142.86 114.106111,142.97 113.416111,143.09 C112.726111,143.21 112.001111,143.335 111.241111,143.465 C110.481111,143.595 109.756111,143.715 109.066111,143.825 C108.376111,143.935 107.771111,144.03 107.251111,144.11 C106.731111,144.19 106.351111,144.24 106.111111,144.26 L106.111111,144.26 L106.441111,147.95 Z M151.471111,148.67 L151.471111,140.84 L162.301111,140.84 L162.301111,137.57 L151.471111,137.57 L151.471111,135.98 L156.961111,135.98 L156.961111,136.79 L160.561111,136.79 L160.561111,126.5 C160.561111,125.38 160.351111,124.545 159.931111,123.995 C159.511111,123.445 158.751111,123.17 157.651111,123.17 L157.651111,123.17 L142.441111,123.17 L142.441111,122.45 L138.841111,122.45 L138.841111,136.79 L142.441111,136.79 L142.441111,135.98 L147.841111,135.98 L147.841111,137.57 L137.011111,137.57 L137.011111,140.84 L147.841111,140.84 L147.841111,148.67 L151.471111,148.67 Z M156.961111,128.03 L151.471111,128.03 L151.471111,126.47 L156.961111,126.47 L156.961111,128.03 Z M147.841111,128.03 L142.441111,128.03 L142.441111,126.47 L147.841111,126.47 L147.841111,128.03 Z M156.961111,132.68 L151.471111,132.68 L151.471111,131 L156.961111,131 L156.961111,132.68 Z M147.841111,132.68 L142.441111,132.68 L142.441111,131 L147.841111,131 L147.841111,132.68 Z M163.321111,148.46 L163.321111,145.07 L162.481111,145.07 C160.961111,145.07 159.846111,144.87 159.136111,144.47 C158.426111,144.07 158.071111,143.3 158.071111,142.16 L158.071111,142.16 L158.071111,141.62 L154.201111,141.62 L154.201111,142.13 C154.201111,143.07 154.316111,143.93 154.546111,144.71 C154.776111,145.49 155.201111,146.16 155.821111,146.72 C156.441111,147.28 157.301111,147.71 158.401111,148.01 C159.501111,148.31 160.911111,148.46 162.631111,148.46 L162.631111,148.46 L163.321111,148.46 Z M136.831111,148.46 C138.511111,148.46 139.891111,148.31 140.971111,148.01 C142.051111,147.71 142.911111,147.28 143.551111,146.72 C144.191111,146.16 144.636111,145.49 144.886111,144.71 C145.136111,143.93 145.261111,143.07 145.261111,142.13 L145.261111,142.13 L145.261111,141.62 L141.421111,141.62 L141.421111,142.16 C141.421111,143.3 141.061111,144.07 140.341111,144.47 C139.621111,144.87 138.501111,145.07 136.981111,145.07 L136.981111,145.07 L136.141111,145.07 L136.141111,148.46 L136.831111,148.46 Z" id="考试结果" fill="#FFFFFF" fill-rule="nonzero"></path>
            <path d="M52.6591111,171 L52.6591111,169.704 L47.5231111,169.704 L47.5231111,165.832 L51.9391111,165.832 L51.9391111,164.616 L47.5231111,164.616 L47.5231111,161.176 L52.2591111,161.176 L52.2591111,159.896 L46.0831111,159.896 L46.0831111,171 L52.6591111,171 Z M55.4911111,171 L58.4831111,166.232 L58.5791111,166.232 L61.4271111,171 L63.1071111,171 L59.5071111,165.256 L62.9791111,159.896 L61.4111111,159.896 L58.5951111,164.456 L58.4991111,164.456 L55.8591111,159.896 L54.1791111,159.896 L57.5231111,165.352 L53.8751111,171 L55.4911111,171 Z M65.1391111,171 L66.3551111,167.688 L71.2671111,167.688 L72.4671111,171 L73.9871111,171 L69.7951111,159.896 L67.8751111,159.896 L63.6671111,171 L65.1391111,171 Z M70.8031111,166.408 L66.8351111,166.408 L68.7391111,161.24 L68.9311111,161.24 L70.8031111,166.408 Z M77.0431111,171 L77.0431111,161.352 L77.1391111,161.352 L80.0191111,168.488 L81.5871111,168.488 L84.4351111,161.352 L84.5311111,161.352 L84.5311111,171 L85.9711111,171 L85.9711111,159.896 L83.6991111,159.896 L80.8671111,167.048 L80.7711111,167.048 L77.9391111,159.896 L75.6351111,159.896 L75.6351111,171 L77.0431111,171 Z M94.4671111,171 L94.4671111,166.536 L96.1231111,166.536 C96.2137778,166.536 96.3017778,166.530667 96.3871111,166.52 L96.3871111,166.52 L99.4431111,171 L101.139111,171 L97.8111111,166.36 C98.5791111,166.189333 99.1497778,165.856 99.5231111,165.36 C99.8964444,164.864 100.083111,164.136 100.083111,163.176 C100.083111,162.568 100.008444,162.053333 99.8591111,161.632 C99.7097778,161.210667 99.4671111,160.872 99.1311111,160.616 C98.7951111,160.36 98.3577778,160.176 97.8191111,160.064 C97.2804444,159.952 96.6217778,159.896 95.8431111,159.896 L95.8431111,159.896 L93.0271111,159.896 L93.0271111,171 L94.4671111,171 Z M95.7151111,165.336 L94.4671111,165.336 L94.4671111,161.144 L95.7151111,161.144 C96.2271111,161.144 96.6671111,161.170667 97.0351111,161.224 C97.4031111,161.277333 97.7044444,161.378667 97.9391111,161.528 C98.1737778,161.677333 98.3471111,161.885333 98.4591111,162.152 C98.5711111,162.418667 98.6271111,162.76 98.6271111,163.176 C98.6271111,163.645333 98.5711111,164.024 98.4591111,164.312 C98.3471111,164.6 98.1737778,164.818667 97.9391111,164.968 C97.7044444,165.117333 97.4031111,165.216 97.0351111,165.264 C96.6671111,165.312 96.2271111,165.336 95.7151111,165.336 L95.7151111,165.336 Z M109.427111,171 L109.427111,169.704 L104.291111,169.704 L104.291111,165.832 L108.707111,165.832 L108.707111,164.616 L104.291111,164.616 L104.291111,161.176 L109.027111,161.176 L109.027111,159.896 L102.851111,159.896 L102.851111,171 L109.427111,171 Z M114.483111,171.16 C115.773778,171.16 116.752444,170.906667 117.419111,170.4 C118.085778,169.893333 118.419111,169.096 118.419111,168.008 C118.419111,167.464 118.360444,167.008 118.243111,166.64 C118.125778,166.272 117.933778,165.96 117.667111,165.704 C117.400444,165.448 117.051111,165.237333 116.619111,165.072 C116.187111,164.906667 115.661778,164.749333 115.043111,164.6 C114.541778,164.482667 114.141778,164.368 113.843111,164.256 C113.544444,164.144 113.315111,164.018667 113.155111,163.88 C112.995111,163.741333 112.891111,163.578667 112.843111,163.392 C112.795111,163.205333 112.771111,162.984 112.771111,162.728 C112.771111,162.365333 112.816444,162.072 112.907111,161.848 C112.997778,161.624 113.139111,161.448 113.331111,161.32 C113.523111,161.192 113.763111,161.104 114.051111,161.056 C114.339111,161.008 114.675111,160.984 115.059111,160.984 C115.560444,160.984 116.067111,161.029333 116.579111,161.12 C117.091111,161.210667 117.507111,161.314667 117.827111,161.432 L117.827111,161.432 L117.827111,160.12 C117.699111,160.066667 117.531111,160.016 117.323111,159.968 C117.115111,159.92 116.885778,159.877333 116.635111,159.84 C116.384444,159.802667 116.123111,159.773333 115.851111,159.752 C115.579111,159.730667 115.309778,159.72 115.043111,159.72 C113.784444,159.72 112.853778,159.968 112.251111,160.464 C111.648444,160.96 111.347111,161.714667 111.347111,162.728 C111.347111,163.218667 111.403111,163.629333 111.515111,163.96 C111.627111,164.290667 111.805778,164.570667 112.051111,164.8 C112.296444,165.029333 112.616444,165.218667 113.011111,165.368 C113.405778,165.517333 113.885778,165.661333 114.451111,165.8 C114.973778,165.928 115.400444,166.050667 115.731111,166.168 C116.061778,166.285333 116.323111,166.424 116.515111,166.584 C116.707111,166.744 116.837778,166.938667 116.907111,167.168 C116.976444,167.397333 117.011111,167.682667 117.011111,168.024 C117.011111,168.717333 116.797778,169.202667 116.371111,169.48 C115.944444,169.757333 115.315111,169.896 114.483111,169.896 C114.152444,169.896 113.827111,169.882667 113.507111,169.856 C113.187111,169.829333 112.883111,169.792 112.595111,169.744 C112.307111,169.696 112.040444,169.642667 111.795111,169.584 C111.549778,169.525333 111.347111,169.464 111.187111,169.4 L111.187111,169.4 L111.187111,170.728 C111.325778,170.781333 111.509778,170.832 111.739111,170.88 C111.968444,170.928 112.229778,170.973333 112.523111,171.016 C112.816444,171.058667 113.131111,171.093333 113.467111,171.12 C113.803111,171.146667 114.141778,171.16 114.483111,171.16 Z M124.931111,171.16 C126.328444,171.16 127.379111,170.864 128.083111,170.272 C128.787111,169.68 129.139111,168.728 129.139111,167.416 L129.139111,167.416 L129.139111,159.896 L127.715111,159.896 L127.715111,167.096 C127.715111,167.629333 127.672444,168.074667 127.587111,168.432 C127.501778,168.789333 127.352444,169.074667 127.139111,169.288 C126.925778,169.501333 126.640444,169.656 126.283111,169.752 C125.925778,169.848 125.480444,169.896 124.947111,169.896 C124.435111,169.896 124.003111,169.848 123.651111,169.752 C123.299111,169.656 123.013778,169.501333 122.795111,169.288 C122.576444,169.074667 122.419111,168.789333 122.323111,168.432 C122.227111,168.074667 122.179111,167.629333 122.179111,167.096 L122.179111,167.096 L122.179111,159.896 L120.755111,159.896 L120.755111,167.416 C120.755111,168.770667 121.101778,169.733333 121.795111,170.304 C122.488444,170.874667 123.533778,171.16 124.931111,171.16 Z M138.275111,171 L138.275111,169.704 L133.459111,169.704 L133.459111,159.896 L132.019111,159.896 L132.019111,171 L138.275111,171 Z M143.603111,171 L143.603111,161.176 L146.835111,161.176 L146.835111,159.896 L138.915111,159.896 L138.915111,161.176 L142.163111,161.176 L142.163111,171 L143.603111,171 Z M151.315111,171.16 C152.605778,171.16 153.584444,170.906667 154.251111,170.4 C154.917778,169.893333 155.251111,169.096 155.251111,168.008 C155.251111,167.464 155.192444,167.008 155.075111,166.64 C154.957778,166.272 154.765778,165.96 154.499111,165.704 C154.232444,165.448 153.883111,165.237333 153.451111,165.072 C153.019111,164.906667 152.493778,164.749333 151.875111,164.6 C151.373778,164.482667 150.973778,164.368 150.675111,164.256 C150.376444,164.144 150.147111,164.018667 149.987111,163.88 C149.827111,163.741333 149.723111,163.578667 149.675111,163.392 C149.627111,163.205333 149.603111,162.984 149.603111,162.728 C149.603111,162.365333 149.648444,162.072 149.739111,161.848 C149.829778,161.624 149.971111,161.448 150.163111,161.32 C150.355111,161.192 150.595111,161.104 150.883111,161.056 C151.171111,161.008 151.507111,160.984 151.891111,160.984 C152.392444,160.984 152.899111,161.029333 153.411111,161.12 C153.923111,161.210667 154.339111,161.314667 154.659111,161.432 L154.659111,161.432 L154.659111,160.12 C154.531111,160.066667 154.363111,160.016 154.155111,159.968 C153.947111,159.92 153.717778,159.877333 153.467111,159.84 C153.216444,159.802667 152.955111,159.773333 152.683111,159.752 C152.411111,159.730667 152.141778,159.72 151.875111,159.72 C150.616444,159.72 149.685778,159.968 149.083111,160.464 C148.480444,160.96 148.179111,161.714667 148.179111,162.728 C148.179111,163.218667 148.235111,163.629333 148.347111,163.96 C148.459111,164.290667 148.637778,164.570667 148.883111,164.8 C149.128444,165.029333 149.448444,165.218667 149.843111,165.368 C150.237778,165.517333 150.717778,165.661333 151.283111,165.8 C151.805778,165.928 152.232444,166.050667 152.563111,166.168 C152.893778,166.285333 153.155111,166.424 153.347111,166.584 C153.539111,166.744 153.669778,166.938667 153.739111,167.168 C153.808444,167.397333 153.843111,167.682667 153.843111,168.024 C153.843111,168.717333 153.629778,169.202667 153.203111,169.48 C152.776444,169.757333 152.147111,169.896 151.315111,169.896 C150.984444,169.896 150.659111,169.882667 150.339111,169.856 C150.019111,169.829333 149.715111,169.792 149.427111,169.744 C149.139111,169.696 148.872444,169.642667 148.627111,169.584 C148.381778,169.525333 148.179111,169.464 148.019111,169.4 L148.019111,169.4 L148.019111,170.728 C148.157778,170.781333 148.341778,170.832 148.571111,170.88 C148.800444,170.928 149.061778,170.973333 149.355111,171.016 C149.648444,171.058667 149.963111,171.093333 150.299111,171.12 C150.635111,171.146667 150.973778,171.16 151.315111,171.16 Z" id="EXAMRESULTS" fill="#FFFFFF" fill-rule="nonzero" opacity="0.600000024"></path>
        </g>
    </g>
</svg>