<?xml version="1.0" encoding="UTF-8"?>
<svg width="14px" height="14px" viewBox="0 0 14 14" version="1.1" xmlns="http://www.w3.org/2000/svg" xmlns:xlink="http://www.w3.org/1999/xlink">
    <title>ic_tips@2x</title>
    <defs>
        <radialGradient cx="50%" cy="38.4357012%" fx="50%" fy="38.4357012%" r="70.6684786%" gradientTransform="translate(0.500000,0.384357),scale(1.000000,0.754164),rotate(90.000000),translate(-0.500000,-0.384357)" id="radialGradient-1">
            <stop stop-color="#FFF8E1" offset="0%"></stop>
            <stop stop-color="#FFC807" offset="100%"></stop>
        </radialGradient>
        <path d="M7.34677734,3.68938477 C7.34677734,1.66130859 5.70260742,7.1942452e-14 3.67338867,7.1942452e-14 C1.64416992,7.1942452e-14 7.99360578e-16,1.66130859 7.99360578e-16,3.68938477 C7.99360578e-16,4.49261719 0.426181641,5.52893555 1.11058594,6.29332031 C1.78927734,7.05084961 2.2931543,8.3259668 2.2931543,9.34286133 L2.2931543,9.74162109 L5.05362305,9.74162109 L5.05362305,9.34628906 C5.05362305,8.32939453 5.5575,7.0565625 6.23276367,6.29674805 C6.91945313,5.52436523 7.34677734,4.39549805 7.34677734,3.68938477 Z" id="path-2"></path>
        <filter x="-20.4%" y="-15.4%" width="140.8%" height="130.8%" filterUnits="objectBoundingBox" id="filter-3">
            <feGaussianBlur stdDeviation="1" in="SourceAlpha" result="shadowBlurInner1"></feGaussianBlur>
            <feOffset dx="0" dy="1" in="shadowBlurInner1" result="shadowOffsetInner1"></feOffset>
            <feComposite in="shadowOffsetInner1" in2="SourceAlpha" operator="arithmetic" k2="-1" k3="1" result="shadowInnerInner1"></feComposite>
            <feColorMatrix values="0 0 0 0 1   0 0 0 0 0.719843137   0 0 0 0 0.06  0 0 0 1 0" type="matrix" in="shadowInnerInner1"></feColorMatrix>
        </filter>
    </defs>
    <g id="T-班级考试" stroke="none" stroke-width="1" fill="none" fill-rule="evenodd">
        <g id="成绩详情（未复核）可编辑-小分制" transform="translate(-16.000000, -216.000000)">
            <g id="编组-4" transform="translate(16.000000, 214.000000)">
                <g id="ic_tips" transform="translate(0.000000, 2.000000)">
                    <rect id="矩形" x="0" y="0" width="14" height="14"></rect>
                    <g id="编组" transform="translate(3.326611, 1.236836)" fill-rule="nonzero">
                        <g id="路径">
                            <use fill="url(#radialGradient-1)" xlink:href="#path-2"></use>
                            <use fill="black" fill-opacity="1" filter="url(#filter-3)" xlink:href="#path-2"></use>
                        </g>
                        <path d="M4.60573242,11.2098173 L2.74104492,11.2098173 C2.67591797,11.2098173 2.61650391,11.1675419 2.58108398,11.0978447 L2.32743164,10.5928251 L5.0193457,10.5928251 L4.76569336,11.0978447 C4.73027344,11.1675419 4.67085937,11.2098173 4.60573242,11.2098173 L4.60573242,11.2098173 Z" id="路径" fill="#455A64"></path>
                        <path d="M4.9725,10.7984892 L2.37427734,10.7984892 C2.12176758,10.7984892 1.91610352,10.5939677 1.91610352,10.3403154 L1.91610352,8.47105756 C1.91610352,8.21854779 2.120625,8.01288373 2.37427734,8.01288373 L4.97364258,8.01288373 C5.22615234,8.01288373 5.43181641,8.21740522 5.43181641,8.47105756 L5.43181641,10.3414579 C5.43067383,10.5939677 5.22615234,10.7984892 4.9725,10.7984892 L4.9725,10.7984892 Z" id="路径" fill="#ECEFF1"></path>
                        <path d="M3.99102539,8.83553998 L1.92524414,8.83553998 L1.92524414,8.42421186 L3.99102539,8.42421186 C4.10414062,8.42421186 4.19668945,8.51676068 4.19668945,8.62987592 C4.19668945,8.74413373 4.10414062,8.83553998 3.99102539,8.83553998 Z M1.92524414,9.19545209 L5.4215332,9.19545209 L5.4215332,9.60678022 L1.92524414,9.60678022 L1.92524414,9.19545209 Z M5.4215332,10.3780204 L3.47686523,10.3780204 C3.36375,10.3780204 3.27120117,10.2854716 3.27120117,10.1723564 C3.27120117,10.0592412 3.36375,9.96669232 3.47686523,9.96669232 L5.4215332,9.96669232 L5.4215332,10.3780204 Z" id="形状" fill="#CFD8DC"></path>
                    </g>
                </g>
            </g>
        </g>
    </g>
</svg>