<?xml version="1.0" encoding="UTF-8"?>
<svg width="16px" height="16px" viewBox="0 0 16 16" version="1.1" xmlns="http://www.w3.org/2000/svg" xmlns:xlink="http://www.w3.org/1999/xlink">
    <title>作业设备</title>
    <g id="页面-1" stroke="none" stroke-width="1" fill="none" fill-rule="evenodd">
        <g id="首页" transform="translate(-23.000000, -220.000000)">
            <g id="侧边栏-工具库管理" transform="translate(0.000000, 56.000000)">
                <g id="编组-28备份-2" transform="translate(0.000000, 152.000000)">
                    <g id="作业设备" transform="translate(23.000000, 12.000000)">
                        <rect id="矩形" x="0" y="0" width="16" height="16"></rect>
                        <g id="settings-5" opacity="0.85" transform="translate(1.000000, 1.000000)" fill="#FFFFFF" fill-rule="nonzero">
                            <path d="M0.094145107,8.14063684 C-0.0313817023,7.38536052 -0.0313817023,6.61454389 0.094145107,5.85926758 C0.865331894,5.87746255 1.55814035,5.5079647 1.82756586,4.85784444 C2.09699137,4.20702438 1.86815464,3.45543218 1.30970904,2.92427903 C1.75507505,2.300953 2.30033,1.7554616 2.92346287,1.30982538 C3.45531583,1.86827098 4.20690804,2.09710772 4.8577281,1.82768221 C5.50854817,1.55825669 5.8773462,0.864748432 5.85845143,0.0942614514 C6.61418465,-0.0314204838 7.38548708,-0.0314204838 8.1412203,0.0942614514 C8.12232552,0.865448238 8.49112356,1.55825669 9.14194363,1.82768221 C9.79276369,2.09710772 10.5443559,1.86827098 11.075509,1.30982538 C11.6988351,1.75519139 12.2443265,2.30044635 12.6899627,2.92357922 C12.1315171,3.45543218 11.9026804,4.20702438 12.1721059,4.85784444 C12.4415314,5.50866451 13.1350396,5.87746255 13.9055266,5.85856777 C14.0314911,6.61427763 14.0314911,7.38562678 13.9055266,8.14133664 C13.1343398,8.12244187 12.4415314,8.49123991 12.1721059,9.14205997 C11.9026804,9.79288004 12.1315171,10.5444722 12.6899627,11.0756254 C12.2445869,11.6989431 11.6993334,12.244433 11.0762089,12.690079 C10.5443559,12.1316334 9.79276369,11.9027967 9.14194363,12.1722222 C8.49112356,12.4416477 8.12232552,13.135156 8.1412203,13.905643 C7.38551044,14.0316075 6.61416129,14.0316075 5.85845143,13.905643 C5.8773462,13.1344562 5.50784836,12.4416477 4.8577281,12.1722222 C4.20690804,11.9027967 3.45531583,12.1316334 2.92416268,12.690079 C2.30083666,12.244713 1.75534526,11.6994581 1.30970904,11.0763252 C1.86815464,10.5444722 2.09699137,9.79288004 1.82756586,9.14205997 C1.55814035,8.49123991 0.864632087,8.12244187 0.094145107,8.14133664 L0.094145107,8.14063684 Z M6.99983586,9.09937177 C7.74988624,9.09937177 8.44296138,8.69922468 8.81798658,8.049662 C9.19301177,7.40009932 9.19301177,6.59980509 8.81798658,5.95024241 C8.44296138,5.30067973 7.74988624,4.90053264 6.99983586,4.90053264 C5.84035845,4.90053264 4.9004163,5.8404748 4.9004163,6.99995221 C4.9004163,8.15942962 5.84035845,9.09937177 6.99983586,9.09937177 L6.99983586,9.09937177 Z" id="形状"></path>
                        </g>
                    </g>
                </g>
            </g>
        </g>
    </g>
</svg>