<?xml version="1.0" encoding="UTF-8"?>
<svg width="16px" height="16px" viewBox="0 0 16 16" version="1.1" xmlns="http://www.w3.org/2000/svg" xmlns:xlink="http://www.w3.org/1999/xlink">
    <title>首页</title>
    <g id="页面-1" stroke="none" stroke-width="1" fill="none" fill-rule="evenodd">
        <g id="首页" transform="translate(-23.000000, -76.000000)">
            <g id="侧边栏-工具库管理" transform="translate(0.000000, 56.000000)">
                <g id="编组-24" transform="translate(0.000000, 8.000000)">
                    <g id="首页" transform="translate(23.000000, 12.000000)">
                        <rect id="矩形" x="0" y="0" width="16" height="16"></rect>
                        <g id="dashboard-3" transform="translate(1.000000, 1.000000)" fill="#FFFFFF" fill-rule="nonzero">
                            <path d="M7,0 C10.8661,0 14,3.1339 14,7 C14,10.8661 10.8661,14 7,14 C3.1339,14 0,10.8661 0,7 C0,3.1339 3.1339,0 7,0 Z M10.2172,3.7828 C10.0742336,3.63942175 9.84886628,3.61963196 9.6831,3.7359 C7.6601,5.1555 6.5191,5.9969 6.2573,6.2573 C5.84770451,6.6677246 5.84770451,7.3322754 6.2573,7.7427 C6.6677246,8.15229549 7.3322754,8.15229549 7.7427,7.7427 C7.896,7.5887 8.7353,6.447 10.2613,4.3148 C10.3785805,4.15051706 10.3599302,3.92552941 10.2172,3.7828 L10.2172,3.7828 Z M10.85,6.3 C10.4634007,6.3 10.15,6.61340068 10.15,7 C10.15,7.38659932 10.4634007,7.7 10.85,7.7 C11.2365993,7.7 11.55,7.38659932 11.55,7 C11.55,6.61340068 11.2365993,6.3 10.85,6.3 Z M3.15,6.3 C2.76340068,6.3 2.45,6.61340068 2.45,7 C2.45,7.38659932 2.76340068,7.7 3.15,7.7 C3.53659932,7.7 3.85,7.38659932 3.85,7 C3.85,6.61340068 3.53659932,6.3 3.15,6.3 Z M4.7726,3.7828 C4.59553917,3.60598926 4.33760082,3.53707022 4.09594781,3.60200403 C3.8542948,3.66693783 3.66563999,3.85585948 3.60104781,4.09760403 C3.53645563,4.33934857 3.60573917,4.59718926 3.7828,4.774 C4.05651232,5.04732572 4.49997428,5.04701232 4.7733,4.7733 C5.04662572,4.49958768 5.04631232,4.05612572 4.7726,3.7828 Z M7,2.45 C6.61340068,2.45 6.3,2.76340068 6.3,3.15 C6.3,3.53659932 6.61340068,3.85 7,3.85 C7.38659932,3.85 7.7,3.53659932 7.7,3.15 C7.7,2.76340068 7.38659932,2.45 7,2.45 Z" id="形状"></path>
                        </g>
                    </g>
                </g>
            </g>
        </g>
    </g>
</svg>