<?xml version="1.0" encoding="UTF-8"?>
<svg width="16px" height="16px" viewBox="0 0 16 16" version="1.1" xmlns="http://www.w3.org/2000/svg" xmlns:xlink="http://www.w3.org/1999/xlink">
    <title>配套装置</title>
    <g id="页面-1" stroke="none" stroke-width="1" fill="none" fill-rule="evenodd">
        <g id="首页" transform="translate(-23.000000, -268.000000)">
            <g id="侧边栏-工具库管理" transform="translate(0.000000, 56.000000)">
                <g id="编组-24备份-2" transform="translate(0.000000, 200.000000)">
                    <g id="配套装置" transform="translate(23.000000, 12.000000)">
                        <rect id="矩形" x="0" y="0" width="16" height="16"></rect>
                        <g id="device" opacity="0.85" transform="translate(0.900000, 0.500000)" fill="#FFFFFF" fill-rule="nonzero">
                            <path d="M12,3 L6,3 C5.58578644,3 5.25,3.33578644 5.25,3.75 L5.25,13.5 L0.75,13.5 C0.335786438,13.5 0,13.1642136 0,12.75 L0,0.75 C0,0.335786438 0.335786438,0 0.75,0 L11.25,0 C11.6642136,0 12,0.335786438 12,0.75 L12,3 Z M7.5,4.5 L13.5,4.5 C13.9142136,4.5 14.25,4.83578644 14.25,5.25 L14.25,14.25 C14.25,14.6642136 13.9142136,15 13.5,15 L7.5,15 C7.08578644,15 6.75,14.6642136 6.75,14.25 L6.75,5.25 C6.75,4.83578644 7.08578644,4.5 7.5,4.5 Z" id="形状"></path>
                        </g>
                    </g>
                </g>
            </g>
        </g>
    </g>
</svg>