<?xml version="1.0" encoding="UTF-8"?>
<svg width="16px" height="16px" viewBox="0 0 16 16" version="1.1" xmlns="http://www.w3.org/2000/svg" xmlns:xlink="http://www.w3.org/1999/xlink">
    <title>权限管理</title>
    <g id="页面-1" stroke="none" stroke-width="1" fill="none" fill-rule="evenodd">
        <g id="首页" transform="translate(-23.000000, -412.000000)">
            <g id="侧边栏-工具库管理" transform="translate(0.000000, 56.000000)">
                <g id="编组-28备份-4" transform="translate(0.000000, 344.000000)">
                    <g id="权限管理" transform="translate(23.000000, 12.000000)">
                        <rect id="矩形" x="0" y="0" width="16" height="16"></rect>
                        <g id="shield-keyhole备份" opacity="0.85" transform="translate(2.000000, 0.500000)" fill="#FFFFFF" fill-rule="nonzero">
                            <path d="M6.13636364,0 L11.7388636,1.245 C12.0507556,1.31433264 12.2727273,1.5909493 12.2727273,1.91045455 L12.2727273,8.71977273 C12.2727273,10.0875343 11.5889861,11.3647573 10.4509091,12.1234091 L6.13636364,15 L1.82181818,12.1234091 C0.683942111,11.3648913 0.000327291531,10.0879746 -6.05576195e-16,8.72045455 L-6.05576195e-16,1.91045455 C-6.05576195e-16,1.5909493 0.22197168,1.31433264 0.533863636,1.245 L6.13636364,0 Z M6.13636364,4.09090895 C5.5191981,4.09090895 4.97898947,4.50547032 4.81925325,5.10160591 C4.65951703,5.69774149 4.9200801,6.32684463 5.45454545,6.63545455 L5.45454545,9.54545455 L6.81818182,9.54545455 L6.81886364,6.63545455 C7.35343889,6.32678132 7.61398591,5.69749464 7.45406781,5.1012765 C7.29414971,4.50505837 6.75365594,4.09062749 6.13636364,4.09090895 Z" id="形状"></path>
                        </g>
                    </g>
                </g>
            </g>
        </g>
    </g>
</svg>