<?xml version="1.0" encoding="UTF-8"?>
<svg width="16px" height="16px" viewBox="0 0 16 16" version="1.1" xmlns="http://www.w3.org/2000/svg" xmlns:xlink="http://www.w3.org/1999/xlink">
    <title>作业队伍</title>
    <g id="页面-1" stroke="none" stroke-width="1" fill="none" fill-rule="evenodd">
        <g id="首页" transform="translate(-23.000000, -172.000000)">
            <g id="侧边栏-工具库管理" transform="translate(0.000000, 56.000000)">
                <g id="编组-28备份" transform="translate(0.000000, 104.000000)">
                    <g id="作业队伍" transform="translate(23.000000, 12.000000)">
                        <rect id="矩形" x="0" y="0" width="16" height="16"></rect>
                        <g id="team" opacity="0.85" transform="translate(1.000000, 1.000000)" fill="#FFFFFF" fill-rule="nonzero">
                            <path d="M7.0000001,6.29999994 C8.93299667,6.29999994 10.5000001,7.8670033 10.5000001,9.79999994 L10.5000001,13.9999999 L3.5000001,13.9999999 L3.5000001,9.79999994 C3.5000001,7.8670033 5.06700346,6.29999994 7.0000001,6.29999994 L7.0000001,6.29999994 Z M2.30160011,8.40419992 C2.19020706,8.77995189 2.12440138,9.1677354 2.10560011,9.55919991 L2.10000011,9.79999991 L2.10000011,13.9999999 L6.48809662e-08,13.9999999 L6.48809662e-08,10.8499999 C-0.00028527551,9.5999079 0.940636861,8.55008134 2.18330011,8.41399992 L2.30230011,8.40419992 L2.30160011,8.40419992 L2.30160011,8.40419992 Z M11.6984,8.40419992 C12.991443,8.48301433 13.9998096,9.55455722 14,10.8499999 L14,13.9999999 L11.9,13.9999999 L11.9,9.79999991 C11.9,9.31489991 11.83,8.84659992 11.6984,8.40419992 L11.6984,8.40419992 Z M2.45000011,4.19999996 C3.41649841,4.19999996 4.20000012,4.98350164 4.20000012,5.94999994 C4.20000012,6.91649825 3.41649841,7.69999996 2.45000011,7.69999996 C1.4835018,7.69999996 0.700000123,6.91649825 0.700000123,5.94999994 C0.700000123,4.98350164 1.4835018,4.19999996 2.45000011,4.19999996 Z M11.55,4.19999996 C12.5164983,4.19999996 13.3,4.98350164 13.3,5.94999994 C13.3,6.91649825 12.5164983,7.69999996 11.55,7.69999996 C10.5835017,7.69999996 9.80000004,6.91649825 9.80000004,5.94999994 C9.80000004,4.98350164 10.5835017,4.19999996 11.55,4.19999996 Z M7.00000006,0 C8.54639735,0 9.80000004,1.25360269 9.80000004,2.79999997 C9.80000004,4.34639726 8.54639735,5.59999995 7.00000006,5.59999995 C5.45360278,5.59999995 4.20000009,4.34639726 4.20000009,2.79999997 C4.20000009,1.25360269 5.45360278,0 7.00000006,0 Z" id="形状"></path>
                        </g>
                    </g>
                </g>
            </g>
        </g>
    </g>
</svg>