<?xml version="1.0" encoding="UTF-8"?>
<svg width="16px" height="16px" viewBox="0 0 16 16" version="1.1" xmlns="http://www.w3.org/2000/svg" xmlns:xlink="http://www.w3.org/1999/xlink">
    <title>工具库管理</title>
    <g id="页面-1" stroke="none" stroke-width="1" fill="none" fill-rule="evenodd">
        <g id="首页" transform="translate(-23.000000, -316.000000)">
            <g id="侧边栏-工具库管理" transform="translate(0.000000, 56.000000)">
                <g id="编组-24备份" transform="translate(0.000000, 248.000000)">
                    <g id="工具库管理" transform="translate(23.000000, 12.000000)">
                        <rect id="矩形" x="0" y="0" width="16" height="16"></rect>
                        <g id="tools" opacity="0.85" transform="translate(1.000000, 1.000000)" fill="#FFFFFF" fill-rule="nonzero">
                            <path d="M1.8457955,0.161548327 C2.8565485,-0.199032812 3.98459499,0.0549683128 4.74325349,0.81396611 C5.50191199,1.57296391 5.75540871,2.70112385 5.39437567,3.71171552 L14,12.3173398 L12.3161701,13.9995827 L3.71054582,5.39554538 C2.69979282,5.75612652 1.57174633,5.5021254 0.813087826,4.7431276 C0.0544293225,3.9841298 -0.199067396,2.85596986 0.161965641,1.84537819 L1.93625573,3.62046178 C2.23396777,3.93506242 2.67907835,4.06310596 3.09845043,3.95478664 C3.5178225,3.84646731 3.84524991,3.51888545 3.95337146,3.09946234 C4.061493,2.68003923 3.93323956,2.23498908 3.61849857,1.93742544 L1.8457955,0.159961305 L1.8457955,0.161548327 Z M10.0721217,1.65652262 L12.597073,0.253595577 L13.7190972,1.37561981 L12.3161701,3.90057109 L10.9132431,4.1814739 L9.23100026,5.86371674 L8.10818252,4.74248602 L9.79042535,3.05944967 L10.0721217,1.65652262 L10.0721217,1.65652262 Z M4.46120701,7.82844941 L6.14344984,9.51227927 L2.21557152,13.4401576 C1.76514837,13.8821553 1.04805351,13.8957924 0.581150948,13.4712398 C0.114248383,13.0466871 0.0598442345,12.331529 0.457151649,11.8412334 L0.534122194,11.7563277 L4.46200052,7.82844941 L4.46120701,7.82844941 L4.46120701,7.82844941 Z" id="形状"></path>
                        </g>
                    </g>
                </g>
            </g>
        </g>
    </g>
</svg>