<?xml version="1.0" encoding="UTF-8"?>
<svg width="16px" height="16px" viewBox="0 0 16 16" version="1.1" xmlns="http://www.w3.org/2000/svg" xmlns:xlink="http://www.w3.org/1999/xlink">
    <title>作业井管理</title>
    <g id="页面-1" stroke="none" stroke-width="1" fill="none" fill-rule="evenodd">
        <g id="首页" transform="translate(-23.000000, -124.000000)">
            <g id="侧边栏-工具库管理" transform="translate(0.000000, 56.000000)">
                <g id="编组-28" transform="translate(0.000000, 56.000000)">
                    <g id="作业井管理" transform="translate(23.000000, 12.000000)">
                        <rect id="矩形" x="0" y="0" width="16" height="16"></rect>
                        <g id="gradienter" opacity="0.85" transform="translate(1.000000, 1.000000)" fill="#FFFFFF" fill-rule="nonzero">
                            <path d="M7,14 C3.1339,14 0,10.8661 0,7 C0,3.1339 3.1339,0 7,0 C10.8661,0 14,3.1339 14,7 C14,10.8661 10.8661,14 7,14 Z M4.2882,6.3 L1.4434,6.3 C1.38541412,6.7648654 1.38541412,7.2351346 1.4434,7.7 L4.2882,7.7 C4.16986499,7.24083503 4.16986499,6.75916497 4.2882,6.3 L4.2882,6.3 Z M9.7118,6.3 C9.83010452,6.75916883 9.83010452,7.24083117 9.7118,7.7 L12.5566,7.7 C12.614557,7.2351328 12.614557,6.7648672 12.5566,6.3 L9.7118,6.3 Z M7,8.4 C7.77319865,8.4 8.4,7.77319865 8.4,7 C8.4,6.22680135 7.77319865,5.6 7,5.6 C6.22680135,5.6 5.6,6.22680135 5.6,7 C5.6,7.77319865 6.22680135,8.4 7,8.4 Z" id="形状"></path>
                        </g>
                    </g>
                </g>
            </g>
        </g>
    </g>
</svg>