<?xml version="1.0" encoding="UTF-8"?>
<svg width="18px" height="18px" viewBox="0 0 18 18" version="1.1" xmlns="http://www.w3.org/2000/svg" xmlns:xlink="http://www.w3.org/1999/xlink">
    <title>ic/details/address@2x</title>
    <g id="2⃣️课程" stroke="none" stroke-width="1" fill="none" fill-rule="evenodd">
        <g id="课程详情" transform="translate(-32.000000, -350.000000)">
            <g id="编组" transform="translate(16.000000, 112.000000)">
                <g id="ic/details/address" transform="translate(16.000000, 238.000000)">
                    <rect id="矩形" x="0" y="0" width="18" height="18"></rect>
                    <path d="M9,1.69662551 C12.1756373,1.69662551 14.75,4.2709882 14.75,7.44662551 C14.75,10.367922 12.5714918,12.7804005 9.7504381,13.1480986 L9.75,15.9466255 C9.75,16.2227679 9.52614237,16.4466255 9.25,16.4466255 L8.75,16.4466255 C8.47385763,16.4466255 8.25,16.2227679 8.25,15.9466255 L8.25056171,13.1482288 C5.42902294,12.7809705 3.25,10.3682671 3.25,7.44662551 C3.25,4.2709882 5.82436269,1.69662551 9,1.69662551 Z M9,3.19662551 C6.65278981,3.19662551 4.75,5.09941532 4.75,7.44662551 C4.75,9.7938357 6.65278981,11.6966255 9,11.6966255 C11.3472102,11.6966255 13.25,9.7938357 13.25,7.44662551 C13.25,5.09941532 11.3472102,3.19662551 9,3.19662551 Z M9.97359134,4.75123999 C11.0362322,5.14053098 11.775156,6.12161992 11.8499939,7.25618535 L11.8562595,7.44662551 L10.5562595,7.44662551 C10.5562595,6.82976704 10.1971962,6.28070048 9.65476113,6.02548386 L9.52640866,5.97190688 L9.97359134,4.75123999 Z" id="形状结合" fill="#8B8A99" fill-rule="nonzero"></path>
                </g>
            </g>
        </g>
    </g>
</svg>