<?xml version="1.0" encoding="UTF-8"?>
<svg width="19px" height="18px" viewBox="0 0 19 18" version="1.1" xmlns="http://www.w3.org/2000/svg" xmlns:xlink="http://www.w3.org/1999/xlink">
    <title>ic/details/begin@2x</title>
    <g id="2⃣️课程" stroke="none" stroke-width="1" fill="none" fill-rule="evenodd">
        <g id="课程详情" transform="translate(-31.000000, -406.000000)">
            <g id="编组" transform="translate(16.000000, 112.000000)">
                <g id="ic/details/begin" transform="translate(14.961384, 294.000000)">
                    <rect id="矩形" x="1.03861633" y="0" width="18" height="18"></rect>
                    <path d="M5.17601165,4.11309199 L5.17601165,14.2785249 C5.17601165,14.5490519 5.25414007,14.8138225 5.40100612,15.0410123 C5.82211626,15.6924352 6.69157609,15.8791406 7.342999,15.4580304 L15.2055454,10.375314 C15.3724983,10.2673879 15.5146375,10.1252487 15.6225636,9.9582958 C16.0436737,9.30687289 15.8569683,8.43741306 15.2055454,8.01630293 L7.342999,2.93358646 C7.11580924,2.78672041 6.85103859,2.70859199 6.58051165,2.70859199 C5.80482772,2.70859199 5.17601165,3.33740806 5.17601165,4.11309199 Z M6.87141646,4.64954896 L13.9050076,9.19553846 L6.87141646,13.7429422 L6.87141646,4.64954896 Z" id="形状" fill="#8B8A99" fill-rule="nonzero"></path>
                </g>
            </g>
        </g>
    </g>
</svg>