<?xml version="1.0" encoding="UTF-8"?>
<svg width="18px" height="18px" viewBox="0 0 18 18" version="1.1" xmlns="http://www.w3.org/2000/svg" xmlns:xlink="http://www.w3.org/1999/xlink">
    <title>ic/details/class@2x</title>
    <g id="2⃣️课程" stroke="none" stroke-width="1" fill="none" fill-rule="evenodd">
        <g id="课程详情" transform="translate(-32.000000, -322.000000)">
            <g id="编组" transform="translate(16.000000, 112.000000)">
                <g id="ic/details/class" transform="translate(16.000000, 210.000000)">
                    <rect id="矩形" x="0" y="1.36424205e-12" width="18" height="18"></rect>
                    <path d="M15.5289295,11.351913 L15.5769098,11.4283356 L15.8038773,11.8737844 C15.9144441,12.0907839 15.8514686,12.3509531 15.6656285,12.4953401 L15.5902782,12.5437475 L9.2341119,15.8713509 C9.23248029,15.872205 9.23084397,15.8730502 9.22920302,15.8738863 C9.19382405,15.8919128 9.15730702,15.9053245 9.12033799,15.9143444 C9.11047211,15.9156403 9.10043317,15.9178597 9.09032805,15.9197701 C9.07458639,15.9235038 9.05912353,15.9255134 9.04366407,15.9267936 L8.99997742,15.9284829 L8.99997742,15.9284829 C8.98530541,15.9284064 8.97063342,15.9276783 8.95604929,15.9263125 C8.94087647,15.9255134 8.92541361,15.9235038 8.90999634,15.9207489 L8.87957005,15.9131167 L8.87957005,15.9131167 C8.84269298,15.9053245 8.80617595,15.8919128 8.77079698,15.8738863 C8.76915603,15.8730502 8.76751971,15.872205 8.7658881,15.8713509 L2.40972182,12.5437475 C2.16698681,12.41667 2.0717351,12.1179088 2.19612268,11.8737844 L2.42309021,11.4283356 C2.54845622,11.1822909 2.84954406,11.0844615 3.09558872,11.2098275 C3.09722967,11.2106636 3.09886598,11.2115088 3.10049759,11.212363 L8.99952517,14.3002243 L14.8995024,11.212363 C14.9003182,11.2119359 14.9011352,11.2115111 14.9019533,11.2110885 L14.9044113,11.2098275 C15.1231176,11.0983911 15.3853149,11.1633065 15.5289295,11.351913 Z M15.5289295,8.43224597 L15.5769098,8.50866855 L15.8038773,8.95411741 C15.9144441,9.17111685 15.8514686,9.43128611 15.6656285,9.5756731 L15.5902782,9.62408047 L9.2341119,12.9516838 C9.23248029,12.952538 9.23084397,12.9533832 9.22920302,12.9542193 C9.19382405,12.9722458 9.15730702,12.9856575 9.12033799,12.9946774 C9.11047211,12.9959733 9.10043317,12.9981927 9.09032805,13.0001031 C9.07458639,13.0038368 9.05912353,13.0058464 9.04366407,13.0071266 L8.99997742,13.0088158 L8.99997742,13.0088158 L8.95604929,13.0066454 L8.95604929,13.0066454 C8.94087647,13.0058464 8.92541361,13.0038368 8.90999634,13.0010819 C8.89956683,12.9981927 8.88952789,12.9959733 8.87957005,12.9934497 C8.84269298,12.9856575 8.80617595,12.9722458 8.77079698,12.9542193 C8.76915603,12.9533832 8.76751971,12.952538 8.7658881,12.9516838 L2.40972182,9.62408047 C2.16698681,9.49700296 2.0717351,9.19824178 2.19612268,8.95411741 L2.42309021,8.50866855 C2.54845622,8.26262389 2.84954406,8.16479452 3.09558872,8.29016054 C3.09722967,8.29099664 3.09886598,8.29184181 3.10049759,8.29269599 L8.99952517,11.3805573 L14.8995024,8.29269599 C14.9003182,8.2922689 14.9011352,8.29184406 14.9019533,8.29142149 L14.9044113,8.29016054 C15.1231176,8.17872408 15.3853149,8.24363953 15.5289295,8.43224597 Z M8.64375214,2.17026872 C8.86303863,2.05435487 9.12545158,2.05435487 9.34473806,2.17026872 L9.34473806,2.17026872 L15.3551457,5.34734302 C15.8878218,5.62891318 15.8878218,6.3919021 15.3551457,6.67347226 L15.3551457,6.67347226 L9.34473806,9.85054656 C9.12545158,9.96646041 8.86303863,9.96646041 8.64375214,9.85054656 L8.64375214,9.85054656 L2.6333445,6.67347226 C2.10066845,6.3919021 2.10066845,5.62891318 2.6333445,5.34734302 L2.6333445,5.34734302 Z M8.99436003,3.68073634 L4.58837768,6.00923898 L8.99436003,8.33915582 L13.3996353,6.00994608 L8.99436003,3.68073634 Z" id="形状结合" fill="#8B8A99" fill-rule="nonzero"></path>
                </g>
            </g>
        </g>
    </g>
</svg>