<?xml version="1.0" encoding="UTF-8"?>
<svg width="18px" height="18px" viewBox="0 0 18 18" version="1.1" xmlns="http://www.w3.org/2000/svg" xmlns:xlink="http://www.w3.org/1999/xlink">
    <title>ic/details/course@2x</title>
    <g id="2⃣️课程" stroke="none" stroke-width="1" fill="none" fill-rule="evenodd">
        <g id="课程详情" transform="translate(-32.000000, -247.000000)">
            <g id="编组" transform="translate(16.000000, 112.000000)">
                <g id="ic/details/course" transform="translate(16.000000, 135.000000)">
                    <rect id="矩形" x="0" y="0" width="18" height="18"></rect>
                    <path d="M14,2.25 C14.6903559,2.25 15.25,2.80964406 15.25,3.5 L15.25,3.5 L15.25,14.5 C15.25,15.1903559 14.6903559,15.75 14,15.75 L14,15.75 L4,15.75 C3.30964406,15.75 2.75,15.1903559 2.75,14.5 L2.75,14.5 L2.75,3.5 C2.75,2.80964406 3.30964406,2.25 4,2.25 L4,2.25 Z M13.75,3.75 L4.25,3.75 L4.25,14.25 L13.75,14.25 L13.75,3.75 Z M9.5,9.75124413 C9.77614237,9.75124413 10,9.97510175 10,10.2512441 L10,10.7512441 C10,11.0273865 9.77614237,11.2512441 9.5,11.2512441 L6.5,11.2512441 C6.22385763,11.2512441 6,11.0273865 6,10.7512441 L6,10.2512441 C6,9.97510175 6.22385763,9.75124413 6.5,9.75124413 L9.5,9.75124413 Z M11.5,6.74875587 C11.7761424,6.74875587 12,6.9726135 12,7.24875587 L12,7.74875587 C12,8.02489825 11.7761424,8.24875587 11.5,8.24875587 L6.5,8.24875587 C6.22385763,8.24875587 6,8.02489825 6,7.74875587 L6,7.24875587 C6,6.9726135 6.22385763,6.74875587 6.5,6.74875587 L11.5,6.74875587 Z" id="形状结合" fill="#8B8A99" fill-rule="nonzero"></path>
                </g>
            </g>
        </g>
    </g>
</svg>