<?xml version="1.0" encoding="UTF-8"?>
<svg width="19px" height="18px" viewBox="0 0 19 18" version="1.1" xmlns="http://www.w3.org/2000/svg" xmlns:xlink="http://www.w3.org/1999/xlink">
    <title>ic/details/end@2x</title>
    <g id="2⃣️课程" stroke="none" stroke-width="1" fill="none" fill-rule="evenodd">
        <g id="课程详情" transform="translate(-31.000000, -434.000000)">
            <g id="编组" transform="translate(16.000000, 112.000000)">
                <g id="ic/details/end" transform="translate(15.961384, 322.000000)">
                    <rect id="矩形" x="0.0386163256" y="0" width="18" height="18"></rect>
                    <g id="编组-2" transform="translate(2.638616, 3.883807)" fill="#8B8A99">
                        <path d="M1.8,2.60195622 L1.8,4.83881584 C1.8,7.37932569 3.85949015,9.43881584 6.4,9.43881584 C8.86994013,9.43881584 10.8852127,7.4921527 10.9952665,5.04937769 L11,4.83881584 L11,2.60195622 L12.8,2.60195622 L12.8,4.83881584 C12.8,8.37343824 9.9346224,11.2388158 6.4,11.2388158 C2.94221722,11.2388158 0.124897913,8.49666573 0.00403988222,5.0683633 L1.81188398e-13,4.83881584 L1.81188398e-13,2.60195622 L1.8,2.60195622 Z M6.9,0 C7.17614237,-5.07265313e-17 7.4,0.223857625 7.4,0.5 L7.4,5.5 C7.4,5.77614237 7.17614237,6 6.9,6 L5.9,6 C5.62385763,6 5.4,5.77614237 5.4,5.5 L5.4,0.5 C5.4,0.223857625 5.62385763,5.07265313e-17 5.9,0 L6.9,0 Z" id="形状结合"></path>
                    </g>
                </g>
            </g>
        </g>
    </g>
</svg>