<?xml version="1.0" encoding="UTF-8"?>
<svg width="18px" height="18px" viewBox="0 0 18 18" version="1.1" xmlns="http://www.w3.org/2000/svg" xmlns:xlink="http://www.w3.org/1999/xlink">
    <title>ic/details/school@2x</title>
    <g id="2⃣️课程" stroke="none" stroke-width="1" fill="none" fill-rule="evenodd">
        <g id="课程详情" transform="translate(-32.000000, -378.000000)">
            <g id="编组" transform="translate(16.000000, 112.000000)">
                <g id="ic/details/school" transform="translate(16.000000, 266.000000)">
                    <rect id="矩形" x="0" y="0" width="18" height="18"></rect>
                    <path d="M9.94802277,3.5701482 C10.5952315,3.5701482 11.1275567,4.06202286 11.1915692,4.69234296 L11.1980228,4.8201482 L11.198,6.5701482 L13.9584294,6.5701482 C14.5837241,6.5701482 15.1260776,7.01987194 15.1914292,7.63294125 L15.1980228,7.7576482 L15.198,13.5701482 L15.5,13.5701482 C15.7761424,13.5701482 16,13.7940058 16,14.0701482 L16,14.5701482 C16,14.8462906 15.7761424,15.0701482 15.5,15.0701482 L2.5,15.0701482 C2.22385763,15.0701482 2,14.8462906 2,14.5701482 L2,14.0701482 C2,13.7940058 2.22385763,13.5701482 2.5,13.5701482 L2.698,13.5701482 L2.69802277,4.8201482 C2.69802277,4.17293951 3.18989743,3.6406143 3.82021753,3.57660181 L3.94802277,3.5701482 L9.94802277,3.5701482 Z M9.698,5.07 L4.198,5.07 L4.198,13.5701482 L9.698,13.5701482 L9.698,5.07 Z M13.698,8.07 L11.198,8.0701482 L11.198,13.5701482 L13.698,13.5701482 L13.698,8.07 Z" id="形状结合" fill="#8B8A99" fill-rule="nonzero"></path>
                </g>
            </g>
        </g>
    </g>
</svg>