<?xml version="1.0" encoding="UTF-8"?>
<svg width="18px" height="18px" viewBox="0 0 18 18" version="1.1" xmlns="http://www.w3.org/2000/svg" xmlns:xlink="http://www.w3.org/1999/xlink">
    <title>ic/details/teacher@2x</title>
    <g id="2⃣️课程" stroke="none" stroke-width="1" fill="none" fill-rule="evenodd">
        <g id="课程详情" transform="translate(-32.000000, -219.000000)">
            <g id="编组" transform="translate(16.000000, 112.000000)">
                <g id="ic/details/teacher" transform="translate(16.000000, 107.000000)">
                    <rect id="矩形" x="0" y="0" width="18" height="18"></rect>
                    <path d="M9,1.96869282 C11.900109,1.96869282 14.2511119,4.31969571 14.2511119,7.21980476 C14.2511119,9.16246352 13.1961967,10.8587336 11.6279636,11.7670178 C13.0490721,12.3335809 14.2619549,13.3543348 15.0662974,14.6899887 L15.1981735,14.9184477 L13.8854162,15.6441667 C12.9493484,13.9509083 11.2025173,12.8531017 9.24890942,12.7679864 L9.00367516,12.7626516 C7.02682816,12.7626516 5.23836588,13.7927279 4.23577181,15.4356409 L4.11458384,15.6441667 L2.80182648,14.9184477 C3.60219536,13.4706557 4.87093951,12.3655222 6.37231075,11.7659876 C4.80371016,10.8585839 3.74888805,9.16237781 3.74888805,7.21980476 C3.74888805,4.31969571 6.09989095,1.96869282 9,1.96869282 Z M9,3.46869282 C6.92831808,3.46869282 5.24888805,5.14812284 5.24888805,7.21980476 C5.24888805,9.29148669 6.92831808,10.9709167 9,10.9709167 C11.0716819,10.9709167 12.7511119,9.29148669 12.7511119,7.21980476 C12.7511119,5.14812284 11.0716819,3.46869282 9,3.46869282 Z" id="形状结合" fill="#8B8A99" fill-rule="nonzero"></path>
                </g>
            </g>
        </g>
    </g>
</svg>