<?xml version="1.0" encoding="UTF-8"?>
<svg width="18px" height="18px" viewBox="0 0 18 18" version="1.1" xmlns="http://www.w3.org/2000/svg" xmlns:xlink="http://www.w3.org/1999/xlink">
    <title>ic/details/time@2x</title>
    <g id="2⃣️课程" stroke="none" stroke-width="1" fill="none" fill-rule="evenodd">
        <g id="课程详情" transform="translate(-32.000000, -191.000000)">
            <g id="编组" transform="translate(16.000000, 112.000000)">
                <g id="ic/details/time" transform="translate(16.000000, 79.000000)">
                    <rect id="矩形" x="0" y="0" width="18" height="18"></rect>
                    <path d="M9,1.75 C13.0040644,1.75 16.25,4.99593556 16.25,9 C16.25,13.0040644 13.0040644,16.25 9,16.25 C4.99593556,16.25 1.75,13.0040644 1.75,9 C1.75,4.99593556 4.99593556,1.75 9,1.75 Z M9,3.25 C5.82436269,3.25 3.25,5.82436269 3.25,9 C3.25,12.1756373 5.82436269,14.75 9,14.75 C12.1756373,14.75 14.75,12.1756373 14.75,9 C14.75,5.82436269 12.1756373,3.25 9,3.25 Z M9.25,4.98624087 C9.52614237,4.98624087 9.75,5.2100985 9.75,5.48624087 L9.75,8.486 L11.75,8.48624087 C12.0261424,8.48624087 12.25,8.7100985 12.25,8.98624087 L12.25,9.48624087 C12.25,9.76238325 12.0261424,9.98624087 11.75,9.98624087 L8.75,9.98624087 C8.47385763,9.98624087 8.25,9.76238325 8.25,9.48624087 L8.25,5.48624087 C8.25,5.2100985 8.47385763,4.98624087 8.75,4.98624087 L9.25,4.98624087 Z" id="形状结合" fill="#8B8A99" fill-rule="nonzero"></path>
                </g>
            </g>
        </g>
    </g>
</svg>