<?xml version="1.0" encoding="UTF-8"?>
<svg width="44px" height="44px" viewBox="0 0 44 44" version="1.1" xmlns="http://www.w3.org/2000/svg" xmlns:xlink="http://www.w3.org/1999/xlink">
    <title>ICON/48/BIM</title>
    <defs>
        <linearGradient x1="9.50079273%" y1="0%" x2="70.7228569%" y2="92.9947043%" id="linearGradient-1">
            <stop stop-color="#80D4FF" offset="0%"></stop>
            <stop stop-color="#265CFF" offset="100%"></stop>
        </linearGradient>
        <filter x="-32.2%" y="-32.2%" width="164.4%" height="164.4%" filterUnits="objectBoundingBox" id="filter-2">
            <feGaussianBlur stdDeviation="2.46857143" in="SourceGraphic"></feGaussianBlur>
        </filter>
        <linearGradient x1="97.4808247%" y1="97.4339946%" x2="4.85592964%" y2="2.37342267%" id="linearGradient-3">
            <stop stop-color="#8BB4FF" offset="0%"></stop>
            <stop stop-color="#B0CCFF" offset="100%"></stop>
        </linearGradient>
        <linearGradient x1="50%" y1="0%" x2="50%" y2="100%" id="linearGradient-4">
            <stop stop-color="#FFFFFF" offset="0%"></stop>
            <stop stop-color="#FFFFFF" offset="100%"></stop>
        </linearGradient>
        <path d="M2.5316535,-2.15636099e-16 L17.4683465,-1.10724359e-17 C18.3486576,6.43340411e-18 18.6678796,0.0916586606 18.9897082,0.263774464 C19.3115368,0.435890268 19.5641097,0.688463214 19.7362255,1.01029179 C19.9083413,1.33212036 20,1.65134242 20,2.5316535 L20,17.4683465 C20,18.3486576 19.9083413,18.6678796 19.7362255,18.9897082 C19.5641097,19.3115368 19.3115368,19.5641097 18.9897082,19.7362255 C18.6678796,19.9083413 18.3486576,20 17.4683465,20 L2.5316535,20 C1.65134242,20 1.33212036,19.9083413 1.01029179,19.7362255 C0.688463214,19.5641097 0.435890268,19.3115368 0.263774464,18.9897082 C0.0916586606,18.6678796 1.0548122e-16,18.3486576 -1.81542155e-16,17.4683465 L-4.51663797e-17,2.5316535 C2.62429673e-17,1.65134242 0.0916586606,1.33212036 0.263774464,1.01029179 C0.435890268,0.688463214 0.688463214,0.435890268 1.01029179,0.263774464 C1.33212036,0.0916586606 1.65134242,1.25290783e-16 2.5316535,-2.15636099e-16 Z" id="path-5"></path>
        <linearGradient x1="18.3349609%" y1="16.2441032%" x2="99.9938018%" y2="94.6858135%" id="linearGradient-7">
            <stop stop-color="#80B3FF" offset="0%"></stop>
            <stop stop-color="#265CFF" offset="100%"></stop>
        </linearGradient>
        <filter x="-15.0%" y="-15.0%" width="129.9%" height="129.9%" filterUnits="objectBoundingBox" id="filter-8">
            <feGaussianBlur stdDeviation="0.987428571" in="SourceGraphic"></feGaussianBlur>
        </filter>
        <linearGradient x1="-61.6436965%" y1="10.9812771%" x2="156.795806%" y2="118.556916%" id="linearGradient-9">
            <stop stop-color="#80B3FF" offset="0%"></stop>
            <stop stop-color="#265CFF" offset="100%"></stop>
        </linearGradient>
        <path d="M5.76582675,3.5 L18.2341732,3.5 C18.6743288,3.5 18.8339398,3.54582933 18.9948541,3.63188723 C19.1557684,3.71794513 19.2820549,3.84423161 19.3681128,4.00514589 C19.4541707,4.16606018 19.5,4.32567121 19.5,4.76582675 L19.5,8.23417325 C19.5,8.67432879 19.4541707,8.83393982 19.3681128,8.99485411 C19.2820549,9.15576839 19.1557684,9.28205487 18.9948541,9.36811277 C18.8339398,9.45417067 18.6743288,9.5 18.2341732,9.5 L5.76582675,9.5 C5.32567121,9.5 5.16606018,9.45417067 5.00514589,9.36811277 C4.84423161,9.28205487 4.71794513,9.15576839 4.63188723,8.99485411 C4.54582933,8.83393982 4.5,8.67432879 4.5,8.23417325 L4.5,4.76582675 C4.5,4.32567121 4.54582933,4.16606018 4.63188723,4.00514589 C4.71794513,3.84423161 4.84423161,3.71794513 5.00514589,3.63188723 C5.16606018,3.54582933 5.32567121,3.5 5.76582675,3.5 Z" id="path-10"></path>
        <filter x="-49.4%" y="-123.4%" width="198.7%" height="346.9%" filterUnits="objectBoundingBox" id="filter-12">
            <feGaussianBlur stdDeviation="2.46857143" in="SourceGraphic"></feGaussianBlur>
        </filter>
        <linearGradient x1="9.50079273%" y1="40.2286873%" x2="70.7228569%" y2="58.402294%" id="linearGradient-13">
            <stop stop-color="#80B3FF" offset="0%"></stop>
            <stop stop-color="#265CFF" offset="100%"></stop>
        </linearGradient>
        <path d="M7.015625,18.5 C7.77083333,18.5 8.32161458,18.2760417 8.66796875,17.828125 C8.89973958,17.5286458 9.015625,17.1940104 9.015625,16.8242188 C9.015625,16.3841146 8.88671875,16.0390625 8.62890625,15.7890625 C8.48307292,15.6484375 8.26302083,15.5221354 7.96875,15.4101563 C8.16927083,15.3085938 8.32291667,15.1966146 8.4296875,15.0742188 C8.63541667,14.8424479 8.73828125,14.5455729 8.73828125,14.1835938 C8.73828125,13.8736979 8.65494792,13.6002604 8.48828125,13.3632813 C8.20442708,12.9622396 7.7265625,12.7617188 7.0546875,12.7617188 L7.0546875,12.7617188 L4.58984375,12.7617188 L4.58984375,18.5 L7.015625,18.5 Z M6.765625,15.1875 L5.3515625,15.1875 L5.3515625,13.4101563 L6.73828125,13.4101563 C7.07682292,13.4101563 7.33203125,13.4466146 7.50390625,13.5195313 C7.80859375,13.6497396 7.9609375,13.9023438 7.9609375,14.2773438 C7.9609375,14.6497396 7.81770833,14.9075521 7.53125,15.0507813 C7.34895833,15.1419271 7.09375,15.1875 6.765625,15.1875 L6.765625,15.1875 Z M7.02734375,17.8359375 L5.3515625,17.8359375 L5.3515625,15.8164063 L6.89453125,15.8164063 C7.22005208,15.8164063 7.48177083,15.8567708 7.6796875,15.9375 C8.05208333,16.0885417 8.23828125,16.3723958 8.23828125,16.7890625 C8.23828125,17.0364583 8.17447917,17.2473958 8.046875,17.421875 C7.84375,17.6979167 7.50390625,17.8359375 7.02734375,17.8359375 L7.02734375,17.8359375 Z M10.6679687,18.5 L10.6675781,15.0228906 C10.6665365,14.8901823 10.6634115,14.708724 10.6582031,14.4785156 C10.6516927,14.1907552 10.6484375,13.9765625 10.6484375,13.8359375 L10.6484375,13.6601563 L12.296875,18.5 L13.0664062,18.5 L14.703125,13.6601563 C14.703125,13.9700521 14.7005208,14.2604167 14.6953125,14.53125 C14.6901042,14.8020833 14.6875,14.9960938 14.6875,15.1132813 L14.6875,18.5 L15.4257812,18.5 L15.4257812,12.7617188 L14.3242187,12.7617188 L12.6875,17.6132813 L11.0390625,12.7617188 L9.92578125,12.7617188 L9.92578125,18.5 L10.6679687,18.5 Z M17.5703125,18.5 L17.5703125,12.7617188 L16.7851562,12.7617188 L16.7851562,18.5 L17.5703125,18.5 Z" id="path-14"></path>
    </defs>
    <g id="体质测试" stroke="none" stroke-width="1" fill="none" fill-rule="evenodd">
        <g id="项目列表-班级" transform="translate(-49.000000, -244.000000)">
            <g id="编组" transform="translate(12.000000, 181.000000)">
                <g id="身高体重" transform="translate(0.000000, 49.000000)">
                    <g id="ICON/48/BIM" transform="translate(35.000000, 12.000000)">
                        <path d="M17.189921,2 L30.810079,2 C36.0919455,2 38.0072779,2.54995196 39.9382493,3.58264678 C41.8692207,4.61534161 43.3846584,6.13077928 44.4173532,8.06175071 C45.450048,9.99272214 46,11.9080545 46,17.189921 L46,30.810079 C46,36.0919455 45.450048,38.0072779 44.4173532,39.9382493 C43.3846584,41.8692207 41.8692207,43.3846584 39.9382493,44.4173532 C38.0072779,45.450048 36.0919455,46 30.810079,46 L17.189921,46 C11.9080545,46 9.99272214,45.450048 8.06175071,44.4173532 C6.13077928,43.3846584 4.61534161,41.8692207 3.58264678,39.9382493 C2.54995196,38.0072779 2,36.0919455 2,30.810079 L2,17.189921 C2,11.9080545 2.54995196,9.99272214 3.58264678,8.06175071 C4.61534161,6.13077928 6.13077928,4.61534161 8.06175071,3.58264678 C9.99272214,2.54995196 11.9080545,2 17.189921,2 Z" id="矩形" fill="url(#linearGradient-1)"></path>
                        <g id="编组-3" transform="translate(12.000000, 12.000000)">
                            <path d="M6.79748025,3 L22.2025197,3 C23.5229864,3 24.0018195,3.13748799 24.4845623,3.3956617 C24.9673052,3.6538354 25.3461646,4.03269482 25.6043383,4.51543768 C25.862512,4.99818054 26,5.47701364 26,6.79748025 L26,22.2025197 C26,23.5229864 25.862512,24.0018195 25.6043383,24.4845623 C25.3461646,24.9673052 24.9673052,25.3461646 24.4845623,25.6043383 C24.0018195,25.862512 23.5229864,26 22.2025197,26 L6.79748025,26 C5.47701364,26 4.99818054,25.862512 4.51543768,25.6043383 C4.03269482,25.3461646 3.6538354,24.9673052 3.3956617,24.4845623 C3.13748799,24.0018195 3,23.5229864 3,22.2025197 L3,6.79748025 C3,5.47701364 3.13748799,4.99818054 3.3956617,4.51543768 C3.6538354,4.03269482 4.03269482,3.6538354 4.51543768,3.3956617 C4.99818054,3.13748799 5.47701364,3 6.79748025,3 Z" id="矩形" fill="#0039E6" filter="url(#filter-2)"></path>
                            <path d="M4.29748025,0.5 L19.7025197,0.5 C21.0229864,0.5 21.5018195,0.637487991 21.9845623,0.895661696 C22.4673052,1.1538354 22.8461646,1.53269482 23.1043383,2.01543768 C23.362512,2.49818054 23.5,2.97701364 23.5,4.29748025 L23.5,19.7025197 C23.5,21.0229864 23.362512,21.5018195 23.1043383,21.9845623 C22.8461646,22.4673052 22.4673052,22.8461646 21.9845623,23.1043383 C21.5018195,23.362512 21.0229864,23.5 19.7025197,23.5 L4.29748025,23.5 C2.97701364,23.5 2.49818054,23.362512 2.01543768,23.1043383 C1.53269482,22.8461646 1.1538354,22.4673052 0.895661696,21.9845623 C0.637487991,21.5018195 0.5,21.0229864 0.5,19.7025197 L0.5,4.29748025 C0.5,2.97701364 0.637487991,2.49818054 0.895661696,2.01543768 C1.1538354,1.53269482 1.53269482,1.1538354 2.01543768,0.895661696 C2.49818054,0.637487991 2.97701364,0.5 4.29748025,0.5 Z" id="矩形" fill="url(#linearGradient-3)"></path>
                            <path d="M4.5316535,2 L19.4683465,2 C20.3486576,2 20.6678796,2.09165866 20.9897082,2.26377446 C21.3115368,2.43589027 21.5641097,2.68846321 21.7362255,3.01029179 C21.9083413,3.33212036 22,3.65134242 22,4.5316535 L22,19.4683465 C22,20.3486576 21.9083413,20.6678796 21.7362255,20.9897082 C21.5641097,21.3115368 21.3115368,21.5641097 20.9897082,21.7362255 C20.6678796,21.9083413 20.3486576,22 19.4683465,22 L4.5316535,22 C3.65134242,22 3.33212036,21.9083413 3.01029179,21.7362255 C2.68846321,21.5641097 2.43589027,21.3115368 2.26377446,20.9897082 C2.09165866,20.6678796 2,20.3486576 2,19.4683465 L2,4.5316535 C2,3.65134242 2.09165866,3.33212036 2.26377446,3.01029179 C2.43589027,2.68846321 2.68846321,2.43589027 3.01029179,2.26377446 C3.33212036,2.09165866 3.65134242,2 4.5316535,2 Z" id="矩形" fill="url(#linearGradient-4)"></path>
                            <g id="编组" transform="translate(2.000000, 2.000000)">
                                <mask id="mask-6" fill="white">
                                    <use xlink:href="#path-5"></use>
                                </mask>
                                <use id="矩形" fill="url(#linearGradient-4)" xlink:href="#path-5"></use>
                                <path d="M18.9897082,0.263774464 C19.3115368,0.435890268 19.5641097,0.688463214 19.7362255,1.01029179 C19.9083413,1.33212036 20,1.65134242 20,2.5316535 L20,17.4683465 C20,18.3486576 19.9083413,18.6678796 19.7362255,18.9897082 C19.5641097,19.3115368 19.3115368,19.5641097 18.9897082,19.7362255 C18.6678796,19.9083413 18.3486576,20 17.4683465,20 L2.5316535,20 C1.65134242,20 1.33212036,19.9083413 1.01029179,19.7362255 C0.688463214,19.5641097 0.435890268,19.3115368 0.263774464,18.9897082 C0.233775702,18.9336154 0.2062211,18.8776018 0.181169969,18.8186827 C0.460661057,18.9375477 0.805006192,19 1.5316535,19 L1.5316535,19 L9.80406435,19 C12.2084946,19 13.6715186,18.6333654 14.9588329,17.9449021 C16.2461471,17.2564389 17.2564389,16.2461471 17.9449021,14.9588329 C18.6333654,13.6715186 19,12.2084946 19,9.80406435 L19,9.80406435 L19,1.5316535 C19,0.804138035 18.9373984,0.459838795 18.8185177,0.180583186 C18.8776018,0.2062211 18.9336154,0.233775702 18.9897082,0.263774464 Z" id="形状结合" fill="url(#linearGradient-7)" opacity="0.300000012" filter="url(#filter-8)" mask="url(#mask-6)"></path>
                            </g>
                            <mask id="mask-11" fill="white">
                                <use xlink:href="#path-10"></use>
                            </mask>
                            <use id="矩形" fill="url(#linearGradient-9)" xlink:href="#path-10"></use>
                            <path d="M5.76582675,3.5 L18.2341732,3.5 C18.6743288,3.5 18.8339398,3.54582933 18.9948541,3.63188723 C19.1557684,3.71794513 19.2820549,3.84423161 19.3681128,4.00514589 C19.4541707,4.16606018 19.5,4.32567121 19.5,4.76582675 L19.5,8.23417325 C19.5,8.67432879 19.4541707,8.83393982 19.3681128,8.99485411 C19.2820549,9.15576839 19.1557684,9.28205487 18.9948541,9.36811277 C18.8339398,9.45417067 18.6743288,9.5 18.2341732,9.5 L5.76582675,9.5 C5.32567121,9.5 5.16606018,9.45417067 5.00514589,9.36811277 C4.84423161,9.28205487 4.71794513,9.15576839 4.63188723,8.99485411 C4.54582933,8.83393982 4.5,8.67432879 4.5,8.23417325 L4.5,4.76582675 C4.5,4.32567121 4.54582933,4.16606018 4.63188723,4.00514589 C4.71794513,3.84423161 4.84423161,3.71794513 5.00514589,3.63188723 C5.16606018,3.54582933 5.32567121,3.5 5.76582675,3.5 Z" id="矩形" fill-opacity="0.636414855" fill="#FFFFFF" filter="url(#filter-12)" mask="url(#mask-11)"></path>
                            <g id="BMI" fill-rule="nonzero">
                                <use fill="#265CFF" xlink:href="#path-14"></use>
                                <use fill="url(#linearGradient-13)" xlink:href="#path-14"></use>
                            </g>
                        </g>
                        <g id="编组-2" transform="translate(16.500000, 15.500000)"></g>
                    </g>
                </g>
            </g>
        </g>
    </g>
</svg>