<?xml version="1.0" encoding="UTF-8"?>
<svg width="44px" height="44px" viewBox="0 0 44 44" version="1.1" xmlns="http://www.w3.org/2000/svg" xmlns:xlink="http://www.w3.org/1999/xlink">
    <title>ICON/48/肺活量</title>
    <defs>
        <linearGradient x1="100%" y1="100%" x2="15.2873768%" y2="0%" id="linearGradient-1">
            <stop stop-color="#FF632F" stop-opacity="0.987489073" offset="0%"></stop>
            <stop stop-color="#FFC68C" offset="100%"></stop>
        </linearGradient>
        <linearGradient x1="30.1139891%" y1="-17.9133577%" x2="89.0469396%" y2="98.0584391%" id="linearGradient-2">
            <stop stop-color="#FD8C67" offset="0%"></stop>
            <stop stop-color="#EF5724" offset="100%"></stop>
            <stop stop-color="#EF5724" offset="100%"></stop>
        </linearGradient>
        <filter x="-11.3%" y="-11.6%" width="122.7%" height="123.1%" filterUnits="objectBoundingBox" id="filter-3">
            <feGaussianBlur stdDeviation="0.964285714" in="SourceGraphic"></feGaussianBlur>
        </filter>
        <linearGradient x1="31.1825265%" y1="9.27628038%" x2="114.272922%" y2="103.165103%" id="linearGradient-4">
            <stop stop-color="#FFFFFF" offset="0%"></stop>
            <stop stop-color="#FCFDFF" offset="45.8247743%"></stop>
            <stop stop-color="#D5E4FF" offset="100%"></stop>
        </linearGradient>
        <path d="M14.2847624,5.68590343 C12.0473812,4.40793299 10.7422023,3.3761648 10.3692259,2.59059884 C9.80976125,1.41224991 9.7039553,-1.02143923 7.68486974,0.469243147 C5.66578418,1.95992553 1.72373589,5.39146046 1.08671159,6.0339738 C0.449687293,6.67648714 -1.12638526,7.19205687 1.8999157,10.6162581 C4.92621667,14.0404592 9.58671328,18.2052693 11.5146515,20.0929209 C13.4425896,21.9805726 16.266789,24.7256851 19.7481809,25.1341211 C23.2295728,25.5425572 25.4597292,24.2240742 25.4597292,22.2373733 C25.4597292,20.2506725 23.3042818,18.8419984 22.5456492,18.4522359 C21.7870167,18.0624735 19.9454001,15.877447 19.2758349,13.351061 C18.829458,11.6668038 18.3930667,9.72204013 17.9666609,7.51677014 L14.2847624,5.68590343 Z" id="path-5"></path>
        <linearGradient x1="47.1140084%" y1="56.0102176%" x2="32.5099252%" y2="80.3265622%" id="linearGradient-7">
            <stop stop-color="#FFE7CE" offset="0%"></stop>
            <stop stop-color="#FF9A33" offset="100%"></stop>
        </linearGradient>
        <filter x="-11.2%" y="-11.7%" width="122.4%" height="122.4%" filterUnits="objectBoundingBox" id="filter-8">
            <feGaussianBlur stdDeviation="0.296228571" in="SourceGraphic"></feGaussianBlur>
        </filter>
        <radialGradient cx="56.9793776%" cy="3.13594305%" fx="56.9793776%" fy="3.13594305%" r="92.682676%" gradientTransform="translate(0.569794,0.031359),scale(1.000000,0.958855),rotate(101.405601),scale(1.000000,1.096030),translate(-0.569794,-0.031359)" id="radialGradient-9">
            <stop stop-color="#FFAA53" offset="0%"></stop>
            <stop stop-color="#F3F6FF" offset="45.8416615%"></stop>
            <stop stop-color="#FFFFFF" offset="67.1093908%"></stop>
            <stop stop-color="#FFF5EB" offset="100%"></stop>
        </radialGradient>
        <filter x="0.0%" y="0.0%" width="100.0%" height="100.0%" filterUnits="objectBoundingBox" id="filter-10">
            <feGaussianBlur stdDeviation="0" in="SourceGraphic"></feGaussianBlur>
        </filter>
        <linearGradient x1="45.0612959%" y1="0%" x2="52.5270633%" y2="92.9947043%" id="linearGradient-11">
            <stop stop-color="#FFDACD" offset="0%"></stop>
            <stop stop-color="#FF713D" offset="100%"></stop>
        </linearGradient>
        <linearGradient x1="0%" y1="57.7301178%" x2="96.0436084%" y2="43.937168%" id="linearGradient-12">
            <stop stop-color="#FDA041" offset="0%"></stop>
            <stop stop-color="#FEA64D" offset="48.051428%"></stop>
            <stop stop-color="#FFF8F1" offset="100%"></stop>
        </linearGradient>
        <linearGradient x1="14.3517607%" y1="14.2067765%" x2="78.8247398%" y2="75.4140344%" id="linearGradient-13">
            <stop stop-color="#FFEBD6" offset="0%"></stop>
            <stop stop-color="#FFDEBD" offset="46.836757%"></stop>
            <stop stop-color="#FFB468" offset="100%"></stop>
        </linearGradient>
        <linearGradient x1="79.0977062%" y1="62.2536569%" x2="24.8861635%" y2="28.4108473%" id="linearGradient-14">
            <stop stop-color="#FFFFFF" offset="0%"></stop>
            <stop stop-color="#FADBBB" offset="55.2959042%"></stop>
            <stop stop-color="#FFBE7B" offset="100%"></stop>
        </linearGradient>
        <path d="M4.90945673,0.329016727 C3.39045443,-0.109672242 2.15015869,-0.109672242 1.18856952,0.329016727 C-0.253814247,0.987050182 -0.210466913,2.23627169 0.407768817,2.85550408 C1.02600455,3.47473646 1.40500689,3.28620553 2.81945682,2.77943862 C3.76242344,2.44159401 5.09939021,2.37454051 6.83035714,2.57827813 L4.90945673,0.329016727 Z" id="path-15"></path>
        <radialGradient cx="68.8172673%" cy="88.9615391%" fx="68.8172673%" fy="88.9615391%" r="140.958891%" gradientTransform="translate(0.688173,0.889615),scale(1.000000,0.666667),rotate(-108.795359),scale(1.000000,0.985253),translate(-0.688173,-0.889615)" id="radialGradient-17">
            <stop stop-color="#FFE5CA" offset="0%"></stop>
            <stop stop-color="#FFF7EE" offset="49.7909606%"></stop>
            <stop stop-color="#FFF2E4" offset="59.9814248%"></stop>
            <stop stop-color="#FFB76E" offset="100%"></stop>
        </radialGradient>
        <linearGradient x1="68.7969368%" y1="99.3612011%" x2="36.8822927%" y2="8.88633261%" id="linearGradient-18">
            <stop stop-color="#FFC890" offset="0%"></stop>
            <stop stop-color="#FFF1E2" offset="100%"></stop>
        </linearGradient>
    </defs>
    <g id="体质测试" stroke="none" stroke-width="1" fill="none" fill-rule="evenodd">
        <g id="项目列表-班级" transform="translate(-166.000000, -678.000000)">
            <g id="编组-5" transform="translate(12.000000, 615.000000)">
                <g id="肺活量备份-2" transform="translate(117.000000, 49.000000)">
                    <g id="ICON/48/肺活量" transform="translate(35.000000, 12.000000)">
                        <path d="M17.189921,2 L30.810079,2 C36.0919455,2 38.0072779,2.54995196 39.9382493,3.58264678 C41.8692207,4.61534161 43.3846584,6.13077928 44.4173532,8.06175071 C45.450048,9.99272214 46,11.9080545 46,17.189921 L46,30.810079 C46,36.0919455 45.450048,38.0072779 44.4173532,39.9382493 C43.3846584,41.8692207 41.8692207,43.3846584 39.9382493,44.4173532 C38.0072779,45.450048 36.0919455,46 30.810079,46 L17.189921,46 C11.9080545,46 9.99272214,45.450048 8.06175071,44.4173532 C6.13077928,43.3846584 4.61534161,41.8692207 3.58264678,39.9382493 C2.54995196,38.0072779 2,36.0919455 2,30.810079 L2,17.189921 C2,11.9080545 2.54995196,9.99272214 3.58264678,8.06175071 C4.61534161,6.13077928 6.13077928,4.61534161 8.06175071,3.58264678 C9.99272214,2.54995196 11.9080545,2 17.189921,2 Z" id="矩形" fill="url(#linearGradient-1)"></path>
                        <g id="编组" transform="translate(22.821759, 25.171875) scale(-1, 1) translate(-22.821759, -25.171875) translate(8.643519, 11.500000)">
                            <path d="M14.2608395,7.63889209 C12.0106059,6.37148798 10.6979296,5.34825049 10.3228106,4.56917964 C9.76013216,3.40057336 9.65371841,0.987006078 7.62303439,2.46536342 C5.59235037,3.94372076 1.62765731,7.34688359 0.986973684,7.9840846 C0.346290056,8.62128561 -1.23883611,9.13259258 1.80484918,12.5284823 C4.84853447,15.924372 9.5358029,20.0547472 11.474816,21.9267916 C13.413829,23.7988361 16.2542517,26.5212519 19.7556422,26.9263109 C23.2570326,27.33137 25.5,26.0237883 25.5,24.0535136 C25.5,22.0832389 23.3321709,20.6862118 22.5691804,20.2996719 C21.8061899,19.913132 19.9539944,17.7461714 19.2805828,15.2406738 C18.8316418,13.570342 18.3927437,11.6416578 17.9638885,9.4546211 L14.2608395,7.63889209 Z" id="蒙版" fill="url(#linearGradient-2)" fill-rule="nonzero" filter="url(#filter-3)"></path>
                            <g id="路径-33" transform="translate(2.000000, 0.000000)">
                                <g id="蒙版">
                                    <mask id="mask-6" fill="white">
                                        <use xlink:href="#path-5"></use>
                                    </mask>
                                    <use fill="url(#linearGradient-4)" xlink:href="#path-5"></use>
                                    <path d="M2.26097646,5.40417121 C3.86065245,8.16845979 5.05836119,9.64117952 5.85410267,9.8223304 C7.04771489,10.0940567 7.00510895,9.94094795 8.19320466,10.2 C9.38130037,10.459052 10.0624786,11.1907028 11.4062393,11.3908059 C12.75,11.5909091 13.3714496,11.9973225 13.6607143,13.0720502 C13.9499789,14.1467778 15.2549502,16.2813788 16.3928571,16.7423724 C17.1514618,17.0497015 18.2898546,16.4682269 19.8080357,14.9979485 L19.5992449,14.3727273 L19.5401431,13.5608457 L19.3526786,7.88181818 L17.2018764,3.51104167 L12.75,4.76622766 L10.3707269,0.666953034 L7.93379559,-0.814264206 L1.71747597,3.51104167 L2.26097646,5.40417121 Z" id="路径" stroke="url(#linearGradient-7)" stroke-width="1.97485714" filter="url(#filter-8)" mask="url(#mask-6)"></path>
                                    <path d="M3.56919049,4.07285734 C5.181233,6.95105493 6.385125,8.48072916 7.18086648,8.66188003 C8.3744787,8.93360634 8.1117713,8.75462318 9.29986702,9.01367523 C10.4879627,9.27272727 11.4285501,9.79979367 12.7723107,9.99989683 C14.1160714,10.2 14.7375211,10.6022118 15.0267857,11.6769395 C15.3160504,12.7516672 16.3938289,15.3182037 17.5317359,15.7791973 C18.2903405,16.0865264 18.9989063,15.6605297 19.6574331,14.5012072 L19.4187891,13.8619192 L20.9062145,12.1699366 L20.71875,6.49090909 L18.5679478,2.12013258 L14.1160714,3.37531856 L11.7367983,-0.723956057 L9.29986702,-2.2051733 L3.56919049,2.78181818 L3.56919049,4.07285734 Z" id="路径" fill="url(#radialGradient-9)" filter="url(#filter-10)" mask="url(#mask-6)"></path>
                                    <path d="M4.86885386,2.68180175 C4.56249857,3.28367654 4.56249857,4.25228542 4.86885386,5.5876284 C5.17520916,6.92297138 5.90457151,9.13351079 7.05694093,12.2192466 L9.35238896,11.6139766 C7.85011747,8.61300914 6.94464154,5.87035114 6.63596116,3.38600261 C6.32728079,0.901654082 7.08664904,-0.652980312 8.91406591,-1.27790057 L4.86885386,2.68180175 Z" id="路径-36" fill="url(#linearGradient-11)" fill-rule="nonzero" mask="url(#mask-6)"></path>
                                    <path d="M18.1929472,17.3022365 C17.7893979,17.8245473 16.6646298,18.0778164 14.8186429,18.0620437 C12.0496627,18.0383848 11.6075777,16.6779255 10.0120648,18.0209749 C8.94838953,18.9163412 8.02163859,19.5978767 7.23181197,20.0655814 C8.99393847,20.608242 10.9905372,21.0929352 13.2216082,21.519661 C16.5682146,22.1597496 16.1405426,22.0757432 16.1405426,22.0757432 C16.5447363,21.2732531 17.0289216,20.8431701 17.5930986,20.7854944 C18.439364,20.6989809 19.4370221,20.5101989 21.0993028,20.0629914 C22.2074899,19.7648531 24.5213981,18.3258952 28.0410273,15.7461178 L26.5246255,11.8735207 C22.6809332,12.6141767 20.4614968,13.2777246 19.8663165,13.8641644 C19.2711362,14.4506042 18.7133464,15.5966283 18.1929472,17.3022365 Z" id="路径-37" fill="url(#linearGradient-12)" fill-rule="nonzero" mask="url(#mask-6)" transform="translate(17.636420, 16.976448) rotate(54.000000) translate(-17.636420, -16.976448) "></path>
                                    <path d="M1.96563426,4.30259129 C3.75415551,7.61517589 5.1406431,9.47053112 6.12509702,9.86865697 C7.60177792,10.4658457 9.43159372,9.66636993 10.1437969,11.5527876 C10.856,13.4392052 12.8728305,17.5522898 14.1574792,18.7751956 C15.4421278,19.9981013 17.5821538,21.9156558 19.2492125,22.6565775 C20.9162712,23.3974993 22.517329,23.5508531 24.2767634,23.5508531 C25.4497196,23.5508531 25.9395596,22.4925122 25.7462834,20.3758306 L25.4597292,25.4976184 L17.9124614,26.4745993 L6.44957169,18.0566791 L-0.418032787,9.16827351 L-0.418032787,5.97566968 L1.96563426,4.30259129 Z" id="路径-32" fill="url(#linearGradient-13)" fill-rule="nonzero" mask="url(#mask-6)"></path>
                                </g>
                                <g id="路径-33备份" transform="translate(16.392857, 14.372727)">
                                    <mask id="mask-16" fill="white">
                                        <use xlink:href="#path-15"></use>
                                    </mask>
                                    <use id="蒙版" fill="url(#linearGradient-14)" xlink:href="#path-15"></use>
                                </g>
                            </g>
                            <path d="M20.422986,7.42915387 C20.6152615,9.10825264 20.4475063,10.047048 19.9197203,10.2455399 C19.0108927,10.5873354 19.0657614,10.1365603 17.8899686,10.6305952 C16.7141758,11.12463 15.7832907,11.4464125 15.6164081,9.39642561 C15.4495254,7.3464387 15.3292694,4.61058841 16.2366056,4.0085353 C17.1439418,3.40648219 19.6011772,3.25851845 19.9197203,4.0085353 C20.0829764,4.39292538 20.1983959,4.99924659 20.2659788,5.82749893 L20.2659793,5.82749889 C20.3096094,6.36220146 20.361952,6.89615737 20.422986,7.42915387 Z" id="蒙版" fill="url(#radialGradient-17)"></path>
                            <path d="M19.4498085,7.41586138 C19.5784596,8.62557694 19.4597915,9.30253288 19.0938042,9.44672923 C18.4576249,9.69737932 18.496033,9.36681088 17.672978,9.72910312 C16.849923,10.0913954 16.1983035,10.3273692 16.0814857,8.82404545 C15.9646678,7.32072171 15.8804886,5.3144315 16.5156239,4.87292589 C17.1507593,4.43142027 18.870824,4.32291353 19.0938042,4.87292589 C19.2058987,5.14942283 19.2857756,5.58250583 19.3334351,6.17217491 L19.3334354,6.17217488 C19.3669804,6.5872112 19.4057745,7.00180654 19.4498085,7.41586138 Z" id="蒙版备份" fill="url(#linearGradient-18)"></path>
                        </g>
                        <path d="M28.1430627,31.405692 C28.4919837,31.405692 28.6664415,31.0594196 28.6664415,30.3668644 C28.6664415,30.1183904 28.6241487,29.9174996 28.5395618,29.7641859 C28.4549749,29.6108721 28.3228099,29.5342164 28.1430627,29.5342164 C27.9553856,29.5342164 27.8185948,29.6102113 27.7326862,29.7622034 C27.6467776,29.9141954 27.603824,30.1144254 27.603824,30.3628994 C27.603824,31.0580979 27.7835685,31.405692 28.1430627,31.405692 Z M28.1430627,34.5538945 C28.2487963,34.5538945 28.3399902,34.5314264 28.4166471,34.4864897 C28.493304,34.4415529 28.553439,34.3860436 28.5970542,34.3199601 C28.6406693,34.2538765 28.6750322,34.1699518 28.7001439,34.0681832 C28.7252556,33.9664146 28.7411155,33.8705949 28.7477238,33.7807213 C28.7543322,33.6908478 28.7576363,33.587759 28.7576363,33.4714521 C28.7576363,32.7471768 28.5527805,32.3850446 28.1430627,32.3850446 C27.725415,32.3850446 27.5165942,32.7471768 27.5165942,33.4714521 C27.5165942,33.587759 27.5205592,33.6921694 27.5284892,33.7846863 C27.5364192,33.8772032 27.5536007,33.9736837 27.5800341,34.0741306 C27.6064675,34.1745776 27.6414912,34.2578415 27.6851063,34.323925 C27.7287214,34.3900086 27.7895173,34.444857 27.8674959,34.4884722 C27.9454744,34.5320873 28.0373291,34.5538945 28.1430627,34.5538945 Z M28.1430627,35.4103325 C26.9932097,35.4103325 26.4209351,34.7455424 26.4262218,33.4159422 C26.4288651,32.6705202 26.686587,32.1524333 27.199395,31.8616659 C26.7579571,31.528605 26.5332766,31.0462026 26.5253466,30.4144443 C26.5200599,29.8646295 26.6548682,29.4377365 26.9297756,29.1337523 C27.204683,28.8297682 27.609108,28.6777784 28.1430627,28.6777784 C28.6770175,28.6777784 29.0787992,28.830429 29.3484199,29.1357348 C29.6180406,29.4410406 29.7502056,29.8672729 29.7449189,30.4144443 C29.7369889,31.056776 29.5149517,31.5391784 29.0788005,31.8616659 C29.5916085,32.16565 29.8493303,32.6837369 29.8519737,33.4159422 C29.8651904,34.7455424 29.2955591,35.4103325 28.1430627,35.4103325 Z M32.1968569,35.4182625 C31.6443988,35.4182625 31.2214707,35.2438046 30.9280599,34.8948837 C30.6346492,34.5459628 30.487946,34.0807419 30.487946,33.499207 L30.487946,30.6087289 C30.487946,30.0086906 30.6300234,29.5362006 30.9141825,29.1912447 C31.1983415,28.8462888 31.6258954,28.6738134 32.1968569,28.6738134 C32.7625317,28.6738134 33.188764,28.8469496 33.4755664,29.1932272 C33.7623688,29.5395048 33.9057679,30.0113339 33.9057679,30.6087289 L33.9057679,33.499207 C33.9057679,34.0807419 33.7590647,34.5459628 33.4656539,34.8948837 C33.1722431,35.2438046 32.749315,35.4182625 32.1968569,35.4182625 Z M32.1968569,34.4508047 C32.5774979,34.4508047 32.7678156,34.1283221 32.7678156,33.483347 L32.7678156,30.6285538 C32.7678156,30.5439669 32.7651723,30.4666504 32.7598856,30.3966019 C32.7545989,30.3265533 32.7460082,30.2518801 32.7341132,30.1725799 C32.7222181,30.0932797 32.7023934,30.023893 32.6746383,29.9644179 C32.6468832,29.9049427 32.6131811,29.8494334 32.573531,29.7978883 C32.5338809,29.7463431 32.4816757,29.7073545 32.4169139,29.6809211 C32.3521521,29.6544876 32.2788005,29.6412711 32.1968569,29.6412711 C32.0990533,29.6412711 32.0138069,29.6617567 31.941115,29.7027285 C31.8684232,29.7437003 31.812253,29.7945838 31.7726029,29.8553806 C31.7329528,29.9161775 31.701894,29.993494 31.6794257,30.0873326 C31.6569573,30.1811712 31.6424191,30.2684001 31.6358108,30.349022 C31.6292024,30.4296438 31.6258983,30.5228202 31.6258983,30.6285538 L31.6258983,33.483347 C31.6258983,34.1283221 31.8162159,34.4508047 32.1968569,34.4508047 Z M36.286336,35.4182625 C35.7338779,35.4182625 35.3109498,35.2438046 35.017539,34.8948837 C34.7241283,34.5459628 34.5774251,34.0807419 34.5774251,33.499207 L34.5774251,30.6087289 C34.5774251,30.0086906 34.7195025,29.5362006 35.0036616,29.1912447 C35.2878206,28.8462888 35.7153745,28.6738134 36.286336,28.6738134 C36.8520108,28.6738134 37.2782431,28.8469496 37.5650455,29.1932272 C37.8518479,29.5395048 37.995247,30.0113339 37.995247,30.6087289 L37.995247,33.499207 C37.995247,34.0807419 37.8485438,34.5459628 37.555133,34.8948837 C37.2617222,35.2438046 36.8387941,35.4182625 36.286336,35.4182625 Z M36.286336,34.4508047 C36.666977,34.4508047 36.8572947,34.1283221 36.8572947,33.483347 L36.8572947,30.6285538 C36.8572947,30.5439669 36.8546514,30.4666504 36.8493647,30.3966019 C36.844078,30.3265533 36.8354873,30.2518801 36.8235923,30.1725799 C36.8116972,30.0932797 36.7918725,30.023893 36.7641174,29.9644179 C36.7363623,29.9049427 36.7026602,29.8494334 36.6630101,29.7978883 C36.62336,29.7463431 36.5711548,29.7073545 36.506393,29.6809211 C36.4416312,29.6544876 36.3682796,29.6412711 36.286336,29.6412711 C36.1885324,29.6412711 36.103286,29.6617567 36.0305941,29.7027285 C35.9579023,29.7437003 35.9017321,29.7945838 35.862082,29.8553806 C35.8224319,29.9161775 35.7913731,29.993494 35.7689048,30.0873326 C35.7464364,30.1811712 35.7318982,30.2684001 35.7252899,30.349022 C35.7186815,30.4296438 35.7153774,30.5228202 35.7153774,30.6285538 L35.7153774,33.483347 C35.7153774,34.1283221 35.905695,34.4508047 36.286336,34.4508047 Z" id="800备份" fill="#FFFFFF"></path>
                    </g>
                </g>
            </g>
        </g>
    </g>
</svg>