<?xml version="1.0" encoding="UTF-8"?>
<svg width="44px" height="44px" viewBox="0 0 44 44" version="1.1" xmlns="http://www.w3.org/2000/svg" xmlns:xlink="http://www.w3.org/1999/xlink">
    <title>ICON/48/肺活量</title>
    <defs>
        <linearGradient x1="25.3037631%" y1="-9.41888774%" x2="77.219017%" y2="96.4939807%" id="linearGradient-1">
            <stop stop-color="#91F2B2" offset="0%"></stop>
            <stop stop-color="#24C7AC" offset="100%"></stop>
        </linearGradient>
        <filter id="filter-2">
            <feColorMatrix in="SourceGraphic" type="matrix" values="0 0 0 0 0.000000 0 0 0 0 0.000000 0 0 0 0 0.000000 0 0 0 1.000000 0"></feColorMatrix>
        </filter>
        <linearGradient x1="58.3555459%" y1="189.158849%" x2="50%" y2="4.02908987%" id="linearGradient-3">
            <stop stop-color="#E2F8F4" offset="0%"></stop>
            <stop stop-color="#B4F2E8" offset="60.9254473%"></stop>
            <stop stop-color="#E7FFFB" offset="70.2731204%"></stop>
            <stop stop-color="#E1FFFA" offset="80.1939503%"></stop>
            <stop stop-color="#79E5D3" offset="100%"></stop>
            <stop stop-color="#79E5D3" offset="100%"></stop>
        </linearGradient>
        <linearGradient x1="40.7417073%" y1="-11.3183011%" x2="65.1643024%" y2="91.8894944%" id="linearGradient-4">
            <stop stop-color="#14AD93" offset="0%"></stop>
            <stop stop-color="#05A288" offset="100%"></stop>
        </linearGradient>
        <filter x="-28.9%" y="-17.0%" width="157.9%" height="134.0%" filterUnits="objectBoundingBox" id="filter-5">
            <feGaussianBlur stdDeviation="0.964285714" in="SourceGraphic"></feGaussianBlur>
        </filter>
        <radialGradient cx="9.37185186%" cy="100%" fx="9.37185186%" fy="100%" r="233.792368%" gradientTransform="translate(0.093719,1.000000),scale(1.000000,0.588235),rotate(-72.298413),translate(-0.093719,-1.000000)" id="radialGradient-6">
            <stop stop-color="#65ECD5" offset="0%"></stop>
            <stop stop-color="#FFFFFF" offset="34.5021918%"></stop>
            <stop stop-color="#B5FFF3" offset="100%"></stop>
        </radialGradient>
        <linearGradient x1="40.3155596%" y1="-11.3183011%" x2="65.8622963%" y2="91.8894944%" id="linearGradient-7">
            <stop stop-color="#14AD93" offset="0%"></stop>
            <stop stop-color="#05A288" offset="100%"></stop>
        </linearGradient>
        <filter x="-28.1%" y="-16.9%" width="156.2%" height="133.8%" filterUnits="objectBoundingBox" id="filter-8">
            <feGaussianBlur stdDeviation="0.964285714" in="SourceGraphic"></feGaussianBlur>
        </filter>
        <radialGradient cx="89.2747422%" cy="100%" fx="89.2747422%" fy="100%" r="217.169068%" gradientTransform="translate(0.892747,1.000000),scale(1.000000,0.601621),rotate(-103.025316),translate(-0.892747,-1.000000)" id="radialGradient-9">
            <stop stop-color="#65ECD5" offset="0%"></stop>
            <stop stop-color="#FFFFFF" offset="38.7831776%"></stop>
            <stop stop-color="#B5FFF3" offset="100%"></stop>
        </radialGradient>
        <linearGradient x1="43.1951214%" y1="-11.3183011%" x2="61.1458171%" y2="91.8894944%" id="linearGradient-10">
            <stop stop-color="#14AD93" offset="0%"></stop>
            <stop stop-color="#05A288" offset="100%"></stop>
        </linearGradient>
        <filter x="-51.6%" y="-26.0%" width="203.2%" height="152.1%" filterUnits="objectBoundingBox" id="filter-11">
            <feGaussianBlur stdDeviation="0.964285714" in="SourceGraphic"></feGaussianBlur>
        </filter>
        <linearGradient x1="46.7533436%" y1="100%" x2="48.3364595%" y2="-72.786599%" id="linearGradient-12">
            <stop stop-color="#65ECD5" offset="0%"></stop>
            <stop stop-color="#FFFFFF" offset="36.7988452%"></stop>
            <stop stop-color="#FCFFFE" offset="64.1572588%"></stop>
            <stop stop-color="#91FBEA" offset="100%"></stop>
        </linearGradient>
        <path d="M3.95578247,7.19608477 C3.9741431,7.96115356 4.24955277,8.58049494 5.0941424,8.72622233 C5.82856816,8.8537338 5.55315849,9.41842741 5.55315849,9.8009618 C5.58987978,11.1125083 5.57151913,11.0942924 4.24955277,10.9667809 C3.05611092,10.8574854 1.86266906,10.8210535 0.687587838,11.0760764 C0.173489814,11.185372 -0.0468379253,11.0578605 0.008244025,10.4931669 C0.0449653183,10.1288484 0.0266046613,9.76452995 0.008244025,9.40021149 C-0.0101166113,9.0176771 0.081686591,8.76265418 0.522342049,8.68979047 C1.27512845,8.562279 1.58725941,8.01580131 1.60562005,7.32359624 C1.64234134,5.28341282 1.66070198,3.26144533 1.67906261,1.22126191 C1.67906261,0.274033906 1.93611162,-0.0174208682 2.81742254,0.000795047471 C3.64365153,0.0372268994 4.0108644,0.401545357 3.93742183,1.27590968 C3.86397927,2.18670586 3.9190612,3.09750201 3.91906117,4.00829819 C3.93130161,5.4291402 3.94354204,6.49173573 3.95578247,7.19608477 Z" id="path-13"></path>
        <radialGradient cx="93.042355%" cy="89.6013535%" fx="93.042355%" fy="89.6013535%" r="201.354863%" gradientTransform="translate(0.930424,0.896014),scale(1.000000,0.576923),rotate(-160.068140),translate(-0.930424,-0.896014)" id="radialGradient-15">
            <stop stop-color="#CDFDF5" offset="0%"></stop>
            <stop stop-color="#EBFFFC" offset="40.7319186%"></stop>
            <stop stop-color="#8AFBE8" offset="100%"></stop>
        </radialGradient>
        <radialGradient cx="93.042355%" cy="89.6013535%" fx="93.042355%" fy="89.6013535%" r="201.354863%" gradientTransform="translate(0.930424,0.896014),scale(1.000000,0.576923),rotate(-160.068140),translate(-0.930424,-0.896014)" id="radialGradient-16">
            <stop stop-color="#CDFDF5" offset="0%"></stop>
            <stop stop-color="#EBFFFC" offset="40.7319186%"></stop>
            <stop stop-color="#8AFBE8" offset="100%"></stop>
        </radialGradient>
        <linearGradient x1="15.1697706%" y1="-17.5888851%" x2="67.1881923%" y2="50%" id="linearGradient-17">
            <stop stop-color="#87E4D5" offset="0%"></stop>
            <stop stop-color="#FBFDFD" offset="38.2137631%"></stop>
            <stop stop-color="#FEFEFE" offset="71.3197582%"></stop>
            <stop stop-color="#53E0CA" offset="100%"></stop>
        </linearGradient>
        <linearGradient x1="29.2255834%" y1="-11.5661382%" x2="59.7274151%" y2="26.9498744%" id="linearGradient-18">
            <stop stop-color="#87E4D5" offset="0%"></stop>
            <stop stop-color="#FEFEFE" offset="66.2383333%"></stop>
            <stop stop-color="#5EE8D1" offset="100%"></stop>
        </linearGradient>
    </defs>
    <g id="体质测试" stroke="none" stroke-width="1" fill="none" fill-rule="evenodd">
        <g id="项目列表-班级" transform="translate(-166.000000, -244.000000)">
            <g id="编组" transform="translate(12.000000, 181.000000)">
                <g id="肺活量" transform="translate(117.000000, 49.000000)">
                    <g id="ICON/48/肺活量" transform="translate(35.000000, 12.000000)">
                        <path d="M17.189921,2 L30.810079,2 C36.0919455,2 38.0072779,2.54995196 39.9382493,3.58264678 C41.8692207,4.61534161 43.3846584,6.13077928 44.4173532,8.06175071 C45.450048,9.99272214 46,11.9080545 46,17.189921 L46,30.810079 C46,36.0919455 45.450048,38.0072779 44.4173532,39.9382493 C43.3846584,41.8692207 41.8692207,43.3846584 39.9382493,44.4173532 C38.0072779,45.450048 36.0919455,46 30.810079,46 L17.189921,46 C11.9080545,46 9.99272214,45.450048 8.06175071,44.4173532 C6.13077928,43.3846584 4.61534161,41.8692207 3.58264678,39.9382493 C2.54995196,38.0072779 2,36.0919455 2,30.810079 L2,17.189921 C2,11.9080545 2.54995196,9.99272214 3.58264678,8.06175071 C4.61534161,6.13077928 6.13077928,4.61534161 8.06175071,3.58264678 C9.99272214,2.54995196 11.9080545,2 17.189921,2 Z" id="矩形" fill="url(#linearGradient-1)" fill-rule="nonzero"></path>
                        <g filter="url(#filter-2)" id="肺活量">
                            <g transform="translate(21.000000, 12.500000)"></g>
                        </g>
                        <path d="M20.99207,25.3163228 L20.99207,31.1969386 C20.99207,32.7892284 20.528166,33.3501487 18.9580294,33.6034675 C16.9953585,33.9291632 15.0326877,34.2186704 13.0521745,34.4719892 C11.7853597,34.6529313 10.9824489,33.9472574 11.0002914,32.6444748 C11.0716612,27.3790618 12.80238,22.7650402 16.4957696,18.9652577 C17.0845709,18.368149 17.7625844,17.8796055 18.5833376,17.6262867 C20.0464195,17.1920258 20.99207,17.8976997 20.99207,19.435707 C21.0099125,21.407975 20.99207,23.3621489 20.99207,25.3163228 Z" id="路径" fill="url(#linearGradient-4)" fill-rule="nonzero" filter="url(#filter-5)"></path>
                        <path d="M19.99207,24.3163228 L19.99207,30.1969386 C19.99207,31.7892284 19.528166,32.3501487 17.9580294,32.6034675 C15.9953585,32.9291632 14.0326877,33.2186704 12.0521745,33.4719892 C10.7853597,33.6529313 9.98244891,32.9472574 10.0002914,31.6444748 C10.0716612,26.3790618 11.80238,21.7650402 15.4957696,17.9652577 C16.0845709,17.368149 16.7625844,16.8796055 17.5833376,16.6262867 C19.0464195,16.1920258 19.99207,16.8976997 19.99207,18.435707 C20.0099125,20.407975 19.99207,22.3621489 19.99207,24.3163228 Z" id="路径" fill="url(#radialGradient-6)" fill-rule="nonzero"></path>
                        <path d="M38.9918397,32.307798 C38.9918397,32.6356846 39.0102004,32.9817872 38.9918397,33.3096738 C38.9183972,34.3844133 38.202332,35.1130502 37.1374147,34.9855387 C34.8423342,34.7122999 32.5472537,34.3661973 30.2521732,33.9836629 C29.2974197,33.8197196 28.7282397,33.0546508 28.7282397,31.9799114 C28.7098791,27.8631127 28.6915184,23.7280981 28.7282397,19.6112994 C28.7466003,18.3179689 29.6829932,17.6804116 30.9865989,17.9536504 C32.1433195,18.2086733 33.0246304,18.9190944 33.7957775,19.7388109 C37.0823327,23.2727 38.6980694,27.5352261 38.9918397,32.307798 Z" id="路径" fill="url(#linearGradient-7)" fill-rule="nonzero" filter="url(#filter-8)"></path>
                        <path d="M37.9918397,30.807798 C37.9918397,31.1356846 38.0102004,31.4817872 37.9918397,31.8096738 C37.9183972,32.8844133 37.202332,33.6130502 36.1374147,33.4855387 C33.8423342,33.2122999 31.5472537,32.8661973 29.2521732,32.4836629 C28.2974197,32.3197196 27.7282397,31.5546508 27.7282397,30.4799114 C27.7098791,26.3631127 27.6915184,22.2280981 27.7282397,18.1112994 C27.7466003,16.8179689 28.6829932,16.1804116 29.9865989,16.4536504 C31.1433195,16.7086733 32.0246304,17.4190944 32.7957775,18.2388109 C36.0823327,21.7727 37.6980694,26.0352261 37.9918397,30.807798 Z" id="路径" fill="url(#radialGradient-9)" fill-rule="nonzero"></path>
                        <path d="M25.4557825,21.1960848 C25.4741431,21.9611536 25.7495528,22.5804949 26.5941424,22.7262223 C27.3285682,22.8537338 27.0531585,23.4184274 27.0531585,23.8009618 C27.0898798,25.1125083 27.0715191,25.0942924 25.7495528,24.9667809 C24.5561109,24.8574854 23.3626691,24.8210535 22.1875878,25.0760764 C21.6734898,25.185372 21.4531621,25.0578605 21.508244,24.4931669 C21.5449653,24.1288484 21.5266047,23.76453 21.508244,23.4002115 C21.4898834,23.0176771 21.5816866,22.7626542 22.022342,22.6897905 C22.7751284,22.562279 23.0872594,22.0158013 23.10562,21.3235962 C23.1423413,19.2834128 23.160702,17.2614453 23.1790626,15.2212619 C23.1790626,14.2740339 23.4361116,13.9825791 24.3174225,14.000795 C25.1436515,14.0372269 25.5108644,14.4015454 25.4374218,15.2759097 C25.3639793,16.1867059 25.4190612,17.097502 25.4190612,18.0082982 C25.4313016,19.4291402 25.443542,20.4917357 25.4557825,21.1960848 Z" id="蒙版" fill="url(#linearGradient-10)" fill-rule="nonzero" filter="url(#filter-11)"></path>
                        <g id="路径备份" transform="translate(21.000000, 12.500000)">
                            <mask id="mask-14" fill="white">
                                <use xlink:href="#path-13"></use>
                            </mask>
                            <use id="蒙版" fill="url(#linearGradient-12)" fill-rule="nonzero" xlink:href="#path-13"></use>
                        </g>
                        <g id="路径备份" transform="translate(21.000000, 12.500000)"></g>
                        <path d="M19.4940525,23.977188 L19.4940525,28.4741295 C19.4940525,29.6917629 19.1461245,30.1207019 17.968522,30.3144163 C16.4965189,30.5634777 15.0245158,30.7848656 13.5391309,30.97858 C12.5890198,31.1169474 11.9868367,30.5773145 12.0002185,29.5810689 C12.0537459,25.5545767 13.351785,22.0262072 16.1218272,19.1204912 C16.5634281,18.6638786 17.0719383,18.2902866 17.6875032,18.0965722 C18.7848146,17.7644903 19.4940525,18.3041233 19.4940525,19.4802465 C19.5074344,20.9884515 19.4940525,22.4828197 19.4940525,23.977188 Z" id="路径" fill="url(#radialGradient-15)" fill-rule="nonzero"></path>
                        <path d="M35.9940525,23.977188 L35.9940525,28.4741295 C35.9940525,29.6917629 35.6461245,30.1207019 34.468522,30.3144163 C32.9965189,30.5634777 31.5245158,30.7848656 30.0391309,30.97858 C29.0890198,31.1169474 28.4868367,30.5773145 28.5002185,29.5810689 C28.5537459,25.5545767 29.851785,22.0262072 32.6218272,19.1204912 C33.0634281,18.6638786 33.5719383,18.2902866 34.1875032,18.0965722 C35.2848146,17.7644903 35.9940525,18.3041233 35.9940525,19.4802465 C36.0074344,20.9884515 35.9940525,22.4828197 35.9940525,23.977188 Z" id="路径备份-2" fill="url(#radialGradient-16)" fill-rule="nonzero" transform="translate(32.250000, 24.500000) scale(-1, 1) translate(-32.250000, -24.500000) "></path>
                        <path d="M31.3784216,25.732211 C32.1460445,24.5218428 33.3084551,23.971287 34.787791,24.1093719 C35.0627382,24.1350362 35.264822,24.3787299 35.2391577,24.6536771 C35.2134934,24.9286243 34.9697997,25.130708 34.6948525,25.1050438 C33.5843811,25.0013896 32.7863534,25.3793618 32.2229073,26.267789 C32.0750115,26.5009873 31.7660737,26.5701387 31.5328754,26.4222429 C31.2996771,26.2743471 31.2305258,25.9654092 31.3784216,25.732211 Z" id="路径-6备份" fill="url(#linearGradient-17)" fill-rule="nonzero" transform="translate(33.270978, 25.294320) scale(-1, 1) translate(-33.270978, -25.294320) "></path>
                        <path d="M12.8784216,25.732211 C13.6460445,24.5218428 14.8084551,23.971287 16.287791,24.1093719 C16.5627382,24.1350362 16.764822,24.3787299 16.7391577,24.6536771 C16.7134934,24.9286243 16.4697997,25.130708 16.1948525,25.1050438 C15.0843811,25.0013896 14.2863534,25.3793618 13.7229073,26.267789 C13.5750115,26.5009873 13.2660737,26.5701387 13.0328754,26.4222429 C12.7996771,26.2743471 12.7305258,25.9654092 12.8784216,25.732211 Z" id="路径-6" fill="url(#linearGradient-17)" fill-rule="nonzero"></path>
                        <path d="M18.4168011,22.3114876 C18.6535664,22.1693722 18.9607099,22.2461011 19.1028253,22.4828664 C19.2449408,22.7196318 19.1682118,23.0267753 18.9314465,23.1688907 C16.9607156,24.3517971 15.9121275,26.1012215 15.7596723,28.4671548 C15.7419152,28.7427257 15.5041259,28.951725 15.228555,28.9339679 C14.9529842,28.9162107 14.7439848,28.6784214 14.761742,28.4028506 C14.9351389,25.7119245 16.1621618,23.6648065 18.4168011,22.3114876 Z" id="路径-4" fill="url(#linearGradient-18)" fill-rule="nonzero"></path>
                        <path d="M32.4168011,22.3114876 C32.6535664,22.1693722 32.9607099,22.2461011 33.1028253,22.4828664 C33.2449408,22.7196318 33.1682118,23.0267753 32.9314465,23.1688907 C30.9607156,24.3517971 29.9121275,26.1012215 29.7596723,28.4671548 C29.7419152,28.7427257 29.5041259,28.951725 29.228555,28.9339679 C28.9529842,28.9162107 28.7439848,28.6784214 28.761742,28.4028506 C28.9351389,25.7119245 30.1621618,23.6648065 32.4168011,22.3114876 Z" id="路径-4备份" fill="url(#linearGradient-18)" fill-rule="nonzero" transform="translate(30.967444, 25.587567) scale(-1, 1) translate(-30.967444, -25.587567) "></path>
                    </g>
                </g>
            </g>
        </g>
    </g>
</svg>