<?xml version="1.0" encoding="UTF-8"?>
<svg width="44px" height="44px" viewBox="0 0 44 44" version="1.1" xmlns="http://www.w3.org/2000/svg" xmlns:xlink="http://www.w3.org/1999/xlink">
    <title>ICON/48/50米</title>
    <defs>
        <linearGradient x1="9.50079273%" y1="0%" x2="70.7228569%" y2="92.9947043%" id="linearGradient-1">
            <stop stop-color="#80D4FF" offset="0%"></stop>
            <stop stop-color="#265CFF" offset="100%"></stop>
        </linearGradient>
        <linearGradient x1="65.0063517%" y1="86.7488572%" x2="-8.96926723%" y2="10.1170273%" id="linearGradient-2">
            <stop stop-color="#0039E6" offset="0%"></stop>
            <stop stop-color="#1151EC" offset="25.4829534%"></stop>
            <stop stop-color="#4496FF" offset="100%"></stop>
        </linearGradient>
        <filter x="-23.2%" y="-23.7%" width="146.5%" height="147.4%" filterUnits="objectBoundingBox" id="filter-3">
            <feGaussianBlur stdDeviation="1.97485714" in="SourceGraphic"></feGaussianBlur>
        </filter>
        <linearGradient x1="31.1825265%" y1="9.27628038%" x2="114.272922%" y2="103.165103%" id="linearGradient-4">
            <stop stop-color="#FFFFFF" offset="0%"></stop>
            <stop stop-color="#FCFDFF" offset="45.8247743%"></stop>
            <stop stop-color="#D5E4FF" offset="100%"></stop>
        </linearGradient>
        <path d="M14.2847624,5.68590343 C12.0473812,4.40793299 10.7422023,3.3761648 10.3692259,2.59059884 C9.80976125,1.41224991 9.7039553,-1.02143923 7.68486974,0.469243147 C5.66578418,1.95992553 1.72373589,5.39146046 1.08671159,6.0339738 C0.449687293,6.67648714 -1.12638526,7.19205687 1.8999157,10.6162581 C4.92621667,14.0404592 9.58671328,18.2052693 11.5146515,20.0929209 C13.4425896,21.9805726 16.266789,24.7256851 19.7481809,25.1341211 C23.2295728,25.5425572 25.4597292,24.2240742 25.4597292,22.2373733 C25.4597292,20.2506725 23.3042818,18.8419984 22.5456492,18.4522359 C21.7870167,18.0624735 19.9454001,15.877447 19.2758349,13.351061 C18.829458,11.6668038 18.3930667,9.72204013 17.9666609,7.51677014 L14.2847624,5.68590343 Z" id="path-5"></path>
        <linearGradient x1="47.1140084%" y1="56.0102176%" x2="32.5099252%" y2="80.3265622%" id="linearGradient-7">
            <stop stop-color="#E4EBFF" offset="0%"></stop>
            <stop stop-color="#5585FF" offset="100%"></stop>
        </linearGradient>
        <filter x="-11.2%" y="-11.7%" width="122.4%" height="122.4%" filterUnits="objectBoundingBox" id="filter-8">
            <feGaussianBlur stdDeviation="0.296228571" in="SourceGraphic"></feGaussianBlur>
        </filter>
        <radialGradient cx="57.032602%" cy="2.88296766%" fx="57.032602%" fy="2.88296766%" r="92.9518219%" gradientTransform="translate(0.570326,0.028830),scale(1.000000,0.958855),rotate(101.405601),scale(1.000000,1.096030),translate(-0.570326,-0.028830)" id="radialGradient-9">
            <stop stop-color="#5585FF" offset="0%"></stop>
            <stop stop-color="#F3F6FF" offset="45.8416615%"></stop>
            <stop stop-color="#FFFFFF" offset="67.1093908%"></stop>
            <stop stop-color="#DFE8FF" offset="100%"></stop>
        </radialGradient>
        <filter x="0.0%" y="0.0%" width="100.0%" height="100.0%" filterUnits="objectBoundingBox" id="filter-10">
            <feGaussianBlur stdDeviation="0" in="SourceGraphic"></feGaussianBlur>
        </filter>
        <linearGradient x1="45.0612959%" y1="0%" x2="52.5270633%" y2="92.9947043%" id="linearGradient-11">
            <stop stop-color="#80B3FF" offset="0%"></stop>
            <stop stop-color="#265CFF" offset="100%"></stop>
        </linearGradient>
        <radialGradient cx="19.7286975%" cy="15.8251608%" fx="19.7286975%" fy="15.8251608%" r="196.441439%" gradientTransform="translate(0.197287,0.158252),scale(0.490449,1.000000),rotate(1.290446),scale(1.000000,2.228700),translate(-0.197287,-0.158252)" id="radialGradient-12">
            <stop stop-color="#367DFF" stop-opacity="0.997096686" offset="0%"></stop>
            <stop stop-color="#6A91FF" offset="33.5540609%"></stop>
            <stop stop-color="#CBDEFF" offset="62.9229861%"></stop>
            <stop stop-color="#D8E6FF" offset="100%"></stop>
            <stop stop-color="#FFFFFF" offset="100%"></stop>
        </radialGradient>
        <filter x="0.0%" y="0.0%" width="100.0%" height="100.0%" filterUnits="objectBoundingBox" id="filter-13">
            <feGaussianBlur stdDeviation="0" in="SourceGraphic"></feGaussianBlur>
        </filter>
        <radialGradient cx="97.4808247%" cy="97.4339946%" fx="97.4808247%" fy="97.4339946%" r="142.839132%" gradientTransform="translate(0.974808,0.974340),scale(0.846088,1.000000),rotate(-139.006668),translate(-0.974808,-0.974340)" id="radialGradient-14">
            <stop stop-color="#669BFF" offset="0%"></stop>
            <stop stop-color="#A6C6FF" offset="69.5695128%"></stop>
            <stop stop-color="#D2E2FF" offset="100%"></stop>
        </radialGradient>
        <linearGradient x1="79.0977062%" y1="62.2536569%" x2="24.8861635%" y2="28.4108473%" id="linearGradient-15">
            <stop stop-color="#EBF2FF" offset="0%"></stop>
            <stop stop-color="#D1E2FF" offset="55.2959042%"></stop>
            <stop stop-color="#8FB7FF" offset="100%"></stop>
        </linearGradient>
        <path d="M4.90945673,0.329016727 C3.39045443,-0.109672242 2.15015869,-0.109672242 1.18856952,0.329016727 C-0.253814247,0.987050182 -0.210466913,2.23627169 0.407768817,2.85550408 C1.02600455,3.47473646 1.40500689,3.28620553 2.81945682,2.77943862 C3.76242344,2.44159401 5.09939021,2.37454051 6.83035714,2.57827813 L4.90945673,0.329016727 Z" id="path-16"></path>
        <radialGradient cx="68.8172673%" cy="88.9615391%" fx="68.8172673%" fy="88.9615391%" r="140.958891%" gradientTransform="translate(0.688173,0.889615),scale(1.000000,0.666667),rotate(-108.795359),scale(1.000000,0.985253),translate(-0.688173,-0.889615)" id="radialGradient-18">
            <stop stop-color="#D8E6FF" offset="0%"></stop>
            <stop stop-color="#F0F5FF" offset="46.9241696%"></stop>
            <stop stop-color="#F2F7FF" offset="49.7909606%"></stop>
            <stop stop-color="#EEF4FF" offset="66.6275131%"></stop>
            <stop stop-color="#E6EFFF" offset="74.4153838%"></stop>
            <stop stop-color="#8FB7FF" offset="100%"></stop>
        </radialGradient>
        <linearGradient x1="68.7969368%" y1="99.3612011%" x2="36.8822927%" y2="8.88633261%" id="linearGradient-19">
            <stop stop-color="#E3EDFF" offset="0%"></stop>
            <stop stop-color="#FAFCFF" offset="100%"></stop>
        </linearGradient>
    </defs>
    <g id="体质测试" stroke="none" stroke-width="1" fill="none" fill-rule="evenodd">
        <g id="项目列表-班级" transform="translate(-283.000000, -244.000000)">
            <g id="编组" transform="translate(12.000000, 181.000000)">
                <g id="50米" transform="translate(234.000000, 49.000000)">
                    <g id="ICON/48/50米" transform="translate(35.000000, 12.000000)">
                        <path d="M17.189921,2 L30.810079,2 C36.0919455,2 38.0072779,2.54995196 39.9382493,3.58264678 C41.8692207,4.61534161 43.3846584,6.13077928 44.4173532,8.06175071 C45.450048,9.99272214 46,11.9080545 46,17.189921 L46,30.810079 C46,36.0919455 45.450048,38.0072779 44.4173532,39.9382493 C43.3846584,41.8692207 41.8692207,43.3846584 39.9382493,44.4173532 C38.0072779,45.450048 36.0919455,46 30.810079,46 L17.189921,46 C11.9080545,46 9.99272214,45.450048 8.06175071,44.4173532 C6.13077928,43.3846584 4.61534161,41.8692207 3.58264678,39.9382493 C2.54995196,38.0072779 2,36.0919455 2,30.810079 L2,17.189921 C2,11.9080545 2.54995196,9.99272214 3.58264678,8.06175071 C4.61534161,6.13077928 6.13077928,4.61534161 8.06175071,3.58264678 C9.99272214,2.54995196 11.9080545,2 17.189921,2 Z" id="矩形" fill="url(#linearGradient-1)"></path>
                        <g id="编组" transform="translate(22.815394, 24.171875) scale(-1, 1) translate(-22.815394, -24.171875) translate(8.130787, 10.500000)">
                            <path d="M14.2608395,7.63889209 C12.0106059,6.37148798 10.6979296,5.34825049 10.3228106,4.56917964 C9.76013216,3.40057336 9.65371841,0.987006078 7.62303439,2.46536342 C5.59235037,3.94372076 1.62765731,7.34688359 0.986973684,7.9840846 C0.346290056,8.62128561 -1.23883611,9.13259258 1.80484918,12.5284823 C4.84853447,15.924372 9.5358029,20.0547472 11.474816,21.9267916 C13.413829,23.7988361 16.2542517,26.5212519 19.7556422,26.9263109 C23.2570326,27.33137 25.5,26.0237883 25.5,24.0535136 C25.5,22.0832389 23.3321709,20.6862118 22.5691804,20.2996719 C21.8061899,19.913132 19.9539944,17.7461714 19.2805828,15.2406738 C18.8316418,13.570342 18.3927437,11.6416578 17.9638885,9.4546211 L14.2608395,7.63889209 Z" id="蒙版" fill="url(#linearGradient-2)" filter="url(#filter-3)"></path>
                            <g id="路径-33" transform="translate(2.500000, 0.000000)">
                                <g id="蒙版">
                                    <mask id="mask-6" fill="white">
                                        <use xlink:href="#path-5"></use>
                                    </mask>
                                    <use fill="url(#linearGradient-4)" xlink:href="#path-5"></use>
                                    <path d="M2.26097646,5.40417121 C3.86065245,8.16845979 5.05836119,9.64117952 5.85410267,9.8223304 C7.04771489,10.0940567 7.00510895,9.94094795 8.19320466,10.2 C9.38130037,10.459052 10.0624786,11.1907028 11.4062393,11.3908059 C12.75,11.5909091 13.3714496,11.9973225 13.6607143,13.0720502 C13.9499789,14.1467778 15.2549502,16.2813788 16.3928571,16.7423724 C17.1514618,17.0497015 18.2898546,16.4682269 19.8080357,14.9979485 L19.5992449,14.3727273 L19.5401431,13.5608457 L19.3526786,7.88181818 L17.2018764,3.51104167 L12.75,4.76622766 L10.3707269,0.666953034 L7.93379559,-0.814264206 L1.71747597,3.51104167 L2.26097646,5.40417121 Z" id="路径" stroke="url(#linearGradient-7)" stroke-width="1.97485714" filter="url(#filter-8)" mask="url(#mask-6)"></path>
                                    <path d="M3.56919049,4.07285734 C5.181233,6.95105493 6.385125,8.48072916 7.18086648,8.66188003 C8.3744787,8.93360634 8.1117713,8.75462318 9.29986702,9.01367523 C10.4879627,9.27272727 11.4285501,9.79979367 12.7723107,9.99989683 C14.1160714,10.2 14.7375211,10.6022118 15.0267857,11.6769395 C15.3160504,12.7516672 16.3938289,15.3182037 17.5317359,15.7791973 C18.2903405,16.0865264 18.9989063,15.6605297 19.6574331,14.5012072 L19.4187891,13.8619192 L20.9062145,12.1699366 L20.71875,6.49090909 L18.5679478,2.12013258 L14.1160714,3.37531856 L11.7367983,-0.723956057 L9.29986702,-2.2051733 L3.56919049,2.78181818 L3.56919049,4.07285734 Z" id="路径" fill="url(#radialGradient-9)" filter="url(#filter-10)" mask="url(#mask-6)"></path>
                                    <path d="M4.86885386,2.68180175 C4.56249857,3.28367654 4.56249857,4.25228542 4.86885386,5.5876284 C5.17520916,6.92297138 5.90457151,9.13351079 7.05694093,12.2192466 L9.35238896,11.6139766 C7.85011747,8.61300914 6.94464154,5.87035114 6.63596116,3.38600261 C6.32728079,0.901654082 7.08664904,-0.652980312 8.91406591,-1.27790057 L4.86885386,2.68180175 Z" id="路径-36" fill="url(#linearGradient-11)" fill-rule="nonzero" mask="url(#mask-6)"></path>
                                    <path d="M18.1929472,17.3022365 C17.7893979,17.8245473 16.6646298,18.0778164 14.8186429,18.0620437 C12.0496627,18.0383848 11.6075777,16.6779255 10.0120648,18.0209749 C8.94838953,18.9163412 8.02163859,19.5978767 7.23181197,20.0655814 C8.99393847,20.608242 10.9905372,21.0929352 13.2216082,21.519661 C16.5682146,22.1597496 16.1405426,22.0757432 16.1405426,22.0757432 C16.5447363,21.2732531 17.0289216,20.8431701 17.5930986,20.7854944 C18.439364,20.6989809 19.4370221,20.5101989 21.0993028,20.0629914 C22.2074899,19.7648531 24.5213981,18.3258952 28.0410273,15.7461178 L26.5246255,11.8735207 C22.6809332,12.6141767 20.4614968,13.2777246 19.8663165,13.8641644 C19.2711362,14.4506042 18.7133464,15.5966283 18.1929472,17.3022365 Z" id="路径-37" fill="url(#radialGradient-12)" filter="url(#filter-13)" mask="url(#mask-6)" transform="translate(17.636420, 16.976448) rotate(54.000000) translate(-17.636420, -16.976448) "></path>
                                    <path d="M1.96563426,4.30259129 C3.75415551,7.61517589 5.1406431,9.47053112 6.12509702,9.86865697 C7.60177792,10.4658457 9.43159372,9.66636993 10.1437969,11.5527876 C10.856,13.4392052 12.8728305,17.5522898 14.1574792,18.7751956 C15.4421278,19.9981013 17.5821538,21.9156558 19.2492125,22.6565775 C20.9162712,23.3974993 22.517329,23.5508531 24.2767634,23.5508531 C25.4497196,23.5508531 25.9395596,22.4925122 25.7462834,20.3758306 L25.4597292,25.4976184 L17.9124614,26.4745993 L6.44957169,18.0566791 L-0.418032787,9.16827351 L-0.418032787,5.97566968 L1.96563426,4.30259129 Z" id="路径-32" fill="url(#radialGradient-14)" mask="url(#mask-6)"></path>
                                </g>
                                <g id="路径-33备份" transform="translate(16.392857, 14.372727)">
                                    <mask id="mask-17" fill="white">
                                        <use xlink:href="#path-16"></use>
                                    </mask>
                                    <use id="蒙版" fill="url(#linearGradient-15)" xlink:href="#path-16"></use>
                                </g>
                            </g>
                            <path d="M20.922986,7.42915387 C21.1152615,9.10825264 20.9475063,10.047048 20.4197203,10.2455399 C19.5108927,10.5873354 19.5657614,10.1365603 18.3899686,10.6305952 C17.2141758,11.12463 16.2832907,11.4464125 16.1164081,9.39642561 C15.9495254,7.3464387 15.8292694,4.61058841 16.7366056,4.0085353 C17.6439418,3.40648219 20.1011772,3.25851845 20.4197203,4.0085353 C20.5829764,4.39292538 20.6983959,4.99924659 20.7659788,5.82749893 L20.7659793,5.82749889 C20.8096094,6.36220146 20.861952,6.89615737 20.922986,7.42915387 Z" id="蒙版" fill="url(#radialGradient-18)"></path>
                            <path d="M19.9498085,7.41586138 C20.0784596,8.62557694 19.9597915,9.30253288 19.5938042,9.44672923 C18.9576249,9.69737932 18.996033,9.36681088 18.172978,9.72910312 C17.349923,10.0913954 16.6983035,10.3273692 16.5814857,8.82404545 C16.4646678,7.32072171 16.3804886,5.3144315 17.0156239,4.87292589 C17.6507593,4.43142027 19.370824,4.32291353 19.5938042,4.87292589 C19.7058987,5.14942283 19.7857756,5.58250583 19.8334351,6.17217491 L19.8334354,6.17217488 C19.8669804,6.5872112 19.9057745,7.00180654 19.9498085,7.41586138 Z" id="蒙版备份" fill="url(#linearGradient-19)"></path>
                        </g>
                        <path d="M34.0078195,32.9090226 C34.0078195,33.3565436 33.8490241,33.7390962 33.5314286,34.0566917 C33.213833,34.3742873 32.8312804,34.5330827 32.3837594,34.5330827 L32.1022556,34.5330827 C31.6547346,34.5330827 31.272182,34.3742873 30.9545865,34.0566917 C30.6369909,33.7390962 30.4781955,33.3565436 30.4781955,32.9090226 L30.4781955,32.3243609 L31.5609023,32.3243609 L31.5609023,32.5842105 C31.5609023,32.8801519 31.5969921,33.096691 31.6691729,33.2338346 C31.763008,33.4287228 31.9470663,33.5261654 32.2213534,33.5261654 C32.5606032,33.5261654 32.7771424,33.360152 32.8709774,33.0281203 C32.9142859,32.8765406 32.9359398,32.5697767 32.9359398,32.1078195 C32.9359398,31.4654103 32.7121827,31.1442105 32.2646617,31.1442105 L30.5215038,31.1442105 L30.5215038,27.7228571 L33.9536842,27.7228571 L33.9536842,28.6431579 L31.5067669,28.6431579 L31.5067669,30.2239098 L32.2646617,30.2239098 C32.741055,30.2239098 33.150675,30.3718782 33.4935338,30.6678195 C33.8363927,30.9637609 34.0078195,31.3427045 34.0078195,31.8046617 L34.0078195,32.9090226 Z M38.0679699,32.9090226 C38.0679699,33.3565436 37.90737,33.7390962 37.5861654,34.0566917 C37.2649608,34.3742873 36.8842127,34.5330827 36.4439098,34.5330827 L36.162406,34.5330827 C35.714885,34.5330827 35.3323324,34.3742873 35.0147368,34.0566917 C34.6971413,33.7390962 34.5383459,33.3565436 34.5383459,32.9090226 L34.5383459,29.2061654 C34.5383459,28.7586444 34.6971413,28.3760918 35.0147368,28.0584962 C35.3323324,27.7409007 35.714885,27.5821053 36.162406,27.5821053 L36.4439098,27.5821053 C36.8842127,27.5821053 37.2649608,27.7409007 37.5861654,28.0584962 C37.90737,28.3760918 38.0679699,28.7586444 38.0679699,29.2061654 L38.0679699,32.9090226 Z M36.9852632,32.6166917 L36.9852632,29.455188 C36.9852632,29.1664647 36.9563913,28.9607525 36.8986466,28.8380451 C36.8120296,28.6431569 36.6424073,28.5457143 36.3897744,28.5457143 C35.8772907,28.5457143 35.6210526,28.8488691 35.6210526,29.455188 L35.6210526,32.6166917 C35.6210526,33.2230106 35.8556368,33.5261654 36.324812,33.5261654 C36.765115,33.5261654 36.9852632,33.2230106 36.9852632,32.6166917 Z" id="50" fill="#FFFFFF"></path>
                    </g>
                </g>
            </g>
        </g>
    </g>
</svg>