<?xml version="1.0" encoding="UTF-8"?>
<svg width="44px" height="44px" viewBox="0 0 44 44" version="1.1" xmlns="http://www.w3.org/2000/svg" xmlns:xlink="http://www.w3.org/1999/xlink">
    <title>ICON/48/坐位体前屈</title>
    <defs>
        <linearGradient x1="100%" y1="100%" x2="15.2873768%" y2="0%" id="linearGradient-1">
            <stop stop-color="#FF632F" stop-opacity="0.987489073" offset="0%"></stop>
            <stop stop-color="#FFC68C" offset="100%"></stop>
        </linearGradient>
        <linearGradient x1="30.1139891%" y1="-13.0243506%" x2="95.2308358%" y2="89.1982355%" id="linearGradient-2">
            <stop stop-color="#FF632F" offset="0%"></stop>
            <stop stop-color="#FF632F" offset="100%"></stop>
        </linearGradient>
        <filter x="-32.1%" y="-34.0%" width="164.3%" height="168.1%" filterUnits="objectBoundingBox" id="filter-3">
            <feGaussianBlur stdDeviation="0.964285714" in="SourceGraphic"></feGaussianBlur>
        </filter>
        <linearGradient x1="8.17792473%" y1="1.77004374%" x2="80.4205206%" y2="76.9378106%" id="linearGradient-4">
            <stop stop-color="#FFC68C" offset="0%"></stop>
            <stop stop-color="#FEFEFE" offset="62.5936406%"></stop>
            <stop stop-color="#FFE5CB" offset="100%"></stop>
        </linearGradient>
        <linearGradient x1="33.2039619%" y1="21.9162975%" x2="123.919541%" y2="92.6035503%" id="linearGradient-5">
            <stop stop-color="#FFFFFF" offset="0%"></stop>
            <stop stop-color="#FFEEDC" offset="100%"></stop>
        </linearGradient>
        <filter x="0.0%" y="0.0%" width="100.0%" height="100.0%" filterUnits="objectBoundingBox" id="filter-6">
            <feGaussianBlur stdDeviation="0" in="SourceGraphic"></feGaussianBlur>
        </filter>
        <linearGradient x1="30.1139891%" y1="48.5580192%" x2="89.0469396%" y2="51.0204082%" id="linearGradient-7">
            <stop stop-color="#FF632F" offset="0%"></stop>
            <stop stop-color="#EF5724" offset="100%"></stop>
            <stop stop-color="#EF5724" offset="100%"></stop>
        </linearGradient>
        <filter x="-6.2%" y="-64.3%" width="115.4%" height="227.9%" filterUnits="objectBoundingBox" id="filter-8">
            <feGaussianBlur stdDeviation="0.964285714" in="SourceGraphic"></feGaussianBlur>
        </filter>
        <linearGradient x1="43.0686024%" y1="-20.6570574%" x2="65.7655001%" y2="93.9454266%" id="linearGradient-9">
            <stop stop-color="#FF632F" offset="0%"></stop>
            <stop stop-color="#FF632F" offset="100%"></stop>
        </linearGradient>
        <filter x="-24.0%" y="-17.0%" width="151.3%" height="130.3%" filterUnits="objectBoundingBox" id="filter-10">
            <feGaussianBlur stdDeviation="0.964285714" in="SourceGraphic"></feGaussianBlur>
        </filter>
        <linearGradient x1="38.6615509%" y1="-3.73769818%" x2="58.2473556%" y2="80.014042%" id="linearGradient-11">
            <stop stop-color="#FFC68C" offset="0%"></stop>
            <stop stop-color="#FEFEFE" offset="62.5936406%"></stop>
            <stop stop-color="#FFE5CB" offset="100%"></stop>
        </linearGradient>
        <path d="M7.2184751,1.84578252 C8.54471337,1.83741675 9.38600972,1.74867111 9.74236413,1.57954561 C9.74236413,1.57954561 9.74236413,1.57954561 9.74236413,1.57954561 C10.2902042,1.31954117 10.9450916,1.55287807 11.2050961,2.10071817 C11.270235,2.23796864 11.3061827,2.38724346 11.310668,2.53910082 L11.5505486,10.6656058 C11.5667977,11.2160826 11.3985071,11.7561853 11.072446,12.2000016 L7.14010311,17.5524896 L7.14010311,17.5524896 L6.18232072,17.7397148 C4.84429082,18.0012699 3.54757094,17.1286147 3.2860158,15.7905848 C3.23179494,15.5132088 3.22560922,15.2285816 3.26772829,14.9491118 L3.33897899,14.4763471 L3.33897899,14.4763471 L4.78867333,3.97666308 C4.95649759,2.76122591 5.99153068,1.85352196 7.2184751,1.84578252 Z" id="path-12"></path>
        <linearGradient x1="38.2820043%" y1="1.42108547e-12%" x2="59.4750312%" y2="85.5011814%" id="linearGradient-14">
            <stop stop-color="#FFE5CB" offset="0%"></stop>
            <stop stop-color="#FEFEFE" offset="37.4063594%"></stop>
            <stop stop-color="#FFC68C" offset="100%"></stop>
        </linearGradient>
        <linearGradient x1="72.2032392%" y1="0%" x2="72.2032392%" y2="66.1592168%" id="linearGradient-15">
            <stop stop-color="#FFFFFF" offset="0%"></stop>
            <stop stop-color="#FFDDBA" offset="100%"></stop>
        </linearGradient>
        <path d="M0.319225636,1.79941152 C0.409335551,0.599803841 0.920152111,-1.13686838e-13 1.85167532,-1.13686838e-13 C2.83374754,-1.13686838e-13 3.32478365,0.657479986 3.32478365,1.97243996 L16.017792,0.5 L27.0401868,0.5 L28.25,0.5 C29.4926407,0.5 30.5,1.50735931 30.5,2.75 C30.5,3.99264069 29.4926407,5 28.25,5 L2.00306016,5 C1.15787168,5 0.458041625,4.34346771 0.404136379,3.5 L0.317332786,2.14176433 C0.31002926,2.02774076 0.310667183,1.91334778 0.319225636,1.79941152 Z" id="path-16"></path>
        <linearGradient x1="42.6316132%" y1="47.5863507%" x2="20.0977121%" y2="50.4243472%" id="linearGradient-18">
            <stop stop-color="#FFFFFF" offset="0%"></stop>
            <stop stop-color="#FFDDBA" offset="100%"></stop>
            <stop stop-color="#FFDDBA" offset="100%"></stop>
        </linearGradient>
        <linearGradient x1="30.1139891%" y1="46.5107626%" x2="95.2308358%" y2="52.1701445%" id="linearGradient-19">
            <stop stop-color="#FF632F" offset="0%"></stop>
            <stop stop-color="#FF632F" offset="100%"></stop>
        </linearGradient>
        <filter x="-21.4%" y="-94.8%" width="142.9%" height="291.3%" filterUnits="objectBoundingBox" id="filter-20">
            <feGaussianBlur stdDeviation="0.964285714" in="SourceGraphic"></feGaussianBlur>
        </filter>
        <linearGradient x1="21.3860714%" y1="51.4638555%" x2="44.6702122%" y2="43.8782%" id="linearGradient-21">
            <stop stop-color="#FFC68C" offset="0%"></stop>
            <stop stop-color="#FFF3E9" offset="58.6046766%"></stop>
            <stop stop-color="#FFF4EA" offset="100%"></stop>
            <stop stop-color="#FFE5CB" offset="100%"></stop>
            <stop stop-color="#FFF4EA" offset="100%"></stop>
        </linearGradient>
        <linearGradient x1="47.1837284%" y1="0%" x2="59.8999884%" y2="81.5804672%" id="linearGradient-22">
            <stop stop-color="#FFFFFF" offset="0%"></stop>
            <stop stop-color="#FFD7AE" offset="100%"></stop>
        </linearGradient>
        <linearGradient x1="8.17792473%" y1="21.1007953%" x2="80.4205206%" y2="66.1410327%" id="linearGradient-23">
            <stop stop-color="#FFC68C" offset="0%"></stop>
            <stop stop-color="#FEFEFE" offset="62.5936406%"></stop>
            <stop stop-color="#FFE5CB" offset="100%"></stop>
        </linearGradient>
    </defs>
    <g id="体质测试" stroke="none" stroke-width="1" fill="none" fill-rule="evenodd">
        <g id="项目列表-班级" transform="translate(-49.000000, -340.000000)">
            <g id="编组" transform="translate(12.000000, 181.000000)">
                <g id="坐位体前屈" transform="translate(0.000000, 145.000000)">
                    <g id="ICON/48/坐位体前屈" transform="translate(35.000000, 12.000000)">
                        <path d="M17.189921,2 L30.810079,2 C36.0919455,2 38.0072779,2.54995196 39.9382493,3.58264678 C41.8692207,4.61534161 43.3846584,6.13077928 44.4173532,8.06175071 C45.450048,9.99272214 46,11.9080545 46,17.189921 L46,30.810079 C46,36.0919455 45.450048,38.0072779 44.4173532,39.9382493 C43.3846584,41.8692207 41.8692207,43.3846584 39.9382493,44.4173532 C38.0072779,45.450048 36.0919455,46 30.810079,46 L17.189921,46 C11.9080545,46 9.99272214,45.450048 8.06175071,44.4173532 C6.13077928,43.3846584 4.61534161,41.8692207 3.58264678,39.9382493 C2.54995196,38.0072779 2,36.0919455 2,30.810079 L2,17.189921 C2,11.9080545 2.54995196,9.99272214 3.58264678,8.06175071 C4.61534161,6.13077928 6.13077928,4.61534161 8.06175071,3.58264678 C9.99272214,2.54995196 11.9080545,2 17.189921,2 Z" id="矩形" fill="url(#linearGradient-1)"></path>
                        <g id="编组" transform="translate(18.000000, 11.000000)" fill-rule="nonzero">
                            <path d="M5,10 C7.48528137,10 9.5,8.09721019 9.5,5.75 C9.5,3.40278981 7.48528137,1.5 5,1.5 C2.51471863,1.5 0.5,3.40278981 0.5,5.75 C0.5,8.09721019 2.51471863,10 5,10 Z" id="路径" fill="url(#linearGradient-2)" filter="url(#filter-3)"></path>
                            <path d="M4.75,9 C7.37335256,9 9.5,6.98528137 9.5,4.5 C9.5,2.01471863 7.37335256,0 4.75,0 C2.12664744,0 0,2.01471863 0,4.5 C0,6.98528137 2.12664744,9 4.75,9 Z" id="路径" fill="url(#linearGradient-4)"></path>
                            <path d="M4.75,7.5 C6.54492544,7.5 8,6.15685425 8,4.5 C8,2.84314575 6.54492544,1.5 4.75,1.5 C2.95507456,1.5 1.5,2.84314575 1.5,4.5 C1.5,6.15685425 2.95507456,7.5 4.75,7.5 Z" id="路径备份" fill="url(#linearGradient-5)" filter="url(#filter-6)"></path>
                        </g>
                        <path d="M10.6222831,31.1260537 L25.7764219,29.5 L25.7764219,29.5 L38.25,29.5 C39.4926407,29.5 40.5,30.5073593 40.5,31.75 C40.5,32.975733 39.5063471,33.969386 38.280614,33.969386 C38.2704794,33.969386 38.2603448,33.9693165 38.2502111,33.9691777 L12.3128639,33.6138339 C11.67266,33.605063 11.060908,33.3478955 10.6067276,32.8966106 L10.1573956,32.4501432 C9.85290938,32.1475981 9.85133577,31.6555021 10.1538808,31.3510159 C10.2795808,31.2245094 10.4449632,31.1450803 10.6222831,31.1260537 Z" id="蒙版" fill="url(#linearGradient-7)" fill-rule="nonzero" filter="url(#filter-8)"></path>
                        <path d="M30.750162,19.6289641 C32.0764003,19.6205983 32.9176967,19.5318527 33.2740511,19.3627272 C33.2740511,19.3627272 33.2740511,19.3627272 33.2740511,19.3627272 C33.8508822,19.0889636 34.5404254,19.3346484 34.814189,19.9114795 C34.8598048,20.0075941 34.8919354,20.1095452 34.9096688,20.2144467 L36.103951,27.2783361 C36.2218311,27.9755685 36.0350493,28.6898769 35.5909606,29.2401622 L30.6717901,35.3356712 L30.6717901,35.3356712 L29.7140077,35.5228964 C28.3759778,35.7844515 27.0792579,34.9117963 26.8177027,33.5737664 C26.7634819,33.2963904 26.7572962,33.0117631 26.7994152,32.7322934 L26.8706659,32.2595287 L26.8706659,32.2595287 L28.3203603,21.7598447 C28.4881845,20.5444075 29.5232176,19.6367035 30.750162,19.6289641 Z" id="蒙版" fill="url(#linearGradient-9)" fill-rule="nonzero" filter="url(#filter-10)" transform="translate(31.283465, 27.715682) scale(-1, 1) rotate(38.000000) translate(-31.283465, -27.715682) "></path>
                        <g id="矩形备份-2" transform="translate(32.063441, 26.547351) scale(-1, 1) rotate(16.000000) translate(-32.063441, -26.547351) translate(24.467954, 16.420036)">
                            <mask id="mask-13" fill="white">
                                <use xlink:href="#path-12"></use>
                            </mask>
                            <use id="蒙版" fill="url(#linearGradient-11)" fill-rule="nonzero" transform="translate(7.160770, 9.932501) rotate(20.000000) translate(-7.160770, -9.932501) " xlink:href="#path-12"></use>
                            <path d="M9.49035655,2.32377407 C9.83159826,2.32247661 10.0307787,2.30890101 10.0878978,2.28304728 C11.1637439,1.79608898 11.8052259,2.51253748 12.1071758,2.52685443 C12.1071758,2.52685443 12.1071758,2.52685443 12.1071758,2.52685443 C12.9385356,2.56627333 13.5945048,3.24790612 13.6019785,4.0801663 L13.6607244,10.5987958 C13.6676336,11.3654597 13.3179281,12.0918143 12.7143119,12.5645391 L9.48325741,15.094954 L9.48325741,15.094954 L5.18791044,16.9109362 L7.0584208,4.42654166 C7.23898295,3.2214648 8.27183635,2.32840712 9.49035655,2.32377407 Z" fill="url(#linearGradient-14)" fill-rule="nonzero" mask="url(#mask-13)" transform="translate(9.429797, 9.512305) rotate(20.000000) translate(-9.429797, -9.512305) "></path>
                        </g>
                        <g id="矩形备份-21" transform="translate(8.500000, 27.500000)">
                            <mask id="mask-17" fill="white">
                                <use xlink:href="#path-16"></use>
                            </mask>
                            <use id="蒙版" fill="url(#linearGradient-15)" fill-rule="nonzero" xlink:href="#path-16"></use>
                            <path d="M3.21070925,3.47284827 C3.21070925,3.47284827 3.21070925,3.47284827 3.21070925,3.47284827 C6.46445054,2.86993929 10.5242963,2.37898987 15.3902466,2 L26.8902657,2 L28.25,2 C29.4926407,2 30.5,3.00735931 30.5,4.25 C30.5,5.49750519 29.4975958,6.513481 28.2502034,6.53025676 L3.54510622,6.86250733 C2.60121556,6.87521981 1.82575022,6.12033562 1.81305614,5.17644472 C1.80186051,4.34397261 2.3920968,3.62453483 3.21070925,3.47284827 Z" id="蒙版" fill="url(#linearGradient-18)" fill-rule="nonzero" mask="url(#mask-17)"></path>
                        </g>
                        <path d="M13.1877268,22.464766 L24.2191554,22.0483496 C24.9003474,22.0226358 25.4734078,22.5540059 25.4991216,23.2351979 C25.4997071,23.2507107 25.5,23.2662331 25.5,23.2817568 L25.5,23.7657143 C25.5,24.4473915 24.9473915,25 24.2657143,25 L13.2342857,25 C12.5526085,25 12,24.4473915 12,23.7657143 L12,23.6981732 C12,23.0346125 12.5246384,22.4897964 13.1877268,22.464766 Z" id="矩形" fill="url(#linearGradient-19)" fill-rule="nonzero" filter="url(#filter-20)"></path>
                        <path d="M13.1909337,21.4677453 L25.2223622,21.0449024 C25.9036188,21.0209597 26.4752958,21.5538179 26.4992384,22.2350745 C26.4997461,22.2495196 26.5,22.2639725 26.5,22.2784266 L26.5,22.7657143 C26.5,23.4473915 25.9473915,24 25.2657143,24 L13.2342857,24 C12.5526085,24 12,23.4473915 12,22.7657143 L12,22.7012694 C12,22.0364648 12.5265393,21.4910954 13.1909337,21.4677453 Z" id="矩形" fill="url(#linearGradient-21)" fill-rule="nonzero"></path>
                        <path d="M11.7916514,29.5 C11.8238449,29.6322359 11.6388189,29.8506455 11.2365736,30.1552286 C10.6332056,30.6121033 10.2888611,30.5105597 10.1008943,30.318469 C9.9129275,30.1263782 9.89500245,29.7778705 9.89500245,29.3742159 C9.89500245,28.9705614 9.92485057,28.5826994 10.1008943,28.3308506 C10.276938,28.0790019 10.7457143,27.7985279 11.2365736,28.0734945 C11.5638132,28.2568056 11.7488391,28.7323074 11.7916514,29.5 Z" id="路径-2" fill="url(#linearGradient-22)" fill-rule="nonzero"></path>
                        <path d="M30.3842651,16.0921828 C30.5899832,16.0682395 30.7761606,16.2155971 30.8001039,16.4213152 C30.8402697,16.7664147 30.9635669,16.9290204 31.1944145,16.9888479 C31.320207,17.0214489 31.4245992,17.0197238 31.6348306,16.9840199 L31.8682237,16.9423738 L31.940953,16.9315323 C32.282406,16.8850016 32.5648095,16.9268043 32.8583934,17.1105316 C33.0728058,17.2447126 33.2159305,17.3910293 33.3136455,17.5677673 C33.3299407,17.5972406 33.3436241,17.6243375 33.3566494,17.6530295 L33.3957044,17.7478622 L33.4174142,17.8063138 C33.4881118,18.0004335 33.5233527,18.0589615 33.6644813,18.1739435 C33.8250442,18.3047593 33.849159,18.5409684 33.7183432,18.7015313 C33.5875274,18.8620942 33.3513183,18.886209 33.1907554,18.7553932 C32.9525455,18.561316 32.8472628,18.4066169 32.7463485,18.1518055 L32.6867371,17.9942108 L32.6669059,17.9490623 C32.663755,17.9426722 32.6605921,17.9366413 32.6572836,17.9306572 C32.6232937,17.8691794 32.5702842,17.8149876 32.4605248,17.7462993 C32.3507872,17.6776246 32.2548141,17.6559281 32.1156604,17.6666619 L32.0142492,17.6786581 L31.9517244,17.6889656 L31.855424,17.7065041 C31.485319,17.7750317 31.2842979,17.7869207 31.0062571,17.7148623 C30.4542113,17.5717914 30.1290302,17.1429392 30.0551328,16.5080216 C30.0311894,16.3023035 30.178547,16.1161261 30.3842651,16.0921828 Z" id="路径-3" fill="url(#linearGradient-23)" fill-rule="nonzero"></path>
                        <path d="M32.3842651,19.0921828 C32.5899832,19.0682395 32.7761606,19.2155971 32.8001039,19.4213152 C32.8402697,19.7664147 32.9635669,19.9290204 33.1944145,19.9888479 C33.320207,20.0214489 33.4245992,20.0197238 33.6348306,19.9840199 L33.8682237,19.9423738 L33.940953,19.9315323 C34.282406,19.8850016 34.5648095,19.9268043 34.8583934,20.1105316 C35.0728058,20.2447126 35.2159305,20.3910293 35.3136455,20.5677673 C35.3299407,20.5972406 35.3436241,20.6243375 35.3566494,20.6530295 L35.3957044,20.7478622 L35.4174142,20.8063138 C35.4881118,21.0004335 35.5233527,21.0589615 35.6644813,21.1739435 C35.8250442,21.3047593 35.849159,21.5409684 35.7183432,21.7015313 C35.5875274,21.8620942 35.3513183,21.886209 35.1907554,21.7553932 C34.9525455,21.561316 34.8472628,21.4066169 34.7463485,21.1518055 L34.6867371,20.9942108 L34.6669059,20.9490623 C34.663755,20.9426722 34.6605921,20.9366413 34.6572836,20.9306572 C34.6232937,20.8691794 34.5702842,20.8149876 34.4605248,20.7462993 C34.3507872,20.6776246 34.2548141,20.6559281 34.1156604,20.6666619 L34.0142492,20.6786581 L33.9517244,20.6889656 L33.855424,20.7065041 C33.485319,20.7750317 33.2842979,20.7869207 33.0062571,20.7148623 C32.4542113,20.5717914 32.1290302,20.1429392 32.0551328,19.5080216 C32.0311894,19.3023035 32.178547,19.1161261 32.3842651,19.0921828 Z" id="路径-3备份" fill="url(#linearGradient-23)" fill-rule="nonzero"></path>
                    </g>
                </g>
            </g>
        </g>
    </g>
</svg>