<?xml version="1.0" encoding="UTF-8"?>
<svg width="44px" height="44px" viewBox="0 0 44 44" version="1.1" xmlns="http://www.w3.org/2000/svg" xmlns:xlink="http://www.w3.org/1999/xlink">
    <title>ICON/48/跳远</title>
    <defs>
        <linearGradient x1="18.1600671%" y1="1.08446241%" x2="70.2163654%" y2="96.0800918%" id="linearGradient-1">
            <stop stop-color="#FFB399" offset="0%"></stop>
            <stop stop-color="#FA5757" offset="100%"></stop>
        </linearGradient>
        <linearGradient x1="30.1139891%" y1="-12.5889505%" x2="95.2308358%" y2="88.9274367%" id="linearGradient-2">
            <stop stop-color="#FF7D7D" offset="0%"></stop>
            <stop stop-color="#FA5D5D" offset="100%"></stop>
        </linearGradient>
        <filter x="-34.0%" y="-36.2%" width="168.1%" height="172.3%" filterUnits="objectBoundingBox" id="filter-3">
            <feGaussianBlur stdDeviation="0.964285714" in="SourceGraphic"></feGaussianBlur>
        </filter>
        <linearGradient x1="8.17792473%" y1="2.06730008%" x2="80.4205206%" y2="76.7717844%" id="linearGradient-4">
            <stop stop-color="#FFB49B" offset="0%"></stop>
            <stop stop-color="#FEFEFE" offset="62.5936406%"></stop>
            <stop stop-color="#FFDED2" offset="100%"></stop>
        </linearGradient>
        <linearGradient x1="33.2039619%" y1="22.3049946%" x2="123.919541%" y2="92.0138889%" id="linearGradient-5">
            <stop stop-color="#FFFFFF" offset="0%"></stop>
            <stop stop-color="#FFF2ED" offset="100%"></stop>
            <stop stop-color="#FFE4DB" offset="100%"></stop>
        </linearGradient>
        <filter x="0.0%" y="0.0%" width="100.0%" height="100.0%" filterUnits="objectBoundingBox" id="filter-6">
            <feGaussianBlur stdDeviation="0" in="SourceGraphic"></feGaussianBlur>
        </filter>
        <linearGradient x1="60.4189505%" y1="28.5507935%" x2="94.4687258%" y2="70.4784597%" id="linearGradient-7">
            <stop stop-color="#FA6060" offset="0%"></stop>
            <stop stop-color="#F22E2E" offset="100%"></stop>
        </linearGradient>
        <filter x="-12.3%" y="-21.7%" width="126.1%" height="145.8%" filterUnits="objectBoundingBox" id="filter-8">
            <feGaussianBlur stdDeviation="0.964285714" in="SourceGraphic"></feGaussianBlur>
        </filter>
        <linearGradient x1="95.529335%" y1="-0.181969376%" x2="48.2705564%" y2="89.0833885%" id="linearGradient-9">
            <stop stop-color="#FA6060" offset="0%"></stop>
            <stop stop-color="#F22E2E" offset="100%"></stop>
        </linearGradient>
        <filter x="-6.5%" y="-18.3%" width="124.5%" height="141.4%" filterUnits="objectBoundingBox" id="filter-10">
            <feGaussianBlur stdDeviation="0.964285714" in="SourceGraphic"></feGaussianBlur>
        </filter>
        <linearGradient x1="79.5130288%" y1="61.4201414%" x2="26.2214297%" y2="21.4368432%" id="linearGradient-11">
            <stop stop-color="#F8F8F8" offset="0%"></stop>
            <stop stop-color="#FFE9E2" offset="59.0128333%"></stop>
            <stop stop-color="#FDD5C7" offset="72.2114359%"></stop>
            <stop stop-color="#FCA081" offset="100%"></stop>
        </linearGradient>
        <path d="M7.63330126,1.47287967 C8.9856205,1.5375917 9.82796639,1.57643072 10.1603389,1.58939673 C10.1603389,1.58939673 10.1603389,1.58939673 10.1603389,1.58939673 C10.913178,1.61876536 11.4996668,2.25287003 11.4702981,3.00570916 C11.469689,3.02132471 11.4688115,3.03692864 11.4676892,3.05251573 L10.919596,10.5107263 C10.8564838,11.3695292 10.3504089,12.1333782 9.58418265,12.526345 L6.43871218,14.1395314 L6.43871218,14.1395314 L6.02668938,14.2216157 C4.68961098,14.4879923 3.38975393,13.620017 3.12337738,12.2829386 C3.05198004,11.9245592 3.06103761,11.5547987 3.14989637,11.200345 L5.12083242,3.33836636 C5.40686723,2.19733263 6.4583066,1.41665309 7.63330126,1.47287967 Z" id="path-12"></path>
        <linearGradient x1="79.952483%" y1="63.8476152%" x2="42.131288%" y2="15.8912587%" id="linearGradient-14">
            <stop stop-color="#FCA081" offset="0%"></stop>
            <stop stop-color="#FDCEBE" offset="51.3801349%"></stop>
            <stop stop-color="#FFE9E2" offset="66.3844593%"></stop>
            <stop stop-color="#F8F8F8" offset="100%"></stop>
        </linearGradient>
        <linearGradient x1="60.2631631%" y1="30.7749002%" x2="73.7028381%" y2="62.8592789%" id="linearGradient-15">
            <stop stop-color="#FA6060" offset="0%"></stop>
            <stop stop-color="#F22E2E" offset="100%"></stop>
        </linearGradient>
        <filter x="-26.4%" y="-48.3%" width="152.7%" height="196.6%" filterUnits="objectBoundingBox" id="filter-16">
            <feGaussianBlur stdDeviation="0.964285714" in="SourceGraphic"></feGaussianBlur>
        </filter>
        <linearGradient x1="68.7975941%" y1="12.7381094%" x2="53.4858732%" y2="64.8828171%" id="linearGradient-17">
            <stop stop-color="#F8F8F8" offset="0%"></stop>
            <stop stop-color="#FFE9E2" offset="72.192366%"></stop>
            <stop stop-color="#FDD3C4" offset="87.0117876%"></stop>
            <stop stop-color="#FCA081" offset="100%"></stop>
        </linearGradient>
        <radialGradient cx="59.6377924%" cy="8.38542582%" fx="59.6377924%" fy="8.38542582%" r="137.780402%" gradientTransform="translate(0.596378,0.083854),scale(0.464036,1.000000),rotate(158.873529),translate(-0.596378,-0.083854)" id="radialGradient-18">
            <stop stop-color="#F8F8F8" offset="0%"></stop>
            <stop stop-color="#FFFFFF" offset="28.096805%"></stop>
            <stop stop-color="#FDD3C4" offset="80.3017993%"></stop>
            <stop stop-color="#FCA081" offset="100%"></stop>
        </radialGradient>
        <path d="M3.01407208,1.07877726 L12.9579475,1.6754891 C13.2827669,1.69498085 13.5921276,1.82089847 13.8382299,2.03378624 L21.8082618,8.92816403 L21.8082618,8.92816403 C22.382433,9.55247274 22.3993671,10.11839 21.859064,10.6259158 C21.318761,11.1334416 20.6601335,11.1858472 19.8831816,10.7831324 L12.0270243,5.34416541 L2.65255372,5.28599227 C1.54446648,5.27911605 0.651758571,4.37525958 0.658634791,3.26717235 C0.658958954,3.21493411 0.661323122,3.16272847 0.665721888,3.11067475 C0.767328798,1.90828827 1.80956686,1.00649735 3.01407208,1.07877726 Z" id="path-19"></path>
        <linearGradient x1="50%" y1="25.133641%" x2="31.1426028%" y2="50%" id="linearGradient-21">
            <stop stop-color="#F8F8F8" offset="0%"></stop>
            <stop stop-color="#FFFFFF" offset="28.096805%"></stop>
            <stop stop-color="#FDD3C4" offset="80.3017993%"></stop>
            <stop stop-color="#FCAD93" offset="94.416588%"></stop>
            <stop stop-color="#FCA081" offset="100%"></stop>
        </linearGradient>
        <linearGradient x1="112.058039%" y1="59.7164039%" x2="-21.6267388%" y2="21.9808376%" id="linearGradient-22">
            <stop stop-color="#F8F8F8" offset="0%"></stop>
            <stop stop-color="#FFE9E2" offset="59.0128333%"></stop>
            <stop stop-color="#FDD5C7" offset="72.2114359%"></stop>
            <stop stop-color="#FCA081" offset="100%"></stop>
        </linearGradient>
        <linearGradient x1="57.6083146%" y1="-261.179889%" x2="57.6083146%" y2="100%" id="linearGradient-23">
            <stop stop-color="#FFDED2" offset="0%"></stop>
            <stop stop-color="#FEFEFE" offset="82.5015018%"></stop>
            <stop stop-color="#FF9F7E" offset="100%"></stop>
        </linearGradient>
    </defs>
    <g id="体质测试" stroke="none" stroke-width="1" fill="none" fill-rule="evenodd">
        <g id="项目列表-班级" transform="translate(-166.000000, -340.000000)">
            <g id="编组" transform="translate(12.000000, 181.000000)">
                <g id="立定跳远" transform="translate(117.000000, 145.000000)">
                    <g id="ICON/48/跳远" transform="translate(35.000000, 12.000000)">
                        <path d="M17.189921,2 L30.810079,2 C36.0919455,2 38.0072779,2.54995196 39.9382493,3.58264678 C41.8692207,4.61534161 43.3846584,6.13077928 44.4173532,8.06175071 C45.450048,9.99272214 46,11.9080545 46,17.189921 L46,30.810079 C46,36.0919455 45.450048,38.0072779 44.4173532,39.9382493 C43.3846584,41.8692207 41.8692207,43.3846584 39.9382493,44.4173532 C38.0072779,45.450048 36.0919455,46 30.810079,46 L17.189921,46 C11.9080545,46 9.99272214,45.450048 8.06175071,44.4173532 C6.13077928,43.3846584 4.61534161,41.8692207 3.58264678,39.9382493 C2.54995196,38.0072779 2,36.0919455 2,30.810079 L2,17.189921 C2,11.9080545 2.54995196,9.99272214 3.58264678,8.06175071 C4.61534161,6.13077928 6.13077928,4.61534161 8.06175071,3.58264678 C9.99272214,2.54995196 11.9080545,2 17.189921,2 Z" id="矩形" fill="url(#linearGradient-1)"></path>
                        <g id="编组" transform="translate(19.066681, 8.966289)" fill-rule="nonzero">
                            <path d="M5.6833191,9.53371109 C8.03052929,9.53371109 9.9333191,7.74285009 9.9333191,5.53371109 C9.9333191,3.32457209 8.03052929,1.53371109 5.6833191,1.53371109 C3.33610891,1.53371109 1.4333191,3.32457209 1.4333191,5.53371109 C1.4333191,7.74285009 3.33610891,9.53371109 5.6833191,9.53371109 Z" id="路径" fill="url(#linearGradient-2)" filter="url(#filter-3)"></path>
                            <path d="M5.4333191,8.53371109 C7.91860047,8.53371109 9.9333191,6.63092128 9.9333191,4.28371109 C9.9333191,1.9365009 7.91860047,0.0337110913 5.4333191,0.0337110913 C2.94803773,0.0337110913 0.933319101,1.9365009 0.933319101,4.28371109 C0.933319101,6.63092128 2.94803773,8.53371109 5.4333191,8.53371109 Z" id="路径" fill="url(#linearGradient-4)"></path>
                            <path d="M5.4333191,7.03371109 C7.09017335,7.03371109 8.4333191,5.80249415 8.4333191,4.28371109 C8.4333191,2.76492803 7.09017335,1.53371109 5.4333191,1.53371109 C3.77646485,1.53371109 2.4333191,2.76492803 2.4333191,4.28371109 C2.4333191,5.80249415 3.77646485,7.03371109 5.4333191,7.03371109 Z" id="路径备份" fill="url(#linearGradient-5)" filter="url(#filter-6)"></path>
                        </g>
                        <path d="M15.4643124,24.7782876 L24.997564,26.103784 C25.3316012,26.1502283 25.6397863,26.3092787 25.8711656,26.5546387 L33.1931051,34.3189938 L33.1931051,34.3189938 C33.7124617,35.0121347 33.6902991,35.6037157 33.1266175,36.093737 C32.5629359,36.5837582 31.9145745,36.5903821 31.1815331,36.1136087 L23.6673646,30.5013191 L14.8104231,29.2635501 C13.5785485,29.0913941 12.719477,27.9532024 12.891633,26.7213279 C12.8922478,26.7169289 12.8928756,26.7125318 12.8935163,26.7081366 C13.0743712,25.4676067 14.2226133,24.6056426 15.4643124,24.7782876 Z" id="蒙版" fill="url(#linearGradient-7)" fill-rule="nonzero" filter="url(#filter-8)"></path>
                        <path d="M21.8787756,17.765902 C23.102606,18.274293 23.8669594,18.5902561 24.1718357,18.7137911 C24.1718357,18.7137911 24.1718357,18.7137911 24.1718357,18.7137911 C24.9119163,19.0136696 25.2819323,19.8454829 25.0090469,20.5959361 L22.3747787,27.8412264 C22.0200633,28.8168353 21.0928845,29.4662889 20.0547921,29.4662889 L17.9328556,29.4662889 L17.9328556,29.4662889 L16.5438818,29.4662889 C15.1805275,29.4662889 14.0753104,28.3610718 14.0753104,26.9977175 C14.0753104,26.5313524 14.2074185,26.0745273 14.4563354,25.6801458 L18.8442214,18.7280263 C19.4862375,17.7108257 20.7679445,17.304452 21.8787756,17.765902 Z" id="蒙版" fill="url(#linearGradient-9)" fill-rule="nonzero" filter="url(#filter-10)"></path>
                        <g id="矩形备份-2" transform="translate(11.566681, 14.966289)">
                            <mask id="mask-13" fill="white">
                                <use xlink:href="#path-12"></use>
                            </mask>
                            <use id="蒙版" fill="url(#linearGradient-11)" fill-rule="nonzero" transform="translate(6.893698, 8.179541) rotate(20.000000) translate(-6.893698, -8.179541) " xlink:href="#path-12"></use>
                            <path d="M8.99484008,1.97630242 C10.3036385,2.03887852 11.1211507,2.07652969 11.4473767,2.08925593 C11.4473767,2.08925593 11.4473767,2.08925593 11.4473767,2.08925593 C12.2002158,2.11862455 12.7867046,2.75272922 12.7573359,3.50556835 C12.7567268,3.5211839 12.7558493,3.53678783 12.754727,3.55237493 L12.1858041,11.2940262 C12.134388,11.9936741 11.7877178,12.6384006 11.2324157,13.0671084 L8.04822611,15.5253865 L8.04822611,15.5253865 L7.48942511,15.6367124 C6.15234671,15.903089 4.85248966,15.0351136 4.58611311,13.6980352 C4.52051268,13.3687535 4.52277348,13.0295506 4.59275725,12.7011726 L6.46259776,3.92750207 C6.71470961,2.74458942 7.78673979,1.91854089 8.99484008,1.97630242 Z" fill="url(#linearGradient-14)" fill-rule="nonzero" mask="url(#mask-13)" transform="translate(8.341974, 9.122398) rotate(20.000000) translate(-8.341974, -9.122398) "></path>
                        </g>
                        <path d="M25.1473715,19.3040873 L28.2844016,21.9276925 L31.6950232,20.8886593 C32.4596198,20.6556876 33.26848,21.0857648 33.5028968,21.8499196 C33.7367415,22.6122094 33.3083521,23.4197358 32.5460624,23.6535804 C32.5451925,23.6538473 32.5443224,23.6541133 32.5434521,23.6543785 L28.3946815,24.9185037 C28.2618795,24.9589683 28.1271178,24.9700758 27.9973793,24.9555393 C27.6438376,24.9743123 27.281852,24.8644389 26.988335,24.6189802 L22.9312381,21.2261621 C22.5128992,20.876319 22.4573725,20.2535844 22.8072156,19.8352456 L22.809329,19.832727 L23.10389,19.4828677 C23.6194786,18.8704871 24.5332775,18.7905405 25.1473715,19.3040873 Z" id="形状结合" fill="url(#linearGradient-15)" fill-rule="nonzero" filter="url(#filter-16)"></path>
                        <path d="M24.1473715,18.3040873 L27.2844016,20.9276925 L30.6950232,19.8886593 C31.4596198,19.6556876 32.26848,20.0857648 32.5028968,20.8499196 C32.7367415,21.6122094 32.3083521,22.4197358 31.5460624,22.6535804 C31.5451925,22.6538473 31.5443224,22.6541133 31.5434521,22.6543785 L27.3946815,23.9185037 C27.2618795,23.9589683 27.1271178,23.9700758 26.9973793,23.9555393 C26.6438376,23.9743123 26.281852,23.8644389 25.988335,23.6189802 L21.9312381,20.2261621 C21.5128992,19.876319 21.4573725,19.2535844 21.8072156,18.8352456 L21.809329,18.832727 L22.10389,18.4828677 C22.6194786,17.8704871 23.5332775,17.7905405 24.1473715,18.3040873 Z" id="形状结合" fill="url(#linearGradient-17)" fill-rule="nonzero"></path>
                        <g id="矩形备份-3" transform="translate(12.066681, 23.966289)">
                            <mask id="mask-20" fill="white">
                                <use xlink:href="#path-19"></use>
                            </mask>
                            <use id="蒙版" fill="url(#radialGradient-18)" fill-rule="nonzero" transform="translate(11.367506, 5.999605) rotate(4.000000) translate(-11.367506, -5.999605) " xlink:href="#path-19"></use>
                            <path d="M3.01407208,2.46339265 L12.9579475,3.06010448 C13.2827669,3.07959623 13.5921276,3.20551385 13.8382299,3.41840163 L21.8082618,10.3127794 L21.8082618,10.3127794 C22.382433,10.9370881 22.3993671,11.5030054 21.859064,12.0105312 C21.318761,12.518057 20.6601335,12.5704626 19.8831816,12.1677478 L12.0270243,6.7287808 L2.65255372,6.67060765 C1.54446648,6.66373143 0.651758571,5.75987497 0.658634791,4.65178773 C0.658958954,4.5995495 0.661323122,4.54734385 0.665721888,4.49529014 C0.767328798,3.29290366 1.80956686,2.39111273 3.01407208,2.46339265 Z" fill="url(#linearGradient-21)" fill-rule="nonzero" mask="url(#mask-20)" transform="translate(11.367506, 7.384220) rotate(4.000000) translate(-11.367506, -7.384220) "></path>
                        </g>
                        <path d="M11.4143116,17.3133319 C11.5861375,17.1250497 11.8688245,17.0982521 12.0717279,17.2416514 L12.1206812,17.2810521 L16.9449841,21.6533606 C17.1489565,21.8395054 17.1634086,22.1557578 16.9772639,22.3597302 C16.8054379,22.5480124 16.522751,22.5748099 16.3198476,22.4314107 L16.2708943,22.39201 L11.4465914,18.0197015 C11.242619,17.8335567 11.2281669,17.5173043 11.4143116,17.3133319 Z" id="路径-4备份-2" fill="url(#linearGradient-22)" fill-rule="nonzero" transform="translate(14.195788, 19.836531) rotate(-95.000000) translate(-14.195788, -19.836531) "></path>
                        <rect id="矩形" fill="url(#linearGradient-23)" fill-rule="nonzero" x="10" y="36.5" width="28" height="1.5" rx="0.740571429"></rect>
                    </g>
                </g>
            </g>
        </g>
    </g>
</svg>