<?xml version="1.0" encoding="UTF-8"?>
<svg width="44px" height="44px" viewBox="0 0 44 44" version="1.1" xmlns="http://www.w3.org/2000/svg" xmlns:xlink="http://www.w3.org/1999/xlink">
    <title>ICON/48/BIM</title>
    <defs>
        <linearGradient x1="18.1600671%" y1="1.08446241%" x2="70.2163654%" y2="96.0800918%" id="linearGradient-1">
            <stop stop-color="#FFB399" offset="0%"></stop>
            <stop stop-color="#FA5757" offset="100%"></stop>
        </linearGradient>
        <linearGradient x1="57.6083146%" y1="-261.179889%" x2="57.6083146%" y2="100%" id="linearGradient-2">
            <stop stop-color="#FFDED2" offset="0%"></stop>
            <stop stop-color="#FEFEFE" offset="82.5015018%"></stop>
            <stop stop-color="#FFB49B" offset="100%"></stop>
        </linearGradient>
        <linearGradient x1="-123.792908%" y1="59.5451487%" x2="112.360936%" y2="59.5451487%" id="linearGradient-3">
            <stop stop-color="#FFDED2" offset="0%"></stop>
            <stop stop-color="#FEFEFE" offset="71.3814102%"></stop>
            <stop stop-color="#FFB49B" offset="100%"></stop>
        </linearGradient>
        <linearGradient x1="30.1139891%" y1="-14.6465327%" x2="95.2308358%" y2="90.2071578%" id="linearGradient-4">
            <stop stop-color="#FF7D7D" offset="0%"></stop>
            <stop stop-color="#FA5D5D" offset="100%"></stop>
        </linearGradient>
        <filter x="-25.2%" y="-26.3%" width="150.3%" height="152.6%" filterUnits="objectBoundingBox" id="filter-5">
            <feGaussianBlur stdDeviation="0.964285714" in="SourceGraphic"></feGaussianBlur>
        </filter>
        <linearGradient x1="8.17792473%" y1="0.833561592%" x2="80.4205206%" y2="77.4608627%" id="linearGradient-6">
            <stop stop-color="#FFB49B" offset="0%"></stop>
            <stop stop-color="#FEFEFE" offset="62.5936406%"></stop>
            <stop stop-color="#FFDED2" offset="100%"></stop>
        </linearGradient>
        <linearGradient x1="33.2039619%" y1="20.8041786%" x2="123.919541%" y2="94.2906574%" id="linearGradient-7">
            <stop stop-color="#FFFFFF" offset="0%"></stop>
            <stop stop-color="#FFF2ED" offset="100%"></stop>
            <stop stop-color="#FFE4DB" offset="100%"></stop>
        </linearGradient>
        <filter x="0.0%" y="0.0%" width="100.0%" height="100.0%" filterUnits="objectBoundingBox" id="filter-8">
            <feGaussianBlur stdDeviation="0" in="SourceGraphic"></feGaussianBlur>
        </filter>
        <linearGradient x1="60.2631631%" y1="15.6106696%" x2="73.7028381%" y2="73.0023248%" id="linearGradient-9">
            <stop stop-color="#FA6060" offset="0%"></stop>
            <stop stop-color="#F22E2E" offset="100%"></stop>
        </linearGradient>
        <filter x="-14.2%" y="-19.5%" width="128.5%" height="139.0%" filterUnits="objectBoundingBox" id="filter-10">
            <feGaussianBlur stdDeviation="0.964285714" in="SourceGraphic"></feGaussianBlur>
        </filter>
        <linearGradient x1="60.2631631%" y1="15.6106696%" x2="69.6743481%" y2="72.8644341%" id="linearGradient-11">
            <stop stop-color="#F8F8F8" offset="0%"></stop>
            <stop stop-color="#FFE9E2" offset="35.4438504%"></stop>
            <stop stop-color="#FDD3C4" offset="80.3017993%"></stop>
            <stop stop-color="#FCA081" offset="100%"></stop>
        </linearGradient>
        <path d="M3.50178778,1.1932367 L3.33188037,0.894956706 C2.98495364,0.290004825 2.3201016,-0.0564628098 1.62914552,0.00762767185 C0.938189446,0.0717181535 0.347419221,0.534652577 0.116139631,1.1932367 C-0.0380467619,1.63229278 -0.0387103422,2.02999943 0.11414889,2.38635666 C0.151081339,2.48982573 0.197355083,2.5896699 0.252389631,2.68463666 L2.03016741,5.7847445 C2.25933408,6.18644376 2.62276,6.46482288 3.02970445,6.59410862 C3.246651,6.68611524 3.47970918,6.73343512 3.71512111,6.73327488 L5.53192667,6.73327488 L5.03192667,12.8290075 C5.03192667,13.9272345 5.91628116,14.8175563 7.00720445,14.8175563 L13.1677137,14.8175563 C14.2586551,14.8175563 15.1430378,13.9272527 15.1430378,12.8290075 L14.6430378,6.73332148 L16.6060007,6.73332148 C16.8420368,6.7332831 17.0757072,6.68597631 17.2934081,6.59415522 C17.7145495,6.45906175 18.0703274,6.1703862 18.2909081,5.78479111 L20.0686859,2.68468326 C20.1237364,2.58971821 20.1700257,2.48987399 20.206973,2.38640327 C20.3188782,1.98866554 20.3366984,1.59094335 20.2604337,1.1932367 C20.1460367,0.596676714 19.3849232,0.0716687934 18.6939472,0.0075773851 C18.0029711,-0.0565140232 17.3381032,0.28997616 16.9911859,0.894956706 L16.8193341,1.1932367 L15.5945383,3.42075683 L12.8315141,3.42075683 C12.3321924,2.73118779 11.3619487,2.38638774 9.920783,2.38635666 C8.47961729,2.38632559 7.49360005,2.73112565 6.96273128,3.42075683 L4.54816414,3.42075683 L3.50178778,1.1932367 Z" id="path-12"></path>
        <linearGradient x1="52.8728664%" y1="24.0304239%" x2="55.3787436%" y2="69.5551232%" id="linearGradient-14">
            <stop stop-color="#FFFFFF" offset="0%"></stop>
            <stop stop-color="#FFFFFF" offset="26.4615849%"></stop>
            <stop stop-color="#FFE3DA" offset="49.5525594%"></stop>
            <stop stop-color="#FFE6DE" offset="100%"></stop>
        </linearGradient>
        <filter x="0.0%" y="-0.0%" width="100.0%" height="100.0%" filterUnits="objectBoundingBox" id="filter-15">
            <feGaussianBlur stdDeviation="0" in="SourceGraphic"></feGaussianBlur>
        </filter>
        <linearGradient x1="55.3787436%" y1="0%" x2="55.3787436%" y2="44.2352842%" id="linearGradient-16">
            <stop stop-color="#FCB59D" offset="0%"></stop>
            <stop stop-color="#FFE3DA" stop-opacity="0" offset="44.4822439%"></stop>
            <stop stop-color="#FFFFFF" stop-opacity="0" offset="81.2169446%"></stop>
            <stop stop-color="#FFFFFF" stop-opacity="0" offset="100%"></stop>
        </linearGradient>
        <filter x="0.0%" y="-0.0%" width="100.0%" height="100.0%" filterUnits="objectBoundingBox" id="filter-17">
            <feGaussianBlur stdDeviation="0" in="SourceGraphic"></feGaussianBlur>
        </filter>
        <linearGradient x1="18.1600671%" y1="43.1212525%" x2="70.2163654%" y2="56.4800129%" id="linearGradient-18">
            <stop stop-color="#FFB399" offset="0%"></stop>
            <stop stop-color="#FA5757" offset="97.5524476%"></stop>
        </linearGradient>
    </defs>
    <g id="体质测试" stroke="none" stroke-width="1" fill="none" fill-rule="evenodd">
        <g id="项目列表-班级" transform="translate(-49.000000, -509.000000)">
            <g id="编组-2" transform="translate(12.000000, 446.000000)">
                <g id="身高体重备份" transform="translate(0.000000, 49.000000)">
                    <g id="ICON/48/BIM" transform="translate(35.000000, 12.000000)">
                        <path d="M17.189921,2 L30.810079,2 C36.0919455,2 38.0072779,2.54995196 39.9382493,3.58264678 C41.8692207,4.61534161 43.3846584,6.13077928 44.4173532,8.06175071 C45.450048,9.99272214 46,11.9080545 46,17.189921 L46,30.810079 C46,36.0919455 45.450048,38.0072779 44.4173532,39.9382493 C43.3846584,41.8692207 41.8692207,43.3846584 39.9382493,44.4173532 C38.0072779,45.450048 36.0919455,46 30.810079,46 L17.189921,46 C11.9080545,46 9.99272214,45.450048 8.06175071,44.4173532 C6.13077928,43.3846584 4.61534161,41.8692207 3.58264678,39.9382493 C2.54995196,38.0072779 2,36.0919455 2,30.810079 L2,17.189921 C2,11.9080545 2.54995196,9.99272214 3.58264678,8.06175071 C4.61534161,6.13077928 6.13077928,4.61534161 8.06175071,3.58264678 C9.99272214,2.54995196 11.9080545,2 17.189921,2 Z" id="矩形" fill="url(#linearGradient-1)"></path>
                        <rect id="矩形" fill="url(#linearGradient-2)" fill-rule="nonzero" x="8" y="21" width="32" height="1.5" rx="0.740571429"></rect>
                        <rect id="矩形" fill="url(#linearGradient-3)" fill-rule="nonzero" x="11" y="17" width="1.5" height="20.5" rx="0.740571429"></rect>
                        <rect id="矩形备份" fill="url(#linearGradient-3)" fill-rule="nonzero" x="35.5" y="17" width="1.5" height="20.5" rx="0.740571429"></rect>
                        <path d="M23.75,22.5 C26.9256373,22.5 29.5,20.0375661 29.5,17 C29.5,13.9624339 26.9256373,11.5 23.75,11.5 C20.5743627,11.5 18,13.9624339 18,17 C18,20.0375661 20.5743627,22.5 23.75,22.5 Z" id="路径" fill="url(#linearGradient-4)" fill-rule="nonzero" filter="url(#filter-5)"></path>
                        <path d="M23.75,21.5 C26.9256373,21.5 29.5,19.0375661 29.5,16 C29.5,12.9624339 26.9256373,10.5 23.75,10.5 C20.5743627,10.5 18,12.9624339 18,16 C18,19.0375661 20.5743627,21.5 23.75,21.5 Z" id="路径" fill="url(#linearGradient-6)" fill-rule="nonzero"></path>
                        <path d="M23.75,20 C26.0972102,20 28,18.209139 28,16 C28,13.790861 26.0972102,12 23.75,12 C21.4027898,12 19.5,13.790861 19.5,16 C19.5,18.209139 21.4027898,20 23.75,20 Z" id="路径备份" fill="url(#linearGradient-7)" fill-rule="nonzero" filter="url(#filter-8)"></path>
                        <g id="路径备份-3" transform="translate(13.579217, 20.079341)">
                            <path d="M3.50178778,2.1932367 L3.33188037,1.89495671 C2.98495364,1.29000483 2.3201016,0.94353719 1.62914552,1.00762767 C0.938189446,1.07171815 0.347419221,1.53465258 0.116139631,2.1932367 C-0.0380467619,2.63229278 -0.0387103422,3.02999943 0.11414889,3.38635666 C0.151081339,3.48982573 0.197355083,3.5896699 0.252389631,3.68463666 L2.03016741,6.7847445 C2.25933408,7.18644376 2.62276,7.46482288 3.02970445,7.59410862 C3.246651,7.68611524 3.47970918,7.73343512 3.71512111,7.73327488 L6.03192667,7.73327488 L5.53192667,13.8290075 C5.53192667,14.9272345 6.41628116,15.8175563 7.50720445,15.8175563 L14.1677137,15.8175563 C15.2586551,15.8175563 16.1430378,14.9272527 16.1430378,13.8290075 L15.6430378,7.73332148 L16.6060007,7.73332148 C16.8420368,7.7332831 17.0757072,7.68597631 17.2934081,7.59415522 C17.7145495,7.45906175 18.0703274,7.1703862 18.2909081,6.78479111 L20.0686859,3.68468326 C20.1237364,3.58971821 20.1700257,3.48987399 20.206973,3.38640327 C20.3188782,2.98866554 20.3366984,2.59094335 20.2604337,2.1932367 C20.1460367,1.59667671 19.3849232,1.07166879 18.6939472,1.00757739 C18.0029711,0.943485977 17.3381032,1.28997616 16.9911859,1.89495671 L16.8193341,2.1932367 L15.5945383,4.42075683 L12.8315141,4.42075683 C12.3321924,3.73118779 11.3619487,3.38638774 9.920783,3.38635666 C8.47961729,3.38632559 7.49360005,3.73112565 6.96273128,4.42075683 L4.54816414,4.42075683 L3.50178778,2.1932367 Z" id="蒙版" fill="url(#linearGradient-9)" fill-rule="nonzero" filter="url(#filter-10)"></path>
                            <mask id="mask-13" fill="white">
                                <use xlink:href="#path-12"></use>
                            </mask>
                            <use id="蒙版" fill="url(#linearGradient-11)" fill-rule="nonzero" xlink:href="#path-12"></use>
                            <path d="M3.50178778,0.193236697 L3.33188037,-0.105043294 C2.98495364,-0.709995175 2.3201016,-1.05646281 1.62914552,-0.992372328 C0.938189446,-0.928281846 0.347419221,-0.465347423 0.116139631,0.193236697 C-0.0380467619,0.632292777 -0.0387103422,1.02999943 0.11414889,1.38635666 C0.151081339,1.48982573 0.197355083,1.5896699 0.252389631,1.68463666 L2.03016741,4.7847445 C2.25933408,5.18644376 2.62276,5.46482288 3.02970445,5.59410862 C3.246651,5.68611524 3.47970918,5.73343512 3.71512111,5.73327488 L7.03192667,5.73327488 L6.53192667,11.3290075 C6.53192667,12.4272345 7.41628116,13.3175563 8.50720445,13.3175563 L11.6677137,13.3175563 C12.5282583,13.3175563 13.260278,12.7635916 13.531088,11.9905743 C13.6035929,11.7836116 13.6430378,11.5609468 13.6430378,11.3290075 L13.1430378,5.73332148 L16.6060007,5.73332148 C16.8420368,5.7332831 17.0757072,5.68597631 17.2934081,5.59415522 C17.7145495,5.45906175 18.0703274,5.1703862 18.2909081,4.78479111 L20.0686859,1.68468326 C20.1237364,1.58971821 20.1700257,1.48987399 20.206973,1.38640327 C20.3188782,0.988665544 20.3366984,0.590943353 20.2604337,0.193236697 C20.1460367,-0.403323286 19.3849232,-0.928331207 18.6939472,-0.992422615 C18.0029711,-1.05651402 17.3381032,-0.71002384 16.9911859,-0.105043294 L16.8193341,0.193236697 L15.5945383,2.42075683 L12.8315141,2.42075683 C12.3321924,1.73118779 11.3619487,1.38638774 9.920783,1.38635666 C8.47961729,1.38632559 7.49360005,1.73112565 6.96273128,2.42075683 L4.54816414,2.42075683 L3.50178778,0.193236697 Z" fill="url(#linearGradient-14)" fill-rule="nonzero" filter="url(#filter-15)" mask="url(#mask-13)"></path>
                            <path d="M3.50178778,1.1932367 L3.33188037,0.894956706 C2.98495364,0.290004825 2.3201016,-0.0564628098 1.62914552,0.00762767185 C0.938189446,0.0717181535 0.347419221,0.534652577 0.116139631,1.1932367 C-0.0380467619,1.63229278 -0.0387103422,2.02999943 0.11414889,2.38635666 C0.151081339,2.48982573 0.197355083,2.5896699 0.252389631,2.68463666 L2.03016741,5.7847445 C2.25933408,6.18644376 2.62276,6.46482288 3.02970445,6.59410862 C3.246651,6.68611524 3.47970918,6.73343512 3.71512111,6.73327488 L7.03192667,6.73327488 L6.53192667,12.3290075 C6.53192667,13.4272345 7.41628116,14.3175563 8.50720445,14.3175563 L11.6677137,14.3175563 C12.5282583,14.3175563 13.260278,13.7635916 13.531088,12.9905743 C13.6035929,12.7836116 13.6430378,12.5609468 13.6430378,12.3290075 L13.1430378,6.73332148 L16.6060007,6.73332148 C16.8420368,6.7332831 17.0757072,6.68597631 17.2934081,6.59415522 C17.7145495,6.45906175 18.0703274,6.1703862 18.2909081,5.78479111 L20.0686859,2.68468326 C20.1237364,2.58971821 20.1700257,2.48987399 20.206973,2.38640327 C20.3188782,1.98866554 20.3366984,1.59094335 20.2604337,1.1932367 C20.1460367,0.596676714 19.3849232,0.0716687934 18.6939472,0.0075773851 C18.0029711,-0.0565140232 17.3381032,0.28997616 16.9911859,0.894956706 L16.8193341,1.1932367 L15.5945383,3.42075683 L12.8315141,3.42075683 C12.3321924,2.73118779 11.3619487,2.38638774 9.920783,2.38635666 C8.47961729,2.38632559 7.49360005,2.73112565 6.96273128,3.42075683 L4.54816414,3.42075683 L3.50178778,1.1932367 Z" id="路径备份-4" fill="url(#linearGradient-16)" fill-rule="nonzero" filter="url(#filter-17)" mask="url(#mask-13)"></path>
                        </g>
                        <path d="M25.0331857,18.1255168 C25.1019558,18.0057949 25.2547595,17.96449 25.3744823,18.0332597 C25.494205,18.1020293 25.5355102,18.2548318 25.4667401,18.3745537 C25.0705976,19.0641972 24.3213989,19.5 23.4947542,19.5 C22.6766865,19.5 21.9340942,19.0732301 21.5346208,18.394931 C21.464556,18.2759621 21.5042014,18.1227206 21.6231711,18.0526563 C21.7421408,17.9825921 21.8953836,18.0222371 21.9654484,18.1412059 C22.2752811,18.6672968 22.8542191,19.0000141 23.4947542,19.0000141 C24.1419639,19.0000141 24.7260091,18.6602798 25.0331857,18.1255168 Z" id="路径" fill="url(#linearGradient-18)"></path>
                    </g>
                </g>
            </g>
        </g>
    </g>
</svg>