<?xml version="1.0" encoding="UTF-8"?>
<svg width="48px" height="48px" viewBox="0 0 48 48" version="1.1" xmlns="http://www.w3.org/2000/svg" xmlns:xlink="http://www.w3.org/1999/xlink">
    <title>ICON/48/1000米</title>
    <defs>
        <linearGradient x1="18.1600671%" y1="1.08446241%" x2="70.2163654%" y2="96.0800918%" id="linearGradient-1">
            <stop stop-color="#FFB399" offset="0%"></stop>
            <stop stop-color="#FA5757" offset="100%"></stop>
        </linearGradient>
        <linearGradient x1="32.9121535%" y1="-8.53118846%" x2="73.7028381%" y2="91.5241865%" id="linearGradient-2">
            <stop stop-color="#FF8787" offset="0%"></stop>
            <stop stop-color="#F22E2E" offset="100%"></stop>
        </linearGradient>
        <filter x="-11.5%" y="-11.7%" width="123.0%" height="123.4%" filterUnits="objectBoundingBox" id="filter-3">
            <feGaussianBlur stdDeviation="0.9765625" in="SourceGraphic"></feGaussianBlur>
        </filter>
        <linearGradient x1="31.1825265%" y1="9.27628038%" x2="114.272922%" y2="103.165103%" id="linearGradient-4">
            <stop stop-color="#FFFFFF" offset="0%"></stop>
            <stop stop-color="#FCFDFF" offset="45.8247743%"></stop>
            <stop stop-color="#D5E4FF" offset="100%"></stop>
        </linearGradient>
        <path d="M14.2847624,5.68590343 C12.0473812,4.40793299 10.7422023,3.3761648 10.3692259,2.59059884 C9.80976125,1.41224991 9.7039553,-1.02143923 7.68486974,0.469243147 C5.66578418,1.95992553 1.72373589,5.39146046 1.08671159,6.0339738 C0.449687293,6.67648714 -1.12638526,7.19205687 1.8999157,10.6162581 C4.92621667,14.0404592 9.58671328,18.2052693 11.5146515,20.0929209 C13.4425896,21.9805726 16.266789,24.7256851 19.7481809,25.1341211 C23.2295728,25.5425572 25.4597292,24.2240742 25.4597292,22.2373733 C25.4597292,20.2506725 23.3042818,18.8419984 22.5456492,18.4522359 C21.7870167,18.0624735 19.9454001,15.877447 19.2758349,13.351061 C18.829458,11.6668038 18.3930667,9.72204013 17.9666609,7.51677014 L14.2847624,5.68590343 Z" id="path-5"></path>
        <linearGradient x1="47.1140084%" y1="56.0102176%" x2="32.5099252%" y2="80.3265622%" id="linearGradient-7">
            <stop stop-color="#FFE4E4" offset="0%"></stop>
            <stop stop-color="#FA5757" offset="100%"></stop>
        </linearGradient>
        <filter x="-11.4%" y="-11.9%" width="122.7%" height="122.7%" filterUnits="objectBoundingBox" id="filter-8">
            <feGaussianBlur stdDeviation="0.3" in="SourceGraphic"></feGaussianBlur>
        </filter>
        <radialGradient cx="61.667591%" cy="7.16660154%" fx="61.667591%" fy="7.16660154%" r="92.682676%" gradientTransform="translate(0.616676,0.071666),scale(1.000000,0.958855),rotate(101.405601),scale(1.000000,1.096030),translate(-0.616676,-0.071666)" id="radialGradient-9">
            <stop stop-color="#FA5757" offset="0%"></stop>
            <stop stop-color="#F3F6FF" offset="45.8416615%"></stop>
            <stop stop-color="#FFFFFF" offset="67.1093908%"></stop>
            <stop stop-color="#FFECEC" offset="100%"></stop>
        </radialGradient>
        <filter x="0.0%" y="0.0%" width="100.0%" height="100.0%" filterUnits="objectBoundingBox" id="filter-10">
            <feGaussianBlur stdDeviation="0" in="SourceGraphic"></feGaussianBlur>
        </filter>
        <linearGradient x1="45.0612959%" y1="0%" x2="52.5270633%" y2="92.9947043%" id="linearGradient-11">
            <stop stop-color="#FFE1E1" offset="0%"></stop>
            <stop stop-color="#FA5757" offset="100%"></stop>
        </linearGradient>
        <linearGradient x1="0%" y1="57.7301178%" x2="96.0436084%" y2="43.937168%" id="linearGradient-12">
            <stop stop-color="#F87676" offset="0%"></stop>
            <stop stop-color="#FF625E" offset="44.4781588%"></stop>
            <stop stop-color="#FFF8F1" offset="100%"></stop>
        </linearGradient>
        <linearGradient x1="14.3517607%" y1="14.2067765%" x2="78.8247398%" y2="75.4140344%" id="linearGradient-13">
            <stop stop-color="#FFEEEE" offset="0%"></stop>
            <stop stop-color="#FFDADA" offset="46.836757%"></stop>
            <stop stop-color="#FF7B7B" offset="100%"></stop>
        </linearGradient>
        <linearGradient x1="79.0977062%" y1="62.2536569%" x2="24.8861635%" y2="28.4108473%" id="linearGradient-14">
            <stop stop-color="#FFFFFF" offset="0%"></stop>
            <stop stop-color="#FFE9E9" offset="55.2959042%"></stop>
            <stop stop-color="#FFAAAA" offset="100%"></stop>
        </linearGradient>
        <path d="M4.90945673,0.329016727 C3.39045443,-0.109672242 2.15015869,-0.109672242 1.18856952,0.329016727 C-0.253814247,0.987050182 -0.210466913,2.23627169 0.407768817,2.85550408 C1.02600455,3.47473646 1.40500689,3.28620553 2.81945682,2.77943862 C3.76242344,2.44159401 5.09939021,2.37454051 6.83035714,2.57827813 L4.90945673,0.329016727 Z" id="path-15"></path>
        <radialGradient cx="68.8172673%" cy="88.9615391%" fx="68.8172673%" fy="88.9615391%" r="140.958891%" gradientTransform="translate(0.688173,0.889615),scale(1.000000,0.666667),rotate(-108.795359),scale(1.000000,0.985253),translate(-0.688173,-0.889615)" id="radialGradient-17">
            <stop stop-color="#FFDEDE" offset="0%"></stop>
            <stop stop-color="#FFEDED" offset="49.7909606%"></stop>
            <stop stop-color="#FFEEEE" offset="59.9814248%"></stop>
            <stop stop-color="#FDB6B6" offset="100%"></stop>
        </radialGradient>
        <linearGradient x1="68.7969368%" y1="99.3612011%" x2="36.8822927%" y2="8.88633261%" id="linearGradient-18">
            <stop stop-color="#F8B5B5" offset="0%"></stop>
            <stop stop-color="#FFFFFF" offset="100%"></stop>
        </linearGradient>
        <path d="M26,35 L24.9902913,35 L24.9902913,30.1207729 L24,31.0966184 L24,29.9178744 L24.9805825,29.0096618 L25.9902913,29 L26,35 Z M29.5,33.5981308 C29.5,33.9844256 29.3634983,34.3146404 29.0904908,34.588785 C28.8174833,34.8629297 28.4938669,35 28.1196319,35 L27.8803681,35 C27.5,35 27.174848,34.8629297 26.904908,34.588785 C26.634968,34.3146404 26.5,33.9844256 26.5,33.5981308 L26.5,30.4018692 C26.5,30.0155744 26.634968,29.6853596 26.904908,29.411215 C27.174848,29.1370703 27.5,29 27.8803681,29 L28.1196319,29 C28.4938669,29 28.8174833,29.1370703 29.0904908,29.411215 C29.3634983,29.6853596 29.5,30.0155744 29.5,30.4018692 L29.5,33.5981308 Z M28.5,33.1782609 L28.5,30.3217391 C28.5,30.0608683 28.4788362,29.8750006 28.4365079,29.7641304 C28.3730156,29.5880426 28.2486782,29.5 28.0634921,29.5 C27.6878288,29.5 27.5,29.7739103 27.5,30.3217391 L27.5,33.1782609 C27.5,33.7260897 27.671956,34 28.015873,34 C28.338626,34 28.5,33.7260897 28.5,33.1782609 Z M33.5,33.5981308 C33.5,33.9844256 33.3634983,34.3146404 33.0904908,34.588785 C32.8174833,34.8629297 32.4938669,35 32.1196319,35 L31.8803681,35 C31.5,35 31.174848,34.8629297 30.904908,34.588785 C30.634968,34.3146404 30.5,33.9844256 30.5,33.5981308 L30.5,30.4018692 C30.5,30.0155744 30.634968,29.6853596 30.904908,29.411215 C31.174848,29.1370703 31.5,29 31.8803681,29 L32.1196319,29 C32.4938669,29 32.8174833,29.1370703 33.0904908,29.411215 C33.3634983,29.6853596 33.5,30.0155744 33.5,30.4018692 L33.5,33.5981308 Z M32.5,33.1782609 L32.5,30.3217391 C32.5,30.0608683 32.4788362,29.8750006 32.4365079,29.7641304 C32.3730156,29.5880426 32.2486782,29.5 32.0634921,29.5 C31.6878288,29.5 31.5,29.7739103 31.5,30.3217391 L31.5,33.1782609 C31.5,33.7260897 31.671956,34 32.015873,34 C32.338626,34 32.5,33.7260897 32.5,33.1782609 Z M37,33.5981308 C37,33.9844256 36.8634983,34.3146404 36.5904908,34.588785 C36.3174833,34.8629297 35.9938669,35 35.6196319,35 L35.3803681,35 C35,35 34.674848,34.8629297 34.404908,34.588785 C34.134968,34.3146404 34,33.9844256 34,33.5981308 L34,30.4018692 C34,30.0155744 34.134968,29.6853596 34.404908,29.411215 C34.674848,29.1370703 35,29 35.3803681,29 L35.6196319,29 C35.9938669,29 36.3174833,29.1370703 36.5904908,29.411215 C36.8634983,29.6853596 37,30.0155744 37,30.4018692 L37,33.5981308 Z M36,33.1782609 L36,30.3217391 C36,30.0608683 35.9788362,29.8750006 35.9365079,29.7641304 C35.8730156,29.5880426 35.7486782,29.5 35.5634921,29.5 C35.1878288,29.5 35,29.7739103 35,30.3217391 L35,33.1782609 C35,33.7260897 35.171956,34 35.515873,34 C35.838626,34 36,33.7260897 36,33.1782609 Z" id="path-19"></path>
        <filter x="-19.2%" y="-41.7%" width="153.8%" height="216.7%" filterUnits="objectBoundingBox" id="filter-20">
            <feOffset dx="1" dy="1" in="SourceAlpha" result="shadowOffsetOuter1"></feOffset>
            <feGaussianBlur stdDeviation="1" in="shadowOffsetOuter1" result="shadowBlurOuter1"></feGaussianBlur>
            <feColorMatrix values="0 0 0 0 0.91332654   0 0 0 0 0.0411066556   0 0 0 0 0.0411066556  0 0 0 1 0" type="matrix" in="shadowBlurOuter1"></feColorMatrix>
        </filter>
    </defs>
    <g id="ICON/48/1000米" stroke="none" stroke-width="1" fill="none" fill-rule="evenodd">
        <g id="编组-3" transform="translate(2.000000, 2.000000)">
            <g id="编组-2">
                <path d="M15.3833112,-6.21504185e-16 L28.6166888,6.21504185e-16 C33.9658012,-3.61111829e-16 35.9055187,0.556953667 37.8610742,1.60279622 C39.8166298,2.64863878 41.3513612,4.18337022 42.3972038,6.13892578 C43.4430463,8.09448133 44,10.0341988 44,15.3833112 L44,28.6166888 C44,33.9658012 43.4430463,35.9055187 42.3972038,37.8610742 C41.3513612,39.8166298 39.8166298,41.3513612 37.8610742,42.3972038 C35.9055187,43.4430463 33.9658012,44 28.6166888,44 L15.3833112,44 C10.0341988,44 8.09448133,43.4430463 6.13892578,42.3972038 C4.18337022,41.3513612 2.64863878,39.8166298 1.60279622,37.8610742 C0.556953667,35.9055187 2.4074122e-16,33.9658012 -4.14336123e-16,28.6166888 L4.14336123e-16,15.3833112 C-2.4074122e-16,10.0341988 0.556953667,8.09448133 1.60279622,6.13892578 C2.64863878,4.18337022 4.18337022,2.64863878 6.13892578,1.60279622 C8.09448133,0.556953667 10.0341988,3.61111829e-16 15.3833112,-6.21504185e-16 Z" id="矩形" fill="url(#linearGradient-1)"></path>
                <path d="M23.7608395,17.1388921 C21.5106059,15.871488 20.1979296,14.8482505 19.8228106,14.0691796 C19.2601322,12.9005734 19.1537184,10.4870061 17.1230344,11.9653634 C15.0923504,13.4437208 11.1276573,16.8468836 10.4869737,17.4840846 C9.84629006,18.1212856 8.26116389,18.6325926 11.3048492,22.0284823 C14.3485345,25.424372 19.0358029,29.5547472 20.974816,31.4267916 C22.913829,33.2988361 25.7542517,36.0212519 29.2556422,36.4263109 C32.7570326,36.83137 35,35.5237883 35,33.5535136 C35,31.5832389 32.8321709,30.1862118 32.0691804,29.7996719 C31.3061899,29.413132 29.4539944,27.2461714 28.7805828,24.7406738 C28.3316418,23.070342 27.8927437,21.1416578 27.4638885,18.9546211 L23.7608395,17.1388921 Z" id="蒙版" fill="url(#linearGradient-2)" fill-rule="nonzero" filter="url(#filter-3)" transform="translate(22.250000, 24.000000) scale(-1, 1) translate(-22.250000, -24.000000) "></path>
                <g id="路径-33" transform="translate(20.000000, 22.500000) scale(-1, 1) translate(-20.000000, -22.500000) translate(7.000000, 9.500000)">
                    <g id="蒙版">
                        <mask id="mask-6" fill="white">
                            <use xlink:href="#path-5"></use>
                        </mask>
                        <use fill="url(#linearGradient-4)" xlink:href="#path-5"></use>
                        <path d="M2.26097646,5.40417121 C3.86065245,8.16845979 5.05836119,9.64117952 5.85410267,9.8223304 C7.04771489,10.0940567 7.00510895,9.94094795 8.19320466,10.2 C9.38130037,10.459052 10.0624786,11.1907028 11.4062393,11.3908059 C12.75,11.5909091 13.3714496,11.9973225 13.6607143,13.0720502 C13.9499789,14.1467778 15.2549502,16.2813788 16.3928571,16.7423724 C17.1514618,17.0497015 18.2898546,16.4682269 19.8080357,14.9979485 L19.5992449,14.3727273 L19.5401431,13.5608457 L19.3526786,7.88181818 L17.2018764,3.51104167 L12.75,4.76622766 L10.3707269,0.666953034 L7.93379559,-0.814264206 L1.71747597,3.51104167 L2.26097646,5.40417121 Z" id="路径" stroke="url(#linearGradient-7)" stroke-width="2" filter="url(#filter-8)" mask="url(#mask-6)"></path>
                        <path d="M3.56919049,4.07285734 C5.181233,6.95105493 6.385125,8.48072916 7.18086648,8.66188003 C8.3744787,8.93360634 8.1117713,8.75462318 9.29986702,9.01367523 C10.4879627,9.27272727 11.4285501,9.79979367 12.7723107,9.99989683 C14.1160714,10.2 14.7375211,10.6022118 15.0267857,11.6769395 C15.3160504,12.7516672 16.3938289,15.3182037 17.5317359,15.7791973 C18.2903405,16.0865264 18.9989063,15.6605297 19.6574331,14.5012072 L19.4187891,13.8619192 L20.9062145,12.1699366 L20.71875,6.49090909 L18.5679478,2.12013258 L14.1160714,3.37531856 L11.7367983,-0.723956057 L9.29986702,-2.2051733 L3.56919049,2.78181818 L3.56919049,4.07285734 Z" id="路径" fill="url(#radialGradient-9)" filter="url(#filter-10)" mask="url(#mask-6)"></path>
                        <path d="M4.86885386,2.68180175 C4.56249857,3.28367654 4.56249857,4.25228542 4.86885386,5.5876284 C5.17520916,6.92297138 5.90457151,9.13351079 7.05694093,12.2192466 L9.35238896,11.6139766 C7.85011747,8.61300914 6.94464154,5.87035114 6.63596116,3.38600261 C6.32728079,0.901654082 7.08664904,-0.652980312 8.91406591,-1.27790057 L4.86885386,2.68180175 Z" id="路径-36" fill="url(#linearGradient-11)" fill-rule="nonzero" mask="url(#mask-6)"></path>
                        <path d="M18.1929472,17.3022365 C17.7893979,17.8245473 16.6646298,18.0778164 14.8186429,18.0620437 C12.0496627,18.0383848 11.6075777,16.6779255 10.0120648,18.0209749 C8.94838953,18.9163412 8.02163859,19.5978767 7.23181197,20.0655814 C8.99393847,20.608242 10.9905372,21.0929352 13.2216082,21.519661 C16.5682146,22.1597496 16.1405426,22.0757432 16.1405426,22.0757432 C16.5447363,21.2732531 17.0289216,20.8431701 17.5930986,20.7854944 C18.439364,20.6989809 19.4370221,20.5101989 21.0993028,20.0629914 C22.2074899,19.7648531 24.5213981,18.3258952 28.0410273,15.7461178 L26.5246255,11.8735207 C22.6809332,12.6141767 20.4614968,13.2777246 19.8663165,13.8641644 C19.2711362,14.4506042 18.7133464,15.5966283 18.1929472,17.3022365 Z" id="路径-37" fill="url(#linearGradient-12)" fill-rule="nonzero" mask="url(#mask-6)" transform="translate(17.636420, 16.976448) rotate(54.000000) translate(-17.636420, -16.976448) "></path>
                        <path d="M1.96563426,4.30259129 C3.75415551,7.61517589 5.1406431,9.47053112 6.12509702,9.86865697 C7.60177792,10.4658457 9.43159372,9.66636993 10.1437969,11.5527876 C10.856,13.4392052 12.8728305,17.5522898 14.1574792,18.7751956 C15.4421278,19.9981013 17.5821538,21.9156558 19.2492125,22.6565775 C20.9162712,23.3974993 22.517329,23.5508531 24.2767634,23.5508531 C25.4497196,23.5508531 25.9395596,22.4925122 25.7462834,20.3758306 L25.4597292,25.4976184 L17.9124614,26.4745993 L6.44957169,18.0566791 L-0.418032787,9.16827351 L-0.418032787,5.97566968 L1.96563426,4.30259129 Z" id="路径-32" fill="url(#linearGradient-13)" fill-rule="nonzero" mask="url(#mask-6)"></path>
                    </g>
                    <g id="路径-33备份" transform="translate(16.392857, 14.372727)">
                        <mask id="mask-16" fill="white">
                            <use xlink:href="#path-15"></use>
                        </mask>
                        <use id="蒙版" fill="url(#linearGradient-14)" xlink:href="#path-15"></use>
                    </g>
                </g>
                <path d="M19.4232638,16.9315817 C19.6150997,18.6091576 19.4472519,19.5471437 18.9197203,19.7455399 C18.0108927,20.0873354 18.0657614,19.6365603 16.8899686,20.1305952 C15.7141758,20.62463 14.7832907,20.9464125 14.6164081,18.8964256 C14.4495254,16.8464387 14.3292694,14.1105884 15.2366056,13.5085353 C16.1439418,12.9064822 18.6011772,12.7585185 18.9197203,13.5085353 C19.0828157,13.892547 19.1981686,14.498053 19.2657791,15.3250534 L19.2657796,15.3250533 C19.309626,15.8613753 19.3621276,16.3969546 19.4232638,16.9315817 Z" id="蒙版" fill="url(#radialGradient-17)" transform="translate(17.000000, 16.750000) scale(-1, 1) translate(-17.000000, -16.750000) "></path>
                <path d="M18.9499682,16.9173641 C19.0783612,18.1261376 18.9596399,18.8025926 18.5938042,18.9467292 C17.9576249,19.1973793 17.996033,18.8668109 17.172978,19.2291031 C16.349923,19.5913954 15.6983035,19.8273692 15.5814857,18.3240454 C15.4646678,16.8207217 15.3804886,14.8144315 16.0156239,14.3729259 C16.6507593,13.9314203 18.370824,13.8229135 18.5938042,14.3729259 C18.7058034,14.6491878 18.7856398,15.0817698 18.8333136,15.6706718 L18.8333142,15.6706717 C18.8669937,16.0867065 18.9058814,16.5023032 18.9499682,16.9173641 Z" id="蒙版备份" fill="url(#linearGradient-18)" transform="translate(17.250000, 16.750000) scale(-1, 1) translate(-17.250000, -16.750000) "></path>
                <g id="1000">
                    <use fill="black" fill-opacity="1" filter="url(#filter-20)" xlink:href="#path-19"></use>
                    <use fill="#FFFFFF" fill-rule="evenodd" xlink:href="#path-19"></use>
                </g>
            </g>
            <g id="编组" transform="translate(21.250000, 23.000000) scale(-1, 1) translate(-21.250000, -23.000000) translate(7.500000, 9.500000)"></g>
        </g>
    </g>
</svg>