<?xml version="1.0" encoding="UTF-8"?>
<svg width="48px" height="48px" viewBox="0 0 48 48" version="1.1" xmlns="http://www.w3.org/2000/svg" xmlns:xlink="http://www.w3.org/1999/xlink">
    <title>ICON/48/仰卧起坐</title>
    <defs>
        <linearGradient x1="25.3037631%" y1="-9.41888774%" x2="77.219017%" y2="96.4939807%" id="linearGradient-1">
            <stop stop-color="#91F2B2" offset="0%"></stop>
            <stop stop-color="#24C7AC" offset="100%"></stop>
        </linearGradient>
        <linearGradient x1="23.2435341%" y1="-4.31655742%" x2="95.2308358%" y2="88.9274367%" id="linearGradient-2">
            <stop stop-color="#16A38C" offset="0%"></stop>
            <stop stop-color="#08B094" offset="100%"></stop>
        </linearGradient>
        <filter x="-34.5%" y="-36.6%" width="168.9%" height="173.2%" filterUnits="objectBoundingBox" id="filter-3">
            <feGaussianBlur stdDeviation="0.9765625" in="SourceGraphic"></feGaussianBlur>
        </filter>
        <linearGradient x1="8.17792473%" y1="2.06730008%" x2="80.4205206%" y2="76.7717844%" id="linearGradient-4">
            <stop stop-color="#87E4D5" offset="0%"></stop>
            <stop stop-color="#FEFEFE" offset="62.5936406%"></stop>
            <stop stop-color="#E2F8F4" offset="100%"></stop>
        </linearGradient>
        <linearGradient x1="33.2039619%" y1="22.3049946%" x2="123.919541%" y2="92.0138889%" id="linearGradient-5">
            <stop stop-color="#FFFFFF" offset="0%"></stop>
            <stop stop-color="#EAFFFC" offset="100%"></stop>
        </linearGradient>
        <filter x="0.0%" y="0.0%" width="100.0%" height="100.0%" filterUnits="objectBoundingBox" id="filter-6">
            <feGaussianBlur stdDeviation="0" in="SourceGraphic"></feGaussianBlur>
        </filter>
        <linearGradient x1="25.3037631%" y1="39.0861943%" x2="77.219017%" y2="58.5398144%" id="linearGradient-7">
            <stop stop-color="#91F2B2" offset="0%"></stop>
            <stop stop-color="#24C7AC" offset="100%"></stop>
        </linearGradient>
        <linearGradient x1="23.2435341%" y1="-10.6634453%" x2="93.8248338%" y2="91.4421308%" id="linearGradient-8">
            <stop stop-color="#26B29A" offset="0%"></stop>
            <stop stop-color="#08AC91" offset="100%"></stop>
        </linearGradient>
        <filter x="-14.6%" y="-14.7%" width="129.3%" height="129.5%" filterUnits="objectBoundingBox" id="filter-9">
            <feGaussianBlur stdDeviation="0.9765625" in="SourceGraphic"></feGaussianBlur>
        </filter>
        <linearGradient x1="43.8768649%" y1="81.6155285%" x2="34.2077246%" y2="-17.5226752%" id="linearGradient-10">
            <stop stop-color="#C2F6ED" offset="0%"></stop>
            <stop stop-color="#FEFEFE" offset="28.7099265%"></stop>
            <stop stop-color="#6DE7D2" offset="85.108277%"></stop>
            <stop stop-color="#87E4D5" offset="100%"></stop>
        </linearGradient>
        <path d="M18.8413266,0.888769212 C18.8554755,0.924613784 18.8681095,0.96103799 18.879195,0.997945129 L20.5079556,6.42061264 C20.540143,6.527775 20.5607473,6.63583727 20.5704462,6.7434017 C20.569144,6.74473079 20.569254,6.74541231 20.5693636,6.74609401 C20.5748522,6.78023269 20.5791988,6.81454518 20.5823963,6.84897408 C20.6687743,7.77904713 20.0190664,8.61673791 19.0967478,8.76447201 L14.5541363,9.49128025 L13.9072121,18.3236057 L8.98419346,19.6676554 C7.91862219,19.9585706 6.81897265,19.3305877 6.52805749,18.2650165 C6.48660268,18.1131747 6.46321736,17.9569702 6.45838698,17.7996455 L6.24313629,10.8222802 L2.0047057,11.5022216 C1.10831985,11.6458018 0.265260738,11.0355323 0.121680471,10.1391465 C0.121330147,10.1369594 0.120984244,10.1347716 0.120642764,10.1325831 C0.105682285,10.036703 0.0992833091,9.94146045 0.100878512,9.84763411 C0.0953984914,9.81051873 0.0926749275,9.77261015 0.0914468501,9.73430134 L0.0911362928,9.65365197 L0.232238614,3.85884056 C0.251417051,3.0712176 0.90545881,2.44827023 1.69308177,2.46744867 C1.70985043,2.46785698 1.72661058,2.46856102 1.7433544,2.46956045 C2.56818207,2.51879404 3.20786356,3.20899719 3.19437598,4.03518283 L3.13013629,7.98628025 L7.21174472,7.34222128 C8.1080574,6.51463295 9.16624394,6.03382244 10.3863043,5.89978973 C11.6063647,5.76575703 12.6453069,5.9023247 13.5031307,6.30949274 L17.1871363,5.71728025 L16.0996757,2.09510297 C15.8566705,1.2860604 16.2738808,0.425725351 17.0596308,0.11556676 C17.7651465,-0.16292098 18.5628389,0.183253549 18.8413266,0.888769212 Z" id="path-11"></path>
        <linearGradient x1="80.6950261%" y1="173.405596%" x2="50%" y2="9.23315273%" id="linearGradient-13">
            <stop stop-color="#E2F8F4" offset="0%"></stop>
            <stop stop-color="#B4F2E8" offset="60.9254473%"></stop>
            <stop stop-color="#E7FFFB" offset="70.2731204%"></stop>
            <stop stop-color="#E1FFFA" offset="80.1939503%"></stop>
            <stop stop-color="#79E5D3" offset="100%"></stop>
            <stop stop-color="#79E5D3" offset="100%"></stop>
        </linearGradient>
        <linearGradient x1="23.2435341%" y1="32.071678%" x2="93.8248338%" y2="62.247703%" id="linearGradient-14">
            <stop stop-color="#26B29A" offset="0%"></stop>
            <stop stop-color="#08AC91" offset="100%"></stop>
        </linearGradient>
        <filter x="-15.8%" y="-29.3%" width="131.7%" height="158.6%" filterUnits="objectBoundingBox" id="filter-15">
            <feGaussianBlur stdDeviation="0.9765625" in="SourceGraphic"></feGaussianBlur>
        </filter>
        <linearGradient x1="8.17792473%" y1="34.6401457%" x2="30.0614216%" y2="72.2566116%" id="linearGradient-16">
            <stop stop-color="#E2F8F4" offset="0%"></stop>
            <stop stop-color="#FEFEFE" offset="37.4063594%"></stop>
            <stop stop-color="#70E7D3" offset="98.7454063%"></stop>
            <stop stop-color="#6DE7D2" offset="100%"></stop>
            <stop stop-color="#87E4D5" offset="100%"></stop>
        </linearGradient>
        <path d="M15.5265029,1.59414701 L15.5561024,1.65971306 C15.5696728,1.67937466 15.5829168,1.69938356 15.5958225,1.71973706 C15.6249142,1.76561745 15.6519287,1.81278239 15.6767843,1.86108906 L18.6012589,7.54478317 C19.1047362,8.52328754 18.7196507,9.72467108 17.7411464,10.2281484 C17.7392263,10.2291364 17.7373047,10.2301212 17.7353814,10.2311029 C16.7534677,10.7323037 15.5511658,10.3426088 15.0499651,9.36069514 C15.0495297,9.35984227 15.049095,9.35898908 15.0486609,9.35813557 L12.6432315,4.62935575 L3.90431447,8.34132671 C2.54675208,8.91780882 0.97585055,8.32491275 0.337727851,6.99521101 C-0.196236019,5.88255245 0.27288872,4.54770122 1.38554728,4.01373735 C1.49600343,3.96072954 1.61063185,3.91689538 1.72827353,3.88267808 L13.2744719,0.524346113 C14.1877867,0.258699008 15.1554136,0.718358818 15.5265029,1.59414701 Z" id="path-17"></path>
        <linearGradient x1="6.54912889%" y1="25.9938825%" x2="36.3144507%" y2="67.599796%" id="linearGradient-19">
            <stop stop-color="#87E4D5" offset="0%"></stop>
            <stop stop-color="#FCFEFD" offset="55.0813679%"></stop>
            <stop stop-color="#FEFEFE" offset="62.5936406%"></stop>
            <stop stop-color="#E3F8F4" offset="71.0730798%"></stop>
            <stop stop-color="#7AE9D7" offset="100%"></stop>
        </linearGradient>
        <linearGradient x1="36.3144507%" y1="100%" x2="36.3144507%" y2="0%" id="linearGradient-20">
            <stop stop-color="#87E4D5" offset="0%"></stop>
            <stop stop-color="#FFFFFF" offset="71.0637019%"></stop>
            <stop stop-color="#E8FFFB" offset="100%"></stop>
        </linearGradient>
    </defs>
    <g id="ICON/48/仰卧起坐" stroke="none" stroke-width="1" fill="none" fill-rule="evenodd">
        <g id="编组-2" transform="translate(2.000000, 2.000000)">
            <path d="M15.3833112,-6.21504185e-16 L28.6166888,6.21504185e-16 C33.9658012,-3.61111829e-16 35.9055187,0.556953667 37.8610742,1.60279622 C39.8166298,2.64863878 41.3513612,4.18337022 42.3972038,6.13892578 C43.4430463,8.09448133 44,10.0341988 44,15.3833112 L44,28.6166888 C44,33.9658012 43.4430463,35.9055187 42.3972038,37.8610742 C41.3513612,39.8166298 39.8166298,41.3513612 37.8610742,42.3972038 C35.9055187,43.4430463 33.9658012,44 28.6166888,44 L15.3833112,44 C10.0341988,44 8.09448133,43.4430463 6.13892578,42.3972038 C4.18337022,41.3513612 2.64863878,39.8166298 1.60279622,37.8610742 C0.556953667,35.9055187 2.4074122e-16,33.9658012 -4.14336123e-16,28.6166888 L4.14336123e-16,15.3833112 C-2.4074122e-16,10.0341988 0.556953667,8.09448133 1.60279622,6.13892578 C2.64863878,4.18337022 4.18337022,2.64863878 6.13892578,1.60279622 C8.09448133,0.556953667 10.0341988,3.61111829e-16 15.3833112,-6.21504185e-16 Z" id="矩形" fill="url(#linearGradient-1)" fill-rule="nonzero"></path>
            <g id="编组" transform="translate(13.000000, 8.500000)" fill-rule="nonzero">
                <path d="M4.75,9.5 C7.09721019,9.5 9,7.709139 9,5.5 C9,3.290861 7.09721019,1.5 4.75,1.5 C2.40278981,1.5 0.5,3.290861 0.5,5.5 C0.5,7.709139 2.40278981,9.5 4.75,9.5 Z" id="路径" fill="url(#linearGradient-2)" filter="url(#filter-3)"></path>
                <path d="M4.5,8.5 C6.98528137,8.5 9,6.59721019 9,4.25 C9,1.90278981 6.98528137,0 4.5,0 C2.01471863,0 0,1.90278981 0,4.25 C0,6.59721019 2.01471863,8.5 4.5,8.5 Z" id="路径" fill="url(#linearGradient-4)"></path>
                <path d="M4.5,7 C6.15685425,7 7.5,5.76878306 7.5,4.25 C7.5,2.73121694 6.15685425,1.5 4.5,1.5 C2.84314575,1.5 1.5,2.73121694 1.5,4.25 C1.5,5.76878306 2.84314575,7 4.5,7 Z" id="路径备份" fill="url(#linearGradient-5)" filter="url(#filter-6)"></path>
                <path d="M6.00116599,5.3901731 C6.06182171,5.26613868 6.21154265,5.2147601 6.33557706,5.27541582 C6.45961148,5.33607155 6.51099006,5.48579249 6.45033434,5.6098269 C6.11080235,6.30413322 5.4532698,6.75 4.72013135,6.75 C3.99646459,6.75 3.34598817,6.31558533 3.00257278,5.63527457 C2.94035341,5.51201711 2.98983455,5.36165842 3.11309202,5.29943905 C3.23634948,5.23721967 3.38670817,5.28670082 3.44892754,5.40995829 C3.71033585,5.92781187 4.19276842,6.25 4.72013135,6.25 C5.2545087,6.25 5.74251432,5.91908787 6.00116599,5.3901731 Z" id="路径" fill="url(#linearGradient-7)"></path>
            </g>
            <g id="形状结合备份-2" transform="translate(20.373411, 21.889069) rotate(-10.000000) translate(-20.373411, -21.889069) translate(9.373411, 11.389069)">
                <path d="M19.8696842,1.84634008 C19.8861426,1.88701837 19.9005684,1.92848972 19.9129084,1.97060059 L21.517969,7.44795718 C21.5539114,7.57061259 21.5746429,7.69438815 21.5811871,7.81716831 L21.5825812,7.84897408 L21.5825812,7.84897408 C21.6669921,8.78058928 21.0176362,9.6192589 20.0945629,9.77081025 L15.5532328,10.515563 L14.9043809,19.5543687 L10.1087034,20.8422652 C9.04193253,21.1287504 7.94490178,20.4962039 7.65841662,19.429433 C7.61298646,19.260267 7.5899761,19.0858659 7.5899761,18.9107058 L7.58923279,11.823563 L3.4957882,12.4960183 C2.60727829,12.641895 1.76874228,12.0398718 1.62286559,11.1513619 C1.62183883,11.1451081 1.62084855,11.1388484 1.6198948,11.1325831 C1.6082979,11.0564017 1.60206158,10.9806322 1.60090528,10.9056595 C1.59588029,10.861529 1.59211455,10.8157908 1.59059186,10.7694503 L1.59023279,10.6904937 L1.72962121,4.8229582 C1.74783946,4.05606366 2.38429912,3.44914162 3.15119365,3.46735987 L3.2030281,3.46956045 C4.00815934,3.51881982 4.63207631,4.19274885 4.61923068,4.99928329 L4.55523279,8.98556297 L8.53804304,8.34222128 C9.41249444,7.51463295 10.4448716,7.03382244 11.6351744,6.89978973 C12.8254772,6.76575703 13.8390793,6.9023247 14.6759806,7.30949274 L18.2702328,6.71656297 L17.2011823,3.06775843 C16.9677028,2.27099689 17.3760804,1.42696788 18.1457368,1.11556676 C18.8235892,0.841309311 19.5954268,1.16848767 19.8696842,1.84634008 Z" id="蒙版" fill="url(#linearGradient-8)" fill-rule="nonzero" filter="url(#filter-9)"></path>
                <mask id="mask-12" fill="white">
                    <use xlink:href="#path-11"></use>
                </mask>
                <use id="蒙版" fill="url(#linearGradient-10)" fill-rule="nonzero" xlink:href="#path-11"></use>
                <path d="M18.1210605,0.719989418 C18.1384623,0.761682417 18.1533751,0.804371151 18.1657203,0.847830611 L19.5883257,5.85591099 C19.788854,6.56184229 19.4299062,7.30622497 18.7526683,7.58888981 L18.668099,7.62061039 C18.4661594,7.77261925 18.2257159,7.87897134 17.9602177,7.92230375 L14.5763569,8.47443038 L14.3324185,16.8422589 L10.8607483,17.5534791 C9.77865279,17.7751615 8.72173196,17.0776589 8.50004955,15.9955634 C8.48037294,15.8995162 8.46778545,15.8021522 8.46238888,15.7042589 L8.12135694,9.52843038 L2.98853199,10.3673121 C2.80214028,10.4581587 2.59406882,10.5116617 2.37397139,10.51806 C1.62501359,10.5398324 1.00021335,9.95033209 0.978440998,9.20137429 L0.978356945,9.12553571 L1.10506362,4.40680121 C1.1252696,3.654302 1.75167093,3.06066105 2.50417014,3.08086703 C2.51653724,3.08119911 2.52889926,3.08169955 2.54125274,3.08236822 C3.32170212,3.12461211 3.92870297,3.77701887 3.91463455,4.55848407 L3.86635694,7.20043038 L16.7163569,5.09543038 L15.7913656,1.83883626 C15.5908373,1.13290495 15.9497851,0.388522276 16.627023,0.105857438 C17.2091779,-0.137121772 17.8780813,0.137834481 18.1210605,0.719989418 Z" fill="url(#linearGradient-13)" fill-rule="nonzero" mask="url(#mask-12)"></path>
            </g>
            <g id="形状结合备份" transform="translate(27.292271, 27.576343) rotate(-12.000000) translate(-27.292271, -27.576343) translate(16.792271, 21.576343)">
                <path d="M17.0244476,2.59259286 L17.0533943,2.65718014 C17.0670746,2.67698272 17.0804236,2.69713801 17.0934291,2.71764326 C17.1225959,2.76362938 17.1496752,2.81090673 17.1745846,2.8593314 L20.0990008,8.54449323 C20.6024525,9.52322001 20.2171659,10.7247631 19.2384391,11.2282148 C19.236652,11.229134 19.2348635,11.2300506 19.2330737,11.2309645 C18.2514931,11.7321346 17.0494862,11.342685 16.548316,10.3611045 C16.5478127,10.3601185 16.5473101,10.3591322 16.5468083,10.3581455 L14.1426969,5.63066097 L5.58002378,9.27301898 C4.22980429,9.84733333 2.66697733,9.25357299 2.03873354,7.92758679 C1.50953445,6.81064669 1.98599268,5.4761872 3.10293279,4.94698811 C3.21042214,4.89606034 3.32180057,4.8537831 3.4360096,4.82055818 L14.772319,1.52267499 C15.6856973,1.25696109 16.6534147,1.71669423 17.0244476,2.59259286 Z" id="蒙版" fill="url(#linearGradient-14)" fill-rule="nonzero" filter="url(#filter-15)"></path>
                <mask id="mask-18" fill="white">
                    <use xlink:href="#path-17"></use>
                </mask>
                <use id="蒙版" fill="url(#linearGradient-16)" fill-rule="nonzero" xlink:href="#path-17"></use>
                <path d="M15.5995514,3.08122101 L15.6187048,3.12733538 C15.6235652,3.13454168 15.6283805,3.14179596 15.6331501,3.14909807 C15.6695966,3.20489693 15.7027933,3.26275224 15.7325746,3.32237556 L18.6037543,9.07059264 C19.089253,10.0425804 18.7084304,11.224362 17.7467715,11.7300113 C16.8149146,12.2199905 15.6622887,11.8617778 15.1723095,10.9299209 C15.1647832,10.9156072 15.1574394,10.9011983 15.1502798,10.8866977 L12.7979091,6.12313309 L4.5196328,9.74941518 C3.18936439,10.3321268 1.63747721,9.7420145 1.0304823,8.42264947 C0.505879681,7.28237244 1.0049824,5.93272082 2.14525943,5.4081182 C2.24172453,5.3637379 2.34118134,5.32617273 2.44289892,5.29569878 L13.3743193,2.02071389 C14.2783779,1.74986364 15.2405404,2.20841365 15.5995514,3.08122101 Z" fill="url(#linearGradient-19)" fill-rule="nonzero" mask="url(#mask-18)"></path>
            </g>
            <rect id="矩形" fill="url(#linearGradient-20)" fill-rule="nonzero" x="9" y="32.5" width="28" height="1.5" rx="0.75"></rect>
        </g>
    </g>
</svg>