<?xml version="1.0" encoding="UTF-8"?>
<svg width="32px" height="32px" viewBox="0 0 32 32" version="1.1" xmlns="http://www.w3.org/2000/svg" xmlns:xlink="http://www.w3.org/1999/xlink">
    <title>ic_add@2x</title>
    <g id="页面-1" stroke="none" stroke-width="1" fill="none" fill-rule="evenodd">
        <g id="选课-未选" transform="translate(-169.000000, -332.000000)">
            <g id="编组-2" transform="translate(16.000000, 316.000000)">
                <g id="ic_add" transform="translate(153.000000, 16.000000)">
                    <rect id="矩形" x="0" y="0" width="32" height="32"></rect>
                    <path d="M16.5,7 C17.0522847,7 17.5,7.44771525 17.5,8 L17.499,14.5 L24,14.5 C24.5522847,14.5 25,14.9477153 25,15.5 L25,16.5 C25,17.0522847 24.5522847,17.5 24,17.5 L17.499,17.5 L17.5,24 C17.5,24.5522847 17.0522847,25 16.5,25 L15.5,25 C14.9477153,25 14.5,24.5522847 14.5,24 L14.499,17.5 L8,17.5 C7.44771525,17.5 7,17.0522847 7,16.5 L7,15.5 C7,14.9477153 7.44771525,14.5 8,14.5 L14.499,14.5 L14.5,8 C14.5,7.44771525 14.9477153,7 15.5,7 L16.5,7 Z" id="形状结合" fill="#8B8A99"></path>
                </g>
            </g>
        </g>
    </g>
</svg>