<?xml version="1.0" encoding="UTF-8"?>
<svg width="130px" height="124px" viewBox="0 0 130 124" version="1.1" xmlns="http://www.w3.org/2000/svg" xmlns:xlink="http://www.w3.org/1999/xlink">
    <title>插图/体测</title>
    <defs>
        <path d="M25.3833112,8.5 L71.1166888,8.5 C76.4658012,8.5 78.4055187,9.05695367 80.3610742,10.1027962 C82.3166298,11.1486388 83.8513612,12.6833702 84.8972038,14.6389258 C85.9430463,16.5944813 86.5,18.5341988 86.5,23.8833112 L86.5,79.1166888 C86.5,84.4658012 85.9430463,86.4055187 84.8972038,88.3610742 C83.8513612,90.3166298 82.3166298,91.8513612 80.3610742,92.8972038 C78.4055187,93.9430463 76.4658012,94.5 71.1166888,94.5 L25.3833112,94.5 C20.0341988,94.5 18.0944813,93.9430463 16.1389258,92.8972038 C14.1833702,91.8513612 12.6486388,90.3166298 11.6027962,88.3610742 C10.5569537,86.4055187 10,84.4658012 10,79.1166888 L10,23.8833112 C10,18.5341988 10.5569537,16.5944813 11.6027962,14.6389258 C12.6486388,12.6833702 14.1833702,11.1486388 16.1389258,10.1027962 C18.0944813,9.05695367 20.0341988,8.5 25.3833112,8.5 Z" id="path-1"></path>
        <filter x="-43.5%" y="-18.6%" width="187.0%" height="137.3%" filterUnits="objectBoundingBox" id="filter-3">
            <feGaussianBlur stdDeviation="5" in="SourceGraphic"></feGaussianBlur>
        </filter>
        <filter x="-34.8%" y="-14.9%" width="169.6%" height="129.8%" filterUnits="objectBoundingBox" id="filter-4">
            <feGaussianBlur stdDeviation="4" in="SourceGraphic"></feGaussianBlur>
        </filter>
        <linearGradient x1="50%" y1="0.176870596%" x2="50%" y2="64.6879781%" id="linearGradient-5">
            <stop stop-color="#FFDE59" offset="0%"></stop>
            <stop stop-color="#FFB619" offset="100%"></stop>
        </linearGradient>
        <path d="M15.3833112,-6.21504185e-16 L64.6166888,6.21504185e-16 C69.9658012,-3.61111829e-16 71.9055187,0.556953667 73.8610742,1.60279622 C75.8166298,2.64863878 77.3513612,4.18337022 78.3972038,6.13892578 C79.4430463,8.09448133 80,10.0341988 80,15.3833112 L80,84.6166888 C80,89.9658012 79.4430463,91.9055187 78.3972038,93.8610742 C77.3513612,95.8166298 75.8166298,97.3513612 73.8610742,98.3972038 C71.9055187,99.4430463 69.9658012,100 64.6166888,100 L15.3833112,100 C10.0341988,100 8.09448133,99.4430463 6.13892578,98.3972038 C4.18337022,97.3513612 2.64863878,95.8166298 1.60279622,93.8610742 C0.556953667,91.9055187 2.4074122e-16,89.9658012 -4.14336123e-16,84.6166888 L4.14336123e-16,15.3833112 C-2.4074122e-16,10.0341988 0.556953667,8.09448133 1.60279622,6.13892578 C2.64863878,4.18337022 4.18337022,2.64863878 6.13892578,1.60279622 C8.09448133,0.556953667 10.0341988,3.61111829e-16 15.3833112,-6.21504185e-16 Z" id="path-6"></path>
        <linearGradient x1="50%" y1="0.982315544%" x2="50%" y2="64.4859844%" id="linearGradient-8">
            <stop stop-color="#FFF2BF" offset="0%"></stop>
            <stop stop-color="#FFD273" offset="100%"></stop>
        </linearGradient>
        <linearGradient x1="50%" y1="0.982315544%" x2="50%" y2="64.4859844%" id="linearGradient-9">
            <stop stop-color="#FFF2BF" offset="0%"></stop>
            <stop stop-color="#FFE3A6" offset="100%"></stop>
        </linearGradient>
        <linearGradient x1="50%" y1="0.6390509%" x2="50%" y2="98.4508168%" id="linearGradient-10">
            <stop stop-color="#FFE14D" offset="0%"></stop>
            <stop stop-color="#FFBF40" offset="100%"></stop>
        </linearGradient>
        <path d="M23,0 C25.7614237,-5.07265313e-16 28,2.23857625 28,5 L30,5 C33.3137085,5 36,7.6862915 36,11 C36,14.3137085 33.3137085,17 30,17 L6,17 C2.6862915,17 4.05812251e-16,14.3137085 0,11 C-4.05812251e-16,7.6862915 2.6862915,5 6,5 L8,5 L8,5 C8,2.23857625 10.2385763,5.07265313e-16 13,0 L23,0 Z" id="path-11"></path>
        <filter x="-12.5%" y="-75.0%" width="125.0%" height="250.0%" filterUnits="objectBoundingBox" id="filter-13">
            <feGaussianBlur stdDeviation="1.5" in="SourceGraphic"></feGaussianBlur>
        </filter>
        <linearGradient x1="59.1836735%" y1="23.4894957%" x2="40.8163265%" y2="65.6756426%" id="linearGradient-14">
            <stop stop-color="#FFA251" offset="0%"></stop>
            <stop stop-color="#FF7626" offset="100%"></stop>
        </linearGradient>
        <linearGradient x1="50%" y1="7.10542736e-13%" x2="63.5948026%" y2="73.2373495%" id="linearGradient-15">
            <stop stop-color="#FFAF40" offset="0%"></stop>
            <stop stop-color="#FF8640" offset="100%"></stop>
        </linearGradient>
        <path d="M16,0 C7.163444,0 0,7.163444 0,16 C0,24.836556 7.163444,32 16,32 C24.836556,32 32,24.836556 32,16 C32,7.163444 24.836556,0 16,0 Z" id="path-16"></path>
    </defs>
    <g id="插图/体测" stroke="none" stroke-width="1" fill="none" fill-rule="evenodd">
        <g id="编组-16" transform="translate(17.500000, 6.000000)">
            <g id="文件">
                <g id="编组-15" transform="translate(7.689640, 9.261662)">
                    <mask id="mask-2" fill="white">
                        <use xlink:href="#path-1"></use>
                    </mask>
                    <use id="矩形" fill="#FFC240" transform="translate(48.250000, 51.500000) rotate(-345.000000) translate(-48.250000, -51.500000) " xlink:href="#path-1"></use>
                    <rect id="矩形" fill-opacity="0.9" fill="#FF9900" filter="url(#filter-3)" mask="url(#mask-2)" transform="translate(65.727034, 47.988511) rotate(11.000000) translate(-65.727034, -47.988511) " x="48.477034" y="7.73851124" width="34.5" height="80.5"></rect>
                    <rect id="矩形" fill-opacity="0.1" fill="#FF8000" filter="url(#filter-4)" mask="url(#mask-2)" transform="translate(57.727034, 47.988511) rotate(11.000000) translate(-57.727034, -47.988511) " x="40.477034" y="7.73851124" width="34.5" height="80.5"></rect>
                    <path d="M56.3103597,19.7383384 C68.4606242,19.7383384 78.3103597,29.5880739 78.3103597,41.7383384 C78.3103597,52.5224905 70.5510137,61.4943503 60.3107197,63.3755198 L60.3112285,67.7669032 C61.5382229,68.8655199 62.3103597,70.4617581 62.3103597,72.2383384 L62.3103597,88.2383384 C62.3103597,91.5520469 59.6240682,94.2383384 56.3103597,94.2383384 C52.9966512,94.2383384 50.3103597,91.5520469 50.3103597,88.2383384 L50.3103597,72.2383384 C50.3103597,70.4612753 51.0829161,68.8646524 52.3104912,67.7660077 L52.311003,63.3757041 C42.0702125,61.4949363 34.3103597,52.5228427 34.3103597,41.7383384 C34.3103597,29.5880739 44.1600952,19.7383384 56.3103597,19.7383384 Z" id="影子" fill-opacity="0.06" fill="#000000" mask="url(#mask-2)" transform="translate(56.310360, 56.988338) rotate(-45.000000) translate(-56.310360, -56.988338) "></path>
                </g>
                <g id="编组-14" transform="translate(0.000000, 6.000000)">
                    <mask id="mask-7" fill="white">
                        <use xlink:href="#path-6"></use>
                    </mask>
                    <use id="矩形" fill="url(#linearGradient-5)" xlink:href="#path-6"></use>
                    <path d="M16.2555408,6 L63.7444592,6 C67.3105342,6 68.6036791,6.37130244 69.9073828,7.06853082 C71.2110865,7.76575919 72.2342408,8.78891348 72.9314692,10.0926172 C73.6286976,11.3963209 74,12.6894658 74,16.2555408 L74,83.7444592 C74,87.3105342 73.6286976,88.6036791 72.9314692,89.9073828 C72.2342408,91.2110865 71.2110865,92.2342408 69.9073828,92.9314692 C68.6036791,93.6286976 67.3105342,94 63.7444592,94 L16.2555408,94 C12.6894658,94 11.3963209,93.6286976 10.0926172,92.9314692 C8.78891348,92.2342408 7.76575919,91.2110865 7.06853082,89.9073828 C6.37130244,88.6036791 6,87.3105342 6,83.7444592 L6,16.2555408 C6,12.6894658 6.37130244,11.3963209 7.06853082,10.0926172 C7.76575919,8.78891348 8.78891348,7.76575919 10.0926172,7.06853082 C11.3963209,6.37130244 12.6894658,6 16.2555408,6 Z" id="矩形" fill="url(#linearGradient-8)" mask="url(#mask-7)"></path>
                    <path d="M16.2555408,6 L66,6 C70.418278,6 74,9.581722 74,14 C74,33.741118 74,53.482236 74,73.223354 C74,82.5636083 58.298097,94 50.4907058,94 C38.3271372,94 26.1635686,94 14,94 C9.581722,94 6,90.418278 6,86 L6,16.2555408 C6,12.6894658 6.37130244,11.3963209 7.06853082,10.0926172 C7.76575919,8.78891348 8.78891348,7.76575919 10.0926172,7.06853082 C11.3963209,6.37130244 12.6894658,6 16.2555408,6 Z" id="矩形" fill="url(#linearGradient-9)" mask="url(#mask-7)"></path>
                    <rect id="矩形" fill="#FFC240" mask="url(#mask-7)" x="12" y="28.5" width="13" height="13" rx="4"></rect>
                    <rect id="矩形备份-5" fill="#FFC240" mask="url(#mask-7)" x="12" y="56.5" width="13" height="13" rx="4"></rect>
                    <rect id="矩形" fill="#FFC240" mask="url(#mask-7)" x="30" y="32" width="36" height="6" rx="2.5"></rect>
                    <rect id="矩形备份-6" fill="#FFC240" mask="url(#mask-7)" x="30" y="60" width="36" height="6" rx="2.5"></rect>
                    <path d="M36.5892046,40.8392046 C36.5892046,50.5041877 44.4242215,58.3392046 54.0892046,58.3392046 C63.7541877,58.3392046 71.5892046,50.5041877 71.5892046,40.8392046 C71.5892046,39.6434023 71.4692667,38.475613 71.2407643,37.3472102 C76.5069009,44.8483724 76.5414031,54.902644 71.345101,62.4377376 L74.4506378,65.5425548 C76.0950932,65.4517781 77.7697871,66.0345057 79.0260191,67.2907377 L90.3397276,78.6044462 C92.6828733,80.947592 92.6828733,84.7465818 90.3397276,87.0897276 C87.9965818,89.4328733 84.197592,89.4328733 81.8544462,87.0897276 L70.5407377,75.7760191 C69.2841644,74.5194457 68.7014614,72.844183 68.7926289,71.1992972 L65.6885773,68.0945219 C57.1173413,74.0059506 45.2860685,73.1487669 37.6602724,65.5229708 C29.068738,56.9314364 29.068738,43.0018068 37.6602724,34.4102724 L37.9050912,34.1694839 C37.0570396,36.2250431 36.5892046,38.4774895 36.5892046,40.8392046 Z" id="形状结合" fill-opacity="0.05" fill="#000000" mask="url(#mask-7)"></path>
                </g>
                <g id="编组-13" transform="translate(22.000000, 0.000000)">
                    <mask id="mask-12" fill="white">
                        <use xlink:href="#path-11"></use>
                    </mask>
                    <use id="形状结合" fill="url(#linearGradient-10)" xlink:href="#path-11"></use>
                    <path d="M36,12 C36,14.7614237 33.7614237,17 31,17 L5,17 C2.23857625,17 3.38176876e-16,14.7614237 0,12 C-4.19481025e-17,11.6574677 0.0344436143,11.3229802 0.100056276,10.999812 C0.563821254,13.2826939 2.58136146,15 5,15 L5,15 L31,15 C33.4186385,15 35.4361787,13.2826939 35.8997983,11.0009039 C35.9655564,11.3229802 36,11.6574677 36,12 Z" id="形状结合" fill="#FA9E00" filter="url(#filter-13)" mask="url(#mask-12)"></path>
                </g>
            </g>
            <g id="编组-11" transform="translate(22.000000, 16.000000)">
                <g id="放大镜" transform="translate(42.176777, 42.426777) rotate(-45.000000) translate(-42.176777, -42.426777) translate(20.176777, 4.926777)">
                    <rect id="矩形" fill="#FF7626" x="18" y="41.5" width="8" height="10"></rect>
                    <rect id="矩形" fill="url(#linearGradient-14)" x="16" y="46.5" width="12" height="28" rx="6"></rect>
                    <path d="M22,0 C34.1502645,0 44,9.8497355 44,22 C44,34.1502645 34.1502645,44 22,44 C9.8497355,44 0,34.1502645 0,22 C0,9.8497355 9.8497355,0 22,0 Z M22,6 C13.163444,6 6,13.163444 6,22 C6,30.836556 13.163444,38 22,38 C30.836556,38 38,30.836556 38,22 C38,13.163444 30.836556,6 22,6 Z" id="形状结合" fill="url(#linearGradient-15)" fill-rule="nonzero"></path>
                    <g id="编组-12" transform="translate(6.000000, 6.000000)">
                        <rect id="矩形" fill="#FFC240" transform="translate(19.571068, 11.221825) rotate(-315.000000) translate(-19.571068, -11.221825) " x="2.57106781" y="6.72182541" width="34" height="9" rx="2.5"></rect>
                        <mask id="mask-17" fill="white">
                            <use xlink:href="#path-16"></use>
                        </mask>
                        <use id="路径" fill-opacity="0.25" fill="#FFFFFF" fill-rule="nonzero" xlink:href="#path-16"></use>
                    </g>
                </g>
            </g>
        </g>
    </g>
</svg>