<?xml version="1.0" encoding="UTF-8"?>
<svg width="11px" height="20px" viewBox="0 0 11 20" version="1.1" xmlns="http://www.w3.org/2000/svg" xmlns:xlink="http://www.w3.org/1999/xlink">
    <title>辅助/图标标准网格/48备份</title>
    <g id="v.1首页二级页面" stroke="none" stroke-width="1" fill="none" fill-rule="evenodd">
        <g id="0.1.1二维码签到" transform="translate(-23.000000, -56.000000)" fill-rule="nonzero">
            <g id="返回" transform="translate(16.000000, 54.000000)">
                <rect id="矩形" x="0" y="0" width="24" height="24"></rect>
                <path d="M9.11888501,2.71544175 L16.6909203,10.9883997 L16.6909203,10.9883997 C17.1792674,11.5226751 17.2123454,12.3221744 16.7898166,12.8923935 L16.6923011,13.0108937 L9.21191308,21.2172737 C9.12225047,21.3156383 8.97124111,21.3265074 8.86841586,21.2419974 L6.94030878,19.6573238 C6.8336412,19.5696558 6.818239,19.4121157 6.905907,19.3054481 C6.90857121,19.3022065 6.91131661,19.2990325 6.91414059,19.295929 L13.552222,12.001 L13.552222,12.001 L6.99641347,4.82876152 C6.90661511,4.73051959 6.90953283,4.57914647 7.00305033,4.48443796 L8.75657703,2.70857883 C8.8535884,2.61033196 9.01187647,2.60933038 9.11012335,2.70634175 C9.11312008,2.7093008 9.11604157,2.7123351 9.11888501,2.71544175 Z" fill="#FFFFFF" transform="translate(12.022312, 11.975961) scale(-1, 1) translate(-12.022312, -11.975961) "></path>
            </g>
        </g>
    </g>
</svg>