<?xml version="1.0" encoding="UTF-8"?>
<svg width="24px" height="24px" viewBox="0 0 24 24" version="1.1" xmlns="http://www.w3.org/2000/svg" xmlns:xlink="http://www.w3.org/1999/xlink">
    <title>ic/book</title>
    <defs>
        <path d="M0.462106254,2.41323721 L9.47695974,3.24984208 C9.50300737,3.25225937 9.52922308,3.25225528 9.55526995,3.24982983 L18.537762,2.41339522 C18.7703815,2.39173408 18.9765167,2.56274962 18.9981778,2.79536911 L19,2.83459007 L19,2.83459007 L19,15.2317477 C19,15.4501781 18.8336935,15.6326902 18.616204,15.6529425 L11.0164052,16.36086 C10.8273095,16.7299289 10.219988,17 9.5,17 C8.77809035,17 8.16944938,16.7284853 7.98208966,16.3579027 L0.383927746,15.6528337 C0.166381384,15.6326447 8.22673753e-17,15.4501077 0,15.2316266 L0,2.8344443 C1.3792254e-16,2.60081846 0.189391162,2.4114273 0.423017,2.4114273 C0.436067695,2.4114273 0.449111398,2.41203125 0.462106254,2.41323721 Z" id="path-1"></path>
        <filter x="-2.6%" y="-3.4%" width="105.3%" height="106.9%" filterUnits="objectBoundingBox" id="filter-2">
            <feGaussianBlur stdDeviation="0.5" in="SourceAlpha" result="shadowBlurInner1"></feGaussianBlur>
            <feOffset dx="0" dy="0" in="shadowBlurInner1" result="shadowOffsetInner1"></feOffset>
            <feComposite in="shadowOffsetInner1" in2="SourceAlpha" operator="arithmetic" k2="-1" k3="1" result="shadowInnerInner1"></feComposite>
            <feColorMatrix values="0 0 0 0 1   0 0 0 0 0.756929734   0 0 0 0 0.631478659  0 0 0 1 0" type="matrix" in="shadowInnerInner1"></feColorMatrix>
        </filter>
        <filter x="-8.9%" y="-11.8%" width="117.8%" height="123.6%" filterUnits="objectBoundingBox" id="filter-3">
            <feGaussianBlur stdDeviation="0.5076204" in="SourceGraphic"></feGaussianBlur>
        </filter>
        <linearGradient x1="100%" y1="50%" x2="0%" y2="50%" id="linearGradient-4">
            <stop stop-color="#FC8000" offset="0%"></stop>
            <stop stop-color="#FFC733" offset="100%"></stop>
        </linearGradient>
        <linearGradient x1="64.8947944%" y1="55.6720312%" x2="35.1052056%" y2="50%" id="linearGradient-5">
            <stop stop-color="#FFA904" offset="0%"></stop>
            <stop stop-color="#FFDB5E" offset="100%"></stop>
        </linearGradient>
        <filter x="-25.1%" y="-12.3%" width="150.2%" height="124.5%" filterUnits="objectBoundingBox" id="filter-6">
            <feGaussianBlur stdDeviation="0.57036" in="SourceGraphic"></feGaussianBlur>
        </filter>
        <linearGradient x1="59.6451825%" y1="50%" x2="40.3548175%" y2="47.8482188%" id="linearGradient-7">
            <stop stop-color="#FFCD62" offset="0%"></stop>
            <stop stop-color="#FFF2B1" offset="100%"></stop>
        </linearGradient>
        <linearGradient x1="69.7743602%" y1="56.6874375%" x2="33.9627357%" y2="55.3359076%" id="linearGradient-8">
            <stop stop-color="#FFA700" offset="0%"></stop>
            <stop stop-color="#FEBF31" offset="100%"></stop>
        </linearGradient>
        <linearGradient x1="62.7794948%" y1="56.5674465%" x2="40.8517344%" y2="52.3515167%" id="linearGradient-9">
            <stop stop-color="#FFBA43" offset="0%"></stop>
            <stop stop-color="#FFE888" offset="100%"></stop>
        </linearGradient>
        <linearGradient x1="100%" y1="60.2969003%" x2="3.06016368%" y2="39.3378702%" id="linearGradient-10">
            <stop stop-color="#FFA201" offset="0%"></stop>
            <stop stop-color="#FFC555" offset="100%"></stop>
        </linearGradient>
        <linearGradient x1="100%" y1="50%" x2="0%" y2="46.8572729%" id="linearGradient-11">
            <stop stop-color="#FF9900" offset="0%"></stop>
            <stop stop-color="#FFC555" offset="100%"></stop>
        </linearGradient>
        <linearGradient x1="100%" y1="59.4566393%" x2="2.11544878%" y2="40.5605133%" id="linearGradient-12">
            <stop stop-color="#FFA201" offset="0%"></stop>
            <stop stop-color="#FFC555" offset="100%"></stop>
        </linearGradient>
        <linearGradient x1="100%" y1="75.4116556%" x2="0%" y2="33.8888533%" id="linearGradient-13">
            <stop stop-color="#FFA70F" offset="0%"></stop>
            <stop stop-color="#FFBF45" offset="100%"></stop>
        </linearGradient>
        <linearGradient x1="50%" y1="0%" x2="50%" y2="100%" id="linearGradient-14">
            <stop stop-color="#FF1E62" offset="0%"></stop>
            <stop stop-color="#FF1953" offset="100%"></stop>
        </linearGradient>
        <path d="M1.52034893,0.48254718 C2.11510748,3.41992045 1.6083245,6.49510716 -1.11799459e-14,9.70810729 C0.440991044,9.59817311 0.818850745,9.26933903 1.13357911,8.72160506 C1.27778472,9.0474218 1.40670799,9.33149623 1.52034893,9.57382835 C1.95007865,9.4039547 3.74678745,3.43303156 2.60794594,-2.56628023e-15 C2.12765062,0.0141118146 1.76511828,0.174960875 1.52034893,0.48254718 Z" id="path-15"></path>
        <filter x="-107.3%" y="-147.1%" width="314.6%" height="394.2%" filterUnits="objectBoundingBox" id="filter-17">
            <feGaussianBlur stdDeviation="0.9506" in="SourceGraphic"></feGaussianBlur>
        </filter>
    </defs>
    <g id="T-班级考试" stroke="none" stroke-width="1" fill="none" fill-rule="evenodd">
        <g id="成绩列表（未复核）备份" transform="translate(-16.000000, -96.000000)">
            <g id="ic/book" transform="translate(16.000000, 96.000000)">
                <rect id="矩形" x="0" y="0" width="24" height="24"></rect>
                <g id="编组-3" transform="translate(2.500000, 4.000000)">
                    <g id="形状结合">
                        <use fill="#FF4C00" fill-rule="evenodd" xlink:href="#path-1"></use>
                        <use fill="black" fill-opacity="1" filter="url(#filter-2)" xlink:href="#path-1"></use>
                    </g>
                    <path d="M0.95733048,15.0508183 C0.950862342,14.0654702 0.947267577,13.1242139 0.945603932,12.197189 L0.945464102,9.4289481 C0.947976781,7.57210309 0.95444492,5.65274197 0.95733048,3.43198121 C2.61601362,2.82782407 5.46332358,3.1550864 9.49926037,4.41376819 L9.91404841,4.28688227 C13.7455811,3.1336241 16.4620911,2.84865708 18.0635783,3.43198121 C18.0668245,5.93033706 18.074605,8.047234 18.0761868,10.1228011 L18.0762052,11.5041221 C18.075259,12.6563414 18.0716634,13.8191331 18.0635783,15.0508183 C15.5432093,14.6984191 12.6884367,15.0256815 9.49926037,16.0326053 L9.49926037,16.0326053 C6.35949696,14.7731686 3.51218699,14.4459063 0.95733048,15.0508183 Z" id="shadow" fill="#D93700" filter="url(#filter-3)"></path>
                    <path d="M0.863636364,2.13171833 C2.70661762,1.46043263 5.5854055,1.79078861 9.5,3.12278629 L9.5,16.0326053 C6.4541901,14.7590103 3.57540222,14.4286543 0.863636364,15.0415373 C0.83488908,10.6622122 0.857224007,7.06674224 0.863636364,2.13171833 Z" id="矩形" fill="url(#linearGradient-4)"></path>
                    <path d="M1.47771894,1.59433825 C3.3207002,0.92305255 5.99479389,1.43253523 9.5,3.12278629 L9.5,16.0326053 C7.05757961,14.2221252 4.38348592,13.5543002 1.47771894,14.0291304 C1.44897166,9.64980531 1.47130658,6.52936216 1.47771894,1.59433825 Z" id="矩形" fill="url(#linearGradient-5)"></path>
                    <path d="M2.6904997,1.95664693 C4.53348096,1.28536123 6.80331439,2.23255692 9.5,4.79823401 L9.5,15.6987675 C7.87603813,13.512751 5.60620469,12.5168075 2.6904997,12.7109372 C2.66175241,8.33161207 2.68408734,6.89167084 2.6904997,1.95664693 Z" id="shadow" fill="#FF9100" filter="url(#filter-6)"></path>
                    <path d="M2.47267622,0.0642828048 C4.49801269,-0.277266937 6.84045395,0.742234225 9.5,3.12278629 L9.5,16.0326053 C7.67148168,13.8961075 5.32904042,12.8278586 2.47267622,12.8278586 C2.44392893,8.44853343 2.46626386,4.99930671 2.47267622,0.0642828048 Z" id="矩形" fill="url(#linearGradient-7)"></path>
                    <path d="M9.51432442,2.13171833 C11.3573057,1.46043263 14.2360936,1.79078861 18.1506881,3.12278629 L18.1506881,16.0326053 C15.1026968,15.1355519 12.2239089,14.8051959 9.51432442,15.0415373 C9.48557714,10.6622122 9.50791206,7.06674224 9.51432442,2.13171833 Z" id="矩形" fill="url(#linearGradient-8)" transform="translate(13.825344, 8.913455) scale(-1, 1) translate(-13.825344, -8.913455) "></path>
                    <path d="M9.51432442,1.59433825 C11.3573057,0.92305255 14.0313994,1.43253523 17.5366055,3.12278629 L17.5366055,16.0326053 C14.8980026,14.7772985 12.2239089,14.2678159 9.51432442,14.5041573 C9.48557714,10.1248321 9.50791206,6.52936216 9.51432442,1.59433825 Z" id="矩形" fill="url(#linearGradient-9)" transform="translate(13.518303, 8.670358) scale(-1, 1) translate(-13.518303, -8.670358) "></path>
                    <path d="M3.6787037,2.72405651 C4.26059007,2.75362979 4.96906663,2.89163437 5.80413336,3.13807025 C6.67398228,3.39477069 7.65248276,3.96569455 8.73963478,4.85084186 C8.75911558,4.867079 8.77052953,4.89109082 8.77052953,4.91644947 L8.77052953,5.58224879 C8.77049696,5.62895597 8.73263331,5.66681963 8.68592613,5.66681963 C8.6667565,5.66681963 8.64815558,5.66030702 8.63317259,5.6483494 C7.58303728,4.81025802 6.63298515,4.2657955 5.78301618,4.01496182 C4.93736731,3.76540305 4.23337071,3.62909505 3.67102638,3.6060378 C3.62563197,3.604273 3.58979259,3.56693403 3.58979259,3.52150543 L3.58979259,2.80881532 C3.58952779,2.76194391 3.62752458,2.72394712 3.67439599,2.72394712 C3.67583259,2.72394712 3.67726896,2.7239836 3.6787037,2.72405651 Z" id="矩形" fill="url(#linearGradient-10)" fill-rule="nonzero"></path>
                    <path d="M10.7111274,3.54715975 C11.3761221,3.54515729 12.111078,3.64992043 12.915995,3.86144915 C13.7429686,4.07877426 14.691102,4.45175647 15.7603953,4.98039577 C15.7892553,4.99464894 15.8075173,5.02404928 15.8075173,5.05623702 L15.8075173,5.75348884 C15.8075891,5.80025367 15.7696788,5.83816406 15.7229139,5.83816406 C15.7105092,5.83816406 15.6982559,5.83543854 15.6870208,5.83018025 C14.620801,5.33116736 13.6900867,4.96722085 12.8948778,4.73834073 C12.1046603,4.51089726 11.3777352,4.40735218 10.7141025,4.42770549 C10.667334,4.42926511 10.6282547,4.39251154 10.6268202,4.34573922 C10.6267937,4.34487369 10.6267804,4.3440078 10.6267804,4.34314186 L10.6267804,3.6323186 C10.6262246,3.58538656 10.6641955,3.54730107 10.7111274,3.54715975 Z" id="矩形" fill="url(#linearGradient-11)" fill-rule="nonzero" transform="translate(13.217149, 4.717004) scale(-1, 1) translate(-13.217149, -4.717004) "></path>
                    <path d="M10.7111274,5.22102565 C11.3761221,5.21902319 12.111078,5.32378633 12.915995,5.53531505 C13.7429686,5.75264016 14.691102,6.12562237 15.7603953,6.65426167 C15.7892553,6.66851484 15.8075173,6.69791518 15.8075173,6.73010292 L15.8075173,7.42735474 C15.8075891,7.47411957 15.7696788,7.51202996 15.7229139,7.51202996 C15.7105092,7.51202996 15.6982559,7.50930444 15.6870208,7.50404615 C14.620801,7.00503326 13.6900867,6.64108675 12.8948778,6.41220663 C12.1046603,6.18476316 11.3777352,6.08121808 10.7141025,6.10157139 C10.667334,6.10313101 10.6282547,6.06637744 10.6268202,6.01960512 C10.6267937,6.01873959 10.6267804,6.0178737 10.6267804,6.01700776 L10.6267804,5.3061845 C10.6262246,5.25925246 10.6641955,5.22116697 10.7111274,5.22102565 Z" id="矩形" fill="url(#linearGradient-11)" fill-rule="nonzero" transform="translate(13.217149, 6.390870) scale(-1, 1) translate(-13.217149, -6.390870) "></path>
                    <path d="M3.6787037,4.52561957 C4.26059007,4.55519285 4.96906663,4.69319743 5.80413336,4.93963331 C6.67398228,5.19633374 7.65248276,5.76725761 8.73963478,6.65240492 C8.75911558,6.66864206 8.77052953,6.69265388 8.77052953,6.71801253 L8.77052953,7.38381185 C8.77049696,7.43051903 8.73263331,7.46838269 8.68592613,7.46838269 C8.6667565,7.46838269 8.64815558,7.46187007 8.63317259,7.44991246 C7.58303728,6.61182108 6.63298515,6.06735856 5.78301618,5.81652488 C4.93736731,5.56696611 4.23337071,5.4306581 3.67102638,5.40760086 C3.62563197,5.40583606 3.58979259,5.36849709 3.58979259,5.32306849 L3.58979259,4.61037838 C3.58952779,4.56350697 3.62752458,4.52551018 3.67439599,4.52551018 C3.67583259,4.52551018 3.67726896,4.52554665 3.6787037,4.52561957 Z" id="矩形" fill="url(#linearGradient-12)" fill-rule="nonzero"></path>
                    <path d="M5.93981138,6.95573379 C6.14436774,7.00238814 6.50918717,7.14138884 7.03426967,7.37273589 C7.65395722,7.64576514 8.22404269,8.03259703 8.74452607,8.53323155 C8.76115294,8.54915534 8.77052953,8.57118445 8.77052953,8.59420655 L8.77052953,9.35766426 C8.77029676,9.40426088 8.73252274,9.4420349 8.68592613,9.4420349 C8.66629035,9.4420349 8.64726946,9.43518607 8.63214087,9.4226685 C7.83452518,8.76271209 7.28952765,8.36832391 6.9971483,8.23950396 C6.70143519,8.10921519 6.33433957,7.9761365 5.89586144,7.8402679 C5.86049381,7.829235 5.83636942,7.7965037 5.83636942,7.75945524 L5.83636942,7.03833162 C5.83625391,6.99154266 5.87418385,6.95361271 5.92097282,6.95361271 C5.92731192,6.95361271 5.93363099,6.95432419 5.93981138,6.95573379 Z" id="矩形" fill="url(#linearGradient-13)" fill-rule="nonzero"></path>
                    <path d="M15.1781054,0.973589314 C15.3576546,0.965918772 15.5041466,1.07742592 15.6175814,1.30811076 C15.4706802,1.30811076 15.3510158,1.31316567 15.2585881,1.32327548 L15.1781054,0.973589314 Z" id="路径-3" fill="#DE0A4A"></path>
                    <g id="矩形" transform="translate(12.570159, 0.973589)">
                        <mask id="mask-16" fill="white">
                            <use xlink:href="#path-15"></use>
                        </mask>
                        <use id="蒙版" fill="url(#linearGradient-14)" xlink:href="#path-15"></use>
                        <rect fill="#FFC2C2" filter="url(#filter-17)" mask="url(#mask-16)" x="0.508517733" y="5.15181402" width="2.65728793" height="1.93866621"></rect>
                    </g>
                </g>
            </g>
        </g>
    </g>
</svg>