<?xml version="1.0" encoding="UTF-8"?>
<svg width="24px" height="24px" viewBox="0 0 24 24" version="1.1" xmlns="http://www.w3.org/2000/svg" xmlns:xlink="http://www.w3.org/1999/xlink">
    <title>ic/calendar@2x</title>
    <defs>
        <path d="M1.575,-1.82844978e-15 L14.0183546,-1.82844978e-15 C14.8882031,-1.98823836e-15 15.5933546,0.705151519 15.5933546,1.575 L15.5933546,14.3628125 C15.5933546,15.232661 14.8882031,15.9378125 14.0183546,15.9378125 L1.575,15.9378125 C0.705151519,15.9378125 3.28570321e-16,15.232661 0,14.3628125 L0,1.575 C-1.06525716e-16,0.705151519 0.705151519,-2.33479503e-15 1.575,-1.82844978e-15 Z" id="path-1"></path>
        <filter x="-3.2%" y="-3.1%" width="106.4%" height="106.3%" filterUnits="objectBoundingBox" id="filter-3">
            <feOffset dx="-1" dy="0" in="SourceAlpha" result="shadowOffsetInner1"></feOffset>
            <feComposite in="shadowOffsetInner1" in2="SourceAlpha" operator="arithmetic" k2="-1" k3="1" result="shadowInnerInner1"></feComposite>
            <feColorMatrix values="0 0 0 0 0   0 0 0 0 0.535778986   0 0 0 0 0.199728261  0 0 0 1 0" type="matrix" in="shadowInnerInner1"></feColorMatrix>
        </filter>
        <linearGradient x1="50%" y1="34.1753596%" x2="70.3815537%" y2="77.8248464%" id="linearGradient-4">
            <stop stop-color="#FFF5E1" offset="0%"></stop>
            <stop stop-color="#FFE7C0" offset="100%"></stop>
        </linearGradient>
        <path d="M5.04140306,0 L17.0209098,0 C17.6935927,9.84747746e-17 18.2389098,0.545317175 18.2389098,1.218 C18.2389098,1.31153144 18.2281364,1.40475161 18.2068025,1.4958175 L17.478125,4.60625281 L17.478125,4.60625281 L14.8915186,13.6837798 C14.7424052,14.2070836 14.2642788,14.5680014 13.720145,14.5680014 L1.63154637,14.5680014 C0.958863548,14.5680014 0.413546373,14.0226843 0.413546373,13.3500014 C0.413546373,13.2327723 0.430470393,13.1161571 0.463794769,13.0037642 L2.95616324,4.59777153 L2.95616324,4.59777153 L3.85862759,0.92719735 C3.99249003,0.382741473 4.48073261,3.78924282e-16 5.04140306,0 Z" id="path-5"></path>
        <filter x="-62.7%" y="-28.8%" width="225.5%" height="157.7%" filterUnits="objectBoundingBox" id="filter-7">
            <feGaussianBlur stdDeviation="1.05" in="SourceGraphic"></feGaussianBlur>
        </filter>
        <path d="M2.08876381,0 L14.1238218,0 C14.7965047,1.29339951e-15 15.3418218,0.545317175 15.3418218,1.218 C15.3418218,1.29707398 15.3341215,1.37596005 15.3188299,1.45354136 L14.6986238,4.60012789 L14.6986238,4.60012789 L0,4.60012789 L0.906208455,0.926303515 C1.04040011,0.382282368 1.52843675,-1.19114195e-16 2.08876381,0 Z" id="path-8"></path>
        <filter x="-23.3%" y="-64.5%" width="146.6%" height="229.0%" filterUnits="objectBoundingBox" id="filter-10">
            <feGaussianBlur stdDeviation="1.218" in="SourceGraphic"></feGaussianBlur>
        </filter>
        <linearGradient x1="50%" y1="50%" x2="50%" y2="100%" id="linearGradient-11">
            <stop stop-color="#00712B" offset="0%"></stop>
            <stop stop-color="#009136" offset="100%"></stop>
        </linearGradient>
        <linearGradient x1="17.5512666%" y1="58.218453%" x2="76.7343677%" y2="58.218453%" id="linearGradient-12">
            <stop stop-color="#FFDF56" offset="0%"></stop>
            <stop stop-color="#FF9900" offset="100%"></stop>
        </linearGradient>
    </defs>
    <g id="2⃣️课程" stroke="none" stroke-width="1" fill="none" fill-rule="evenodd">
        <g id="课程-未开始" transform="translate(-28.000000, -216.000000)">
            <g id="ic/calendar" transform="translate(28.000000, 216.000000)">
                <rect id="矩形" x="0" y="0" width="24" height="24"></rect>
                <g id="编组-4" transform="translate(1.495164, 3.500000)">
                    <g id="蒙版" transform="translate(3.911482, 1.062187)">
                        <mask id="mask-2" fill="white">
                            <use xlink:href="#path-1"></use>
                        </mask>
                        <g>
                            <use fill="#009C3A" fill-rule="evenodd" xlink:href="#path-1"></use>
                            <use fill="black" fill-opacity="1" filter="url(#filter-3)" xlink:href="#path-1"></use>
                        </g>
                        <path d="M10.924211,0 L12.7270832,0 C13.5969317,-9.32369223e-16 14.3020832,0.705151519 14.3020832,1.575 C14.3020832,1.63439991 14.2987228,1.69375226 14.2920183,1.75277259 L12.8665436,14.3012503 C12.8062655,14.8318796 12.3572956,15.2327353 11.8232535,15.2327353 L7.56273292,15.2327353 L7.56273292,15.2327353 L10.924211,0 Z" fill="#067831" mask="url(#mask-2)"></path>
                    </g>
                    <g id="矩形" transform="translate(0.000000, 1.062187)">
                        <path d="M3.17420764,4.60012789 L17.6505202,4.60012789 L16.323112,14.1818748 C16.2396659,14.7842215 15.7247337,15.2327353 15.1166344,15.2327353 L2.6799872,15.2327353 C2.00730437,15.2327353 1.4619872,14.6874181 1.4619872,14.0147353 C1.4619872,13.9407904 1.46872097,13.8669991 1.4821051,13.7942756 L3.17420764,4.60012789 L3.17420764,4.60012789 Z" id="蒙版" fill="#E3B872"></path>
                        <path d="M3.17420764,4.60012789 L17.5643143,4.60012789 L15.9181786,13.9494356 C15.8156623,14.5316816 15.3098322,14.9562307 14.7186301,14.9562307 L2.31235513,14.9562307 C1.63967231,14.9562307 1.09435513,14.4109135 1.09435513,13.7382307 C1.09435513,13.6459176 1.10484974,13.5539038 1.1256368,13.4639615 L3.17420764,4.60012789 L3.17420764,4.60012789 Z" id="蒙版" fill="#F3CF95"></path>
                        <mask id="mask-6" fill="white">
                            <use xlink:href="#path-5"></use>
                        </mask>
                        <use id="蒙版" fill="url(#linearGradient-4)" xlink:href="#path-5"></use>
                        <polygon id="路径-5" fill="#F6D7A6" filter="url(#filter-7)" mask="url(#mask-6)" points="18.688385 4.60012789 16.3577367 4.60012789 13.666677 15.5222319 16.1377269 15.5222319"></polygon>
                        <g id="路径-4" transform="translate(2.951896, 0.000000)">
                            <mask id="mask-9" fill="white">
                                <use xlink:href="#path-8"></use>
                            </mask>
                            <use id="蒙版" fill="#02BD48" xlink:href="#path-8"></use>
                            <path d="M1.15710135,-0.300819734 C10.1663282,-0.438388052 14.8569557,-0.422643509 15.2289837,-0.253586106 C17.4263318,0.25350266 15.2872222,4.5246017 15.0637178,5.02365596 C14.9147149,5.35635881 14.3184174,5.35635881 13.2748253,5.02365596 C14.0217554,3.15439376 14.3441538,1.94898277 14.2420205,1.407423 C13.8508878,0.789071682 0.870158553,1.06184341 0.679090326,0.728839292 C0.392093004,0.46183693 0.551430013,0.118617254 1.15710135,-0.300819734 Z" fill="#008833" filter="url(#filter-10)" mask="url(#mask-9)"></path>
                        </g>
                    </g>
                    <ellipse id="椭圆形" fill="url(#linearGradient-11)" cx="7.17264522" cy="3.42482474" rx="1" ry="1"></ellipse>
                    <ellipse id="椭圆形" fill="url(#linearGradient-11)" cx="13.293261" cy="3.42482474" rx="1" ry="1"></ellipse>
                    <path d="M7.94989876,0 L8.09994431,0 C8.3940185,-5.40205522e-17 8.63241273,0.238394233 8.63241273,0.532468422 C8.63241273,0.577488959 8.62670305,0.62232774 8.61542035,0.665911561 L7.99529185,3.06139918 C7.91593504,3.36794574 7.63934248,3.58205351 7.32269077,3.58205351 L7.17264522,3.58205351 C6.87857103,3.58205351 6.6401768,3.34365928 6.6401768,3.04958509 C6.6401768,3.00456455 6.64588648,2.95972577 6.65716918,2.91614195 L7.27729768,0.520654334 C7.3566545,0.214107766 7.63324705,5.81679745e-17 7.94989876,0 Z" id="矩形" fill="url(#linearGradient-12)"></path>
                    <path d="M13.980281,0 L14.1303266,0 C14.4244007,-5.40205522e-17 14.662795,0.238394233 14.662795,0.532468422 C14.662795,0.577488959 14.6570853,0.62232774 14.6458026,0.665911561 L14.0256741,3.06139918 C13.9463173,3.36794574 13.6697247,3.58205351 13.353073,3.58205351 L13.2030275,3.58205351 C12.9089533,3.58205351 12.670559,3.34365928 12.670559,3.04958509 C12.670559,3.00456455 12.6762687,2.95972577 12.6875514,2.91614195 L13.3076799,0.520654334 C13.3870367,0.214107766 13.6636293,2.80212579e-16 13.980281,0 Z" id="矩形" fill="url(#linearGradient-12)"></path>
                    <path d="M11.7091583,7.86237276 L12.9060301,9.20525519 L8.78654313,12.804918 C8.41920694,13.1259013 7.86900163,13.0951373 7.53895591,12.7572363 L7.45470474,12.6575001 L5.56439252,10.0637126 L7.03119753,9.01566596 L8.33680346,10.807761 L11.7091583,7.86237276 Z" id="路径-2" fill="#02BD48" fill-rule="nonzero"></path>
                </g>
            </g>
        </g>
    </g>
</svg>