<?xml version="1.0" encoding="UTF-8"?>
<svg width="28px" height="28px" viewBox="0 0 28 28" version="1.1" xmlns="http://www.w3.org/2000/svg" xmlns:xlink="http://www.w3.org/1999/xlink">
    <title>ICON/28/相机</title>
    <g id="ICON/28/相机" stroke="none" stroke-width="1" fill="none" fill-rule="evenodd" fill-opacity="0.232490166">
        <g id="相机" transform="translate(0.000000, 2.000000)" fill="#172B4C" fill-rule="nonzero">
            <path d="M21.2407407,6 L25.7595806,6 L25.7595806,6 L25.7595806,8 L21.2407407,8 C20.9645984,8 20.7407407,7.77614237 20.7407407,7.5 L20.7407407,6.5 C20.7407407,6.22385763 20.9645984,6 21.2407407,6 Z" id="路径"></path>
            <path d="M21.4779678,3.15556815 L20.6775683,1.04052139 C20.5482462,0.445451969 20.0064911,0 19.356385,0 L8.90225939,0 C8.25564848,0 7.7103982,0.445451969 7.58107602,1.04052139 L6.77368618,3.15556815 L1.34215454,3.15556815 C0.601173387,3.15556815 0,3.74043638 0,4.46132049 L0,22.6942477 C0,23.4151318 0.601173387,24 1.34215454,24 L26.6578455,24 C27.3988266,24 28,23.4151318 28,22.6942477 L28,4.46132049 C28,3.74043638 27.3988266,3.15556815 26.6578455,3.15556815 L21.4779678,3.15556815 Z M2.24041942,20.8169453 L2.24041942,6.33522244 C2.24041942,5.78293769 2.68813467,5.33522244 3.24041942,5.33522244 L7.64065372,5.33522244 C8.05521699,5.33522244 8.42679329,5.0794316 8.57477455,4.69217943 L9.28916254,2.82269731 C9.43714379,2.43544513 9.8087201,2.17965429 10.2232834,2.17965429 L18.0269441,2.17965429 C18.4422146,2.17965429 18.8142706,2.4363061 18.9617537,2.82450496 L19.6706268,4.69037178 C19.8181098,5.07857063 20.1901659,5.33522244 20.6054364,5.33522244 L24.7560854,5.33522244 C25.3083701,5.33522244 25.7560854,5.78293769 25.7560854,6.33522244 L25.7560854,20.8169453 C25.7560854,21.3692301 25.3083701,21.8169453 24.7560854,21.8169453 L3.24041942,21.8169453 C2.68813467,21.8169453 2.24041942,21.3692301 2.24041942,20.8169453 Z" id="形状"></path>
            <path d="M14.5185185,6 C11.0880549,6 8.2962963,8.69205298 8.2962963,12 C8.2962963,15.307947 11.0880549,18 14.5185185,18 C17.9489821,18 20.7407407,15.307947 20.7407407,12 C20.7407407,8.69205298 17.952416,6 14.5185185,6 L14.5185185,6 Z M14.5185185,15.8741722 C12.3036546,15.8741722 10.4974246,14.1357616 10.4974246,11.9966887 C10.4974246,9.85761589 12.3002208,8.1192053 14.5185185,8.1192053 C16.7368163,8.1192053 18.5396125,9.85761589 18.5396125,11.9966887 C18.5396125,14.1357616 16.7368163,15.8741722 14.5185185,15.8741722 L14.5185185,15.8741722 Z" id="形状"></path>
        </g>
    </g>
</svg>