<?xml version="1.0" encoding="UTF-8"?>
<svg width="24px" height="24px" viewBox="0 0 24 24" version="1.1" xmlns="http://www.w3.org/2000/svg" xmlns:xlink="http://www.w3.org/1999/xlink">
    <title>ic/check/error@2x</title>
    <g id="2⃣️课程" stroke="none" stroke-width="1" fill="none" fill-rule="evenodd">
        <g id="课程-已开始" transform="translate(-301.000000, -317.000000)">
            <g id="编组" transform="translate(277.000000, 265.000000)">
                <g id="ic/check/error" transform="translate(24.000000, 52.000000)">
                    <circle id="椭圆形" fill="#FF6767" cx="12" cy="12" r="12"></circle>
                    <path d="M15.8851121,6.70074651 C15.8872576,6.70286256 15.8893839,6.70499797 15.8914907,6.70715248 L17.2272601,8.07313004 C17.4178632,8.26804363 17.4171961,8.57971812 17.2257604,8.77381402 L14.043224,11.9997309 L17.2257604,15.226186 C17.3932667,15.3960199 17.4147157,15.6558749 17.2897715,15.8487619 L17.2272601,15.92687 L15.8914907,17.2928475 C15.8893839,17.295002 15.8872576,17.2971374 15.8851121,17.2992535 C15.6885073,17.4931637 15.3719324,17.4909793 15.1780222,17.2943746 L15.1780222,17.2943746 L11.999224,14.0717309 L8.82197783,17.2943746 C8.62806761,17.4909793 8.31149265,17.4931637 8.11488788,17.2992535 L8.10850927,17.2928475 L6.7727399,15.92687 C6.58213677,15.7319564 6.58280385,15.4202819 6.77423959,15.226186 L9.95622402,11.9997309 L6.77423959,8.77381402 C6.60673332,8.6039801 6.5852843,8.34412509 6.71022854,8.15123811 L6.7727399,8.07313004 L8.10850927,6.70715248 L8.10850927,6.70715248 C8.31149265,6.50683628 8.62806761,6.50902065 8.82197783,6.70562543 L8.82197783,6.70562543 L11.999224,9.92673087 L15.1780222,6.70562543 C15.3719324,6.50902065 15.6885073,6.50683628 15.8851121,6.70074651 Z" id="形状结合" fill="#FFFFFF"></path>
                </g>
            </g>
        </g>
    </g>
</svg>