<?xml version="1.0" encoding="UTF-8"?>
<svg width="76px" height="76px" viewBox="0 0 76 76" version="1.1" xmlns="http://www.w3.org/2000/svg" xmlns:xlink="http://www.w3.org/1999/xlink">
    <title>pic/map@2x</title>
    <defs>
        <filter x="-4.7%" y="-7.3%" width="109.4%" height="114.7%" filterUnits="objectBoundingBox" id="filter-1">
            <feGaussianBlur stdDeviation="1" in="SourceGraphic"></feGaussianBlur>
        </filter>
        <linearGradient x1="46.8987105%" y1="26.9472147%" x2="54.4417625%" y2="70.8062351%" id="linearGradient-2">
            <stop stop-color="#FFDEA0" offset="0%"></stop>
            <stop stop-color="#FFC66B" offset="100%"></stop>
        </linearGradient>
        <polygon id="path-3" points="9.94209022 6.22721894 27.1144895 2.54510476 44.4294168 8.33965388 60.7012457 6.22721894 67.4846405 43.0857793 45.4121139 45.5873817 23.2842495 38.8000083 3.16022434 43.0857793"></polygon>
        <linearGradient x1="51.5886217%" y1="0%" x2="59.4823285%" y2="87.2554786%" id="linearGradient-5">
            <stop stop-color="#FC819B" offset="0%"></stop>
            <stop stop-color="#CF3352" offset="100%"></stop>
        </linearGradient>
        <linearGradient x1="33.5702228%" y1="8.80787246%" x2="62.3650299%" y2="78.366491%" id="linearGradient-6">
            <stop stop-color="#FF8592" offset="0%"></stop>
            <stop stop-color="#FF5473" offset="100%"></stop>
        </linearGradient>
    </defs>
    <g id="1⃣️首页" stroke="none" stroke-width="1" fill="none" fill-rule="evenodd">
        <g id="首页-位置权限" transform="translate(-149.000000, -420.000000)">
            <g id="pic/map" transform="translate(149.000000, 420.000000)">
                <rect id="矩形" x="0" y="0" width="76" height="76"></rect>
                <g id="map" transform="translate(2.373003, 4.993835)">
                    <polygon id="矩形" fill-opacity="0.874863418" fill="#E5E6ED" filter="url(#filter-1)" points="9.52248378 22.4230624 61.3113354 22.6848223 66.3434524 62.9400593 43.0153846 63.336692 22.5331404 62.6782993 2.4 62.6782993"></polygon>
                    <g id="编组-13" transform="translate(0.000000, 14.675870)">
                        <path d="M8.53307273,4.24926375 L27.7660207,0 L27.7660207,0 L44.0998082,5.80633817 L61.7354789,3.8491356 C62.3553729,3.7803399 62.9246261,4.19788865 63.0452035,4.8098221 L70.825874,44.2969384 C70.9539992,44.9471772 70.5307425,45.5781659 69.8805037,45.7062911 C69.8445559,45.7133743 69.8083025,45.7188075 69.7718576,45.7225736 L45.1759338,48.2641896 L45.1759338,48.2641896 L23.2657291,41.9267965 L1.73569234,46.230757 C1.08580876,46.3606719 0.453657157,45.939154 0.323742225,45.2892705 C0.293915989,45.1400684 0.292736716,44.9865551 0.320267257,44.8369124 L7.61176036,5.20388009 C7.69905163,4.72940693 8.06199701,4.35334166 8.53307273,4.24926375 Z" id="矩形" fill="url(#linearGradient-2)"></path>
                        <mask id="mask-4" fill="white">
                            <use xlink:href="#path-3"></use>
                        </mask>
                        <use id="矩形" fill="#FFFAE0" xlink:href="#path-3"></use>
                        <g id="map" mask="url(#mask-4)">
                            <g transform="translate(0.112815, 2.184826)">
                                <polyline id="路径-13" stroke="#FFFFFF" stroke-width="1.068" fill="none" points="5.30597329 26.5609412 17.1560286 15.9995288 20.1762785 1.50950052"></polyline>
                                <polygon id="矩形" stroke="none" fill="#F5EFC9" fill-rule="evenodd" points="26.7850814 0 44.1611844 0.54386183 45.1957098 45.5858849 23.1919238 37.2605055"></polygon>
                                <polygon id="路径-15备份" stroke="none" fill="#FFE7BB" fill-rule="evenodd" points="14.5855995 18.994958 18.9495263 22.4235264 21.6440782 17.5423078 17.6686979 15.9661807 17.190177 16.6965941"></polygon>
                                <polygon id="路径-4备份" stroke="none" fill="#FFFFFF" fill-rule="nonzero" points="51.7732286 5.841926 42.0760003 12.1594193 12.2471417 47.6828304 10.9474695 46.8400998 40.8026595 11.2761438 50.8050299 4.71508067 52.0956188 4.52789362"></polygon>
                                <polygon id="路径-4备份" stroke="none" fill="#FFF2C4" fill-rule="nonzero" points="44.3166692 10.6933358 42.0760003 12.1594193 23.5008467 34.2624594 23.7366941 31.6079214 40.8026595 11.2761438 44.3166692 8.96757802"></polygon>
                                <polygon id="路径-7备份" stroke="none" fill="#FDFFFF" fill-rule="nonzero" points="-3.07910343e-13 33.5220307 21.6672642 47.9636778 20.9995401 48.9139321 -3.07910343e-13 34.5983106"></polygon>
                                <polygon id="路径" stroke="none" fill="#FFF7AC" fill-rule="nonzero" points="6.53177019 21.3119897 6.53177019 20.5384924 23.6108945 33.0680909 23.5386045 33.8070131"></polygon>
                                <polygon id="路径备份" stroke="none" fill="#FBEA9C" fill-rule="nonzero" points="23.5386045 33.8070131 23.6108945 33.0680909 31.5215441 36.4217168 37.2585014 46.0484564 36.5585538 46.0484564 31.0523983 36.9498537"></polygon>
                                <polygon id="路径-9备份" stroke="none" fill="#FFE7BB" fill-rule="evenodd" points="44.3166692 1.93825653 44.3166692 8.96757802 52.3819961 3.73150869 52.6268037 1.97336736"></polygon>
                                <polygon id="路径-9备份" stroke="none" fill="#FAD09C" fill-rule="evenodd" points="44.3166692 1.5568913 38.6186639 2.9146839 35.8404177 6.27798312 35.8123472 13.598741 38.7337001 13.6937737 40.8026595 11.2761438 44.3166692 8.96712901"></polygon>
                                <polygon id="路径-13备份" stroke="none" fill="#FFE7BB" fill-rule="evenodd" points="11.7362088 7.90492067 13.4521404 1.81321791 19.5115552 1.81321791 18.0588193 8.88906328"></polygon>
                                <polygon id="路径-8" stroke="none" fill="#FFE7BB" fill-rule="evenodd" points="59.0190967 14.6855752 67.8998049 19.842916 67.5726368 27.8319878 56.0161249 23.1769369"></polygon>
                                <polygon id="路径-7" stroke="none" fill="#FFFFFF" fill-rule="nonzero" points="58.8134571 13.1312874 59.4837523 13.6807782 56.0993412 23.1558302 44.958447 35.1461183 44.9290764 33.607166 55.3991945 22.7153116"></polygon>
                                <polygon id="路径-4" stroke="none" fill="#FFFFFF" fill-rule="nonzero" points="47.8255112 8.38197249 48.4088998 7.32353855 59.0834175 13.1799387 68.1053608 18.2876659 67.8877331 20.0640088 58.31217 14.1351088"></polygon>
                                <polygon id="路径-6" stroke="none" fill="#FFEB87" fill-rule="evenodd" points="44.3166692 23.3401864 49.2913816 16.6277559 44.86284 10.3420603 44.3166692 10.6933358"></polygon>
                                <polygon id="路径-6" stroke="none" fill="#F7E274" fill-rule="evenodd" points="34.7560273 20.9529797 40.1191899 28.0874017 44.6540696 22.7929425 44.3166692 10.6933358 42.0760003 12.1594193"></polygon>
                                <polygon id="路径-14" stroke="none" fill="#FFFFFF" fill-rule="nonzero" points="6.79708238 9.83437642 25.4278492 14.1682279 25.3272153 15.2026918 6.58910176 10.8741822"></polygon>
                                <polygon id="路径-15" stroke="none" fill="#FFF2C4" fill-rule="nonzero" points="25.4278492 14.162886 35.5535685 21.5957377 35.662958 21.7084561 44.9853104 35.1943644 44.9853104 37.1203525 34.8463952 22.3889982 25.3272153 15.2026918"></polygon>
                                <polygon id="路径-16" stroke="none" fill="#FFFFFF" fill-rule="nonzero" points="44.9853104 35.1943644 52.2406577 46.1783139 51.3510706 46.7534359 44.9853104 37.1203525"></polygon>
                                <polygon id="路径-2" stroke="none" fill="#FAD09C" fill-rule="evenodd" points="24.2455465 33.3755768 28.5026234 28.3582355 34.0526804 33.0680909 31.5215441 36.4217168"></polygon>
                            </g>
                        </g>
                    </g>
                    <g id="编组-3" transform="translate(27.126997, 0.000000)">
                        <path d="M30.595175,5.17051935 C37.4189524,12.2084388 37.822029,23.484237 31.5192645,31.0213046 L19.7487782,42.9654666 C18.6995835,44.2201306 16.8628844,44.3600049 15.6463959,43.2778846 C15.5381171,43.1815658 15.4368719,43.0771434 15.3434838,42.9654666 L5.57093659,31.0213046 C-0.73182785,23.484237 -0.328751226,12.2084388 6.49502614,5.17051935 C13.1792881,-1.72350645 23.910913,-1.72350645 30.595175,5.17051935 Z M17,11.9283822 C13.0885639,11.9283822 9.91771835,14.8389573 9.91771835,18.4293337 C9.91771835,22.0197101 13.0885639,24.9302852 17,24.9302852 C20.9114361,24.9302852 24.0822816,22.0197101 24.0822816,18.4293337 C24.0822816,14.8389573 20.9114361,11.9283822 17,11.9283822 Z" id="形状结合" fill="url(#linearGradient-5)"></path>
                        <path d="M28.757129,5.17051935 C35.3859413,12.2084388 35.7775014,23.484237 29.654816,31.0213046 L19.1397144,42.9654666 C18.1204967,44.2201306 16.3362747,44.3600049 15.1545431,43.2778846 C15.0493579,43.1815658 14.9510055,43.0771434 14.8602856,42.9654666 L4.34518401,31.0213046 C-1.77750145,23.484237 -1.3859413,12.2084388 5.242871,5.17051935 C11.736154,-1.72350645 22.263846,-1.72350645 28.757129,5.17051935 Z M17,11.9283822 C13.0885639,11.9283822 9.91771835,14.8389573 9.91771835,18.4293337 C9.91771835,22.0197101 13.0885639,24.9302852 17,24.9302852 C20.9114361,24.9302852 24.0822816,22.0197101 24.0822816,18.4293337 C24.0822816,14.8389573 20.9114361,11.9283822 17,11.9283822 Z" id="形状结合" fill="url(#linearGradient-6)"></path>
                        <path d="M17,11.9283822 C17.1041118,11.9283822 17.2076989,11.9304443 17.3107155,11.9345264 C13.8454551,12.0761818 11.0803786,14.9298487 11.0803786,18.4293337 C11.0803786,21.9261157 13.8411851,24.7780767 17.3019723,24.9243911 L17.2486369,24.9263539 L17.2486369,24.9263539 L17,24.9302852 C13.0885639,24.9302852 9.91771835,22.0197101 9.91771835,18.4293337 C9.91771835,14.8389573 13.0885639,11.9283822 17,11.9283822 Z" id="形状结合" fill="#DC4A67"></path>
                    </g>
                </g>
            </g>
        </g>
    </g>
</svg>