<?xml version="1.0" encoding="UTF-8"?>
<svg width="22px" height="22px" viewBox="0 0 22 22" version="1.1" xmlns="http://www.w3.org/2000/svg" xmlns:xlink="http://www.w3.org/1999/xlink">
    <title>ic/mine/service@2x</title>
    <g id="ic/mine/service" stroke="none" stroke-width="1" fill="none" fill-rule="evenodd">
        <rect id="矩形" x="0" y="0" width="22" height="22"></rect>
        <g id="编组-5" transform="translate(2.302528, 2.973266)" stroke="#38364D" stroke-width="1.8">
            <path d="M3.02413914,10.6336375 L3.02413914,5.67333333 C3.02413914,2.54003785 5.564177,0 8.69747248,0 C11.830768,0 14.3708058,2.54003785 14.3708058,5.67333333 L14.3708058,10.6336375 C14.3708058,13.766933 11.830768,16.0534679 8.69747248,16.0534679" id="路径"></path>
            <path d="M2.3816132,5.05410389 L3.02413914,5.05410389 L3.02413914,5.05410389 L3.02413914,9.81733029 L2.3816132,9.81733029 C1.06628455,9.81733029 1.61081302e-16,8.75104574 0,7.43571709 C-1.61081302e-16,6.12038844 1.06628455,5.05410389 2.3816132,5.05410389 Z" id="矩形备份-2"></path>
            <path d="M16.752419,5.05410389 L17.394945,5.05410389 L17.394945,5.05410389 L17.394945,9.81733029 L16.752419,9.81733029 C15.4370904,9.81733029 14.3708058,8.75104574 14.3708058,7.43571709 C14.3708058,6.12038844 15.4370904,5.05410389 16.752419,5.05410389 Z" id="矩形备份-3" transform="translate(15.882875, 7.435717) scale(-1, 1) translate(-15.882875, -7.435717) "></path>
        </g>
    </g>
</svg>