<?xml version="1.0" encoding="UTF-8"?>
<svg width="22px" height="22px" viewBox="0 0 22 22" version="1.1" xmlns="http://www.w3.org/2000/svg" xmlns:xlink="http://www.w3.org/1999/xlink">
    <title>删除</title>
    <g id="S-跑步申诉" stroke="none" stroke-width="1" fill="none" fill-rule="evenodd">
        <g id="填写跑步申诉" transform="translate(-70.000000, -557.000000)">
            <g id="删除" transform="translate(70.000000, 557.000000)">
                <rect id="矩形" x="0" y="0" width="22" height="22"></rect>
                <circle id="椭圆形" fill="#909090" cx="11" cy="11" r="7"></circle>
                <path d="M8.35816332,7.32569588 L14.5226424,13.7247519 C14.7026216,13.9115798 14.7098228,14.2050234 14.5392244,14.4004547 L14.2155202,14.7712782 C14.0339228,14.9793095 13.7180664,15.0007384 13.5100352,14.819141 C13.4991841,14.8096688 13.4887475,14.7997321 13.4787544,14.7893587 L7.31427531,8.39030274 C7.13429612,8.2034748 7.12709491,7.91003119 7.29769332,7.71459995 L7.6213975,7.34377638 C7.80299488,7.13574513 8.11885129,7.11431624 8.32688255,7.29591362 C8.33773358,7.30538584 8.34817024,7.31532253 8.35816332,7.32569588 Z" id="路径" fill="#FFFFFF" fill-rule="nonzero"></path>
                <path d="M8.35816332,7.32569588 L14.5226424,13.7247519 C14.7026216,13.9115798 14.7098228,14.2050234 14.5392244,14.4004547 L14.2155202,14.7712782 C14.0339228,14.9793095 13.7180664,15.0007384 13.5100352,14.819141 C13.4991841,14.8096688 13.4887475,14.7997321 13.4787544,14.7893587 L7.31427531,8.39030274 C7.13429612,8.2034748 7.12709491,7.91003119 7.29769332,7.71459995 L7.6213975,7.34377638 C7.80299488,7.13574513 8.11885129,7.11431624 8.32688255,7.29591362 C8.33773358,7.30538584 8.34817024,7.31532253 8.35816332,7.32569588 Z" id="路径" fill="#FFFFFF" fill-rule="nonzero" transform="translate(10.918459, 11.057527) scale(-1, 1) translate(-10.918459, -11.057527) "></path>
            </g>
        </g>
    </g>
</svg>