<?xml version="1.0" encoding="UTF-8"?>
<svg width="200px" height="150px" viewBox="0 0 200 150" version="1.1" xmlns="http://www.w3.org/2000/svg" xmlns:xlink="http://www.w3.org/1999/xlink">
    <title>切片</title>
    <g id="页面-1" stroke="none" stroke-width="1" fill="none" fill-rule="evenodd">
        <g id="我的课程-缺省" transform="translate(-88.000000, -200.000000)">
            <g id="pic/defult/course" transform="translate(88.000000, 200.000000)">
                <rect id="矩形备份" x="0" y="0" width="200" height="150"></rect>
                <g id="编组-10" transform="translate(33.720317, 2.747330)">
                    <path d="M103.410602,139.042326 L97.5462514,94.8517273 C110.878221,94.1675796 117.544205,93.8255058 117.544205,93.8255058 C117.544205,93.8255058 119.106074,108.719024 122.22981,138.50606" id="路径-9" stroke="#38364D" fill="#FFFFFF"></path>
                    <path d="M56.8740107,54.0514382 C58.3013668,52.5354461 59.372122,51.207235 60.0862762,50.0668049 C61.2883906,48.1471528 62.9417157,44.5333106 65.0462514,39.2252784 C71.0161538,24.1680695 88.5866103,22.8855119 98.6592227,22.8855119 C108.731835,22.8855119 115.721518,26.0142435 120.05545,30.459347 C122.944737,33.4227493 125.361956,36.8832211 127.307108,40.8407623 C124.26622,40.863832 121.282088,41.3081947 118.354714,42.1738503 C115.427339,43.039506 113.291878,44.6988159 111.948329,47.15178 L114.249302,68.7613533 L92.6202734,71.325562 L56.8740107,54.0514382 Z" id="路径备份-3" fill="#FC6C37"></path>
                    <polygon id="路径-8备份-3" fill="#38364D" points="116.47514 67.7620735 123.697684 105.110452 92.4723739 106.109732 92.6202734 71.325562 111.763187 68.7613533"></polygon>
                    <path d="M126.562286,40.4467804 C131.840994,49.8413089 133.634912,56.999015 131.944039,61.9198988 C129.407729,69.3012245 123.275751,70.3974053 118.361865,70.0466822 C115.085942,69.8128668 110.867385,68.1425598 105.706195,65.0357611 C102.106005,63.2669009 99.5240207,61.9706714 97.9602425,61.1470728 C89.437605,56.6584356 84.4692881,53.3156924 83.3109306,51.3204904 C81.0951759,47.5039848 84.1613477,46.1601119 87.654221,47.8940027 C89.9828032,49.0499298 90.7508325,49.4319344 89.9583089,49.0400163 C91.0323977,46.5663547 92.2874778,44.9620237 93.7235492,44.2270233 C95.1596207,43.492023 101.223116,45.7338713 111.914036,50.9525683 L111.453086,47.1055369 C111.819335,45.275626 113.567884,43.621737 116.698732,42.1438699 C118.579499,41.2560835 121.867351,40.690387 126.562286,40.4467804 Z" id="路径-2备份-3" stroke="#38364D" fill="#FFFFFF"></path>
                    <path d="M76.3756707,53.9094108 C76.9777763,52.5095446 76.5292282,49.764197 75.0300263,45.673368" id="路径-9备份-3" stroke="#38364D" stroke-linejoin="round"></path>
                    <path d="M34.9671913,49.0425727 L33.3449081,51.4499578 C32.677258,52.4407163 32.320588,53.6082364 32.320588,54.8029578 L32.320588,58.8142302 L32.320588,58.8142302 L38.2701495,55.5791292 L34.9671913,49.0425727 Z" id="路径-3备份-3" stroke="#38364D" fill="#FFFFFF"></path>
                    <g id="编组" transform="translate(0.000000, 53.505340)">
                        <rect id="矩形备份-30" stroke="#38364D" fill="#FFFFFF" x="5.04625144" y="0.5" width="92" height="90" rx="8"></rect>
                        <rect id="矩形备份-31" stroke="#38364D" fill="#FFFFFF" x="11.0462514" y="6.5" width="79" height="78" rx="4"></rect>
                        <rect id="矩形备份-34" fill="#EFEEFA" x="25.5462514" y="19" width="45" height="5" rx="1"></rect>
                        <rect id="矩形备份-35" fill="#EFEEFA" x="25.5462514" y="32" width="21" height="5" rx="1"></rect>
                        <rect id="矩形备份-36" fill="#EFEEFA" x="25.5462514" y="45" width="33" height="5" rx="1"></rect>
                        <path d="M90.5462514,44.07663 C83.7825924,71.4816085 66.1262808,85.1226985 37.5773168,84.9999 C54.2336284,84.9999 70.8899399,84.9999 87.5462514,84.9999 C89.2031057,84.9999 90.5462514,83.6567542 90.5462514,81.9999 L90.5462514,44.07663 L90.5462514,44.07663 Z" id="路径-4备份-3" fill="#C3C2CC"></path>
                        <g id="编组-5备份-2" transform="translate(0.000000, 67.000000)">
                            <path d="M12,0 C14.209139,0 16,1.790861 16,4 C16,6.209139 14.209139,8 12,8 L4,8 C1.790861,8 0,6.209139 0,4 C0,1.790861 1.790861,0 4,0" id="路径" stroke="#38364D" fill="#F0F0FC"></path>
                            <rect id="矩形备份-45" fill="#FFFFFF" x="2" y="1" width="12" height="4" rx="2"></rect>
                            <line x1="5" y1="5" x2="8.66919072" y2="5" id="路径-28" stroke="#38364D"></line>
                        </g>
                        <g id="编组-5备份-3" transform="translate(0.000000, 17.000000)">
                            <path d="M12,0 C14.209139,0 16,1.790861 16,4 C16,6.209139 14.209139,8 12,8 L4,8 C1.790861,8 0,6.209139 0,4 C0,1.790861 1.790861,0 4,0" id="路径" stroke="#38364D" fill="#F0F0FC"></path>
                            <rect id="矩形备份-45" fill="#FFFFFF" x="2" y="1" width="12" height="4" rx="2"></rect>
                            <line x1="5" y1="5" x2="8.66919072" y2="5" id="路径-28" stroke="#38364D"></line>
                        </g>
                        <g id="编组-5备份-4" transform="translate(0.000000, 41.000000)">
                            <path d="M12,0 C14.209139,0 16,1.790861 16,4 C16,6.209139 14.209139,8 12,8 L4,8 C1.790861,8 0,6.209139 0,4 C0,1.790861 1.790861,0 4,0" id="路径" stroke="#38364D" fill="#F0F0FC"></path>
                            <rect id="矩形备份-45" fill="#FFFFFF" x="2" y="1" width="12" height="4" rx="2"></rect>
                            <line x1="5" y1="5" x2="8.66919072" y2="5" id="路径-28" stroke="#38364D"></line>
                        </g>
                        <path d="M90.5462514,44.07663 C87.9977836,53.4934705 81.2457101,59.8012605 70.2900307,63 C70.2900307,63 53.0509779,82.7237723 41.2788611,85.0007202 C41.2788611,85.0007202 64.5547828,85.318616 77.1399526,70.7078363 C85.4631075,61.5130604 89.9318737,52.6359917 90.5462514,44.07663 Z" id="路径-27" fill="#FFFFFF"></path>
                        <path d="M90.0728903,43.9388011 C87.5037123,53.4062482 81.2457101,59.8012605 70.2900307,63 C70.2900307,63 63.4499961,81.6896549 41.1859097,84.5017031" id="路径" stroke="#38364D"></path>
                    </g>
                    <path d="M90.3145259,48.5104759 C87.2416279,53.8517856 86.6109961,57.0274293 88.4226305,58.0374069 C90.3698376,59.3392356 92.5722721,57.1409211 95.0299339,51.4424636 C92.0713519,56.6505425 91.4831749,59.6802291 93.2654029,60.5315235 C95.0476309,61.3828178 97.1706658,59.2233022 99.6345077,54.0529767 C96.441588,59.2163221 95.6544682,62.2379916 97.2731484,63.1179851 C98.8918286,63.9979787 101.022204,61.887561 103.664275,56.7867321 C100.607165,61.1819073 99.8149103,63.916605 101.287511,64.9908252 C102.760113,66.0650453 104.701763,64.3374059 107.112462,59.8079069" id="路径-7备份-2" stroke="#38364D" fill="#FFFFFF"></path>
                    <path d="M88.9882922,4.31244727 C91.0189849,4.31244727 92.6263396,4.90282781 93.8201327,5.9213958 C95.1336509,7.04211556 95.9416695,8.67082951 96.2895016,10.5523782 C97.5397903,11.0337529 98.2355213,11.3552272 98.7283638,11.8427226 C99.2048469,12.314036 99.4882922,12.9405024 99.4882922,13.6338113 C99.4882922,14.3241673 99.2084702,14.9491673 98.7560592,15.4015783 C98.3036481,15.8539893 97.6786481,16.1338113 96.9882922,16.1338113 C95.3732413,18.0879758 94.4432906,19.564328 93.174369,20.5898237 C92.0377699,21.5083812 90.6285986,22.0606345 88.9882922,22.0606345 C86.735829,22.0606345 84.831452,21.0200859 83.4587933,19.4289786 C81.9502632,17.680377 81.0784669,15.2702696 81.0784669,12.8124473 C81.0784669,10.3678718 81.8258003,8.15697496 83.2795613,6.60119364 C84.612223,5.17501 86.5362771,4.31244727 88.9882922,4.31244727 Z" id="形状结合" stroke="#38364D" fill="#FFFFFF"></path>
                    <path d="M79.6245946,7.28863036 C79.324786,8.99254606 79.199066,12.8334001 82.2753466,12.8334001 C84.3262003,12.8334001 86.5078995,11.9909593 88.8204439,10.3060777 C89.0651666,11.3225674 89.6866684,11.8308122 90.6849492,11.8308122 C92.1823704,11.8308122 93.1061051,9.74151674 93.5050336,9.66748762 C93.9039621,9.59345851 92.9552406,12.7627387 94.6263271,12.4473299 C96.2974137,12.1319212 96.845731,11.1304049 98.4202976,11.454733 C99.1333407,11.454733 99.3208845,6.12840969 96.4618445,3.22119078 C93.6028044,0.313971866 87.5726701,-0.60305027 84.0030412,1.42348769 C80.4334123,3.45002564 79.9244032,5.58471467 79.6245946,7.28863036 Z" id="路径-11备份-2" fill="#38364D" transform="translate(89.173865, 6.583965) rotate(-2.000000) translate(-89.173865, -6.583965) "></path>
                    <path d="M50.8341292,53.6938699 C52.9723971,54.1982607 54.6725974,53.5487677 55.9347301,51.7453906 C57.8279293,49.0403251 54.7385996,44.331115 52.0500989,43.7923748 C50.2577651,43.4332146 49.0469317,44.1430599 48.4175989,45.9219108 L50.8341292,53.6938699 Z" id="路径-16备份-2" stroke="#38364D" fill="#FFFFFF"></path>
                    <path d="M47.5729383,54.5558158 C49.3009392,55.2312475 50.7213362,54.9439322 51.8341292,53.6938699 C53.5033187,51.8187764 50.9549152,45.2048104 47.8214771,44.8623434 C45.7325183,44.634032 44.62195,45.4677279 44.4897723,47.3634311 L47.5729383,54.5558158 Z" id="路径-15备份-2" stroke="#38364D" fill="#FFFFFF"></path>
                    <path d="M40.1717605,47.965156 C40.3476378,46.7863607 41.4734857,46.1969631 43.5493041,46.1969631 C46.6630317,46.1969631 48.6929865,53.7580102 47.4515918,55.2511509 C46.6239953,56.2465781 45.3232327,56.5358195 43.5493041,56.1188752 L40.1717605,47.965156 Z" id="路径-14备份-2" stroke="#38364D" fill="#FFFFFF"></path>
                    <path d="M39.7923116,56.9216887 C40.5314428,57.2933833 43.9385122,58.1131965 43.5089838,54.0286324 C43.0794555,49.9440682 39.4259606,47.3634311 37.3505489,47.3634311 C35.2751373,47.3634311 34.0493443,49.7556921 35.2526015,51.1671646 C36.4558587,52.5786371 39.0531805,56.5499942 39.7923116,56.9216887 Z" id="路径-13备份-2" stroke="#38364D" fill="#FFFFFF"></path>
                    <line x1="114.512379" y1="75.7292351" x2="116.326787" y2="87.2662659" id="路径-17" stroke="#FFFFFF"></line>
                    <line x1="116.924904" y1="91.0153688" x2="117.237362" y2="93.3746805" id="路径-18" stroke="#FFFFFF"></line>
                    <line x1="117.611733" y1="96.3131782" x2="118.045" y2="100.63718" id="路径-19" stroke="#FFFFFF"></line>
                    <path d="M95.6974921,14.0720804 C95.9197356,13.5901524 96.2012224,13.2474442 96.5419524,13.0439557 C96.8826825,12.8404672 97.2671228,12.7269314 97.6952733,12.7033483" id="路径-24备份" stroke="#38364D"></path>
                    <circle id="椭圆形备份-6" fill="#38364D" cx="84.9584576" cy="14.3741187" r="1"></circle>
                    <circle id="椭圆形备份-7" fill="#38364D" cx="90.9584576" cy="14.3741187" r="1"></circle>
                    <path d="M87.9945572,14.8559504 C87.5582087,17.0218254 87.4127592,18.1047629 87.5582087,18.1047629 C87.7036582,18.1047629 88.1718617,18.1047629 88.9628193,18.1047629" id="路径-26备份" stroke="#38364D"></path>
                    <path d="M82.5871139,25.175162 C84.9689149,28.404853 87.8126893,29.8001949 91.118437,29.3611877 C96.0770587,28.7026768 97.5527565,26.3919271 98.2220458,23.3347238 C92.6984682,22.9784689 87.4868242,23.5919483 82.5871139,25.175162 Z" id="路径-6" stroke="#38364D" fill="#FFFFFF"></path>
                    <path d="M86.4159616,27.1534764 L86.8797793,21.7916195 C89.4392868,22.254139 91.5132159,21.8992577 93.1015666,20.7269755 C93.3473018,21.2418147 94.0862198,23.0343219 95.3183204,26.1044973" id="路径-7" stroke="#38364D" fill="#FFFFFF"></path>
                    <path d="M107.298838,40.4467804 C109.611362,43.4143532 111.064795,46.2084779 111.659136,48.8291544" id="路径-8" stroke="#38364D"></path>
                    <path d="M101.642178,140.738006 C102.32077,134.680686 105.479713,131.458012 111.119009,131.069984 C118.133387,130.609713 122.340171,133.826319 123.739361,140.719804 L101.642178,140.738006 Z" id="路径-13" fill="#38364D"></path>
                    <path d="M114.162015,130.987941 C116.724341,130.987941 119.055762,132.00409 120.767745,133.660472 C122.479728,135.316854 123.572271,137.613468 123.656839,140.174398 L123.656839,140.174398 L123.74975,142.987941 L101.573856,142.987941 L101.573856,140.487941 C101.573856,137.864588 102.63718,135.489588 104.356342,133.770426 C106.075504,132.051265 108.450504,130.987941 111.073856,130.987941 L111.073856,130.987941 Z" id="矩形备份-29" stroke="#38364D"></path>
                    <path d="M117.786038,135.367429 C118.909475,136.051432 119.947968,136.937265 120.901516,138.024927" id="路径-22备份" stroke="#FFFFFF"></path>
                    <path d="M116.099272,134.227193 C115.655003,134.066267 115.08772,133.906766 114.397421,133.748689" id="路径-23备份" stroke="#FFFFFF"></path>
                    <line x1="101.642178" y1="140.426777" x2="123.697684" y2="140.426777" id="路径-10" stroke="#38364D"></line>
                </g>
            </g>
        </g>
    </g>
</svg>