<?xml version="1.0" encoding="UTF-8"?>
<svg width="22px" height="22px" viewBox="0 0 22 22" version="1.1" xmlns="http://www.w3.org/2000/svg" xmlns:xlink="http://www.w3.org/1999/xlink">
    <title>ic/mine/grade@2x</title>
    <g id="成绩" stroke="none" stroke-width="1" fill="none" fill-rule="evenodd">
        <g id="我的-成绩" transform="translate(-32.000000, -335.000000)" stroke="#38364D">
            <g id="编组" transform="translate(32.000000, 335.000000)">
                <polygon id="矩形" stroke-width="1.6" stroke-linejoin="round" points="3.94053763 3.05 18.0594624 3.05 18.0594624 13.9829605 12.7548386 18.95 3.94053763 18.95"></polygon>
                <polyline id="路径-62" stroke-width="1.4" stroke-linejoin="round" points="12.7548386 18.95 12.7548386 13.9829605 18.0594624 13.9829605"></polyline>
                <path d="M11.1901705,6.23129912 C11.3214772,6.26323189 11.3928043,6.34894617 11.4073939,6.48844197 C11.501416,6.53213945 11.5678799,6.60272769 11.6116488,6.70020668 C11.6537966,6.79768567 11.6748705,6.94222349 11.6748705,7.13382012 C11.6748705,7.42457643 11.6181331,7.73718147 11.5062792,8.07163525 C11.3944253,8.4077697 11.2371815,8.72205542 11.0361688,9.01617307 C10.835156,9.31029071 10.603343,9.55398819 10.3439717,9.74390416 C10.052179,9.95734954 9.8122606,10.0649126 9.6258375,10.0649126 C9.48156223,10.0649126 9.34539232,10.0195344 9.21732775,9.92877811 C9.09088426,9.8380218 8.98875682,9.70861004 8.91418758,9.54054281 C8.83799727,9.37247559 8.80071265,9.1775176 8.80071265,8.95230752 C8.80071265,8.63970248 8.88338724,8.31029071 9.04873643,7.9657529 C9.21408561,7.62121508 9.42482477,7.31029071 9.67933282,7.03129912 C9.93384088,6.75398819 10.1996964,6.53886214 10.4768995,6.38928231 C10.7541025,6.23970248 10.9907788,6.18592096 11.1901705,6.23129912 Z M14.6735019,6.23129912 C14.8048086,6.26323189 14.8761357,6.34894617 14.8907253,6.48844197 C14.9847474,6.53213945 15.0512113,6.60272769 15.0949802,6.70020668 C15.137128,6.79768567 15.158202,6.94222349 15.158202,7.13382012 C15.158202,7.42457643 15.1014645,7.73718147 14.9896106,8.07163525 C14.8777568,8.4077697 14.7205129,8.72205542 14.5195002,9.01617307 C14.3184875,9.31029071 14.0866744,9.55398819 13.8273031,9.74390416 C13.5355105,9.95734954 13.295592,10.0649126 13.1091689,10.0649126 C12.9648937,10.0649126 12.8287237,10.0195344 12.7006592,9.92877811 C12.5742157,9.8380218 12.4720883,9.70861004 12.397519,9.54054281 C12.3213287,9.37247559 12.2840441,9.1775176 12.2840441,8.95230752 C12.2840441,8.63970248 12.3667187,8.31029071 12.5320679,7.9657529 C12.697417,7.62121508 12.9081562,7.31029071 13.1626643,7.03129912 C13.4171723,6.75398819 13.6830279,6.53886214 13.9602309,6.38928231 C14.2374339,6.23970248 14.4741102,6.18592096 14.6735019,6.23129912 Z M8.31210893,6.06491256 C8.42072064,6.22961844 8.47583704,6.38760164 8.47583704,6.53718147 C8.47583704,6.61953441 8.45962633,6.71029071 8.42558386,6.81113105 C8.39154138,6.91197138 8.3461514,7.02793777 8.28779287,7.15734954 C8.22943433,7.2867613 8.15648616,7.44978651 8.06894836,7.64474449 C7.83389315,8.18255962 7.65881754,8.62457643 7.54372154,8.97415626 C7.42700447,9.32373609 7.37026701,9.56071088 7.37026701,9.68508063 C7.37026701,9.69516466 7.37675129,9.7355008 7.39134092,9.80608903 C7.40593056,9.87667727 7.41241484,9.92877811 7.41241484,9.96407222 C7.41241484,10.0245764 7.39620413,10.0565092 7.36378272,10.0598705 C7.33136132,10.0632319 7.28435027,10.0514672 7.22599174,10.0228958 C7.07361112,9.94390416 6.97148368,9.86995458 6.91960943,9.80104701 C6.86773517,9.73045878 6.84179805,9.63970248 6.84179805,9.52877811 C6.84179805,9.32877811 6.91150407,9.01953441 7.0525372,8.59936634 C7.1238643,8.38760164 7.20815996,8.17583693 7.30218205,7.9657529 C7.3978252,7.75566886 7.50319478,7.54390416 7.61991185,7.32877811 C7.73662892,7.11365206 7.84524064,6.91533273 7.94898915,6.73382012 C7.72041822,6.83129912 7.48536301,6.96071088 7.2389603,7.12037475 L7.2389603,6.86659323 C7.3102874,6.80104701 7.38323557,6.73718147 7.45618374,6.67499659 C7.52913191,6.61281172 7.6118065,6.54558483 7.70258644,6.47499659 C7.79336639,6.40272769 7.8857674,6.33382012 7.98303163,6.26827391 C8.07867478,6.20272769 8.18890757,6.13382012 8.31210893,6.06491256 Z M11.1723387,6.80104701 C11.1091169,6.80272769 10.9064831,6.83129912 10.8270507,6.86827391 C10.7476182,6.90356802 10.6065851,6.99096298 10.5174262,7.04978651 C10.4282674,7.11029071 10.3261399,7.19432433 10.2094229,7.30356802 C10.0927058,7.41281172 9.9711255,7.54894617 9.84468201,7.71365206 C9.63880606,7.98760164 9.48156223,8.25314786 9.37781372,8.50861004 C9.27244415,8.76407222 9.22056989,8.98255962 9.22056989,9.16071088 C9.22056989,9.41785374 9.30324448,9.5472655 9.47021474,9.5472655 C9.56585789,9.5472655 9.70202781,9.49348399 9.88034556,9.38592096 C10.0586633,9.27835794 10.2467075,9.13213945 10.4444781,8.94390416 C10.6357644,8.76239155 10.8027346,8.56071088 10.9470099,8.3355008 C11.0912852,8.11197138 11.201518,7.89012264 11.2777083,7.67163525 C11.3538986,7.45314786 11.3928043,7.26659323 11.3928043,7.11365206 C11.3928043,7.01449239 11.3717304,6.93886214 11.3295825,6.88339996 C11.2874347,6.82961844 11.2355604,6.80104701 11.1723387,6.80104701 Z M14.6540491,6.80104701 C14.5924484,6.80272769 14.3703617,6.83129912 14.308761,6.86827391 C14.2487814,6.90356802 14.0882955,6.99096298 13.9991366,7.04978651 C13.9099777,7.11029071 13.8078503,7.19432433 13.6911332,7.30356802 C13.5744161,7.41281172 13.4528359,7.54894617 13.3263924,7.71365206 C13.1205164,7.98760164 12.9632726,8.25314786 12.8595241,8.50861004 C12.7541545,8.76407222 12.7022803,8.98255962 12.7022803,9.16071088 C12.7022803,9.41785374 12.7849548,9.5472655 12.9519251,9.5472655 C13.0475683,9.5472655 13.1837382,9.49348399 13.3620559,9.38592096 C13.5403737,9.27835794 13.7284178,9.13213945 13.9261884,8.94390416 C14.1174747,8.76239155 14.284445,8.56071088 14.4287203,8.3355008 C14.5729955,8.11197138 14.6832283,7.89012264 14.7594186,7.67163525 C14.8356089,7.45314786 14.8745146,7.26659323 14.8745146,7.11365206 C14.8745146,7.01449239 14.8534407,6.93886214 14.8112929,6.88339996 C14.7691451,6.82961844 14.7172708,6.80104701 14.6540491,6.80104701 Z" id="形状结合" stroke-width="0.6" fill="#38364D" fill-rule="nonzero"></path>
                <path d="M14.3543552,10.9337094 C14.1975453,10.9627426 14.0407355,10.9917757 13.8855422,11.0237122 C13.5735391,11.0875851 13.2647692,11.1558131 12.9559993,11.2327509 C12.6488459,11.3067855 12.3433092,11.3880783 12.0393891,11.4751778 C11.735469,11.5608256 11.434782,11.6508284 11.1373283,11.7495412 C10.8398745,11.8468023 10.5472706,11.9600316 10.2595164,12.0761642 C9.97176226,12.1922969 9.68077491,12.3026229 9.38978755,12.4085939 C9.31704071,12.4347237 9.24267727,12.4594019 9.16993043,12.4869834 C9.0971836,12.5131133 9.02443676,12.5406948 8.95007332,12.5668246 C8.87570989,12.5929545 8.80457964,12.6219876 8.73021621,12.6466658 C8.65585277,12.6727956 8.58310593,12.6989255 8.5087425,12.726507 C8.47156078,12.7410236 8.43437906,12.7526368 8.39881394,12.7671534 L8.28726879,12.8063482 C8.21290535,12.8339297 8.14015851,12.8615112 8.06417848,12.887641 L7.95101673,12.9268358 C7.91383501,12.9399007 7.87665329,12.9544173 7.83785498,12.9674822 C7.76187495,12.9936121 7.68589492,13.0197419 7.60829829,13.0429684 L7.58081615,13.0037737 C7.63901362,12.951514 7.69721109,12.8992543 7.75864176,12.8498979 C7.78935709,12.8252197 7.81845582,12.8005415 7.84917116,12.7758634 L7.94293375,12.7047321 C8.00598101,12.6582791 8.07064487,12.611826 8.13530872,12.5668246 C8.16764065,12.5450497 8.20158918,12.5232749 8.2339211,12.5015 C8.26786963,12.4797251 8.30020156,12.4579503 8.33415008,12.4376271 C8.36809861,12.4173038 8.40043054,12.395529 8.43437906,12.3752058 L8.53784123,12.3156878 C8.60573828,12.276493 8.67525193,12.2372983 8.74638217,12.1995551 C8.81589582,12.161812 8.88864266,12.1269722 8.9581563,12.0892291 C9.02928655,12.0529377 9.10203338,12.0195496 9.17478022,11.9861614 C9.24752706,11.9527733 9.3202739,11.9193852 9.39463734,11.8889003 C9.46900077,11.8584155 9.54336421,11.8293824 9.61772764,11.8003492 C9.69209108,11.771316 9.76968771,11.7466379 9.84566774,11.720508 L9.96044609,11.6827649 L10.076841,11.6479251 C10.1544377,11.6261502 10.2320343,11.6029237 10.3096309,11.5811488 L10.5440374,11.5187276 C10.621634,11.4969527 10.7008472,11.4780811 10.7784439,11.4577579 C10.8560405,11.4374347 10.9336371,11.4156598 11.0128504,11.3967883 C11.3248535,11.3154954 11.6384732,11.2443642 11.9537095,11.1775879 C12.2689458,11.113715 12.5857987,11.0571003 12.9042682,11.0062923 C13.2227377,10.9569359 13.5412072,10.9148378 13.8612933,10.8814497 C14.1813794,10.8480616 14.5014654,10.8204801 14.8247847,10.8088668 L14.8264013,10.8538682 C14.6695915,10.8770947 14.511165,10.9046762 14.3543552,10.9337094 Z" id="路径" stroke-width="0.6" fill="#38364D" fill-rule="nonzero" transform="translate(11.203609, 11.925918) rotate(3.000000) translate(-11.203609, -11.925918) "></path>
            </g>
        </g>
    </g>
</svg>