<?xml version="1.0" encoding="UTF-8"?>
<svg width="24px" height="24px" viewBox="0 0 24 24" version="1.1" xmlns="http://www.w3.org/2000/svg" xmlns:xlink="http://www.w3.org/1999/xlink">
  <title>left</title>
  <g id="left" stroke="none" stroke-width="1" fill="none" fill-rule="evenodd">
    <g id="返回" fill-rule="nonzero">
      <rect id="矩形" x="0" y="0" width="24" height="24"></rect>
      <path d="M9.2964296,2.90942116 L16.6909203,10.9883997 L16.6909203,10.9883997 C17.1792674,11.5226751 17.2123454,12.3221744 16.7898166,12.8923935 L16.6923011,13.0108937 L9.37191724,21.0417407 C9.19259201,21.2384699 8.8905733,21.2602081 8.68492281,21.091188 L7.14342511,19.8242611 C6.93008994,19.6489251 6.89928554,19.3338449 7.07462155,19.1205097 C7.07994997,19.1140265 7.08544076,19.1076785 7.09108871,19.1014716 L13.552222,12.001 L13.552222,12.001 L7.15666028,5.00407603 C6.97706356,4.80759218 6.98289901,4.50484592 7.16993399,4.31542892 L8.57181364,2.89569532 C8.76583637,2.69920157 9.08241252,2.69719842 9.27890627,2.89122115 C9.28489974,2.89713925 9.29074272,2.90320786 9.2964296,2.90942116 Z" fill="#49494D" transform="translate(12.022312, 11.975961) scale(-1, 1) translate(-12.022312, -11.975961) "></path>
    </g>
  </g>
</svg>