<?xml version="1.0" encoding="UTF-8"?>
<svg width="24px" height="24px" viewBox="0 0 24 24" version="1.1" xmlns="http://www.w3.org/2000/svg" xmlns:xlink="http://www.w3.org/1999/xlink">
    <title>icon/链接</title>
    <g id="S-2首页二级页面" stroke="none" stroke-width="1" fill="none" fill-rule="evenodd">
        <g id="通知详情-有链接" transform="translate(-30.000000, -357.000000)" fill="#FC6C37" fill-rule="nonzero">
            <g id="编组-4" transform="translate(16.000000, 343.000000)">
                <g id="icon/链接" transform="translate(14.000000, 14.000000)">
                    <g id="链接" transform="translate(6.500000, 6.500000)">
                        <path d="M6.79984143,3.98874558 C6.72055486,3.90948525 6.6360429,3.83803675 6.54895765,3.77178736 L6.54880009,3.77193178 C6.4591678,3.68572618 6.33746113,3.63263213 6.20328183,3.63263213 C5.92788604,3.63263213 5.70465212,3.85587918 5.70465212,4.13126184 C5.70465212,4.25311293 5.74842451,4.36472332 5.8210415,4.45133593 L5.82102838,4.45133593 C5.8210415,4.45134905 5.82106776,4.45137532 5.82109403,4.45138844 C5.85597803,4.49299452 5.89747907,4.5288632 5.94407421,4.55726142 C5.99108948,4.59603162 6.03723824,4.63421102 6.08039355,4.67736634 L6.12150074,4.71848665 C6.63828799,5.23463057 6.48400804,6.12389009 5.9672208,6.64069047 L3.76198005,8.84527478 C3.24520594,9.3614187 2.4050492,9.3614187 1.88824884,8.84527478 L1.84681344,8.80381311 C1.32999994,8.287039 1.32999994,7.44626519 1.84681344,6.93073835 L2.8210707,5.95680932 C2.94607276,5.85759278 3.02631776,5.70445508 3.02631776,5.53249025 C3.02631776,5.23338332 2.78384973,4.99091528 2.48474279,4.99091528 C2.37187201,4.99091528 2.26710187,5.02547105 2.18034484,5.08453883 C2.18006914,5.08396116 2.1797803,5.08340973 2.17949145,5.08281892 L2.16910634,5.09253445 C2.13075628,5.12010554 2.09608235,5.15244249 2.06613488,5.18888884 L1.05367197,6.13628398 C0.10195736,7.08865504 0.10195736,8.64626403 1.05367197,9.59730906 L1.09477916,9.6384031 C2.04649377,10.5894613 3.60343317,10.5894613 4.55514778,9.6384031 L6.75973208,7.43316236 C7.71013377,6.48150026 7.79072014,4.98025446 6.84033156,4.0291963 L6.79984143,3.98874558 Z M9.97765892,0.754893143 L9.93655173,0.713785958 C8.98485025,-0.237928653 7.42791084,-0.237928653 6.47619623,0.713785958 L4.27161195,2.91901358 C3.31989734,3.87072819 3.26748601,5.24505508 4.21920062,6.19738676 L4.25965135,6.23722042 C4.30287231,6.28042826 4.34773441,6.32116783 4.39352867,6.36024 C4.42667962,6.39726402 4.4656205,6.42895766 4.50890712,6.45402109 C4.50923535,6.45428367 4.50957671,6.45455938 4.50990493,6.45482196 L4.51004934,6.45469067 C4.57904271,6.49436678 4.65898575,6.51718515 4.74429856,6.51718515 C5.0042808,6.51718515 5.21502895,6.30641073 5.21502895,6.04645476 C5.21502895,5.97307628 5.19822372,5.90362339 5.16826313,5.8417066 L5.16826313,5.8417066 C5.10603125,5.70197369 4.98953683,5.61691032 4.90896361,5.53632397 L4.86849975,5.49651657 C4.35172564,4.97974246 4.54796614,4.22895544 5.06474026,3.71218132 L7.27062433,1.5075839 C7.78612493,0.990783524 8.6265705,0.990783524 9.14337087,1.5075839 L9.1845043,1.54803462 C9.70129155,2.06484812 9.70129155,2.90595014 9.1845043,3.42209407 L8.21343742,4.39381742 C8.08133251,4.49169479 7.9956652,4.64869244 7.9956652,4.82571197 C7.9956652,5.12239001 8.23617699,5.36291495 8.53286818,5.36291495 C8.63612847,5.36291495 8.73254851,5.33371585 8.81442151,5.28322137 C8.81503857,5.28427169 8.81561626,5.28524325 8.81623332,5.2863067 L8.83129239,5.272403 C8.87769059,5.24133958 8.9189028,5.20319957 8.95355047,5.15959786 L9.97696304,4.21526179 C10.9293735,3.26356028 10.9293735,1.70659462 9.97765892,0.754893143 Z" id="形状"></path>
                    </g>
                    <path d="M12,0 C18.627417,0 24,5.372583 24,12 C24,18.627417 18.627417,24 12,24 C5.372583,24 0,18.627417 0,12 C0,5.372583 5.372583,0 12,0 Z M12,1.1 C5.98009623,1.1 1.1,5.98009623 1.1,12 C1.1,18.0199038 5.98009623,22.9 12,22.9 C18.0199038,22.9 22.9,18.0199038 22.9,12 C22.9,5.98009623 18.0199038,1.1 12,1.1 Z" id="椭圆形"></path>
                </g>
            </g>
        </g>
    </g>
</svg>