<?xml version="1.0" encoding="UTF-8"?>
<svg width="70px" height="34px" viewBox="0 0 70 34" version="1.1" xmlns="http://www.w3.org/2000/svg" xmlns:xlink="http://www.w3.org/1999/xlink">
    <title>pic/title@2x</title>
    <g id="1⃣️首页" stroke="none" stroke-width="1" fill="none" fill-rule="evenodd">
        <g id="0.1.1通知列表" transform="translate(-152.000000, -49.000000)">
            <g id="pic/title" transform="translate(152.000000, 49.000000)">
                <rect id="矩形" x="0" y="0" width="70" height="34"></rect>
                <path d="M21.9735,22.46 L22.2335,20.484 L23.9755,20.484 L23.7155,22.46 L27.1735,22.46 L27.4335,20.484 L29.1495,20.484 L29.0455,21.238 L27.6415,22.46 L30.5795,22.46 C31.0821667,22.46 31.5241667,22.2866667 31.9055,21.94 C32.2868333,21.5933333 32.5121667,21.1686667 32.5815,20.666 L32.5815,20.666 L33.7515,12.32 L32.0355,12.32 L33.4395,11.098 L33.8555,8.134 L21.0115,8.134 L20.6735,10.604 L29.0715,10.604 L27.1215,12.32 L25.9775,12.32 L25.5355,11.098 L21.0895,11.098 L21.5315,12.32 L19.9195,12.32 L18.5155,22.46 L21.9735,22.46 Z M18.6195,11.098 L17.5535,8.134 L13.6015,8.134 L14.6675,11.098 L18.6195,11.098 Z M15.5515,25.918 L15.9675,25.164 L18.5155,25.918 L32.3475,25.918 L32.6855,23.448 L20.5955,23.448 L17.0335,22.382 L18.4895,12.086 L13.0555,12.086 L12.6915,14.556 L13.6795,14.556 L12.4315,23.448 L11.1055,25.918 L15.5515,25.918 Z M24.6775,15.544 L22.9095,15.544 L23.0655,14.556 L24.8075,14.556 L24.6775,15.544 Z M29.8255,15.544 L28.1355,15.544 L28.2655,14.556 L29.9815,14.556 L29.8255,15.544 Z M24.2615,18.508 L22.5195,18.508 L22.6495,17.52 L24.3915,17.52 L24.2615,18.508 Z M29.4095,18.508 L27.7195,18.508 L27.8495,17.52 L29.5655,17.52 L29.4095,18.508 Z M40.8625,26.36 L42.6305,22.356 L43.5665,26.36 L48.0125,26.36 L46.1665,18.508 L44.3205,18.508 L44.7625,17.52 L48.7665,17.52 L49.1305,15.05 L45.8545,15.05 L47.3625,11.592 L49.1045,11.592 L49.4685,9.122 L43.4885,9.122 L44.2425,7.64 L39.3025,7.64 L39.9265,8.368 L37.5345,13.074 L41.4865,13.074 L42.2405,11.592 L42.6825,11.592 L41.1485,15.05 L37.2745,15.05 L36.9105,17.52 L40.0565,17.52 L36.1565,26.36 L40.8625,26.36 Z M57.3985,26.36 L59.8945,8.628 L50.0145,8.628 L50.8725,9.616 L48.5065,26.36 L57.3985,26.36 Z M53.8105,23.942 L52.8225,23.942 L54.6165,11.098 L55.6045,11.098 L53.8105,23.942 Z" id="通知" fill="#38364D" fill-rule="nonzero"></path>
            </g>
        </g>
    </g>
</svg>