<?xml version="1.0" encoding="UTF-8"?>
<svg width="44px" height="44px" viewBox="0 0 44 44" version="1.1" xmlns="http://www.w3.org/2000/svg" xmlns:xlink="http://www.w3.org/1999/xlink">
    <title>ic/44/message@2x</title>
    <defs>
        <linearGradient x1="50%" y1="0%" x2="50%" y2="100%" id="linearGradient-1">
            <stop stop-color="#8DACCF" offset="0%"></stop>
            <stop stop-color="#6F89A6" offset="100%"></stop>
        </linearGradient>
    </defs>
    <g id="1⃣️首页" stroke="none" stroke-width="1" fill="none" fill-rule="evenodd">
        <g id="首页" transform="translate(-20.000000, -240.000000)">
            <g id="通知" transform="translate(16.000000, 240.000000)">
                <g id="ic/44/message" transform="translate(4.000000, 0.000000)">
                    <rect id="矩形" x="0" y="0" width="44" height="44"></rect>
                    <g id="编组-2" transform="translate(1.069648, 10.000000)">
                        <path d="M9.00186211,7 L39.8607048,7 C40.9652743,7 41.8607048,7.8954305 41.8607048,9 C41.8607048,9.2920327 41.7967515,9.58052255 41.6733389,9.84519677 L37.2657765,19.297786 C36.6388281,20.3531338 35.5021433,21 34.274616,21 L4.18368029,21 C3.07911079,21 2.18368029,20.1045695 2.18368029,19 C2.18368029,18.6994054 2.25143748,18.4026769 2.38191414,18.1318763 L7.20009596,8.13187631 C7.53350351,7.43989838 8.23375141,7 9.00186211,7 Z" id="矩形" fill="#738DA9" opacity="0.300000012"></path>
                        <path d="M10.3396566,3 L37.3108865,3 C38.9677407,3 40.3108865,4.34314575 40.3108865,6 C40.3108865,6.20549651 40.2897722,6.41044923 40.2478763,6.61162961 L37.8994545,17.8885377 L37.8994545,17.8885377 L37.8640929,18.0223031 C37.4001169,19.7774261 35.8123515,21 33.9969368,21 L7.72427199,21 C6.06741774,21 4.72427199,19.6568542 4.72427199,18 C4.72427199,17.785201 4.7473411,17.5710232 4.79308247,17.361151 L7.40846709,5.361151 C7.70887035,3.98283014 8.92897927,3 10.3396566,3 Z" id="矩形" fill="#738DA9" opacity="0.550000012"></path>
                        <path d="M34,1.24344979e-14 C36.209139,1.20286856e-14 38,1.790861 38,4 L38,17 C38,19.209139 36.209139,21 34,21 L13.655,21 L6.28692436,25.1673571 C6.23687506,25.1956558 6.1825132,25.2150033 6.12627936,25.2247573 L6.04082969,25.232113 C5.76468732,25.232113 5.54082969,25.0082554 5.54082969,24.732113 L5.54082969,24.732113 L5.54,21 L4,21 C1.790861,21 2.705415e-16,19.209139 0,17 L0,4 C-2.705415e-16,1.790861 1.790861,1.28403101e-14 4,1.24344979e-14 L34,1.24344979e-14 Z" id="形状结合" fill="url(#linearGradient-1)"></path>
                        <path d="M11.6,13.885 L11.75,12.745 L12.755,12.745 L12.605,13.885 L14.6,13.885 L14.75,12.745 L15.74,12.745 L15.68,13.18 L14.87,13.885 L16.565,13.885 C16.855,13.885 17.11,13.785 17.33,13.585 C17.55,13.385 17.68,13.14 17.72,12.85 L17.72,12.85 L18.395,8.035 L17.405,8.035 L18.215,7.33 L18.455,5.62 L11.045,5.62 L10.85,7.045 L15.695,7.045 L14.57,8.035 L13.91,8.035 L13.655,7.33 L11.09,7.33 L11.345,8.035 L10.415,8.035 L9.605,13.885 L11.6,13.885 Z M9.665,7.33 L9.05,5.62 L6.77,5.62 L7.385,7.33 L9.665,7.33 Z M7.895,15.88 L8.135,15.445 L9.605,15.88 L17.585,15.88 L17.78,14.455 L10.805,14.455 L8.75,13.84 L9.59,7.9 L6.455,7.9 L6.245,9.325 L6.815,9.325 L6.095,14.455 L5.33,15.88 L7.895,15.88 Z M13.16,9.895 L12.14,9.895 L12.23,9.325 L13.235,9.325 L13.16,9.895 Z M16.13,9.895 L15.155,9.895 L15.23,9.325 L16.22,9.325 L16.13,9.895 Z M12.92,11.605 L11.915,11.605 L11.99,11.035 L12.995,11.035 L12.92,11.605 Z M15.89,11.605 L14.915,11.605 L14.99,11.035 L15.98,11.035 L15.89,11.605 Z M21.56,16.135 L22.58,13.825 L23.12,16.135 L25.685,16.135 L24.62,11.605 L23.555,11.605 L23.81,11.035 L26.12,11.035 L26.33,9.61 L24.44,9.61 L25.31,7.615 L26.315,7.615 L26.525,6.19 L23.075,6.19 L23.51,5.335 L20.66,5.335 L21.02,5.755 L19.64,8.47 L21.92,8.47 L22.355,7.615 L22.61,7.615 L21.725,9.61 L19.49,9.61 L19.28,11.035 L21.095,11.035 L18.845,16.135 L21.56,16.135 Z M31.1,16.135 L32.54,5.905 L26.84,5.905 L27.335,6.475 L25.97,16.135 L31.1,16.135 Z M29.03,14.74 L28.46,14.74 L29.495,7.33 L30.065,7.33 L29.03,14.74 Z" id="通知" fill="#FFFFFF" fill-rule="nonzero"></path>
                    </g>
                </g>
            </g>
        </g>
    </g>
</svg>