<?xml version="1.0" encoding="UTF-8"?>
<svg width="14px" height="15px" viewBox="0 0 14 15" version="1.1" xmlns="http://www.w3.org/2000/svg" xmlns:xlink="http://www.w3.org/1999/xlink">
    <title>ICON/14/提示@2x</title>
    <g id="4⃣️个人中心" stroke="none" stroke-width="1" fill="none" fill-rule="evenodd">
        <g id="0.1.1健康档案备份-2" transform="translate(-20.000000, -987.000000)">
            <g id="编组-14" transform="translate(20.000000, 986.000000)">
                <g id="ICON/14/提示" transform="translate(0.000000, 1.500000)">
                    <rect id="矩形" x="0" y="0" width="14" height="14"></rect>
                    <path d="M7,1 C10.3137085,1 13,3.6862915 13,7 C13,10.3137085 10.3137085,13 7,13 C3.6862915,13 1,10.3137085 1,7 C1,3.6862915 3.6862915,1 7,1 Z M7,2.05882353 C4.27106359,2.05882353 2.05882353,4.27106359 2.05882353,7 C2.05882353,9.72893641 4.27106359,11.9411765 7,11.9411765 C9.72893641,11.9411765 11.9411765,9.72893641 11.9411765,7 C11.9411765,4.27106359 9.72893641,2.05882353 7,2.05882353 Z M7,8.6 C7.4418278,8.6 7.8,8.9581722 7.8,9.4 C7.8,9.8418278 7.4418278,10.2 7,10.2 C6.5581722,10.2 6.2,9.8418278 6.2,9.4 C6.2,8.9581722 6.5581722,8.6 7,8.6 Z M7.216,3.5993422 C7.42807734,3.5993422 7.6,3.77126485 7.6,3.9833422 L7.6,7.34886021 C7.6,7.56093756 7.42807734,7.73286021 7.216,7.73286021 L6.784,7.73286021 C6.57192266,7.73286021 6.4,7.56093756 6.4,7.34886021 L6.4,3.9833422 C6.4,3.77126485 6.57192266,3.5993422 6.784,3.5993422 L7.216,3.5993422 Z" id="形状结合" fill="#FC6C37" fill-rule="nonzero"></path>
                </g>
            </g>
        </g>
    </g>
</svg>