<?xml version="1.0" encoding="UTF-8"?>
<svg width="22px" height="22px" viewBox="0 0 22 22" version="1.1" xmlns="http://www.w3.org/2000/svg" xmlns:xlink="http://www.w3.org/1999/xlink">
    <title>ICON/22/二维码</title>
    <g id="ICON/22/二维码" stroke="none" stroke-width="1" fill="none" fill-rule="evenodd">
        <g id="编组-6" transform="translate(2.000000, 2.000000)" fill="#38364D">
            <path d="M1.5465794,10.5 L1.5465794,11.7947283 C1.5465794,12.0708706 1.32272178,12.2947283 1.0465794,12.2947283 L0.646579403,12.2947283 C0.370437028,12.2947283 0.146579403,12.0708706 0.146579403,11.7947283 L0.146579403,10.5 C0.146579403,10.2238576 0.370437028,10 0.646579403,10 L1.0465794,10 C1.32272178,10 1.5465794,10.2238576 1.5465794,10.5 Z" id="路径-7备份-4" fill-rule="nonzero" transform="translate(0.846579, 11.147364) scale(-1, 1) translate(-0.846579, -11.147364) "></path>
            <path d="M4.7,10.5 L4.7,11.7947283 C4.7,12.0708706 4.47614237,12.2947283 4.2,12.2947283 L3.8,12.2947283 C3.52385763,12.2947283 3.3,12.0708706 3.3,11.7947283 L3.3,10.5 C3.3,10.2238576 3.52385763,10 3.8,10 L4.2,10 C4.47614237,10 4.7,10.2238576 4.7,10.5 Z" id="路径-7备份-6" fill-rule="nonzero" transform="translate(4.000000, 11.147364) scale(-1, 1) translate(-4.000000, -11.147364) "></path>
            <path d="M7.9,10.5 L7.9,11.7947283 C7.9,12.0708706 7.67614237,12.2947283 7.4,12.2947283 L7,12.2947283 C6.72385763,12.2947283 6.5,12.0708706 6.5,11.7947283 L6.5,10.5 C6.5,10.2238576 6.72385763,10 7,10 L7.4,10 C7.67614237,10 7.9,10.2238576 7.9,10.5 Z" id="路径-7备份-8" fill-rule="nonzero" transform="translate(7.200000, 11.147364) scale(-1, 1) translate(-7.200000, -11.147364) "></path>
            <path d="M1.5465794,14.2 L1.5465794,17.5 C1.5465794,17.7761424 1.32272178,18 1.0465794,18 L0.646579403,18 C0.370437028,18 0.146579403,17.7761424 0.146579403,17.5 L0.146579403,14.2 C0.146579403,13.9238576 0.370437028,13.7 0.646579403,13.7 L1.0465794,13.7 C1.32272178,13.7 1.5465794,13.9238576 1.5465794,14.2 Z" id="路径-7备份-5" fill-rule="nonzero" transform="translate(0.846579, 15.850000) scale(-1, 1) translate(-0.846579, -15.850000) "></path>
            <path d="M4.7,14.2 L4.7,17.5 C4.7,17.7761424 4.47614237,18 4.2,18 L3.8,18 C3.52385763,18 3.3,17.7761424 3.3,17.5 L3.3,14.2 C3.3,13.9238576 3.52385763,13.7 3.8,13.7 L4.2,13.7 C4.47614237,13.7 4.7,13.9238576 4.7,14.2 Z" id="路径-7备份-7" fill-rule="nonzero" transform="translate(4.000000, 15.850000) scale(-1, 1) translate(-4.000000, -15.850000) "></path>
            <path d="M7.9,14.2 L7.9,17.5 C7.9,17.7761424 7.67614237,18 7.4,18 L7,18 C6.72385763,18 6.5,17.7761424 6.5,17.5 L6.5,14.2 C6.5,13.9238576 6.72385763,13.7 7,13.7 L7.4,13.7 C7.67614237,13.7 7.9,13.9238576 7.9,14.2 Z" id="路径-7备份-9" fill-rule="nonzero" transform="translate(7.200000, 15.850000) scale(-1, 1) translate(-7.200000, -15.850000) "></path>
            <path d="M6.5,0 C7.32842712,0 8,0.671572875 8,1.5 L8,6.5 C8,7.32842712 7.32842712,8 6.5,8 L1.5,8 C0.671572875,8 0,7.32842712 0,6.5 L0,1.5 C0,0.671572875 0.671572875,0 1.5,0 L6.5,0 Z M6,1.5 L2,1.5 C1.72385763,1.5 1.5,1.72385763 1.5,2 L1.5,6 C1.5,6.27614237 1.72385763,6.5 2,6.5 L6,6.5 C6.27614237,6.5 6.5,6.27614237 6.5,6 L6.5,2 C6.5,1.72385763 6.27614237,1.5 6,1.5 Z" id="矩形" fill-rule="nonzero"></path>
            <path d="M16.5,0 C17.3284271,0 18,0.671572875 18,1.5 L18,6.5 C18,7.32842712 17.3284271,8 16.5,8 L11.5,8 C10.6715729,8 10,7.32842712 10,6.5 L10,1.5 C10,0.671572875 10.6715729,0 11.5,0 L16.5,0 Z M16,1.5 L12,1.5 C11.7238576,1.5 11.5,1.72385763 11.5,2 L11.5,6 C11.5,6.27614237 11.7238576,6.5 12,6.5 L16,6.5 C16.2761424,6.5 16.5,6.27614237 16.5,6 L16.5,2 C16.5,1.72385763 16.2761424,1.5 16,1.5 Z" id="矩形备份-15" fill-rule="nonzero"></path>
            <path d="M16.5,10 C17.3284271,10 18,10.6715729 18,11.5 L18,16.5 C18,17.3284271 17.3284271,18 16.5,18 L11.5,18 C10.6715729,18 10,17.3284271 10,16.5 L10,11.5 C10,10.6715729 10.6715729,10 11.5,10 L16.5,10 Z M16,11.5 L12,11.5 C11.7238576,11.5 11.5,11.7238576 11.5,12 L11.5,16 C11.5,16.2761424 11.7238576,16.5 12,16.5 L16,16.5 C16.2761424,16.5 16.5,16.2761424 16.5,16 L16.5,12 C16.5,11.7238576 16.2761424,11.5 16,11.5 Z" id="矩形备份-16" fill-rule="nonzero"></path>
            <rect id="矩形备份-6" x="3" y="3" width="2" height="2"></rect>
            <rect id="矩形备份-17" x="13" y="3" width="2" height="2"></rect>
            <rect id="矩形备份-18" x="13" y="13" width="2" height="2"></rect>
        </g>
    </g>
</svg>