<?xml version="1.0" encoding="UTF-8"?>
<svg width="24px" height="24px" viewBox="0 0 24 24" version="1.1" xmlns="http://www.w3.org/2000/svg" xmlns:xlink="http://www.w3.org/1999/xlink">
    <title>ic/code/orange</title>
    <g id="2⃣️课程" stroke="none" stroke-width="1" fill="none" fill-rule="evenodd">
        <g id="页面向上滑动时" transform="translate(-335.000000, -54.000000)">
            <g id="学期" transform="translate(0.000000, 44.000000)">
                <g id="ic/code/orange" transform="translate(335.000000, 10.000000)">
                    <rect id="矩形" x="0" y="0" width="24" height="24"></rect>
                    <path d="M7.2,16.7 C7.47614237,16.7 7.7,16.9238576 7.7,17.2 L7.7,17.2 L7.7,20.5 C7.7,20.7761424 7.47614237,21 7.2,21 L7.2,21 L6.8,21 C6.52385763,21 6.3,20.7761424 6.3,20.5 L6.3,20.5 L6.3,17.2 C6.3,16.9238576 6.52385763,16.7 6.8,16.7 L6.8,16.7 Z M10.4,16.7 C10.6761424,16.7 10.9,16.9238576 10.9,17.2 L10.9,17.2 L10.9,20.5 C10.9,20.7761424 10.6761424,21 10.4,21 L10.4,21 L10,21 C9.72385763,21 9.5,20.7761424 9.5,20.5 L9.5,20.5 L9.5,17.2 C9.5,16.9238576 9.72385763,16.7 10,16.7 L10,16.7 Z M19.5,13 C20.3284271,13 21,13.6715729 21,14.5 L21,19.5 C21,20.3284271 20.3284271,21 19.5,21 L14.5,21 C13.6715729,21 13,20.3284271 13,19.5 L13,14.5 C13,13.6715729 13.6715729,13 14.5,13 L19.5,13 Z M4.0465794,16.7 C4.32272178,16.7 4.5465794,16.9238576 4.5465794,17.2 L4.5465794,17.2 L4.5465794,20.5 C4.5465794,20.7761424 4.32272178,21 4.0465794,21 L4.0465794,21 L3.6465794,21 C3.37043703,21 3.1465794,20.7761424 3.1465794,20.5 L3.1465794,20.5 L3.1465794,17.2 C3.1465794,16.9238576 3.37043703,16.7 3.6465794,16.7 L3.6465794,16.7 Z M19,14.5 L15,14.5 C14.7238576,14.5 14.5,14.7238576 14.5,15 L14.5,19 C14.5,19.2761424 14.7238576,19.5 15,19.5 L19,19.5 C19.2761424,19.5 19.5,19.2761424 19.5,19 L19.5,15 C19.5,14.7238576 19.2761424,14.5 19,14.5 Z M18,16 L18,18 L16,18 L16,16 L18,16 Z M4.0465794,13 C4.32272178,13 4.5465794,13.2238576 4.5465794,13.5 L4.5465794,13.5 L4.5465794,14.7947283 C4.5465794,15.0708706 4.32272178,15.2947283 4.0465794,15.2947283 L4.0465794,15.2947283 L3.6465794,15.2947283 C3.37043703,15.2947283 3.1465794,15.0708706 3.1465794,14.7947283 L3.1465794,14.7947283 L3.1465794,13.5 C3.1465794,13.2238576 3.37043703,13 3.6465794,13 L3.6465794,13 Z M7.2,13 C7.47614237,13 7.7,13.2238576 7.7,13.5 L7.7,13.5 L7.7,14.7947283 C7.7,15.0708706 7.47614237,15.2947283 7.2,15.2947283 L7.2,15.2947283 L6.8,15.2947283 C6.52385763,15.2947283 6.3,15.0708706 6.3,14.7947283 L6.3,14.7947283 L6.3,13.5 C6.3,13.2238576 6.52385763,13 6.8,13 L6.8,13 Z M10.4,13 C10.6761424,13 10.9,13.2238576 10.9,13.5 L10.9,13.5 L10.9,14.7947283 C10.9,15.0708706 10.6761424,15.2947283 10.4,15.2947283 L10.4,15.2947283 L10,15.2947283 C9.72385763,15.2947283 9.5,15.0708706 9.5,14.7947283 L9.5,14.7947283 L9.5,13.5 C9.5,13.2238576 9.72385763,13 10,13 L10,13 Z M9.5,3 C10.3284271,3 11,3.67157288 11,4.5 L11,9.5 C11,10.3284271 10.3284271,11 9.5,11 L4.5,11 C3.67157288,11 3,10.3284271 3,9.5 L3,4.5 C3,3.67157288 3.67157288,3 4.5,3 L9.5,3 Z M19.5,3 C20.3284271,3 21,3.67157288 21,4.5 L21,9.5 C21,10.3284271 20.3284271,11 19.5,11 L14.5,11 C13.6715729,11 13,10.3284271 13,9.5 L13,4.5 C13,3.67157288 13.6715729,3 14.5,3 L19.5,3 Z M9,4.5 L5,4.5 C4.72385763,4.5 4.5,4.72385763 4.5,5 L4.5,9 C4.5,9.27614237 4.72385763,9.5 5,9.5 L9,9.5 C9.27614237,9.5 9.5,9.27614237 9.5,9 L9.5,5 C9.5,4.72385763 9.27614237,4.5 9,4.5 Z M19,4.5 L15,4.5 C14.7238576,4.5 14.5,4.72385763 14.5,5 L14.5,9 C14.5,9.27614237 14.7238576,9.5 15,9.5 L19,9.5 C19.2761424,9.5 19.5,9.27614237 19.5,9 L19.5,5 C19.5,4.72385763 19.2761424,4.5 19,4.5 Z M8,6 L8,8 L6,8 L6,6 L8,6 Z M18,6 L18,8 L16,8 L16,6 L18,6 Z" id="形状结合" fill="#FFFFFF" fill-rule="nonzero"></path>
                </g>
            </g>
        </g>
    </g>
</svg>