<?xml version="1.0" encoding="UTF-8"?>
<svg width="18px" height="18px" viewBox="0 0 18 18" version="1.1" xmlns="http://www.w3.org/2000/svg" xmlns:xlink="http://www.w3.org/1999/xlink" style="background: transparent;">
    <title>ICON/18/学校</title>
    <g id="ICON/18/学校" stroke="none" stroke-width="1" fill="none" fill-rule="evenodd">
        <rect fill="transparent" x="0" y="0" width="18" height="18"></rect>
        <g id="编组-14" transform="translate(2.000000, 2.500000)">
            <path d="M11,9.5 C12.1045695,9.5 13,10.3954305 13,11.5 L13,12.5 L13,12.5 L11,12.5 L11,9.5 Z" id="矩形" fill="#FC6C37"></path>
            <path d="M4,9.5 L4,9.5 L4,9.5 L4,12.5 L2,12.5 L2,11.5 C2,10.3954305 2.8954305,9.5 4,9.5 Z" id="矩形" fill="#FC6C37"></path>
            <path d="M8,2.5 C9.1045695,2.5 10,3.3954305 10,4.5 L10,12.5 L10,12.5 L6,12.5 L6,4.5 C6,3.3954305 6.8954305,2.5 8,2.5 Z" id="矩形备份-2" fill="#FC6C37"></path>
            <g id="学校-(1)" transform="translate(0.000000, 0.500000)" fill="#222222" fill-rule="nonzero">
                <path d="M3.42499653,3.70443209 L3.16114821,3.90179743 C2.9550249,4.05598297 2.66293687,4.0138791 2.50875133,3.80775579 C2.50765527,3.80629052 2.50656785,3.80481881 2.50548912,3.80334073 C2.35252089,3.59374265 2.39842845,3.29982458 2.60802652,3.14685635 C2.60850266,3.14650886 2.60897946,3.14616226 2.6094569,3.14581656 L6.71774306,0.171153846 L6.71774306,0.171153846 C7.03139815,-0.0549278846 7.44936921,-0.0571965144 7.74928704,0.165324519 L7.75724653,0.171319111 L11.664559,2.98945312 L11.8780048,3.1565597 C12.0814989,3.31587518 12.1173128,3.60999048 11.9579973,3.81348462 C11.9574931,3.81412859 11.9569873,3.81477123 11.9564797,3.81541255 C11.7951025,4.01932832 11.4991796,4.0542781 11.2947384,3.89356707 L11.0333067,3.68805589 L11.0333067,3.68805589 L11.0333067,5.40398137 L12.6316447,5.40398137 C13.1148565,5.40398137 13.513147,5.79190204 13.5288102,6.27059796 L13.5291713,6.28514123 L13.5292917,6.29986478 L13.5292766,12.0448468 L13.5326132,12.044855 C13.7901388,12.0454879 13.9983915,12.2547667 13.9977586,12.5122923 C13.9977577,12.512657 13.9977564,12.5130217 13.9977546,12.5133864 C13.9965128,12.7718772 13.7866148,12.9807692 13.5281211,12.9807692 L0.87792661,12.9807692 C0.619079145,12.9807692 0.408562755,12.7722224 0.40612963,12.5133864 C0.403721594,12.2572194 0.609433907,12.0476029 0.865600941,12.0451948 C0.866780211,12.0451838 0.867959519,12.0451772 0.869138839,12.0451751 L0.927221065,12.0450721 L0.927221065,12.0450721 L0.929041667,6.29987981 C0.929041667,5.81760817 1.31773264,5.42008714 1.79736343,5.40444712 L1.81192824,5.40410156 L1.82668866,5.40398137 L3.42501157,5.40398137 L3.42499653,3.70443209 Z M7.97359722,10.4897686 L6.43545949,10.4897686 L6.43545949,12.0247897 L7.97359722,12.0247897 L7.97359722,10.4897686 L7.97359722,10.4897686 Z M3.42499653,6.34356971 L1.8868588,6.34356971 L1.8868588,12.0247897 L3.42499653,12.0247897 L3.42499653,6.34356971 Z M7.21260069,0.949654447 L4.36639815,3.00378606 C4.37407176,4.97061298 4.37462847,5.96694712 4.36805324,5.99281851 L4.36639815,12.0247897 L5.49404282,12.0247897 L5.49404282,10.2821815 C5.49404282,9.84442608 5.88289931,9.53993389 6.3767037,9.53387921 L6.39168981,9.53378906 L8.05021296,9.53378906 C8.53560648,9.53378906 8.93970486,9.8378756 8.94772454,10.2690655 L8.94785995,10.2821815 L8.94784491,12.0247897 L10.09189,12.0247897 L10.09189,3.04393029 L7.21260069,0.949654447 Z M11.0332917,6.34355469 L11.0332917,12.0247746 L12.5714444,12.0247746 L12.5714444,6.34355469 L11.0332917,6.34355469 Z M7.21273611,3.74878305 C8.16554282,3.74878305 8.93144444,4.51316106 8.93144444,5.46407752 C8.93144444,6.40420673 8.15999074,7.17938702 7.21273611,7.17938702 C6.25994444,7.17938702 5.49404282,6.41502404 5.49404282,5.46409255 C5.49404282,4.51316106 6.25994444,3.74878305 7.21273611,3.74878305 L7.21273611,3.74878305 Z M7.21273611,4.67201022 C6.78617361,4.67201022 6.43545949,5.02201022 6.43545949,5.44770132 C6.43545949,5.8733774 6.78618866,6.22339243 7.21275116,6.22339243 C7.63931366,6.22339243 7.99002778,5.8733774 7.99002778,5.44770132 C7.99002778,5.02202524 7.63929861,4.67201022 7.21273611,4.67201022 Z" id="形状"></path>
            </g>
        </g>
    </g>
</svg>