<?xml version="1.0" encoding="UTF-8"?>
<svg width="24px" height="24px" viewBox="0 0 24 24" version="1.1" xmlns="http://www.w3.org/2000/svg" xmlns:xlink="http://www.w3.org/1999/xlink">
    <title>ic/activity/mine@2x</title>
    <g id="3⃣️活动" stroke="none" stroke-width="1" fill="none" fill-rule="evenodd">
        <g id="活动" transform="translate(-335.000000, -54.000000)">
            <g id="ic/activity/mine" transform="translate(335.000000, 54.000000)">
                <rect id="矩形" x="0" y="0" width="24" height="24"></rect>
                <path d="M12,4 C15.3137085,4 18,6.6862915 18,10 C18,11.8738457 17.141002,13.5470616 15.7953019,14.6473517 C18.7745532,15.7197908 20.8897557,18.0216716 20.9958213,20.7820994 L21,21 L19,21 C19,18.3112915 15.918278,16 12,16 C8.17077377,16 5.14051038,18.2074266 5.00474904,20.8172865 L5,21 L3,21 C3,18.142962 5.14767105,15.7475927 8.20443497,14.6474085 C6.85899804,13.5470616 6,11.8738457 6,10 C6,6.6862915 8.6862915,4 12,4 Z M12,6 C9.790861,6 8,7.790861 8,10 C8,12.209139 9.790861,14 12,14 C14.209139,14 16,12.209139 16,10 C16,7.790861 14.209139,6 12,6 Z" id="形状结合" fill="#38364D" fill-rule="nonzero"></path>
            </g>
        </g>
    </g>
</svg>