<?xml version="1.0" encoding="UTF-8"?>
<svg width="24px" height="24px" viewBox="0 0 24 24" version="1.1" xmlns="http://www.w3.org/2000/svg" xmlns:xlink="http://www.w3.org/1999/xlink">
    <title>ic/check/right@2x</title>
    <g id="2⃣️课程" stroke="none" stroke-width="1" fill="none" fill-rule="evenodd">
        <g id="课程-已开始" transform="translate(-52.000000, -317.000000)">
            <g id="编组" transform="translate(28.000000, 265.000000)">
                <g id="ic/check/right" transform="translate(24.000000, 52.000000)">
                    <circle id="椭圆形" fill="#4ABA5D" cx="12" cy="12" r="12"></circle>
                    <path d="M10.2409051,16.9459741 L10.2346226,16.9396736 L8.55398008,15.2239778 L5.35293454,11.970814 C5.16166717,11.7764283 5.1614403,11.4646306 5.35242459,11.2699668 L6.70792246,9.88835355 C6.90131276,9.69123734 7.21788084,9.6882169 7.41499705,9.8816072 L7.42123345,9.88783453 L10.6133351,13.1321512 L16.5975504,7.05925054 C16.7913475,6.8625343 17.1079211,6.86016791 17.3046374,7.05396506 C17.3067502,7.05604655 17.3088445,7.0581468 17.31092,7.06026555 L18.6478483,8.42507831 C18.8386578,8.61986752 18.8382142,8.93161941 18.6468512,9.12586485 L12.6557827,15.2077254 L10.9562391,16.9400128 C10.8488,17.0495218 10.7033432,17.0991247 10.5614716,17.0884245 C10.4394396,17.0794899 10.3283346,17.0321062 10.2409051,16.9459741 Z" id="形状结合" fill="#FFFFFF"></path>
                </g>
            </g>
        </g>
    </g>
</svg>