<?xml version="1.0" encoding="UTF-8"?>
<svg width="16px" height="16px" viewBox="0 0 16 16" version="1.1" xmlns="http://www.w3.org/2000/svg" xmlns:xlink="http://www.w3.org/1999/xlink">
    <title>jinggao</title>
    <g id="页面-1" stroke="none" stroke-width="1" fill="none" fill-rule="evenodd">
        <g id="选课-所选课程选课时间已结束" transform="translate(-44.000000, -446.000000)" fill="#FF9900" fill-rule="nonzero">
            <g id="警告提示-组件" transform="translate(32.000000, 434.000000)">
                <g id="jinggao" transform="translate(12.000000, 12.000000)">
                    <path d="M8,15.9952096 C12.4185185,15.9952096 16,12.4148004 16,7.99760479 C16,3.58040919 12.4185185,0 8,0 C3.58148149,0 0,3.58040919 0,7.99760479 C0,12.4148004 3.58148149,15.9952096 8,15.9952096 Z M8,14.8103792 C5.5652928,14.8103792 3.3155252,13.5118871 2.09816797,11.4040022 C0.880810747,9.29611725 0.880810747,6.69909233 2.09816797,4.59120743 C3.3155252,2.48332252 5.5652928,1.18483034 8,1.18483034 C11.7637183,1.18483034 14.8148148,4.23501335 14.8148148,7.99760479 C14.8148148,11.7601962 11.7637183,14.8103792 8,14.8103792 L8,14.8103792 Z" id="形状"></path>
                    <path d="M7.24866785,11.3173653 C7.24866785,11.7340592 7.58505071,12.0718563 8,12.0718563 C8.41494929,12.0718563 8.75133215,11.7340592 8.75133215,11.3173653 C8.75133215,10.9006714 8.41494929,10.5628743 8,10.5628743 C7.58505071,10.5628743 7.24866785,10.9006714 7.24866785,11.3173653 Z" id="路径"></path>
                    <path d="M7.39893428,4.19757293 L7.39893428,9.08146896 C7.39893428,9.28725968 7.51349675,9.47741815 7.69946713,9.58031351 C7.88543752,9.68320887 8.11456248,9.68320887 8.30053287,9.58031351 C8.48650325,9.47741815 8.60106572,9.28725968 8.60106572,9.08146896 L8.60106572,4.19757293 C8.60106572,3.87944806 8.33195943,3.62155689 8,3.62155689 C7.66804057,3.62155689 7.39893428,3.87944806 7.39893428,4.19757293 L7.39893428,4.19757293 Z" id="路径"></path>
                </g>
            </g>
        </g>
    </g>
</svg>