<?xml version="1.0" encoding="UTF-8"?>
<svg width="14px" height="14px" viewBox="0 0 14 14" version="1.1" xmlns="http://www.w3.org/2000/svg" xmlns:xlink="http://www.w3.org/1999/xlink">
    <title>ic/hint@2x</title>
    <g id="AI运动" stroke="none" stroke-width="1" fill="none" fill-rule="evenodd">
        <g id="上传记录" transform="translate(-40.000000, -473.000000)" fill-rule="nonzero">
            <g id="编组-12备份-2" transform="translate(16.000000, 402.000000)">
                <g id="tips" transform="translate(12.000000, 58.000000)">
                    <g id="ic/hint" transform="translate(12.000000, 13.000000)">
                        <rect id="矩形" fill="#000000" opacity="0" x="0" y="0" width="14" height="14"></rect>
                        <path d="M7,0.999999998 C10.3137085,0.999999998 13,3.6862915 13,7 C13,10.3137085 10.3137085,13 7,13 C3.6862915,13 0.999999998,10.3137085 0.999999998,7 C0.999999998,3.6862915 3.6862915,0.999999998 7,0.999999998 Z M7,2.0179999 C5.21974555,2.01835724 3.57491319,2.9684418 2.68509535,4.51036601 C1.79527752,6.05229022 1.79565872,7.95179911 2.68609536,9.49336605 C3.57653199,11.034933 5.22174555,11.9843573 7.002,11.9840001 C9.75403486,11.9834476 11.9845522,9.75203486 11.984,7 C11.9834476,4.24796514 9.75203486,2.01744779 7,2.0179999 Z M7.37499999,6.14299999 C7.45199999,6.14299999 7.51499999,6.19099999 7.51499999,6.25 L7.51499999,9.893 C7.51499999,9.95200001 7.45199999,9.99999999 7.37499999,9.99999999 L6.539,9.99999999 C6.463,9.99999999 6.4,9.952 6.4,9.893 L6.4,6.25 C6.4,6.19099999 6.463,6.14299999 6.54,6.14299999 L7.37499999,6.14299999 Z M7,4.00000001 C7.35511909,4.00000001 7.643,4.28788091 7.643,4.643 C7.643,4.9981191 7.35511909,5.286 7,5.286 C6.64488091,5.286 6.357,4.9981191 6.357,4.643 C6.357,4.28788091 6.64488091,4.00000001 7,4.00000001 Z" id="形状" fill="#FC6C37"></path>
                    </g>
                </g>
            </g>
        </g>
    </g>
</svg>