<?xml version="1.0" encoding="UTF-8"?>
<svg width="28px" height="28px" viewBox="0 0 28 28" version="1.1" xmlns="http://www.w3.org/2000/svg" xmlns:xlink="http://www.w3.org/1999/xlink">
    <title>tab/ic/sel/activity@2x</title>
    <defs>
        <filter x="-15.0%" y="-75.0%" width="130.0%" height="250.0%" filterUnits="objectBoundingBox" id="filter-1">
            <feGaussianBlur stdDeviation="1" in="SourceGraphic"></feGaussianBlur>
        </filter>
        <path d="M8,0 C8.27614237,-5.07265313e-17 8.5,0.223857625 8.5,0.5 L8.5,1.932 L14.5,1.932 L14.5,0.5 C14.5,0.223857625 14.7238576,5.07265313e-17 15,0 L16,0 C16.2761424,-5.07265313e-17 16.5,0.223857625 16.5,0.5 L16.5,1.932 L19,1.93226985 C21.1421954,1.93226985 22.8910789,3.70486824 22.9951047,5.93264844 L23,6.14279617 L23,17.7217435 C23,19.9766861 21.3160315,21.817616 19.1996403,21.9271169 L19,21.9322699 L4,21.9322699 C1.85780461,21.9322699 0.108921124,20.1596715 0.00489530723,17.9318913 L0,17.7217435 L0,6.14279617 C0,3.88785365 1.68396847,2.04692367 3.80035966,1.93742281 L4,1.93226985 L6.5,1.932 L6.5,0.5 C6.5,0.223857625 6.72385763,5.07265313e-17 7,0 L8,0 Z M14.9414636,9.65880648 C14.7462014,9.46354433 14.4296189,9.46354433 14.2343568,9.65880648 L14.2343568,9.65880648 L11.0516033,12.8413599 L9.2832635,11.07302 C9.08800135,10.8777579 8.77141886,10.8777579 8.57615672,11.07302 L8.57615672,11.07302 L7.86904994,11.7801268 C7.67378779,11.975389 7.67378779,12.2919715 7.86904994,12.4872336 L7.86904994,12.4872336 L10.6974771,15.3156607 C10.7842602,15.4024439 10.8950079,15.4506568 11.0084183,15.4602994 L11.0084183,15.4602994 L11.0949884,15.4602994 C11.2083988,15.4506568 11.3191465,15.4024439 11.4059297,15.3156607 L11.4059297,15.3156607 L15.6485704,11.07302 C15.8438325,10.8777579 15.8438325,10.5611754 15.6485704,10.3659133 L15.6485704,10.3659133 Z" id="path-2"></path>
        <filter x="-46.2%" y="-109.1%" width="192.3%" height="318.2%" filterUnits="objectBoundingBox" id="filter-4">
            <feGaussianBlur stdDeviation="4" in="SourceGraphic"></feGaussianBlur>
        </filter>
    </defs>
    <g id="1⃣️首页" stroke="none" stroke-width="1" fill="none" fill-rule="evenodd">
        <g id="首页切图" transform="translate(-257.000000, -217.000000)">
            <g id="tab/ic/sel/activity" transform="translate(257.000000, 217.000000)">
                <g id="椭圆形" transform="translate(2.500000, 3.369556)">
                    <path d="M1.5,17.9322699 L21.5,17.9322699 C21.5,20.1414089 19.709139,21.9322699 17.5,21.9322699 L5.5,21.9322699 C3.290861,21.9322699 1.5,20.1414089 1.5,17.9322699 L1.5,17.9322699 L1.5,17.9322699 Z" id="shadow" fill="#F55A21" filter="url(#filter-1)"></path>
                    <mask id="mask-3" fill="white">
                        <use xlink:href="#path-2"></use>
                    </mask>
                    <use id="蒙版" fill="#F55B22" fill-rule="nonzero" xlink:href="#path-2"></use>
                    <ellipse fill="#FF7D13" filter="url(#filter-4)" mask="url(#mask-3)" cx="11.5" cy="4.15237099" rx="13" ry="5.5"></ellipse>
                </g>
            </g>
        </g>
    </g>
</svg>