<?xml version="1.0" encoding="UTF-8"?>
<svg width="28px" height="28px" viewBox="0 0 28 28" version="1.1" xmlns="http://www.w3.org/2000/svg" xmlns:xlink="http://www.w3.org/1999/xlink">
    <title>tab/ic/nor/activity@2x</title>
    <g id="1⃣️首页" stroke="none" stroke-width="1" fill="none" fill-rule="evenodd">
        <g id="首页切图" transform="translate(-257.000000, -140.000000)" fill="#38364D" fill-rule="nonzero">
            <g id="tab" transform="translate(36.000000, 134.000000)">
                <g id="tab/ic/nor/activity" transform="translate(221.000000, 6.000000)">
                    <path d="M10.5,3.36955561 C10.7761424,3.36955561 11,3.59341324 11,3.86955561 L11,5.30155561 L17,5.30155561 L17,3.86955561 C17,3.59341324 17.2238576,3.36955561 17.5,3.36955561 L18.5,3.36955561 C18.7761424,3.36955561 19,3.59341324 19,3.86955561 L19,5.30155561 L21.5,5.30182547 C23.6421954,5.30182547 25.3910789,7.07442386 25.4951047,9.30220405 L25.5,9.51235178 L25.5,21.0912992 C25.5,23.4167086 23.709139,25.3018255 21.5,25.3018255 L21.5,25.3018255 L6.5,25.3018255 C4.290861,25.3018255 2.5,23.4167086 2.5,21.0912992 L2.5,21.0912992 L2.5,9.51235178 C2.5,7.18694231 4.290861,5.30182547 6.5,5.30182547 L6.5,5.30182547 L9,5.30155561 L9,3.86955561 C9,3.59341324 9.22385763,3.36955561 9.5,3.36955561 L10.5,3.36955561 Z M9,7.40655561 L6.5,7.40708862 C5.3954305,7.40708862 4.5,8.34964705 4.5,9.51235178 L4.5,9.51235178 L4.5,21.0912992 C4.5,22.2540039 5.3954305,23.1965623 6.5,23.1965623 L6.5,23.1965623 L21.5,23.1965623 C22.6045695,23.1965623 23.5,22.2540039 23.5,21.0912992 L23.5,21.0912992 L23.5,9.51235178 C23.5,8.34964705 22.6045695,7.40708862 21.5,7.40708862 L21.5,7.40708862 L19,7.40655561 L19,8.86955561 C19,9.14569799 18.7761424,9.36955561 18.5,9.36955561 L17.5,9.36955561 C17.2238576,9.36955561 17,9.14569799 17,8.86955561 L17,7.40655561 L11,7.40655561 L11,8.86955561 C11,9.14569799 10.7761424,9.36955561 10.5,9.36955561 L9.5,9.36955561 C9.22385763,9.36955561 9,9.14569799 9,8.86955561 L9,7.40655561 Z M17.4414636,13.0283621 L18.1485704,13.7354689 C18.3438325,13.930731 18.3438325,14.2473135 18.1485704,14.4425757 L13.9059297,18.6852163 C13.8191465,18.7719995 13.7083988,18.8202124 13.5949884,18.829855 L13.5084183,18.829855 C13.3950079,18.8202124 13.2842602,18.7719995 13.1974771,18.6852163 L10.3690499,15.8567892 C10.1737878,15.6615271 10.1737878,15.3449446 10.3690499,15.1496824 L11.0761567,14.4425757 C11.2714189,14.2473135 11.5880014,14.2473135 11.7832635,14.4425757 L13.5516033,16.2109155 L16.7343568,13.0283621 C16.9296189,12.8330999 17.2462014,12.8330999 17.4414636,13.0283621 Z" id="形状结合"></path>
                </g>
            </g>
        </g>
    </g>
</svg>