<?xml version="1.0" encoding="UTF-8"?>
<svg width="28px" height="28px" viewBox="0 0 28 28" version="1.1" xmlns="http://www.w3.org/2000/svg" xmlns:xlink="http://www.w3.org/1999/xlink">
    <title>tab/ic/nor/course@2x</title>
    <g id="1⃣️首页" stroke="none" stroke-width="1" fill="none" fill-rule="evenodd">
        <g id="首页切图" transform="translate(-163.000000, -140.000000)" fill="#38364D" fill-rule="nonzero">
            <g id="tab" transform="translate(36.000000, 134.000000)">
                <g id="tab/ic/nor/course" transform="translate(127.000000, 6.000000)">
                    <path d="M6.5,3.9886611 C6.75083924,3.9886611 7.0011224,4.0122561 7.24754227,4.05913434 L7.24754227,4.05913434 L13.6387132,5.27497296 C13.8859845,5.32201317 14.1399131,5.32195454 14.3871627,5.27480016 L14.3871627,5.27480016 L20.7506433,4.06118415 C22.9206701,3.64732585 25.0153228,5.07098172 25.4291811,7.24100855 C25.4762888,7.48801289 25.5,7.73890899 25.5,7.9903653 L25.5,7.9903653 L25.5,19.3822224 C25.5,21.3024051 24.1355432,22.951678 22.2493567,23.3114035 L22.2493567,23.3114035 L14.761841,24.7393907 C14.267342,24.8336995 13.7594846,24.8338168 13.264942,24.7397363 L13.264942,24.7397363 L5.75245773,23.3105822 C3.86542207,22.9515977 2.5,21.3019337 2.5,19.3810554 L2.5,19.3810554 L2.5,7.9886611 C2.5,5.7795221 4.290861,3.9886611 6.5,3.9886611 Z M6.5,5.9886611 C5.3954305,5.9886611 4.5,6.8840916 4.5,7.9886611 L4.5,7.9886611 L4.5,19.3810554 C4.5,20.3414945 5.18271104,21.1663266 6.12622886,21.3458188 L6.12622886,21.3458188 L13.6387132,22.774973 C13.8859845,22.8220132 14.1399131,22.8219545 14.3871627,22.7748002 L14.3871627,22.7748002 L21.8746784,21.3468129 C22.8177716,21.1669502 23.5,20.3423137 23.5,19.3822224 L23.5,19.3822224 L23.5,7.9903653 C23.5,7.86463714 23.4881444,7.73918909 23.4645906,7.61568692 C23.2576614,6.53067351 22.210335,5.81884557 21.1253216,6.02577473 L21.1253216,6.02577473 L15,7.1926611 L15,13.8641466 C15,14.1402889 14.7761424,14.3641466 14.5,14.3641466 L13.5,14.3641466 C13.2238576,14.3641466 13,14.1402889 13,13.8641466 L13,7.1896611 L6.87377114,6.02389772 C6.79163118,6.00827164 6.70863271,5.99781961 6.6252657,5.99258782 Z" id="形状结合"></path>
                </g>
            </g>
        </g>
    </g>
</svg>