<?xml version="1.0" encoding="UTF-8"?>
<svg width="28px" height="28px" viewBox="0 0 28 28" version="1.1" xmlns="http://www.w3.org/2000/svg" xmlns:xlink="http://www.w3.org/1999/xlink">
    <title>tab/ic/nor/home@2x</title>
    <g id="1⃣️首页" stroke="none" stroke-width="1" fill="none" fill-rule="evenodd">
        <g id="首页切图" transform="translate(-69.000000, -140.000000)" fill="#38364D" fill-rule="nonzero">
            <g id="tab" transform="translate(36.000000, 134.000000)">
                <g id="tab/ic/nor/home" transform="translate(33.000000, 6.000000)">
                    <path d="M13.1844777,3.15405612 C13.7544783,3.02083296 14.3241735,3.02179973 14.8937186,3.15695671 C15.3432405,3.26363134 15.7226548,3.42170873 16.2611375,3.74625453 L16.2611375,3.74625453 L16.6462066,3.9885431 L16.8611309,4.13055149 L23.3681241,8.48598828 L23.7136694,8.72957507 C24.1287092,9.03305057 24.3745792,9.26255022 24.6142321,9.55309393 C24.9332181,9.9398171 25.1608968,10.3661099 25.3049116,10.8462834 C25.4266342,11.25213 25.4797707,11.6215513 25.4950692,12.2542881 L25.4950692,12.2542881 L25.5,12.7184116 L25.5,20.0993136 C25.5,21.4695032 25.3663256,22.1617259 24.9811141,22.8820088 C24.6264537,23.5451661 24.1000248,24.0715951 23.4368674,24.4262555 C22.7165846,24.811467 22.0243618,24.9451414 20.6541722,24.9451414 L20.6541722,24.9451414 L7.3458278,24.9451414 C5.97563815,24.9451414 5.28341544,24.811467 4.56313259,24.4262555 C3.89997522,24.0715951 3.3735463,23.5451661 3.01888586,22.8820088 C2.63367437,22.1617259 2.5,21.4695032 2.5,20.0993136 L2.5,20.0993136 L2.5,12.7259227 L2.50496901,12.2605713 C2.52038506,11.6261199 2.57392319,11.2555155 2.6965071,10.8484714 C2.84148996,10.3670507 3.07060374,9.93981723 3.39140368,9.55268252 C3.66264201,9.22535773 3.94172885,8.97570904 4.46168975,8.61183138 L4.46168975,8.61183138 L4.8465726,8.35021751 L11.4291774,3.97968977 C12.1892351,3.48822723 12.6346227,3.28257075 13.1844777,3.15405612 Z M14.2723316,5.07231948 C14.0609782,5.04163685 13.8543379,5.05139417 13.6396595,5.10156978 C13.4464797,5.14672066 13.2726363,5.21107954 13.019619,5.35098449 L13.019619,5.35098449 L12.7810599,5.49071811 L12.489936,5.67533795 L5.9531546,10.0161936 L5.67094072,10.206588 L5.44859231,10.3637235 C5.41589396,10.3876109 5.38521819,10.4104649 5.35632911,10.4324615 L5.35632911,10.4324615 L5.20254758,10.5555632 L5.08032309,10.6665454 C5.06195301,10.6845023 5.04442601,10.7023065 5.02750617,10.7201342 L5.02750617,10.7201342 L4.93138587,10.8287918 C4.78106776,11.0101926 4.67948416,11.1996177 4.61154914,11.4251983 C4.60457351,11.4483611 4.59798584,11.4714288 4.59176991,11.4946952 L4.59176991,11.4946952 L4.55880547,11.6390307 L4.53398434,11.8022477 L4.51652806,11.9984569 L4.50565818,12.2417691 L4.50059625,12.546295 L4.5,20.0993136 L4.50467769,20.5170565 C4.52375106,21.2764499 4.60330814,21.6037285 4.78251225,21.9388111 C4.95077309,22.2534315 5.19170989,22.4943683 5.5063303,22.6626291 C5.81348932,22.8268995 6.11409085,22.9074388 6.74698433,22.9344126 L6.74698433,22.9344126 L7.1271902,22.9439946 L20.8728098,22.9439946 L21.2530157,22.9344126 C21.8859092,22.9074388 22.1865107,22.8268995 22.4936697,22.6626291 C22.8082901,22.4943683 23.0492269,22.2534315 23.2174877,21.9388111 C23.3966919,21.6037285 23.4762489,21.2764499 23.4953223,20.5170565 L23.4953223,20.5170565 L23.5,20.0993136 L23.5,12.7184116 L23.4943819,12.2353728 L23.4835881,11.9926383 L23.4662529,11.7969102 C23.4627756,11.7674238 23.4589935,11.7393094 23.4548905,11.7122736 L23.4548905,11.7122736 L23.4262923,11.5606551 L23.3892182,11.420843 C23.3217429,11.1958672 23.2208213,11.0069073 23.0713668,10.8257158 C23.0560209,10.8071112 23.0405394,10.7888795 23.0246875,10.7708444 L23.0246875,10.7708444 L22.9232523,10.6635788 L22.8016554,10.5525552 L22.6486251,10.4293005 L22.4528897,10.2853414 L22.2031776,10.1122048 L15.748901,5.79276222 L15.4270398,5.58164915 L15.1644702,5.41956584 C14.8477899,5.23261645 14.6525301,5.1552643 14.4319295,5.10291427 L14.4319295,5.10291427 Z M17.5,17.4451414 C17.7761424,17.4451414 18,17.668999 18,17.9451414 L18,18.9451414 C18,19.2212837 17.7761424,19.4451414 17.5,19.4451414 L10.5,19.4451414 C10.2238576,19.4451414 10,19.2212837 10,18.9451414 L10,17.9451414 C10,17.668999 10.2238576,17.4451414 10.5,17.4451414 L17.5,17.4451414 Z" id="形状结合"></path>
                </g>
            </g>
        </g>
    </g>
</svg>