<?xml version="1.0" encoding="UTF-8"?>
<svg width="28px" height="28px" viewBox="0 0 28 28" version="1.1" xmlns="http://www.w3.org/2000/svg" xmlns:xlink="http://www.w3.org/1999/xlink">
    <title>tab/ic/sel/home@2x</title>
    <defs>
        <filter x="-15.0%" y="-75.0%" width="130.0%" height="250.0%" filterUnits="objectBoundingBox" id="filter-1">
            <feGaussianBlur stdDeviation="1" in="SourceGraphic"></feGaussianBlur>
        </filter>
        <path d="M10.6844777,0.0991974836 C11.2544783,-0.0340256818 11.8241735,-0.0330589057 12.3937186,0.102098075 C12.8432405,0.208772702 13.2226548,0.366850088 13.7611375,0.691395889 L13.7611375,0.691395889 L14.1462066,0.933684466 L14.3611309,1.07569285 L20.8681241,5.43112964 L21.2136694,5.67471643 C21.6287092,5.97819193 21.8745792,6.20769158 22.1142321,6.49823529 C22.4332181,6.88495847 22.6608968,7.31125124 22.8049116,7.79142472 C22.9266342,8.19727138 22.9797707,8.56669267 22.9950692,9.19942942 L22.9950692,9.19942942 L23,9.66355295 L23,17.0444549 C23,18.4146446 22.8663256,19.1068673 22.4811141,19.8271501 C22.1264537,20.4903075 21.6000248,21.0167364 20.9368674,21.3713969 C20.2165846,21.7566084 19.5243618,21.8902827 18.1541722,21.8902827 L18.1541722,21.8902827 L4.8458278,21.8902827 C3.47563815,21.8902827 2.78341544,21.7566084 2.06313259,21.3713969 C1.39997522,21.0167364 0.873546296,20.4903075 0.518885858,19.8271501 C0.133674373,19.1068673 0,18.4146446 0,17.0444549 L0,17.0444549 L0,9.67106411 L0.00496900686,9.2057127 C0.0203850593,8.57126125 0.073923195,8.20065689 0.1965071,7.79361274 C0.341489961,7.31219207 0.570603742,6.8849586 0.891403681,6.49782389 C1.16264201,6.1704991 1.44172885,5.92085041 1.96168975,5.55697274 L1.96168975,5.55697274 L2.3465726,5.29535887 L8.92917741,0.924831137 C9.68923506,0.43336859 10.1346227,0.227712114 10.6844777,0.0991974836 Z M15,14.3902827 L8,14.3902827 C7.72385763,14.3902827 7.5,14.6141404 7.5,14.8902827 L7.5,14.8902827 L7.5,15.8902827 C7.5,16.1664251 7.72385763,16.3902827 8,16.3902827 L8,16.3902827 L15,16.3902827 C15.2761424,16.3902827 15.5,16.1664251 15.5,15.8902827 L15.5,15.8902827 L15.5,14.8902827 C15.5,14.6141404 15.2761424,14.3902827 15,14.3902827 L15,14.3902827 Z" id="path-2"></path>
        <filter x="-46.2%" y="-120.0%" width="192.3%" height="340.0%" filterUnits="objectBoundingBox" id="filter-4">
            <feGaussianBlur stdDeviation="4" in="SourceGraphic"></feGaussianBlur>
        </filter>
    </defs>
    <g id="1⃣️首页" stroke="none" stroke-width="1" fill="none" fill-rule="evenodd">
        <g id="首页切图" transform="translate(-69.000000, -217.000000)">
            <g id="tab/ic/sel/home" transform="translate(69.000000, 217.000000)">
                <g id="椭圆形" transform="translate(2.500000, 3.054859)">
                    <path d="M1.5,17.8902827 L21.5,17.8902827 C21.5,20.0994217 19.709139,21.8902827 17.5,21.8902827 L5.5,21.8902827 C3.290861,21.8902827 1.5,20.0994217 1.5,17.8902827 L1.5,17.8902827 L1.5,17.8902827 Z" id="shadow" fill="#F55A21" filter="url(#filter-1)"></path>
                    <mask id="mask-3" fill="white">
                        <use xlink:href="#path-2"></use>
                    </mask>
                    <use id="蒙版" fill="#F55B22" fill-rule="nonzero" xlink:href="#path-2"></use>
                    <ellipse fill="#FF7D13" filter="url(#filter-4)" mask="url(#mask-3)" cx="11.5" cy="1.94514136" rx="13" ry="5"></ellipse>
                </g>
            </g>
        </g>
    </g>
</svg>