<?xml version="1.0" encoding="UTF-8"?>
<svg width="28px" height="28px" viewBox="0 0 28 28" version="1.1" xmlns="http://www.w3.org/2000/svg" xmlns:xlink="http://www.w3.org/1999/xlink">
    <title>tab/ic/sel/mine@2x</title>
    <defs>
        <filter x="-15.0%" y="-30.0%" width="130.0%" height="160.0%" filterUnits="objectBoundingBox" id="filter-1">
            <feGaussianBlur stdDeviation="1" in="SourceGraphic"></feGaussianBlur>
        </filter>
        <path d="M11.5,0 C17.8512746,0 23,5.14872538 23,11.5 C23,17.8512746 17.8512746,23 11.5,23 C5.14872538,23 0,17.8512746 0,11.5 C0,5.14872538 5.14872538,0 11.5,0 Z M14.0132681,13.2781265 C13.935303,13.278956 13.8624454,13.325503 13.830876,13.4007419 C13.4048564,14.4160686 12.6860814,14.9535624 11.6745511,15.0132235 L11.6745511,15.0132235 L11.5,15.0192681 L11.3254489,15.0132235 C10.3139186,14.9535624 9.59514364,14.4160686 9.16912402,13.4007419 C9.12966227,13.3066933 9.02568774,13.2574758 8.92786567,13.2863424 L8.92786567,13.2863424 L7.38857502,13.7445088 C7.38703648,13.7449667 7.38550334,13.7454426 7.38397593,13.7459364 C7.27575464,13.7809229 7.21638614,13.8970158 7.25137265,14.0052371 C7.87496283,15.7902496 9.56728265,17.0192681 11.5,17.0192681 L11.5,17.0192681 L11.713715,17.0142446 C13.5566084,16.927467 15.1481331,15.7241381 15.7486273,14.0052371 C15.7836139,13.8970158 15.7242454,13.7809229 15.6160241,13.7459364 C15.6144967,13.7454426 15.6129635,13.7449667 15.611425,13.7445088 L15.611425,13.7445088 L14.0721343,13.2863424 Z" id="path-2"></path>
        <filter x="-46.2%" y="-120.0%" width="192.3%" height="340.0%" filterUnits="objectBoundingBox" id="filter-4">
            <feGaussianBlur stdDeviation="4" in="SourceGraphic"></feGaussianBlur>
        </filter>
    </defs>
    <g id="1⃣️首页" stroke="none" stroke-width="1" fill="none" fill-rule="evenodd">
        <g id="首页切图" transform="translate(-351.000000, -217.000000)">
            <g id="tab/ic/sel/mine" transform="translate(351.000000, 217.000000)">
                <g id="椭圆形" transform="translate(2.500000, 2.500000)">
                    <path d="M1.5,12.8464231 C1.5,18.3692706 5.79383426,22.8464231 11.5,22.8464231 C17.2061657,22.8464231 21.5,18.3692706 21.5,12.8464231 C17.0463759,16.8178981 13.7061578,18.8036356 11.4793457,18.8036356 C9.26171331,18.8036356 5.93526475,16.8178981 1.5,12.8464231 Z" id="shadow" fill="#F55A21" filter="url(#filter-1)"></path>
                    <mask id="mask-3" fill="white">
                        <use xlink:href="#path-2"></use>
                    </mask>
                    <use id="蒙版" fill="#F55B22" fill-rule="nonzero" xlink:href="#path-2"></use>
                    <ellipse fill="#FF7D13" filter="url(#filter-4)" mask="url(#mask-3)" cx="11.5" cy="2.86883281" rx="13" ry="5"></ellipse>
                </g>
            </g>
        </g>
    </g>
</svg>