<?xml version="1.0" encoding="UTF-8"?>
<svg width="28px" height="28px" viewBox="0 0 28 28" version="1.1" xmlns="http://www.w3.org/2000/svg" xmlns:xlink="http://www.w3.org/1999/xlink">
    <title>tab/ic/nor/mine@2x</title>
    <g id="1⃣️首页" stroke="none" stroke-width="1" fill="none" fill-rule="evenodd">
        <g id="首页切图" transform="translate(-351.000000, -140.000000)" fill="#38364D" fill-rule="nonzero">
            <g id="tab" transform="translate(36.000000, 134.000000)">
                <g id="tab/ic/nor/mine" transform="translate(315.000000, 6.000000)">
                    <path d="M14,2.5 C20.3512746,2.5 25.5,7.64872538 25.5,14 C25.5,20.3512746 20.3512746,25.5 14,25.5 C7.64872538,25.5 2.5,20.3512746 2.5,14 C2.5,7.64872538 7.64872538,2.5 14,2.5 Z M14,4.5 C8.75329488,4.5 4.5,8.75329488 4.5,14 C4.5,19.2467051 8.75329488,23.5 14,23.5 C19.2467051,23.5 23.5,19.2467051 23.5,14 C23.5,8.75329488 19.2467051,4.5 14,4.5 Z M16.5132681,15.7781265 L16.5721343,15.7863424 L18.111425,16.2445088 C18.1129635,16.2449667 18.1144967,16.2454426 18.1160241,16.2459364 C18.2242454,16.2809229 18.2836139,16.3970158 18.2486273,16.5052371 C17.6481331,18.2241381 16.0566084,19.427467 14.213715,19.5142446 L14,19.5192681 C12.0672827,19.5192681 10.3749628,18.2902496 9.75137265,16.5052371 C9.71638614,16.3970158 9.77575464,16.2809229 9.88397593,16.2459364 C9.88550334,16.2454426 9.88703648,16.2449667 9.88857502,16.2445088 L11.4278657,15.7863424 C11.5256877,15.7574758 11.6296623,15.8066933 11.669124,15.9007419 C12.0951436,16.9160686 12.8139186,17.4535624 13.8254489,17.5132235 L14,17.5192681 L14.1745511,17.5132235 C15.1860814,17.4535624 15.9048564,16.9160686 16.330876,15.9007419 C16.3624454,15.825503 16.435303,15.778956 16.5132681,15.7781265 Z" id="形状结合"></path>
                </g>
            </g>
        </g>
    </g>
</svg>