<?xml version="1.0" encoding="UTF-8"?>
<svg width="28px" height="28px" viewBox="0 0 28 28" version="1.1" xmlns="http://www.w3.org/2000/svg" xmlns:xlink="http://www.w3.org/1999/xlink">
    <title>tab/ic/nor/home@2x</title>
    <g id="1⃣️首页" stroke="none" stroke-width="1" fill="none" fill-rule="evenodd">
        <g id="首页切图" transform="translate(-460.000000, -140.000000)">
            <rect fill="#FFFFFF" x="0" y="0" width="643" height="326"></rect>
            <g id="编组" transform="translate(460.002079, 140.000000)" fill="#38364D">
                <g id="活动" transform="translate(2.501041, 3.215241)">
                    <path d="M15.9989593,19.7299003 C16.2751017,19.7299003 16.4989593,19.9537579 16.4989593,20.2299003 L16.4989593,21.2299003 C16.4989593,21.5060426 16.2751017,21.7299003 15.9989593,21.7299003 L6.99895929,21.7299003 C6.72281691,21.7299003 6.49895929,21.5060426 6.49895929,21.2299003 L6.49895929,20.2299003 C6.49895929,19.9537579 6.72281691,19.7299003 6.99895929,19.7299003 L15.9989593,19.7299003 Z M18.8164788,0 C21.1258242,0 22.9979186,1.76446961 22.9979186,3.94105318 L22.9979186,3.94105318 L22.9979186,13.7936861 C22.9979186,15.9702697 21.1258242,17.7347393 18.8164788,17.7347393 L18.8164788,17.7347393 L4.18143974,17.7347393 C1.87209434,17.7347393 0,15.9702697 0,13.7936861 L0,13.7936861 L0,3.94105318 C0,1.76446961 1.87209434,0 4.18143974,0 L4.18143974,0 Z M18.8164788,1.97052659 L4.18143974,1.97052659 C3.02676704,1.97052659 2.09071987,2.8527614 2.09071987,3.94105318 L2.09071987,3.94105318 L2.09071987,13.7936861 C2.09071987,14.8819779 3.02676704,15.7642127 4.18143974,15.7642127 L4.18143974,15.7642127 L18.8164788,15.7642127 C19.9711515,15.7642127 20.9071987,14.8819779 20.9071987,13.7936861 L20.9071987,13.7936861 L20.9071987,3.94105318 C20.9071987,2.8527614 19.9711515,1.97052659 18.8164788,1.97052659 L18.8164788,1.97052659 Z M15.6605234,6.85329582 L16.2945955,7.62656978 C16.4696896,7.84010348 16.4385282,8.15514862 16.2249945,8.33024279 L12.5952025,11.3066132 C12.2410453,11.5970163 11.740224,11.6069547 11.3769219,11.3450278 L11.2814626,11.2668592 L9.59527234,9.70399676 L8.19519871,10.9353214 C8.01088504,11.0974295 7.74077926,11.0994332 7.55495007,10.9522429 L7.48954747,10.8900631 L7.48954747,10.8900631 L6.82915535,10.1391421 C6.6467931,9.93178104 6.66705866,9.61584785 6.87441975,9.4334856 L8.9521424,7.60624705 C9.30512762,7.29581668 9.82092411,7.27626322 10.1941714,7.54362152 L10.2922024,7.62364796 L12.0012723,9.20699676 L14.9568377,6.78367937 C15.1703851,6.60861422 15.4854187,6.63978087 15.6605234,6.85329582 Z" id="形状结合"></path>
                </g>
            </g>
            <g id="tab/ic/nor/work" transform="translate(460.002079, 140.000000)" fill="#38364D">
                <g id="活动" transform="translate(2.501041, 3.215241)">
                    <path d="M15.9989593,19.7299003 C16.2751017,19.7299003 16.4989593,19.9537579 16.4989593,20.2299003 L16.4989593,21.2299003 C16.4989593,21.5060426 16.2751017,21.7299003 15.9989593,21.7299003 L6.99895929,21.7299003 C6.72281691,21.7299003 6.49895929,21.5060426 6.49895929,21.2299003 L6.49895929,20.2299003 C6.49895929,19.9537579 6.72281691,19.7299003 6.99895929,19.7299003 L15.9989593,19.7299003 Z M18.8164788,0 C21.1258242,0 22.9979186,1.76446961 22.9979186,3.94105318 L22.9979186,3.94105318 L22.9979186,13.7936861 C22.9979186,15.9702697 21.1258242,17.7347393 18.8164788,17.7347393 L18.8164788,17.7347393 L4.18143974,17.7347393 C1.87209434,17.7347393 0,15.9702697 0,13.7936861 L0,13.7936861 L0,3.94105318 C0,1.76446961 1.87209434,0 4.18143974,0 L4.18143974,0 Z M18.8164788,1.97052659 L4.18143974,1.97052659 C3.02676704,1.97052659 2.09071987,2.8527614 2.09071987,3.94105318 L2.09071987,3.94105318 L2.09071987,13.7936861 C2.09071987,14.8819779 3.02676704,15.7642127 4.18143974,15.7642127 L4.18143974,15.7642127 L18.8164788,15.7642127 C19.9711515,15.7642127 20.9071987,14.8819779 20.9071987,13.7936861 L20.9071987,13.7936861 L20.9071987,3.94105318 C20.9071987,2.8527614 19.9711515,1.97052659 18.8164788,1.97052659 L18.8164788,1.97052659 Z M15.6605234,6.85329582 L16.2945955,7.62656978 C16.4696896,7.84010348 16.4385282,8.15514862 16.2249945,8.33024279 L12.5952025,11.3066132 C12.2410453,11.5970163 11.740224,11.6069547 11.3769219,11.3450278 L11.2814626,11.2668592 L9.59527234,9.70399676 L8.19519871,10.9353214 C8.01088504,11.0974295 7.74077926,11.0994332 7.55495007,10.9522429 L7.48954747,10.8900631 L7.48954747,10.8900631 L6.82915535,10.1391421 C6.6467931,9.93178104 6.66705866,9.61584785 6.87441975,9.4334856 L8.9521424,7.60624705 C9.30512762,7.29581668 9.82092411,7.27626322 10.1941714,7.54362152 L10.2922024,7.62364796 L12.0012723,9.20699676 L14.9568377,6.78367937 C15.1703851,6.60861422 15.4854187,6.63978087 15.6605234,6.85329582 Z" id="形状结合"></path>
                </g>
            </g>
        </g>
    </g>
</svg>