<?xml version="1.0" encoding="UTF-8"?>
<svg width="28px" height="28px" viewBox="0 0 28 28" version="1.1" xmlns="http://www.w3.org/2000/svg" xmlns:xlink="http://www.w3.org/1999/xlink">
    <title>tab/ic/nor/home@2x</title>
    <defs>
        <filter x="-35.0%" y="-292.7%" width="169.9%" height="685.4%" filterUnits="objectBoundingBox" id="filter-1">
            <feGaussianBlur stdDeviation="1" in="SourceGraphic"></feGaussianBlur>
        </filter>
        <filter x="-14.3%" y="-83.7%" width="128.6%" height="267.5%" filterUnits="objectBoundingBox" id="filter-2">
            <feGaussianBlur stdDeviation="1" in="SourceGraphic"></feGaussianBlur>
        </filter>
        <path d="M18.8162751,0 C21.1255955,0 22.9976696,1.790861 22.9976696,4 L22.9976696,4 L22.9976696,13.7299003 C22.9976696,15.9390393 21.1255955,17.7299003 18.8162751,17.7299003 L18.8162751,17.7299003 L4.18139447,17.7299003 C1.87207407,17.7299003 0,15.9390393 0,13.7299003 L0,13.7299003 L0,4 C0,1.790861 1.87207407,0 4.18139447,0 L4.18139447,0 Z M15.829247,6.83011127 C15.6550383,6.62687393 15.3516691,6.59689024 15.1410454,6.76209242 L15.1410454,6.76209242 L12.0239271,9.20699676 L10.2373531,7.62364796 L10.1348765,7.54362152 C9.74470304,7.27626322 9.2055159,7.29581668 8.83652328,7.60624705 L8.83652328,7.60624705 L6.67190619,9.42732111 L6.67190619,9.42732111 L6.6553983,9.44184069 C6.45210815,9.6287303 6.43881289,9.94503349 6.6257025,10.1483236 L6.6257025,10.1483236 L7.32893532,10.9132688 C7.51004205,11.1102686 7.81414861,11.1297541 8.01891647,10.9574791 L8.01891647,10.9574791 L9.50881828,9.70399676 L11.2714749,11.2668592 L11.3712632,11.3450278 C11.7510405,11.6069547 12.2745734,11.5970163 12.6447911,11.3066132 L12.6447911,11.3066132 L16.4324642,8.33551797 C16.4381659,8.33104546 16.4437697,8.32644952 16.4492717,8.32173341 C16.6589319,8.14201919 16.683208,7.82636884 16.5034938,7.61670861 L16.5034938,7.61670861 Z" id="path-3"></path>
        <filter x="-46.2%" y="-120.0%" width="192.3%" height="340.0%" filterUnits="objectBoundingBox" id="filter-5">
            <feGaussianBlur stdDeviation="4" in="SourceGraphic"></feGaussianBlur>
        </filter>
        <filter x="-35.0%" y="-292.7%" width="169.9%" height="685.4%" filterUnits="objectBoundingBox" id="filter-6">
            <feGaussianBlur stdDeviation="1" in="SourceGraphic"></feGaussianBlur>
        </filter>
        <filter x="-14.3%" y="-83.7%" width="128.6%" height="267.5%" filterUnits="objectBoundingBox" id="filter-7">
            <feGaussianBlur stdDeviation="1" in="SourceGraphic"></feGaussianBlur>
        </filter>
        <path d="M18.8162751,0 C21.1255955,0 22.9976696,1.790861 22.9976696,4 L22.9976696,4 L22.9976696,13.7299003 C22.9976696,15.9390393 21.1255955,17.7299003 18.8162751,17.7299003 L18.8162751,17.7299003 L4.18139447,17.7299003 C1.87207407,17.7299003 0,15.9390393 0,13.7299003 L0,13.7299003 L0,4 C0,1.790861 1.87207407,0 4.18139447,0 L4.18139447,0 Z M15.829247,6.83011127 C15.6550383,6.62687393 15.3516691,6.59689024 15.1410454,6.76209242 L15.1410454,6.76209242 L12.0239271,9.20699676 L10.2373531,7.62364796 L10.1348765,7.54362152 C9.74470304,7.27626322 9.2055159,7.29581668 8.83652328,7.60624705 L8.83652328,7.60624705 L6.67190619,9.42732111 L6.67190619,9.42732111 L6.6553983,9.44184069 C6.45210815,9.6287303 6.43881289,9.94503349 6.6257025,10.1483236 L6.6257025,10.1483236 L7.32893532,10.9132688 C7.51004205,11.1102686 7.81414861,11.1297541 8.01891647,10.9574791 L8.01891647,10.9574791 L9.50881828,9.70399676 L11.2714749,11.2668592 L11.3712632,11.3450278 C11.7510405,11.6069547 12.2745734,11.5970163 12.6447911,11.3066132 L12.6447911,11.3066132 L16.4324642,8.33551797 C16.4381659,8.33104546 16.4437697,8.32644952 16.4492717,8.32173341 C16.6589319,8.14201919 16.683208,7.82636884 16.5034938,7.61670861 L16.5034938,7.61670861 Z" id="path-8"></path>
        <filter x="-46.2%" y="-120.0%" width="192.3%" height="340.0%" filterUnits="objectBoundingBox" id="filter-10">
            <feGaussianBlur stdDeviation="4" in="SourceGraphic"></feGaussianBlur>
        </filter>
    </defs>
    <g id="1⃣️首页" stroke="none" stroke-width="1" fill="none" fill-rule="evenodd">
        <g id="首页切图" transform="translate(-460.000000, -217.000000)">
            <rect fill="#FFFFFF" x="0" y="0" width="643" height="326"></rect>
            <g id="编组" transform="translate(460.002079, 217.000000)">
                <g id="活动" transform="translate(2.501165, 3.215241)">
                    <path d="M7.63484896,20.4483887 L15.3628206,20.4483887 C15.5987404,20.4483887 15.7899911,20.6396395 15.7899911,20.8755592 C15.7899911,21.111479 15.5987404,21.3027298 15.3628206,21.3027298 L7.63484896,21.3027298 C7.3989292,21.3027298 7.20767845,21.111479 7.20767845,20.8755592 C7.20767845,20.6396395 7.3989292,20.4483887 7.63484896,20.4483887 Z" id="shadow" fill="#F55A21" filter="url(#filter-1)"></path>
                    <rect id="矩形备份-23" fill="#F55B22" x="6.4988348" y="19.7299003" width="10" height="2" rx="0.5"></rect>
                    <g id="椭圆形">
                        <path d="M1.02099843,13.6340967 L21.9766712,13.6340967 C21.9766712,15.612902 20.3725326,17.2170406 18.3937273,17.2170406 L4.60394231,17.2170406 C2.62513704,17.2170406 1.02099843,15.612902 1.02099843,13.6340967 L1.02099843,13.6340967 L1.02099843,13.6340967 Z" id="shadow" fill="#F55A21" filter="url(#filter-2)"></path>
                        <mask id="mask-4" fill="white">
                            <use xlink:href="#path-3"></use>
                        </mask>
                        <use id="蒙版" fill="#F55B22" fill-rule="nonzero" xlink:href="#path-3"></use>
                        <ellipse fill="#FF8513" filter="url(#filter-5)" mask="url(#mask-4)" cx="11.4988348" cy="1.7847589" rx="13" ry="5"></ellipse>
                    </g>
                </g>
            </g>
            <g id="tab/ic/sel/work" transform="translate(460.002079, 217.000000)">
                <g id="活动" transform="translate(2.501165, 3.215241)">
                    <path d="M7.63484896,20.4483887 L15.3628206,20.4483887 C15.5987404,20.4483887 15.7899911,20.6396395 15.7899911,20.8755592 C15.7899911,21.111479 15.5987404,21.3027298 15.3628206,21.3027298 L7.63484896,21.3027298 C7.3989292,21.3027298 7.20767845,21.111479 7.20767845,20.8755592 C7.20767845,20.6396395 7.3989292,20.4483887 7.63484896,20.4483887 Z" id="shadow" fill="#F55A21" filter="url(#filter-6)"></path>
                    <rect id="矩形备份-23" fill="#F55B22" x="6.4988348" y="19.7299003" width="10" height="2" rx="0.5"></rect>
                    <g id="椭圆形">
                        <path d="M1.02099843,13.6340967 L21.9766712,13.6340967 C21.9766712,15.612902 20.3725326,17.2170406 18.3937273,17.2170406 L4.60394231,17.2170406 C2.62513704,17.2170406 1.02099843,15.612902 1.02099843,13.6340967 L1.02099843,13.6340967 L1.02099843,13.6340967 Z" id="shadow" fill="#F55A21" filter="url(#filter-7)"></path>
                        <mask id="mask-9" fill="white">
                            <use xlink:href="#path-8"></use>
                        </mask>
                        <use id="蒙版" fill="#F55B22" fill-rule="nonzero" xlink:href="#path-8"></use>
                        <ellipse fill="#FF8513" filter="url(#filter-10)" mask="url(#mask-9)" cx="11.4988348" cy="1.7847589" rx="13" ry="5"></ellipse>
                    </g>
                </g>
            </g>
        </g>
    </g>
</svg>